<?xml version="1.0" encoding="UTF-8"?>
<svg width="400" height="100" version="1.1" xmlns="http://www.w3.org/2000/svg">
 <path d="m17.41 68.77c0 6.6926-2.983 7.4868-3.9431 7.7483-1.5668 0.51317-3.2654 0.0765-3.1134 1.5652 0.0824 0.76858 2.1761 0.63969 2.6106 0.63969 4.0103 0 6.5297-0.18971 10.537-0.18971 2.9615 0 10.321 0.74787 13.454 0.74787 16.987 0 20.592-12.326 20.614-18.752 0.0381-12.213-13.689-14.018-13.689-15.304 0-0.59957 8.555-3.865 8.555-12.619 0-6.3533-4.19-14.646-19.522-14.646-6.968 0-8.3778 0.63485-11.864 0.63485-3.4833 0-8.3676-0.82214-10.109-0.82214-1.0463 0-1.5555 1.1189 0.31033 1.8681 1.6505 0.66039 6.1585 0.37702 6.1585 6.9006zm6.2608-19.962c0-0.77357-0.4357-1.9763 6.2725-1.9763 20.035 0 20.383 11.379 20.383 16.87 0 5.1481-1.7416 13.066-15.119 13.214-12.368 0.13746-11.537-2.3144-11.537-8.495zm4e-3 -21.581c0-4.9791-0.4332-6.3303 5.0527-6.4397 10.492-0.20798 17.902 5.4157 17.688 14.682-0.11901 5.035-3.5783 9.4084-15.053 9.2332-7.8369-0.12163-7.6874-0.56673-7.6874-3.3165zm73.731 37.604c0.82463 2.3813 1.5289 5.1347 2.2838 6.9311 1.634 3.8881-2.5649 5.305-4.1978 5.1541-1.3223-0.11913-1.0133 2.1648 1.3364 1.7574 2.1926-0.38191 4.9868-0.63612 7.2187-0.63612 3.3832 0 6.2332 0.63612 9.619 0.63612 0.57506 0 2.2788-1.384 0.80309-1.7574-1.0462-0.26266-4.199-0.22493-6.1066-3.4649-1.8341-3.1219-3.1173-6.6671-4.356-9.9302l-17.742-45.431c-0.24695-0.70538-0.82451-3.2618-1.7328-3.2618-1.0716 0-1.3185 1.4108-6.1876 12.522l-19.724 44.975c-2.1483 5.0277-6.5689 3.3823-6.5689 5.2345 0 0.53032 0.7904 1.1141 1.2895 1.1141 2.1432 0 4.6094-0.55948 6.8362-0.55948 2.3117 0 4.6246 0.0852 7.6633 0.56674 2.0608 0.32478 2.5397-1.3621 0.73977-1.7647-2.3332-0.52175-5.8343-1.5408-5.3403-5.3853 0.67259-5.2186 5.4555-14.36 5.4555-14.36 0.82713-1.8498 2.7563-2.464 4.3219-2.464h18.159c2.3092 0 2.7639 0.86116 3.591 2.8909zm-15.594-37.482c0.49401-1.0581 0.90698-1.0581 1.3198 0l8.5868 22.454c0.41297 1.1493 0.49651 1.766-1.3212 1.766h-17.267c-1.0716 0-1.6516-0.35275-1.0716-1.5859zm59.311 20.185c5.7647-2.4045 11.796-8.0062 11.796-14.705 0-16.578-19.993-15.385-21.314-15.385-4.2826 0-9.1428 0.7662-13.922 0.7662-4.2015 0-5.553-0.44027-7.0363-0.44027-0.98799 0-1.6542 0.51567-1.6479 1.0313 0.0126 2.4032 8.9971-1.4327 8.8514 7.7398v43.72c0.0279 6.7316-4.8716 6.5078-6.5816 6.5078-1.9988 0 0.89553 1.9058 1.3895 1.9058 3.1299 0 5.5898-0.78571 8.7209-0.78571 6.8375 0 11.442 0.68955 12.173 0.8088 1.9063 0.30895 2.2572-1.0666 0.4269-1.479-2.9552-0.67254-9.5672-0.59958-9.6052-7.7216l-0.0152-17.274c0-0.85974-0.49401-2.4044 2.142-2.4044 9.2263 0 8.5195-0.44392 11.485 4.3674l10.223 15.171c3.1324 4.8964 6.3434 9.2758 12.358 9.2758 0.74227 0 6.4042 0.10949 6.3523-0.92186-0.0532-1.0435 1.0513-1.6139-1.3617-1.2418-1.9734 0.30776-5.7455-1.0556-9.6025-7.1973l-14.869-21.214c-0.23433-0.15079 0.038-0.52413 0.038-0.52413zm-16.594-24.078c0-3.3482 1.7328-3.049 4.6968-3.1779 8.6121-0.37094 16.389 3.5646 16.389 14.042 0 10.65-7.8127 12.546-11.354 12.546-3.8748 0-9.7228 0.5133-9.7228-1.1188zm68.71 24.189c5.643-2.4032 10.939-7.8201 10.939-14.519 0-16.577-18.633-15.69-19.923-15.69-4.1951 0-9.6317 0.77349-14.313 0.77349-4.1116 0-5.8646-0.45364-7.3162-0.45364-0.969 0-1.615 0.51567-1.615 1.0313 0 2.9201 9.3328-1.4193 9.0959 7.7544v43.718c0 6.5248-4.7019 5.9873-5.7114 6.7316-0.42434 0.3149-0.874 1.4947-0.39013 1.4947 3.0641 0 6.503-0.37096 9.5684-0.37096 6.6956 0 10.8 0.3199 11.497 0.5096 1.1793 0.31134 1.7227-1.108 0.40024-1.5567-1.6162-0.54733-8.8666 0.37453-8.992-6.7219v-18.122c0-0.86105-0.48128-2.3643 2.0989-2.4057 8.132-0.1252 7.9774-0.7199 9.3758 1.2953 0 0 15.52 18.287 23.961 25.917 7.3745 6.6683 16.483 11.308 22.364 11.587 7.9344 0.36858 12.211-0.91329 12.211-1.9446 0-2.0602-6.9223 3.7361-25.742-10.753-11.362-8.7445-25.341-25.129-27.508-27.826-0.17602-0.2128 0.0177-0.41464 0-0.44749zm-16.75-24.299c0-3.3506 1.9113-2.9918 4.8158-2.9918 7.9078 0 15.873 3.7884 15.873 14.267 0 10.651-8.4348 12.279-11.903 12.279-3.7911 0-8.7944 0.42939-8.7944-1.2015zm69.705 57.053c19.868 0 33.679-12.684 33.679-32.364 0-18.109-13.988-30.965-32.163-30.965-18.268 0-32.704 13.207-32.704 31.403 0 18.454 11.848 31.926 31.188 31.926zm-0.65432-59.868c17.374 0 27.836 14.907 27.836 30.825 0 16.185-10.935 26.084-23.945 26.084-17.645 0-27.912-15.325-27.912-31.505 0-13.822 9.0504-25.404 24.021-25.404zm105.89 53.596c0.3458 1.541 7.6342 4.5559 14.088 4.5559 19.804 0 24.488-10.369 24.488-17.551 0-22.704-33.603-14.395-33.603-30.473 0-7.8626 6.3321-11.2 13.224-11.2 7.6811 0 13.878 4.7468 16.144 10.559 0.29265 0.75644 0.67015 2.4664 1.629 2.4664 0.87521 0 0.67122-0.6166 0.58768-1.3014l-1.2502-11.947c-0.0862-0.94255-0.51937-1.1979-1.0462-1.1979-0.87152 0-1.4022 1.5239-3.0324 1.2247-1.2008-0.21891-3.3073-2.5662-12.328-2.6416-10.036-0.0827-18.588 5.8693-18.588 16.729 0 21.508 32.665 13.292 32.824 29.126 0.081 8.9766-5.8722 13.591-14.164 13.591-12.036 0-17.346-8.9596-18.389-12.892-0.43826-1.795-0.62573-2.7619-1.5605-2.6136-0.8588 0.13865-0.7752 1.0994-0.42433 2.8095 0 0 1.1273 3.6874 1.4022 10.755zm-7.3248-62.735c-1.1261 0.32836-2.9171 1.7464-3.653 2.239-0.8474 0.5704-0.82967 1.5129-0.3952 2.3168 2.1052 3.8833 4.1863 10.293-1.0083 18-0.855 1.2684-2.1774 1.6419-1.4757 2.166 0.73973 0.55459 3.1236-0.9985 4.1179-1.9434 5.6037-5.3038 7.6253-14.339 4.4359-20.911-0.64853-1.3366-0.91327-2.1904-2.0216-1.8668zm-58.205 56.935c-0.9348 8.2166-3.1122 7.9892-5.7544 8.6618-2.3927 0.60684-1.4795 2.0152 0.0761 1.7927 0.57759-0.0827 4.8539-0.52174 7.7774-0.52174 4.0951 0 7.8115 0.37096 9.8153 0.37096 0.83605 0 1.9317-1.1164-0.0925-1.6419-2.3408-0.60446-8.0838 0-8.6322-9.8572-0.39904-7.212 0.26599-31.871 0.26599-31.871 0-1.7221 0.25207-1.9824 0.58518-1.9824 0.58137 0 1.1919 0.97172 1.7568 1.6382l35.736 43.638c3.7721 4.2323 4.0064 2.9614 3.9303-1.2952-0.24825-13.737 0.19387-51.65 0.19387-51.65 0.1089-7.4613 7.1162-4.4318 7.1162-6.6732 0-0.51809-0.33324-0.77835-0.83356-0.77835-2.0064 0-7.7773 0.60079-10.617 0.60079-2.6764 0-4.2598-0.38797-6.7665-0.38797-0.49782 0-0.92722 0.26027-0.91841 0.86471 0.0381 2.419 9.025-1.5701 8.7134 10.752l0.0887 35.699c0 0.68836-0.0481 2.0456-1.2527 0l-37.416-45.258c-0.50282-0.60323-1.2527-1.9836-2.1736-1.9836-1.2527 0-5.3934 0.31377-6.6462 0.31377-1.3363 0-2.5903-0.34418-3.9266-0.34418-0.41673 0-1.3313 0.34783-1.254 0.86107 0.46993 3.0198 10.268-0.56189 10.426 13.552 0 0 0.20392 31.955-0.19761 35.5z"/>
</svg>
