<?xml version="1.0" encoding="utf-8"?>
<!-- Generator: Adobe Illustrator 23.0.2, SVG Export Plug-In . SVG Version: 6.00 Build 0)  -->
<svg version="1.1" id="Livello_1" xmlns="http://www.w3.org/2000/svg" xmlns:xlink="http://www.w3.org/1999/xlink" x="0px" y="0px"
	 viewBox="0 0 306.7 84.4" style="enable-background:new 0 0 306.7 84.4;" xml:space="preserve">
<style type="text/css">
	.st0{fill:url(#SVGID_1_);}
	.st1{fill:url(#SVGID_2_);}
	.st2{fill:url(#SVGID_3_);}
	.st3{fill:url(#SVGID_4_);}
	.st4{fill:url(#SVGID_5_);}
	.st5{fill:url(#SVGID_6_);}
	.st6{fill:url(#SVGID_7_);}
	.st7{fill:url(#SVGID_8_);}
	.st8{fill:url(#SVGID_9_);}
	.st9{fill:url(#SVGID_10_);}
	.st10{fill:url(#SVGID_11_);}
	.st11{fill:url(#SVGID_12_);}
	.st12{fill:url(#SVGID_13_);}
	.st13{fill:url(#SVGID_14_);}
	.st14{fill:url(#SVGID_15_);}
	.st15{fill:url(#SVGID_16_);}
	.st16{fill:#231F20;}
</style>
<g id="icon">
	
		<radialGradient id="SVGID_1_" cx="157.2041" cy="341.1792" r="18.2954" gradientTransform="matrix(1 0 0 1 0 -277.7097)" gradientUnits="userSpaceOnUse">
		<stop  offset="0" style="stop-color:#FFFFFF"/>
		<stop  offset="0.277" style="stop-color:#F8C3D4"/>
		<stop  offset="0.5717" style="stop-color:#E6427A"/>
		<stop  offset="0.732" style="stop-color:#E53C74"/>
		<stop  offset="1" style="stop-color:#7C1E39"/>
	</radialGradient>
	<path class="st0" d="M154.5,50.7c0,0-5.9,2.5-7.9,7.2l4.2,1L154.5,50.7z"/>
	
		<radialGradient id="SVGID_2_" cx="157.2041" cy="341.1792" r="18.2954" gradientTransform="matrix(1 0 0 1 0 -277.7097)" gradientUnits="userSpaceOnUse">
		<stop  offset="0" style="stop-color:#FFFFFF"/>
		<stop  offset="0.277" style="stop-color:#F8C3D4"/>
		<stop  offset="0.5717" style="stop-color:#E6427A"/>
		<stop  offset="0.732" style="stop-color:#E53C74"/>
		<stop  offset="1" style="stop-color:#7C1E39"/>
	</radialGradient>
	<path class="st1" d="M157.4,50l-1.7,0.2c0,0-3.7,4.9-4,8.9c0,0,4.2,0.5,7.4,0L157.4,50z"/>
	
		<radialGradient id="SVGID_3_" cx="157.2041" cy="341.1792" r="18.2954" gradientTransform="matrix(1 0 0 1 0 -277.7097)" gradientUnits="userSpaceOnUse">
		<stop  offset="0" style="stop-color:#FFFFFF"/>
		<stop  offset="0.277" style="stop-color:#F8C3D4"/>
		<stop  offset="0.5717" style="stop-color:#E6427A"/>
		<stop  offset="0.732" style="stop-color:#E53C74"/>
		<stop  offset="1" style="stop-color:#7C1E39"/>
	</radialGradient>
	<path class="st2" d="M157.9,50l2.2,9.4c0,0,6.2-1.5,7.4-2.5c0,0-3.2-4.9-7.9-7.4L157.9,50z"/>
	
		<radialGradient id="SVGID_4_" cx="157.2041" cy="341.1792" r="18.2954" gradientTransform="matrix(1 0 0 1 0 -277.7097)" gradientUnits="userSpaceOnUse">
		<stop  offset="0" style="stop-color:#FFFFFF"/>
		<stop  offset="0.277" style="stop-color:#F8C3D4"/>
		<stop  offset="0.5717" style="stop-color:#E6427A"/>
		<stop  offset="0.732" style="stop-color:#E53C74"/>
		<stop  offset="1" style="stop-color:#7C1E39"/>
	</radialGradient>
	<path class="st3" d="M160.6,49.5c0,0,5.2,2.5,7.4,6.9l3.7-2.5C171.8,53.9,167.3,49.7,160.6,49.5z"/>
	
		<radialGradient id="SVGID_5_" cx="157.2041" cy="341.1792" r="18.2954" gradientTransform="matrix(1 0 0 1 0 -277.7097)" gradientUnits="userSpaceOnUse">
		<stop  offset="0" style="stop-color:#FFFFFF"/>
		<stop  offset="0.277" style="stop-color:#F8C3D4"/>
		<stop  offset="0.5717" style="stop-color:#E6427A"/>
		<stop  offset="0.732" style="stop-color:#E53C74"/>
		<stop  offset="1" style="stop-color:#7C1E39"/>
	</radialGradient>
	<path class="st4" d="M145.6,60.1c0,0,2.7,1,4.9,1c0,0-0.5,3.7,0.2,5.9l-6.2,1.5C144.6,68.2,143.9,63.3,145.6,60.1z"/>
	
		<radialGradient id="SVGID_6_" cx="157.2041" cy="341.1792" r="18.2954" gradientTransform="matrix(1 0 0 1 0 -277.7097)" gradientUnits="userSpaceOnUse">
		<stop  offset="0" style="stop-color:#FFFFFF"/>
		<stop  offset="0.277" style="stop-color:#F8C3D4"/>
		<stop  offset="0.5717" style="stop-color:#E6427A"/>
		<stop  offset="0.732" style="stop-color:#E53C74"/>
		<stop  offset="1" style="stop-color:#7C1E39"/>
	</radialGradient>
	<path class="st5" d="M151.5,61.1c0,0,5.2,0.2,7.9-0.5l0.7,4.2l-8.4,2C151.8,66.8,151,63.6,151.5,61.1z"/>
	
		<radialGradient id="SVGID_7_" cx="157.2041" cy="341.1792" r="18.2954" gradientTransform="matrix(1 0 0 1 0 -277.7097)" gradientUnits="userSpaceOnUse">
		<stop  offset="0" style="stop-color:#FFFFFF"/>
		<stop  offset="0.277" style="stop-color:#F8C3D4"/>
		<stop  offset="0.5717" style="stop-color:#E6427A"/>
		<stop  offset="0.732" style="stop-color:#E53C74"/>
		<stop  offset="1" style="stop-color:#7C1E39"/>
	</radialGradient>
	<path class="st6" d="M160.4,60.3l1,4.2l8.4-1.7c0,0-1.7-4.9-2-5.4C167.8,57.4,163.1,59.9,160.4,60.3z"/>
	
		<radialGradient id="SVGID_8_" cx="157.2041" cy="341.1792" r="18.2954" gradientTransform="matrix(1 0 0 1 0 -277.7097)" gradientUnits="userSpaceOnUse">
		<stop  offset="0" style="stop-color:#FFFFFF"/>
		<stop  offset="0.277" style="stop-color:#F8C3D4"/>
		<stop  offset="0.5717" style="stop-color:#E6427A"/>
		<stop  offset="0.732" style="stop-color:#E53C74"/>
		<stop  offset="1" style="stop-color:#7C1E39"/>
	</radialGradient>
	<path class="st7" d="M168.5,56.9c0,0,2.2,3.7,2.2,5.7l5.4-1c0,0-1.5-4.7-4.2-7.2C172,54.4,169.5,56.9,168.5,56.9z"/>
	
		<radialGradient id="SVGID_9_" cx="157.2041" cy="341.1792" r="18.2954" gradientTransform="matrix(1 0 0 1 0 -277.7097)" gradientUnits="userSpaceOnUse">
		<stop  offset="0" style="stop-color:#FFFFFF"/>
		<stop  offset="0.277" style="stop-color:#F8C3D4"/>
		<stop  offset="0.5717" style="stop-color:#E6427A"/>
		<stop  offset="0.732" style="stop-color:#E53C74"/>
		<stop  offset="1" style="stop-color:#7C1E39"/>
	</radialGradient>
	<path class="st8" d="M144.8,69c0,0,1.2,5.2,4.2,7.9c0,0,2.5-2.2,4.4-3.2c0,0-2.7-4.7-2.5-5.9L144.8,69z"/>
	
		<radialGradient id="SVGID_10_" cx="157.2041" cy="341.1792" r="18.2954" gradientTransform="matrix(1 0 0 1 0 -277.7097)" gradientUnits="userSpaceOnUse">
		<stop  offset="0" style="stop-color:#FFFFFF"/>
		<stop  offset="0.277" style="stop-color:#F8C3D4"/>
		<stop  offset="0.5717" style="stop-color:#E6427A"/>
		<stop  offset="0.732" style="stop-color:#E53C74"/>
		<stop  offset="1" style="stop-color:#7C1E39"/>
	</radialGradient>
	<path class="st9" d="M152,67.5c0,0,0.5,2.7,2.2,5.7c0,0,4.9-2.7,7.4-2.7l-1.2-4.4L152,67.5z"/>
	
		<radialGradient id="SVGID_11_" cx="157.2041" cy="341.1792" r="18.2954" gradientTransform="matrix(1 0 0 1 0 -277.7097)" gradientUnits="userSpaceOnUse">
		<stop  offset="0" style="stop-color:#FFFFFF"/>
		<stop  offset="0.277" style="stop-color:#F8C3D4"/>
		<stop  offset="0.5717" style="stop-color:#E6427A"/>
		<stop  offset="0.732" style="stop-color:#E53C74"/>
		<stop  offset="1" style="stop-color:#7C1E39"/>
	</radialGradient>
	<path class="st10" d="M161.6,65.8l0.7,4.4c0,0,4-0.7,7.9-0.5c0,0,0.2-5.7-0.2-5.9L161.6,65.8z"/>
	
		<radialGradient id="SVGID_12_" cx="157.2041" cy="341.1792" r="18.2954" gradientTransform="matrix(1 0 0 1 0 -277.7097)" gradientUnits="userSpaceOnUse">
		<stop  offset="0" style="stop-color:#FFFFFF"/>
		<stop  offset="0.277" style="stop-color:#F8C3D4"/>
		<stop  offset="0.5717" style="stop-color:#E6427A"/>
		<stop  offset="0.732" style="stop-color:#E53C74"/>
		<stop  offset="1" style="stop-color:#7C1E39"/>
	</radialGradient>
	<path class="st11" d="M171,63.6c0,0,1,3.7,0.2,6.2l4.4,1c0,0,1.7-4.2,0.5-8.1L171,63.6z"/>
	
		<radialGradient id="SVGID_13_" cx="157.2041" cy="341.1792" r="18.2954" gradientTransform="matrix(1 0 0 1 0 -277.7097)" gradientUnits="userSpaceOnUse">
		<stop  offset="0" style="stop-color:#FFFFFF"/>
		<stop  offset="0.277" style="stop-color:#F8C3D4"/>
		<stop  offset="0.5717" style="stop-color:#E6427A"/>
		<stop  offset="0.732" style="stop-color:#E53C74"/>
		<stop  offset="1" style="stop-color:#7C1E39"/>
	</radialGradient>
	<path class="st12" d="M149.3,77.4c0,0,4.7,5.2,13.1,4.4c0,0-5.2-2.2-8.6-7.4L149.3,77.4z"/>
	
		<radialGradient id="SVGID_14_" cx="157.2041" cy="341.1792" r="18.2954" gradientTransform="matrix(1 0 0 1 0 -277.7097)" gradientUnits="userSpaceOnUse">
		<stop  offset="0" style="stop-color:#FFFFFF"/>
		<stop  offset="0.277" style="stop-color:#F8C3D4"/>
		<stop  offset="0.5717" style="stop-color:#E6427A"/>
		<stop  offset="0.732" style="stop-color:#E53C74"/>
		<stop  offset="1" style="stop-color:#7C1E39"/>
	</radialGradient>
	<path class="st13" d="M154.5,74.2c0,0,2.7,4.4,9.1,7.7l0.5-0.5l-2.2-9.6C161.6,71.7,156.9,72.7,154.5,74.2z"/>
	
		<radialGradient id="SVGID_15_" cx="157.2041" cy="341.1792" r="18.2954" gradientTransform="matrix(1 0 0 1 0 -277.7097)" gradientUnits="userSpaceOnUse">
		<stop  offset="0" style="stop-color:#FFFFFF"/>
		<stop  offset="0.277" style="stop-color:#F8C3D4"/>
		<stop  offset="0.5717" style="stop-color:#E6427A"/>
		<stop  offset="0.732" style="stop-color:#E53C74"/>
		<stop  offset="1" style="stop-color:#7C1E39"/>
	</radialGradient>
	<path class="st14" d="M162.6,71.5l2,9.9h0.7c0,0,4.4-4.7,4.9-9.9C170,71.5,163.6,71.2,162.6,71.5z"/>
	
		<radialGradient id="SVGID_16_" cx="157.2041" cy="341.1792" r="18.2954" gradientTransform="matrix(1 0 0 1 0 -277.7097)" gradientUnits="userSpaceOnUse">
		<stop  offset="0" style="stop-color:#FFFFFF"/>
		<stop  offset="0.277" style="stop-color:#F8C3D4"/>
		<stop  offset="0.5717" style="stop-color:#E6427A"/>
		<stop  offset="0.732" style="stop-color:#E53C74"/>
		<stop  offset="1" style="stop-color:#7C1E39"/>
	</radialGradient>
	<path class="st15" d="M170.8,71.5c0,0-0.5,4.4-4.7,9.4c0,0,6.2-1.5,9.1-8.4L170.8,71.5z"/>
</g>
<g id="lagazzettadellosport">
	<path class="st16" d="M258.2,37.9V17.2c0-0.8-0.8-1.4-1.8-1.4s-1.8,0-1.8,0v22.1c0,0.8,0.8,1.4,1.8,1.4S258.2,38.7,258.2,37.9
		 M249.7,53.2c-0.4,0-0.7-0.3-0.7-0.7V11.1c0-0.4,0.3-0.7,0.7-0.7h6.7c4,0,7.2,2.9,7.2,6.6v21.1c0,3.7-3.2,6.7-7.2,6.7
		c-0.6,0-1.9-0.2-1.9-0.2v7.9c0,0.4-0.3,0.7-0.7,0.7L249.7,53.2L249.7,53.2z"/>
	<path class="st16" d="M275.4,38.2c0,0.8-0.8,1.4-1.8,1.4s-1.8-0.6-1.8-1.4V17.3c0-0.8,0.8-1.4,1.8-1.4s1.8,0.6,1.8,1.4V38.2
		 M280.8,17c0-3.8-3.2-6.9-7.2-6.9s-7.2,3.1-7.2,6.9v21.4c0,3.8,3.2,6.9,7.2,6.9s7.2-3.1,7.2-6.9V17z"/>
	<path class="st16" d="M183.5,18.2c0,2.9,0,8.3,0,8.3s2.1-2.4,2.8-3.6c0.7-1.2,1.1-2.4,1.1-2.7c0.4-1.5,0.7-3.7-1.3-4.4
		c-0.3-0.1-0.7-0.1-1,0C184.8,15.9,183.5,16.3,183.5,18.2 M192.4,38.4c0,0.1,0,0.2-0.1,0.3v0.1c-1,1.7-4.3,6.6-8.2,6.6
		c-0.3,0-0.5,0-0.8-0.1c-0.6-0.1-1.1-0.3-1.6-0.6c-0.9-0.5-1.8-1.3-2.5-2.5c-0.6-1-0.8-1.8-0.9-2.8c-0.1-0.4-0.1-0.9-0.1-1.4V17.4
		c0-3.2,2.6-7.1,7.6-7c2.2,0.1,5.1,1.6,6.3,4.4c0.6,1.4,0.6,2.8,0.6,4.2c-0.1,7-9,13.9-9.1,14v3.1c0,0.7,0.1,1.5,0.3,2
		c0,0.1,0.3,0.6,0.8,0.8c1.1,0.3,2.4-1,3.9-3.2c0.1-0.2,0.3-0.4,0.7-0.4c0.1,0,0.3,0.1,0.5,0.2c0.4,0.4,2.4,2.2,2.4,2.2
		C192.3,38,192.4,38.2,192.4,38.4z"/>
	<path class="st16" d="M295.2,10.8c0.3,0,0.6,0.3,0.6,0.6v4.8c0,0.3-0.3,0.6-0.6,0.6c-3.8,0.3-6.1,2.5-6.1,5.3v22.1
		c0,0.4-0.3,0.7-0.7,0.7h-4c-0.4,0-0.7-0.3-0.7-0.7V11.4c0.2-0.3,0.4-0.4,0.7-0.4c0.1,0,0.2,0,0.2,0l0.2,0.1l3.1,1.7l0.5,0.2
		c2-1.5,4-2.3,6.6-2.3L295.2,10.8"/>
	<path class="st16" d="M305.8,39.6h0.2c0.4,0,0.7,0.3,0.7,0.7v4.3c0,0.3-0.2,0.6-0.5,0.7c-0.1,0-0.1,0-0.2,0c-0.3,0-0.6,0.1-1,0.1
		c-4,0-7.3-3.1-7.3-6.9c0-0.1,0-0.2,0-0.4V6.3V6.2V6.1c0-0.2,0.2-0.4,0.3-0.5c0.1-0.1,4-2.3,4-2.3l0.2-0.1c0.1,0,0.1,0,0.2,0
		c0.4,0,0.7,0.3,0.7,0.6v6.8h2.7c0.4,0,0.7,0.3,0.7,0.7v4.3c0,0.4-0.3,0.7-0.7,0.7h-2.7v21.8c0,0.8,0.8,1.4,1.8,1.4
		C305.3,39.6,305.5,39.6,305.8,39.6"/>
	<path class="st16" d="M220.1,38.2c0,0.8-0.8,1.4-1.8,1.4s-1.8-0.6-1.8-1.4V17.3c0-0.8,0.8-1.4,1.8-1.4s1.8,0.6,1.8,1.4V38.2
		 M225.5,17c0-3.8-3.2-6.9-7.2-6.9s-7.2,3.1-7.2,6.9v21.4c0,3.8,3.2,6.9,7.2,6.9s7.2-3.1,7.2-6.9V17z"/>
	<path class="st16" d="M230.1,41.3l-0.1-0.2c-0.1-0.2-0.2-0.4-0.1-0.6c0-0.1,0.1-0.2,0.1-0.3l0.1-0.1l2.9-2.9
		c0.2-0.2,0.4-0.3,0.7-0.2c0.2,0,0.3,0.2,0.5,0.3c0.3,0.3,0.5,0.6,0.8,0.8c1.2,0.9,2.1,1.3,2.7,1.3c3.3,0,3.3-3.9,2.3-6.4
		c-3-7.3-7.7-19-7.7-19c-1.9-5-1.5-9.3,2-11.1c3.1-1.6,7.9-0.5,12.4,2.7c0.3,0.2,0.4,0.4,0.4,0.6c0,0.1,0,0.2-0.1,0.3l-2.2,3.4
		c-0.1,0.2-0.3,0.4-0.6,0.4c-0.2,0-0.3-0.1-0.5-0.2c-2.4-1.9-4.6-2.8-5.6-2.1c-0.7,0.4-0.8,1.6-0.4,3.1c0,0,5.4,13.6,8.4,21.9
		c1.1,3,1.4,12.4-8.4,12.4c-2,0-3.5-0.7-5.4-2C231.4,42.6,230.3,41.6,230.1,41.3"/>
	<path class="st16" d="M13.2,39.7c0.4,0,0.7,0.3,0.7,0.7v3.9c0,0.4-0.3,0.7-0.7,0.7H0.7C0.3,45,0,44.7,0,44.3V9.7
		c0-0.2,0.2-0.4,0.4-0.6l4.3-2.4c0.1,0,0.1-0.1,0.2-0.1c0.1,0,0.2,0,0.3,0c0.4,0,0.7,0.3,0.7,0.7v0.2v32.3L13.2,39.7"/>
	<path class="st16" d="M24.1,39.3v-8.8l-0.8,0.7c-0.5,0.4-1.3,1.2-2,2.4c-0.5,0.9-0.7,1.9-0.8,2.2c-0.1,0.9-0.3,2.9,1.2,3.4
		c0,0,0.3,0.1,0.4,0.1c0.3,0,0.6,0,1,0L24.1,39.3 M15.2,17.7c0-0.1,0-0.2,0.1-0.3v-0.1c1-1.7,4.3-7.2,8.2-7.2c0.3,0,0.5,0,0.8,0.1
		c0.6,0.1,1.1,0.3,1.6,0.6c0.9,0.5,1.8,1.3,2.5,2.5c0.6,1,0.8,1.8,0.9,2.8c0,0.4,0.1,0.9,0.1,1.4v26.7c0,0.4-0.3,0.7-0.7,0.7h-7.4
		c-2.9-0.1-5.3-1.5-6-3.4c-0.4-1-0.5-2.5-0.5-3.9c0.1-7,9.1-14.4,9.2-14.5v-3.2c0-0.7-0.1-1.5-0.3-2c0-0.1-0.3-0.6-0.8-0.8
		c-1.1-0.3-2.4,1-3.9,3.2c-0.1,0.2-0.3,0.4-0.7,0.4c-0.1,0-0.3-0.1-0.5-0.2c-0.4-0.4-2.4-2.2-2.4-2.2C15.3,18.1,15.2,17.9,15.2,17.7
		z"/>
	<path class="st16" d="M148.7,39.3v-8.8l-0.8,0.7c-0.5,0.4-1.3,1.2-2,2.4c-0.5,0.9-0.7,1.9-0.8,2.2c-0.1,0.9-0.3,2.9,1.2,3.4
		c0,0,0.3,0.1,0.4,0.1c0.3,0,0.6,0,1,0L148.7,39.3 M139.8,17.7c0-0.1,0-0.2,0.1-0.3v-0.1c1-1.7,4.3-7.2,8.2-7.2c0.3,0,0.6,0,0.8,0.1
		c0.6,0.1,1.1,0.3,1.6,0.6c0.9,0.5,1.8,1.3,2.5,2.5c0.6,1,0.8,1.8,0.9,2.8c0.1,0.4,0.1,0.9,0.1,1.4v26.7c0,0.4-0.3,0.7-0.7,0.7h-7.4
		c-2.9-0.1-5.3-1.5-6-3.4c-0.4-1-0.5-2.5-0.5-3.9c0.1-7,9.1-14.4,9.2-14.5v-3.2c0-0.7-0.1-1.5-0.3-2c0-0.1-0.3-0.6-0.8-0.8
		c-1.1-0.3-2.4,1-3.9,3.2c-0.1,0.2-0.3,0.4-0.7,0.4c-0.1,0-0.3-0.1-0.5-0.2c-0.4-0.4-2.4-2.2-2.4-2.2
		C139.9,18.1,139.8,17.9,139.8,17.7z"/>
	<path class="st16" d="M84.4,14.7v0.2l-8,25h7.4c0.4,0,0.7,0.3,0.7,0.7v3.7c0,0.4-0.3,0.7-0.7,0.7H71c-0.4,0-0.7-0.3-0.7-0.7v-3.4
		v-0.2l8-24.9H71c-0.4,0-0.7-0.3-0.7-0.7v-3.7c0-0.4,0.3-0.7,0.7-0.7h12.7c0.4,0,0.7,0.3,0.7,0.7V14.7"/>
	<path class="st16" d="M100.4,14.7v0.2l-8,25h7.4c0.4,0,0.7,0.3,0.7,0.7v3.7c0,0.4-0.3,0.7-0.7,0.7H87c-0.4,0-0.7-0.3-0.7-0.7v-3.4
		v-0.2l8-24.9H87c-0.4,0-0.7-0.3-0.7-0.7v-3.7c0-0.4,0.3-0.7,0.7-0.7h12.7c0.4,0,0.7,0.3,0.7,0.7L100.4,14.7"/>
	<path class="st16" d="M63.1,39.3v-8.8l-0.8,0.7c-0.5,0.4-1.3,1.2-2,2.4c-0.5,0.9-0.7,1.9-0.8,2.2c-0.1,0.9-0.3,2.9,1.2,3.4
		c0,0,0.3,0.1,0.4,0.1c0.3,0,0.6,0,1,0L63.1,39.3 M54.2,17.7c0-0.1,0-0.2,0.1-0.3v-0.1c1-1.7,4.3-7.2,8.2-7.2c0.3,0,0.5,0,0.8,0.1
		c0.6,0.1,1.1,0.3,1.6,0.6c0.9,0.5,1.8,1.3,2.5,2.5c0.6,1,0.8,1.8,0.9,2.8c0.1,0.4,0.1,0.9,0.1,1.4v26.7c0,0.4-0.3,0.7-0.7,0.7h-7.4
		c-2.9-0.1-5.3-1.5-6-3.4c-0.4-1-0.5-2.5-0.5-3.9c0.1-7,9.1-14.4,9.2-14.5v-3.2c0-0.7-0.1-1.5-0.3-2c0-0.1-0.3-0.6-0.8-0.8
		c-1.1-0.3-2.4,1-3.9,3.2c-0.1,0.2-0.3,0.4-0.7,0.4c-0.1,0-0.3-0.1-0.5-0.2c-0.4-0.4-2.4-2.2-2.4-2.2C54.3,18.1,54.2,17.9,54.2,17.7
		z"/>
	<path class="st16" d="M107.4,18.2c0,2.9,0,8.3,0,8.3s2.1-2.4,2.8-3.6c0.7-1.2,1.1-2.4,1.1-2.7c0.4-1.5,0.7-3.7-1.3-4.4
		c-0.3-0.1-0.7-0.1-1,0C108.6,15.9,107.4,16.3,107.4,18.2 M116.2,38.4c0,0.1,0,0.2-0.1,0.3v0.1c-1,1.7-4.3,6.6-8.2,6.6
		c-0.3,0-0.5,0-0.8-0.1c-0.6-0.1-1.1-0.3-1.6-0.6c-0.9-0.5-1.8-1.3-2.5-2.5c-0.6-1-0.8-1.8-0.9-2.8C102,39,102,38.5,102,38V17.4
		c0-3.2,2.6-7.1,7.6-7c2.2,0.1,5.1,1.6,6.3,4.4c0.6,1.4,0.6,2.8,0.6,4.2c-0.1,7-9,13.9-9.1,14v3.1c0,0.7,0.1,1.5,0.3,2
		c0,0.1,0.3,0.6,0.8,0.8c1.1,0.3,2.4-1,3.9-3.2c0.1-0.2,0.3-0.4,0.7-0.4c0.1,0,0.3,0.1,0.5,0.2c0.4,0.4,2.4,2.2,2.4,2.2
		C116.1,38,116.2,38.2,116.2,38.4z"/>
	<path class="st16" d="M137.1,39.6L137.1,39.6c0.5,0,0.8,0.3,0.8,0.7v4.3c0,0.3-0.2,0.6-0.5,0.7c-0.1,0-0.1,0-0.2,0
		c-0.3,0-0.6,0.1-1,0.1c-4,0-7.3-3.1-7.3-6.9c0-0.1,0-0.2,0-0.4V6.3V6.2V6.1c0-0.2,0.2-0.4,0.3-0.5c0.1-0.1,4-2.3,4-2.3l0.2-0.1
		c0.1,0,0.1,0,0.2,0c0.4,0,0.7,0.3,0.7,0.6v6.8h2.7c0.4,0,0.7,0.3,0.7,0.7v4.3c0,0.4-0.3,0.7-0.7,0.7h-2.7v21.8
		c0,0.8,0.8,1.4,1.8,1.4C136.6,39.6,136.9,39.6,137.1,39.6"/>
	<path class="st16" d="M126.3,39.6L126.3,39.6c0.5,0,0.8,0.3,0.8,0.7v4.3c0,0.3-0.2,0.6-0.5,0.7c-0.1,0-0.1,0-0.2,0
		c-0.3,0-0.6,0.1-1,0.1c-4,0-7.3-3.1-7.3-6.9c0-0.1,0-0.2,0-0.4V6.3V6.2V6.1c0-0.2,0.2-0.4,0.3-0.5c0.1-0.1,4-2.3,4-2.3l0.2-0.1
		c0.1,0,0.1,0,0.2,0c0.4,0,0.7,0.3,0.7,0.6v6.8h2.7c0.4,0,0.7,0.3,0.7,0.7v4.3c0,0.4-0.3,0.7-0.7,0.7h-2.5v21.8
		c0,0.8,0.8,1.4,1.8,1.4C125.8,39.6,126,39.6,126.3,39.6"/>
	<path class="st16" d="M43,7.7c-1.1,0.6-1.5,1.3-1.5,2.8v26.4c0,1,1.1,1.9,2.5,1.9s2.5-0.9,2.5-1.9V24.6h-1.7
		c-0.4,0-0.7-0.3-0.7-0.7v-2.7c0-0.4,0.3-0.7,0.7-0.7h6.8c0.4,0,0.7,0.3,0.7,0.7v15.2c0,4.6-3.7,8.4-8.3,8.4s-8.3-3.8-8.3-8.4V11.9
		c0-3,0.5-5.7,1.8-7.5c0.4-0.8,1.3-1.5,2.1-2c3-1.7,7.9-0.5,12.4,2.7c0.3,0.2,0.4,0.4,0.4,0.6c0,0.1,0,0.2-0.1,0.3l-2.2,3.4
		c-0.1,0.2-0.4,0.4-0.6,0.4c-0.2,0-0.3-0.1-0.5-0.2C46.6,7.9,44.3,6.9,43,7.7"/>
	<path class="st16" d="M175.6,6.8V2.5c0-0.3-0.3-0.6-0.7-0.6c-0.1,0-0.2,0-0.2,0L174.5,2l-4,2.3c-0.2,0.1-0.3,0.3-0.3,0.5v2.5l0,0
		v3.5c-0.6-0.1-1.2-0.2-1.9-0.2c-4,0-7.2,3-7.2,6.7v21c0,3.7,3.2,6.6,7.2,6.6h6.6c0.4,0,0.7-0.3,0.7-0.7L175.6,6.8L175.6,6.8
		 M170.1,39.4c0,0-0.8,0-1.8,0s-1.8-0.6-1.8-1.4V17.5c0-0.8,0.8-1.4,1.8-1.4s1.8,0.6,1.8,1.4V39.4z"/>
	<path class="st16" d="M200,6.8V2.6c0-0.3-0.3-0.6-0.7-0.6c-0.1,0-0.2,0-0.2,0l-0.2,0.1l-4,2.3c-0.2,0.1-0.3,0.3-0.3,0.5v2.5l0,0
		v36.9c0,0.4,0.3,0.7,0.7,0.7h4c0.4,0,0.7-0.3,0.7-0.7V6.8L200,6.8"/>
	<path class="st16" d="M208.4,6V2.6c0-0.3-0.3-0.6-0.7-0.6c-0.1,0-0.2,0-0.2,0l-0.2,0.1l-4,2.3c-0.2,0.1-0.3,0.3-0.3,0.5v2.5l0,0
		v36.9c0,0.4,0.3,0.7,0.7,0.7h4c0.4,0,0.7-0.3,0.7-0.7V6L208.4,6"/>
</g>
<g id="tuttoilrosa">
	<polyline class="st16" points="43.9,60.3 43.9,73.5 41.8,73.5 41.8,60.3 37.4,60.3 37.4,58.4 48.7,58.4 48.7,60.3 43.9,60.3 	"/>
	<path class="st16" d="M52,73.8c-2.6,0-4.4-1-4.4-3.8v-7.5h2v7.1c0,1.6,0.9,2.5,2.5,2.5c0.9,0,1.8-0.2,2.6-0.6c0,0,0-0.4,0-0.6v-8.4
		h2v8.7c0,0.5,0.2,1.5,0.2,1.5C55.3,73.2,53.6,73.8,52,73.8"/>
	<path class="st16" d="M62.9,73.8c-1.9,0-3.1-0.9-3.1-2.9v-6.8L58.5,64v-1.6l1.3-0.1v-3h2v3H65V64h-3.2v6.7c0,0.9,0.6,1.2,1.3,1.2
		s1.5-0.2,2-0.4l0.5,1.6C64.7,73.6,63.8,73.8,62.9,73.8"/>
	<path class="st16" d="M70.3,73.8c-1.9,0-3.1-0.9-3.1-2.9v-6.8L65.9,64v-1.6l1.3-0.1v-3h2v3h3.2V64h-3.2v6.7c0,0.9,0.6,1.2,1.3,1.2
		s1.5-0.2,2-0.4l0.5,1.6C72.2,73.6,71.2,73.8,70.3,73.8"/>
	<path class="st16" d="M78.9,73.8c-3.2,0-5.3-2.4-5.3-5.8s2.1-5.8,5.3-5.8s5.4,2.4,5.4,5.8C84.2,71.4,82.1,73.8,78.9,73.8 M78.9,64
		c-2.1,0-3.2,1.8-3.2,4s1,4,3.2,4c2.1,0,3.1-1.8,3.1-4C82,65.8,81,64,78.9,64z"/>
	<path class="st16" d="M90.2,59.9c-0.7,0-1.3-0.5-1.3-1.2s0.6-1.2,1.3-1.2s1.3,0.5,1.3,1.2S90.9,59.9,90.2,59.9 M89.2,73.5v-11h2v11
		H89.2z"/>
	<path class="st16" d="M96.3,73.8c-1.4,0-2.2-0.7-2.2-2.1V57.4h2v14c0,0.4,0.2,0.8,0.7,0.8c0.3,0,0.6-0.1,0.8-0.2l0.5,1.6
		C97.5,73.6,96.8,73.8,96.3,73.8"/>
	<path class="st16" d="M108.2,64.2c-0.4-0.1-0.9-0.1-1.3-0.1c-0.7,0-1.5,0.1-2.1,0.4c0,0,0,0.3,0,0.5v8.6h-2V65
		c0-0.5-0.2-1.5-0.2-1.5c1.4-0.6,3-1.2,4.6-1.2c0.6,0,1.1,0.1,1.6,0.2L108.2,64.2"/>
	<path class="st16" d="M114.5,73.8c-3.2,0-5.3-2.4-5.3-5.8s2.1-5.8,5.3-5.8c3.2,0,5.4,2.4,5.4,5.8C119.9,71.4,117.8,73.8,114.5,73.8
		 M114.6,64c-2.1,0-3.2,1.8-3.2,4s1,4,3.2,4c2.1,0,3.1-1.8,3.1-4S116.7,64,114.6,64z"/>
	<path class="st16" d="M124.4,73.8c-1.1,0-2.3-0.3-3.3-0.6l0.6-1.6c0.8,0.3,1.8,0.6,2.6,0.6c1,0,2.1-0.3,2.1-1.5c0-2.3-5-1.8-5-5.3
		c0-2.1,2-3,3.8-3c1,0,2.1,0.3,2.8,0.6l-0.5,1.6c-0.7-0.3-1.6-0.5-2.3-0.5c-0.9,0-1.7,0.3-1.7,1.3c0,2.1,5.2,1.5,5.2,5.3
		C128.5,72.9,126.3,73.8,124.4,73.8"/>
	<path class="st16" d="M134.4,73.8c-2.7,0-4.6-1.1-4.6-3.3c0-2.4,2-3.1,3.8-3.5c1.6-0.3,3-0.5,3-1.6c0-1.3-1.2-1.5-2.2-1.5
		c-1.1,0-2.5,0.5-2.9,0.7l-0.7-1.5c1.1-0.5,2.6-0.9,3.7-0.9c2.6,0,4,1.2,4,3.5v5.8c0,0.5,0.2,1.4,0.2,1.4
		C137.5,73.4,136,73.8,134.4,73.8 M136.7,71.2v-3.5c-0.5,0.4-1.4,0.6-2.2,0.7c-1.3,0.3-2.5,0.6-2.5,1.9c0,1.1,0.9,1.7,2.4,1.7
		c0.8,0,1.6-0.1,2.3-0.4C136.7,71.7,136.7,71.4,136.7,71.2z"/>
	<path class="st16" d="M188.4,73.8c-3.4,0-5.8-2.5-5.8-5.8c0-3.2,1.7-5.7,5.1-5.7c0.8,0,1.7,0.2,2.5,0.6v-5.5h2v14.3
		c0,0.4,0.1,1.3,0.1,1.3C191.1,73.5,189.6,73.8,188.4,73.8 M190.1,71.3v-6.7c-0.6-0.4-1.4-0.6-2.1-0.6c-2.3,0-3.2,1.9-3.2,4
		c0,2.2,1.1,4.1,3.5,4.1c0.6,0,1.3-0.1,1.8-0.3C190.2,71.7,190.1,71.6,190.1,71.3z"/>
	<path class="st16" d="M203.1,68.7h-7.4c0.1,2,1.3,3.4,3.4,3.4c0.9,0,1.8-0.2,2.6-0.5l0.6,1.5c-1.1,0.5-2.3,0.7-3.4,0.7
		c-3.4,0-5.4-2.5-5.4-5.8c0-3,1.6-5.7,4.9-5.7c3.1,0,4.8,2.3,4.8,5.2C203.2,67.9,203.2,68.3,203.1,68.7 M198.5,63.9
		c-1.7,0-2.7,1.4-2.7,3.1h5.4C201.1,65.5,200.3,63.9,198.5,63.9z"/>
	<path class="st16" d="M207.4,73.8c-1.4,0-2.2-0.7-2.2-2.1V57.4h2v14c0,0.4,0.2,0.8,0.7,0.8c0.3,0,0.6-0.1,0.8-0.2l0.5,1.6
		C208.6,73.6,208,73.8,207.4,73.8"/>
	<path class="st16" d="M212.9,73.8c-1.4,0-2.2-0.7-2.2-2.1V57.4h2v14c0,0.4,0.2,0.8,0.7,0.8c0.3,0,0.6-0.1,0.8-0.2l0.5,1.6
		C214.1,73.6,213.4,73.8,212.9,73.8"/>
	<path class="st16" d="M220.2,73.8c-2.7,0-4.6-1.1-4.6-3.3c0-2.4,2-3.1,3.8-3.5c1.6-0.3,3-0.5,3-1.6c0-1.3-1.2-1.5-2.2-1.5
		c-1.1,0-2.5,0.5-2.9,0.7l-0.7-1.5c1.1-0.5,2.6-0.9,3.7-0.9c2.6,0,4,1.2,4,3.5v5.8c0,0.5,0.2,1.4,0.2,1.4
		C223.2,73.4,221.7,73.8,220.2,73.8 M222.4,71.2v-3.5c-0.5,0.4-1.4,0.6-2.2,0.7c-1.3,0.3-2.5,0.6-2.5,1.9c0,1.1,0.9,1.7,2.4,1.7
		c0.8,0,1.6-0.1,2.3-0.4C222.5,71.7,222.4,71.4,222.4,71.2z"/>
	<path class="st16" d="M235.6,73.7c-1.3,0-2-0.5-2.4-1.6l-3.9-9.7h2.2c0.6,1.6,3.2,8.6,3.2,8.6l0,0c0,0,0.1-0.4,0.2-0.6l3-8h2.2
		L235.6,73.7"/>
	<path class="st16" d="M242.3,59.9c-0.7,0-1.3-0.5-1.3-1.2s0.6-1.2,1.3-1.2c0.7,0,1.3,0.5,1.3,1.2C243.6,59.4,243,59.9,242.3,59.9
		 M241.4,73.5v-11h2v11H241.4z"/>
	<path class="st16" d="M249.8,73.8c-1.9,0-3.1-0.9-3.1-2.9v-6.8l-1.3-0.1v-1.6l1.3-0.1v-3h2v3h3.2V64h-3.2v6.7
		c0,0.9,0.6,1.2,1.3,1.2c0.7,0,1.5-0.2,2-0.4l0.5,1.6C251.6,73.6,250.7,73.8,249.8,73.8"/>
	<path class="st16" d="M257.7,73.8c-2.7,0-4.6-1.1-4.6-3.3c0-2.4,2-3.1,3.8-3.5c1.6-0.3,3-0.5,3-1.6c0-1.3-1.2-1.5-2.2-1.5
		c-1.1,0-2.5,0.5-2.9,0.7l-0.7-1.5c1.1-0.5,2.6-0.9,3.7-0.9c2.6,0,4,1.2,4,3.5v5.8c0,0.5,0.2,1.4,0.2,1.4
		C260.8,73.4,259.2,73.8,257.7,73.8 M259.9,71.2v-3.5c-0.5,0.4-1.4,0.6-2.2,0.7c-1.3,0.3-2.5,0.6-2.5,1.9c0,1.1,0.9,1.7,2.4,1.7
		c0.8,0,1.6-0.1,2.3-0.4C260,71.7,259.9,71.4,259.9,71.2z"/>
</g>
</svg>
