<?xml version="1.0" encoding="UTF-8"?>
<svg id="Layer_1" data-name="Layer 1" xmlns="http://www.w3.org/2000/svg" viewBox="0 0 348.37 191.09">
  <defs>
    <style>
      .cls-1 {
        fill: #fff;
      }

      .cls-1, .cls-2 {
        stroke-width: 0px;
      }

      .cls-2 {
        fill: #ed1c24;
      }
    </style>
  </defs>
  <path class="cls-1" d="m204.77,142.14c1.88-9.86,3.76-19.72,5.73-29.99,10.56.32,20.97.63,31.75.95,1.62,9.52,3.17,18.63,4.88,28.68l6.17-28.33,57.35,2.12s5.31,13.03,7.99,19.61v-19.2c10.09.21,19.63.41,29.5.62v72.31c-9.63.47-19.22.27-29.17.3-5.32-11.55-9.67-23.43-15.9-34.55v34.3h-29.35v-37.25c-.59-.09-.42-.06-1.01-.15-3.7,12.29-10.59,36.89-10.59,36.89l-29.44.54c-2.16-12.35-4.34-24.84-6.59-37.7l-7.84,37.62h-29.07c-2.21-7.75-4.45-15.6-6.94-24.32-14.9,31.94-57.79,35.5-79.13,8.02-19.93,22.76-51.82,16.63-79.21,16.63v-83.42l72.41,2.54c2.32,1.64,4.76,5.21,6.46,8.46,1.08-2.68,3.11-5.55,5.6-8.05l89.62,3.13s6.77,30.26,5.78,30.17c.33.03.66.05.99.08h.01Zm-47.73,4.55c.02-10.85-3.14-25.62-16.7-25.37-11.08.2-15.45,10.54-16.17,19.92-.74,9.63,1.22,22.03,11.79,25.47,13.07,4.26,20.69-8.46,21.08-20.02Zm-104.24,18.57c15.07,0,28.87-1.57,29.04-20.33.17-18.72-14.02-20.07-29.04-20.57v40.91h0Z"/>
  <path class="cls-1" d="m202.85,45.82c7.83-15.19,26.61-19.22,43.05-19.08,8.68.08,17.9,3.02,25.12,7.98,6.59,4.53,9.54,10.59,14.24,18.02,9.81-20,26.55-27.42,63.11-25.78v28.99c-10.68.61-32.42-5.13-37.21,17.07l-.5,38.97-31.63-.77-.48-7.86c-2.31,3.28-5.5,6.04-8.86,7.41l-58.29-2.02c-2.49-2.38-4.89-4.67-7.34-7.01-2,2.21-4.07,4.49-5.84,6.44l-69.89-2.5c-1.44-.58-2.77-2.48-3.79-3.69v3.76l-34.04-1.04c0-16.07-.43-42.19-.43-53.27-5.85,17.82-11.36,35.63-16.87,52.43l-48.14-1.39C16.94,77.78,8.15,51.45,0,26.73h35.95c4.48,17.37,9.11,36.19,13.63,53.73h.78c4.5-17.49,8.6-36.06,13.14-53.72h61.92c0,5.09-.08,11.25-.08,16.72,3.97-4.65,7.4-9.69,13.05-12.25,7.93-3.59,17.58-4.56,26.19-4.46,13.96.16,33.53,3.68,38.26,19.08h.01Zm52.89,26.82c0-9.07-1.8-19.68-12.5-20.66-11.86-1.08-14.89,9.11-15.2,18.94-.33,10.49,2.99,25.94,16.94,22.8,9.95-2.24,10.92-21.06,10.77-21.08h-.01Zm-80.25,15.97c-5.98-6.37-17-6.09-25.18-8.12-9.86-2.45-19.06-5.39-25.23-14.13v21.24h26.76c2.23,10.19,17.22,14.33,23.65,5.32.63-.91,1.36-2.84,0-4.3h0Zm-.08-33.43c-3.37-8.83-18.31-13.87-21.38-2.19.18,3.72,11.18,5.14,16.23,6.16,8.58,1.72,17.81,3.05,25.08,8.1.43-4.26,1.95-8.07,2.17-12.08h-22.1,0Z"/>
  <rect class="cls-2" x="90.64" width="34.64" height="24.47"/>
</svg>