<?xml version="1.0" encoding="UTF-8"?>
<svg xmlns="http://www.w3.org/2000/svg" id="Layer_1" data-name="Layer 1" viewBox="0 0 24 24">
  <path d="M2,6.091h1.849c.306,1.705,1.46,2.568,3.443,2.568s3.137-.863,3.442-2.568h11.266c.552,0,1-.448,1-1s-.448-1-1-1H10.734c-.306-1.705-1.459-2.568-3.442-2.568s-3.137,.863-3.443,2.568h-1.849c-.552,0-1,.448-1,1s.448,1,1,1ZM7.292,3.522c1.144,0,1.525,.227,1.525,1.568,0,1.332-.399,1.568-1.525,1.568-1.145,0-1.525-.227-1.525-1.568,0-1.332,.4-1.568,1.525-1.568Z"/>
  <path d="M22,11h-1.849c-.306-1.705-1.46-2.568-3.443-2.568s-3.137,.863-3.442,2.568H2c-.552,0-1,.448-1,1s.448,1,1,1H13.266c.306,1.705,1.459,2.568,3.442,2.568s3.137-.863,3.443-2.568h1.849c.552,0,1-.448,1-1s-.448-1-1-1Zm-5.292,2.568c-1.144,0-1.525-.227-1.525-1.568,0-1.332,.399-1.568,1.525-1.568,1.145,0,1.525,.227,1.525,1.568,0,1.331-.4,1.568-1.525,1.568Z"/>
  <path d="M22,17.909H10.734c-.306-1.705-1.459-2.568-3.442-2.568s-3.137,.863-3.443,2.568h-1.849c-.552,0-1,.447-1,1s.448,1,1,1h1.849c.306,1.705,1.459,2.568,3.443,2.568s3.137-.863,3.442-2.568h11.266c.552,0,1-.447,1-1s-.448-1-1-1Zm-14.708,2.568c-1.145,0-1.525-.227-1.525-1.568,0-1.331,.4-1.568,1.525-1.568,1.144,0,1.525,.227,1.525,1.568,0,1.331-.399,1.568-1.525,1.568Z"/>
</svg>
