<svg width="206" height="41" viewBox="0 0 206 41" fill="none" xmlns="http://www.w3.org/2000/svg">
<path d="M43.0691 40.2594H54.6818C54.6818 40.2594 54.6818 25.5589 54.6818 23.8119C54.6818 22.0648 53.3731 14.7746 42.7649 14.7746H28.5346V25.705H41.5222C42.2326 25.705 42.8109 26.2813 42.8109 26.9937C42.8109 27.7041 42.2346 28.2825 41.5222 28.2825H16.4736C13.9001 28.2825 11.8149 26.1972 11.8149 23.6237V16.5276C11.8149 13.9541 13.9001 11.8689 16.4736 11.8689H40.8438C46.3009 11.8689 51.7141 12.9175 54.6818 15.7111V3.6181C54.6818 3.6181 50.5354 0 42.4147 0H12.2531C5.48519 0 0 5.48519 0 12.2531V28.0083C0 34.7742 5.48519 40.2614 12.2531 40.2614H33.2493C37.2657 40.2614 43.0711 37.0155 43.0711 33.2614H44.5119L43.0711 40.2614" fill="white"/>
<path d="M113.168 16.5977V11.8969C113.168 5.3271 107.841 0 101.271 0H60.2251V40.2594H72.078V28.4946H89.9664L98.0731 40.2594H112.413L104.075 28.1584C109.292 26.8976 113.168 22.2009 113.168 16.5977ZM72.078 11.7648H98.8596C100.224 11.7648 101.329 12.8695 101.329 14.2343C101.329 15.5991 100.224 16.7037 98.8596 16.7037H72.078V11.7648Z" fill="white"/>
<path d="M206 0H152.339V11.7648H173.069V40.2594H185.27V11.7648H206V0Z" fill="white"/>
<path d="M133.025 0L118.459 4.6427V17.228L133.025 12.6494V40.2594H146.377V0H133.025Z" fill="white"/>
</svg>
