<svg width="531" height="104" viewBox="0 0 531 104" fill="none" xmlns="http://www.w3.org/2000/svg">
<foreignObject x="-4" y="-4" width="148.952" height="111.781"><div xmlns="http://www.w3.org/1999/xhtml" style="backdrop-filter:blur(2px);clip-path:url(#bgblur_0_801_1445_clip_path);height:100%;width:100%"></div></foreignObject><path data-figma-bg-blur-radius="4" d="M111.018 103.776H140.952C140.952 103.776 140.952 65.8824 140.952 61.3791C140.952 56.8759 137.578 38.0841 110.234 38.0841H73.5528V66.2589H107.03C108.862 66.2589 110.352 67.7445 110.352 69.5809C110.352 71.4121 108.867 72.9029 107.03 72.9029H42.4635C35.8299 72.9029 30.4549 67.5279 30.4549 60.8943V42.6028C30.4549 35.9691 35.8299 30.5941 42.4635 30.5941H105.282C119.349 30.5941 133.302 33.2971 140.952 40.4982V9.32629C140.952 9.32629 130.264 0 109.331 0H31.5845C14.139 0 0 14.139 0 31.5845V72.1962C0 89.6365 14.139 103.781 31.5845 103.781H85.7059C96.0587 103.781 111.023 95.4139 111.023 85.7368H114.737L111.023 103.781" fill="white"/>
<foreignObject x="151.24" y="-4" width="144.469" height="111.776"><div xmlns="http://www.w3.org/1999/xhtml" style="backdrop-filter:blur(2px);clip-path:url(#bgblur_1_801_1445_clip_path);height:100%;width:100%"></div></foreignObject><path data-figma-bg-blur-radius="4" d="M291.71 42.7833V30.6664C291.71 13.7315 277.978 0 261.043 0H155.24V103.776H185.793V73.4497H231.904L252.8 103.776H289.765L268.27 72.5831C281.718 69.3333 291.71 57.2267 291.71 42.7833ZM185.793 30.3259H254.827C258.345 30.3259 261.193 33.1733 261.193 36.6913C261.193 40.2093 258.345 43.0567 254.827 43.0567H185.793V30.3259Z" fill="white"/>
<foreignObject x="388.679" y="-4" width="146.321" height="111.776"><div xmlns="http://www.w3.org/1999/xhtml" style="backdrop-filter:blur(2px);clip-path:url(#bgblur_2_801_1445_clip_path);height:100%;width:100%"></div></foreignObject><path data-figma-bg-blur-radius="4" d="M531 0H392.679V30.3259H446.114V103.776H477.565V30.3259H531V0Z" fill="white"/>
<foreignObject x="301.348" y="-4" width="79.9641" height="111.776"><div xmlns="http://www.w3.org/1999/xhtml" style="backdrop-filter:blur(2px);clip-path:url(#bgblur_3_801_1445_clip_path);height:100%;width:100%"></div></foreignObject><path data-figma-bg-blur-radius="4" d="M342.896 0L305.348 11.9674V44.4082L342.896 32.6059V103.776H377.312V0H342.896Z" fill="white"/>
<defs>
<clipPath id="bgblur_0_801_1445_clip_path" transform="translate(4 4)"><path d="M111.018 103.776H140.952C140.952 103.776 140.952 65.8824 140.952 61.3791C140.952 56.8759 137.578 38.0841 110.234 38.0841H73.5528V66.2589H107.03C108.862 66.2589 110.352 67.7445 110.352 69.5809C110.352 71.4121 108.867 72.9029 107.03 72.9029H42.4635C35.8299 72.9029 30.4549 67.5279 30.4549 60.8943V42.6028C30.4549 35.9691 35.8299 30.5941 42.4635 30.5941H105.282C119.349 30.5941 133.302 33.2971 140.952 40.4982V9.32629C140.952 9.32629 130.264 0 109.331 0H31.5845C14.139 0 0 14.139 0 31.5845V72.1962C0 89.6365 14.139 103.781 31.5845 103.781H85.7059C96.0587 103.781 111.023 95.4139 111.023 85.7368H114.737L111.023 103.781"/>
</clipPath><clipPath id="bgblur_1_801_1445_clip_path" transform="translate(-151.24 4)"><path d="M291.71 42.7833V30.6664C291.71 13.7315 277.978 0 261.043 0H155.24V103.776H185.793V73.4497H231.904L252.8 103.776H289.765L268.27 72.5831C281.718 69.3333 291.71 57.2267 291.71 42.7833ZM185.793 30.3259H254.827C258.345 30.3259 261.193 33.1733 261.193 36.6913C261.193 40.2093 258.345 43.0567 254.827 43.0567H185.793V30.3259Z"/>
</clipPath><clipPath id="bgblur_2_801_1445_clip_path" transform="translate(-388.679 4)"><path d="M531 0H392.679V30.3259H446.114V103.776H477.565V30.3259H531V0Z"/>
</clipPath><clipPath id="bgblur_3_801_1445_clip_path" transform="translate(-301.348 4)"><path d="M342.896 0L305.348 11.9674V44.4082L342.896 32.6059V103.776H377.312V0H342.896Z"/>
</clipPath></defs>
</svg>
