<svg fill="none" height="31" viewBox="0 0 527 31" width="527" xmlns="http://www.w3.org/2000/svg"><g fill="#fff"><path d="m526.638 12.0807h-7.205v-2.82417c0-2.13619-1.955-4.09136-10.283-4.09136-8.327 0-10.246 1.70172-10.246 3.80171v1.19482c0 6.1913 28.096.2897 28.096 10.7172v1.7741c0 4.5259-3.983 7.712-17.85 7.712-13.831 0-17.814-3.7655-17.814-8.1827v-2.9689h7.314v2.8241c0 2.1362 1.919 4.0914 10.5 4.0914 8.617 0 10.536-1.7018 10.536-3.8017v-1.1949c0-6.1913-27.988-.2896-27.988-10.7172v-1.77408c0-4.52584 4.418-7.712034 17.452-7.712034 13.071 0 17.488 3.765494 17.488 8.182714z"/><path d="m419.648 29.7495v-28.24121h30.558v4.12757h-23.244v7.71204h21.76v3.6931h-21.76v8.6172h23.86v4.0913z"/><path d="m369.581 1.50829h7.314v28.24121h-7.314z"/><path d="m327.594 11.5375c0 3.8742-2.136 6.5173-9.667 7.35l9.523 10.862h-8.4l-9.088-10.5723h-9.052v10.5723h-7.314v-28.24121h18.43c12.382 0 15.568 2.89654 15.568 7.63962zm-7.313-.543v-1.30349c0-2.20861-1.159-4.05515-8.255-4.05515h-11.116v9.44994h11.116c7.096 0 8.255-1.5931 8.255-4.0913z"/><path d="m221.147 29.7495v-28.24121h30.559v4.12757h-23.245v7.71204h21.76v3.6931h-21.76v8.6172h23.86v4.0913z"/><path d="m178.785 12.0807h-7.205v-2.82417c0-2.13619-1.956-4.09136-10.283-4.09136-8.328 0-10.247 1.70172-10.247 3.80171v1.19482c0 6.1913 28.097.2897 28.097 10.7172v1.7741c0 4.5259-3.983 7.712-17.85 7.712-13.831 0-17.814-3.7655-17.814-8.1827v-2.9689h7.314v2.8241c0 2.1362 1.919 4.0914 10.5 4.0914 8.617 0 10.536-1.7018 10.536-3.8017v-1.1949c0-6.1913-27.988-.2896-27.988-10.7172v-1.77408c0-4.52584 4.417-7.712034 17.452-7.712034 13.07 0 17.488 3.765494 17.488 8.182714z"/><path d="m88.6725 29.7495v-22.52055l-8.2189 3.07755v-4.48961l12.1293-4.3086h3.4034v28.24121z"/><path d="m37.1119 12.2979h-7.3138v-1.3034c0-2.86038-1.6655-5.82933-11.2603-5.82933-9.55854 0-11.22404 2.96895-11.22404 5.82933v9.3051c0 2.8603 1.6655 5.8293 11.22404 5.8293 9.5948 0 11.2603-2.969 11.2603-5.8293v-1.919h-11.1878v-3.2586h18.5016v5.7207c0 5.25-3.8017 9.5223-18.5741 9.5223-14.7361 0-18.5378-4.2723-18.5378-9.5223v-10.3913c0-5.25002 3.8017-9.522414 18.5378-9.522414 14.7724 0 18.5741 4.272394 18.5741 9.522414z"/><path d="m80.3899 25.8111h22.8267v3.96987h-22.8267z"/></g></svg>