<svg width="347" height="129" viewBox="0 0 347 129" fill="none" xmlns="http://www.w3.org/2000/svg">
<path d="M9.38726 97.7369H3.92066V102.824H13.3863V104.017H2.59375V91.0352H12.9522V92.2275H3.92677V96.5629H9.39338V97.7369H9.38726Z" fill="white"/>
<path d="M26.1298 93.5425C25.3349 92.8087 23.6472 91.8732 21.238 91.8732C19.4891 91.8732 17.5018 92.5274 17.5018 94.3802C17.5018 96.233 19.8254 96.3308 22.0329 96.447C24.277 96.5876 27.9153 96.8017 27.9153 100.165C27.9153 103.088 25.1942 104.341 22.0696 104.341C18.9449 104.341 16.8231 102.971 15.4473 101.7L16.2605 100.788C17.3918 101.84 19.2017 103.192 22.0879 103.192C24.5155 103.192 26.5823 102.299 26.5823 100.33C26.5823 98.1408 24.2158 97.884 22.0268 97.7433C19.2812 97.5844 16.1627 97.3887 16.1627 94.4842C16.1627 91.5797 19.0061 90.748 21.293 90.748C23.9162 90.748 25.9647 91.8242 26.9369 92.6375L26.1237 93.5486L26.1298 93.5425Z" fill="white"/>
<path d="M31.6582 104.017V91.0352H38.5373C40.1455 91.0352 41.2584 91.451 42.0961 92.3254C42.7321 93.0041 43.0684 93.8357 43.0684 94.7529C43.0684 95.768 42.6526 96.6607 41.9555 97.3395C41.1606 98.1161 40.066 98.4952 38.5373 98.4952H32.9912V104.023H31.6582V104.017ZM32.9912 92.2275V97.315H38.5373C39.4117 97.315 40.2861 97.1744 40.9832 96.5018C41.4785 96.0431 41.7415 95.4072 41.7415 94.7529C41.7415 94.1353 41.503 93.5789 41.0627 93.1019C40.4268 92.4232 39.5707 92.2275 38.5373 92.2275H32.9912Z" fill="white"/>
<path d="M52.4301 90.7417C56.4292 90.7417 59.6088 93.7624 59.6088 97.4985C59.6088 101.235 56.4292 104.335 52.4301 104.335C48.431 104.335 45.3125 101.29 45.3125 97.4985C45.3125 93.7074 48.4555 90.7417 52.4301 90.7417ZM52.4301 103.142C55.6709 103.142 58.2147 100.617 58.2147 97.4985C58.2147 94.38 55.6709 91.9096 52.4301 91.9096C49.1893 91.9096 46.725 94.4167 46.725 97.4985C46.725 100.58 49.2321 103.142 52.4301 103.142Z" fill="white"/>
<path d="M72.7723 93.5425C71.9774 92.8087 70.2898 91.8732 67.8805 91.8732C66.1317 91.8732 64.1444 92.5274 64.1444 94.3802C64.1444 96.233 66.468 96.3308 68.6755 96.447C70.9196 96.5876 74.5579 96.8017 74.5579 100.165C74.5579 103.088 71.8368 104.341 68.7121 104.341C65.5875 104.341 63.4657 102.971 62.0898 101.7L62.9031 100.788C64.0343 101.84 65.8443 103.192 68.7305 103.192C71.158 103.192 73.2248 102.299 73.2248 100.33C73.2248 98.1408 70.8584 97.884 68.6693 97.7433C65.9238 97.5844 62.8053 97.3887 62.8053 94.4842C62.8053 91.5797 65.6486 90.748 67.9356 90.748C70.5588 90.748 72.6072 91.8242 73.5795 92.6375L72.7662 93.5486L72.7723 93.5425Z" fill="white"/>
<path d="M78.2949 104.017V91.0352H79.6279V104.017H78.2949Z" fill="white"/>
<path d="M94.541 104.017H83.1309V103.161L92.517 92.2275H83.8279V91.0352H94.4248V91.8912L85.0203 102.824H94.541V104.017Z" fill="white"/>
<path d="M98.3379 104.017V91.0352H99.6709V104.017H98.3379Z" fill="white"/>
<path d="M110.684 90.7417C114.683 90.7417 117.863 93.7624 117.863 97.4985C117.863 101.235 114.683 104.335 110.684 104.335C106.685 104.335 103.566 101.29 103.566 97.4985C103.566 93.7074 106.709 90.7417 110.684 90.7417ZM110.684 103.142C113.925 103.142 116.469 100.617 116.469 97.4985C116.469 94.38 113.925 91.9096 110.684 91.9096C107.443 91.9096 104.979 94.4167 104.979 97.4985C104.979 100.58 107.486 103.142 110.684 103.142Z" fill="white"/>
<path d="M133.186 91.0352V104.017H131.933L123.109 93.3221H123.091V104.017H121.758V91.0352H123.011L131.841 101.73H131.859V91.0352H133.192H133.186Z" fill="white"/>
<path d="M145.081 97.7369H139.614V102.824H149.08V104.017H138.287V91.0352H148.646V92.2275H139.62V96.5629H145.087V97.7369H145.081Z" fill="white"/>
<path d="M157.029 104.017V91.0352H158.362V104.017H157.029Z" fill="white"/>
<path d="M174.878 91.0352V104.017H173.624L164.801 93.3221H164.782V104.017H163.449V91.0352H164.703L173.532 101.73H173.551V91.0352H174.884H174.878Z" fill="white"/>
<path d="M178.062 91.0352H189.412V92.2275H184.404V104.017H183.07V92.2275H178.062V91.0352Z" fill="white"/>
<path d="M199.391 97.7369H193.925V102.824H203.39V104.017H192.598V91.0352H202.956V92.2275H193.931V96.5629H199.397V97.7369H199.391Z" fill="white"/>
<path d="M206.869 104.017V91.0352H214.005C215.638 91.0352 216.769 91.4754 217.546 92.307C218.163 92.9613 218.518 93.8174 218.518 94.7957C218.518 96.5446 217.307 97.9754 215.375 98.3362L218.634 104.023H217.124L214.024 98.4952H208.196V104.023H206.863L206.869 104.017ZM208.202 92.2275V97.315H214.482C216.115 97.315 217.185 96.141 217.185 94.7713C217.185 94.117 216.947 93.5361 216.506 93.0836C215.889 92.4477 215.057 92.2275 213.999 92.2275H208.196H208.202Z" fill="white"/>
<path d="M234.087 91.0352V104.017H232.833L224.004 93.3221H223.985V104.017H222.652V91.0352H223.906L232.736 101.73H232.754V91.0352H234.087Z" fill="white"/>
<path d="M237.426 104.017L243.449 91.0352H244.764L250.787 104.017H249.337L247.411 99.8037H240.709L238.802 104.017H237.432H237.426ZM241.205 98.7336H246.928L244.128 92.5883H244.005L241.205 98.7336Z" fill="white"/>
<path d="M263.928 104.017H252.518V103.161L261.904 92.2275H253.215V91.0352H263.812V91.8912L254.407 102.824H263.928V104.017Z" fill="white"/>
<path d="M267.725 104.017V91.0352H269.058V104.017H267.725Z" fill="white"/>
<path d="M280.071 90.7417C284.064 90.7417 287.249 93.7624 287.249 97.4985C287.249 101.235 284.07 104.335 280.071 104.335C276.072 104.335 272.953 101.29 272.953 97.4985C272.953 93.7074 276.096 90.7417 280.071 90.7417ZM280.071 103.142C283.312 103.142 285.855 100.617 285.855 97.4985C285.855 94.38 283.312 91.9096 280.071 91.9096C276.83 91.9096 274.366 94.4167 274.366 97.4985C274.366 100.58 276.873 103.142 280.071 103.142Z" fill="white"/>
<path d="M302.579 91.0352V104.017H301.326L292.496 93.3221H292.478V104.017H291.145V91.0352H292.398L301.228 101.73H301.246V91.0352H302.579Z" fill="white"/>
<path d="M305.916 104.017L311.939 91.0352H313.254L319.277 104.017H317.828L315.901 99.8037H309.2L307.292 104.017H305.922H305.916ZM309.695 98.7336H315.418L312.618 92.5883H312.496L309.695 98.7336Z" fill="white"/>
<path d="M323.931 91.0352V102.824H332.277V104.017H322.598V91.0352H323.931Z" fill="white"/>
<path d="M342.061 97.7369H336.595V102.824H346.06V104.017H335.268V91.0352H345.626V92.2275H336.601V96.5629H342.067V97.7369H342.061Z" fill="white"/>
<path d="M75.75 127.877V114.895H81.1555C83.6197 114.895 84.9894 115.61 86.2429 116.766C87.3986 117.94 88.0529 119.567 88.0529 121.377C88.0529 123.187 87.3558 124.917 86.1451 126.085C84.9099 127.198 83.6381 127.877 81.1555 127.877H75.75ZM81.1188 126.684C83.1672 126.684 84.0783 126.146 85.1178 125.253C86.0901 124.281 86.6893 122.887 86.6893 121.377C86.6893 119.866 86.1329 118.533 85.1606 117.561C84.1639 116.644 83.155 116.087 81.1249 116.087H77.0891V126.684H81.1249H81.1188Z" fill="white"/>
<path d="M98.8326 121.597H93.366V126.684H102.832V127.877H92.0391V114.895H102.397V116.087H93.3721V120.423H98.8387V121.597H98.8326Z" fill="white"/>
<path d="M107.646 114.895V126.684H115.992V127.877H106.312V114.895H107.646Z" fill="white"/>
<path d="M120.307 114.895V126.684H128.66V127.877H118.98V114.895H120.313H120.307Z" fill="white"/>
<path d="M138.438 121.597H132.971V126.684H142.437V127.877H131.645V114.895H142.003V116.087H132.978V120.423H138.444V121.597H138.438Z" fill="white"/>
<path d="M150.387 127.877V114.895H155.792C158.256 114.895 159.626 115.61 160.88 116.766C162.035 117.94 162.69 119.567 162.69 121.377C162.69 123.187 161.993 124.917 160.782 126.085C159.553 127.198 158.275 127.877 155.792 127.877H150.387ZM155.755 126.684C157.804 126.684 158.715 126.146 159.748 125.253C160.721 124.281 161.32 122.887 161.32 121.377C161.32 119.866 160.763 118.533 159.791 117.561C158.795 116.644 157.786 116.087 155.755 116.087H151.72V126.684H155.755Z" fill="white"/>
<path d="M177.719 114.895V123.266C177.719 126.409 175.292 128.195 172.033 128.195C168.773 128.195 166.389 126.403 166.389 123.266V114.895H167.722V123.266C167.722 125.669 169.593 127.002 172.033 127.002C174.472 127.002 176.386 125.669 176.386 123.266V114.895H177.719Z" fill="white"/>
<path d="M189.333 121.597H183.866V126.684H193.332V127.877H182.539V114.895H192.897V116.087H183.872V120.423H189.339V121.597H189.333Z" fill="white"/>
<path d="M201.28 127.877V114.895H208.415C210.048 114.895 211.179 115.335 211.956 116.167C212.574 116.821 212.928 117.677 212.928 118.656C212.928 120.404 211.717 121.835 209.785 122.196L213.044 127.883H211.534L208.434 122.355H202.606V127.883H201.273L201.28 127.877ZM202.613 116.087V121.175H208.892C210.525 121.175 211.595 120.001 211.595 118.631C211.595 117.977 211.357 117.396 210.916 116.943C210.299 116.308 209.467 116.087 208.409 116.087H202.606H202.613Z" fill="white"/>
<path d="M228.118 114.895V123.266C228.118 126.409 225.69 128.195 222.431 128.195C219.172 128.195 216.787 126.403 216.787 123.266V114.895H218.12V123.266C218.12 125.669 219.991 127.002 222.437 127.002C224.883 127.002 226.791 125.669 226.791 123.266V114.895H228.124H228.118Z" fill="white"/>
<path d="M238.856 114.595C242.849 114.595 246.035 117.616 246.035 121.352C246.035 125.088 242.855 128.188 238.856 128.188C234.857 128.188 231.738 125.143 231.738 121.352C231.738 117.561 234.881 114.595 238.856 114.595ZM238.856 127.002C242.097 127.002 244.64 124.477 244.64 121.358C244.64 118.24 242.097 115.769 238.856 115.769C235.615 115.769 233.151 118.276 233.151 121.358C233.151 124.44 235.658 127.002 238.856 127.002Z" fill="white"/>
<path d="M247.545 114.895H258.894V116.087H253.886V127.877H252.553V116.087H247.545V114.895Z" fill="white"/>
<path d="M268.879 121.597H263.413V126.684H272.879V127.877H262.086V114.895H272.444V116.087H263.419V120.423H268.886V121.597H268.879Z" fill="white"/>
<path d="M68.9868 46.7827C68.9868 65.8364 53.547 81.2762 34.4934 81.2762C15.4398 81.2762 0 65.8364 0 46.7827C0 27.7291 15.4398 12.2832 34.4934 12.2832C40.5348 12.2832 46.2154 13.8364 51.15 16.5697L35.0865 32.6332C34.8848 32.6209 34.6891 32.6209 34.4873 32.6209C26.6665 32.6209 20.3255 38.9619 20.3255 46.7889C20.3255 47.5838 20.3866 48.3603 20.5151 49.1125C21.5179 55.1783 26.373 59.9478 32.4878 60.81C33.142 60.9017 33.8086 60.9507 34.4873 60.9507C42.3081 60.9507 48.6491 54.6096 48.6491 46.7889C48.6491 46.6604 48.6491 46.5259 48.6491 46.3975L64.7738 30.2729C67.4581 35.183 68.9807 40.8086 68.9807 46.795L68.9868 46.7827Z" fill="#ED1C24"/>
<path d="M65.3001 5.36155L29.4299 41.2318C26.4688 44.1928 26.4678 48.9927 29.4277 51.9526C32.3876 54.9125 37.1875 54.9115 40.1486 51.9504L76.0188 16.0802C78.9798 13.1192 78.9808 8.31928 76.0209 5.35939C73.061 2.39951 68.2611 2.40048 65.3001 5.36155Z" fill="#ED1C24"/>
<path d="M62.8782 4.90246L52.3486 15.4321L51.3213 14.8634C49.2423 13.7138 47.0532 12.7783 44.7969 12.069L52.0612 4.80462C55.0208 1.84507 59.8209 1.84507 62.7804 4.80462C62.8171 4.84131 62.8477 4.87188 62.8782 4.90857V4.90246Z" fill="#ED1C24"/>
<path d="M104.385 55.5387V67.0529H134.916V77.0505H92.8711V22.8125H132.342V32.8101H104.385V45.003H129.083V55.5387H104.385Z" fill="white"/>
<path d="M155.223 23.0386H143.33V77.1298H155.223V23.0386Z" fill="white"/>
<path d="M190.218 77.2767C175.065 77.2767 162.793 65.0044 162.793 49.852C162.793 34.6996 175.065 22.4272 190.218 22.4272C200.594 22.4272 209.381 28.1874 214.004 36.4423C209.381 38.8637 209.002 39.0961 203.854 41.5909C201.2 36.9682 196.051 33.7885 190.218 33.7885C181.351 33.7885 174.154 41.0589 174.154 49.8459C174.154 58.6328 181.351 65.9033 190.218 65.9033C196.277 65.9033 201.579 62.6441 204.306 57.4955C209.455 60.1493 209.608 60.4489 214.457 62.6502C209.834 71.3637 200.894 77.2706 190.218 77.2706" fill="white"/>
<path d="M223.104 23.0386H238.556L251.054 46.8984L263.326 23.0386H279.011V77.1237H267.87V38.8697H267.723L255.677 63.4878H246.511L234.538 39.2488H234.391V77.1237H223.104V23.0386Z" fill="white"/>
<path d="M316.055 33.2628H316.128L324.915 54.1692H306.962L316.055 33.2628ZM309.922 23.1123L285.377 77.1241H296.212L301.893 65.1575H329.238L334.54 77.1241H346.054L321.888 23.1123H309.922Z" fill="white"/>
</svg>
