<?xml version="1.0" encoding="UTF-8"?>
<svg xmlns="http://www.w3.org/2000/svg" viewBox="0 0 16 16">
  <defs>
    <style>
      .cls-1 {
        fill: #fff;
      }
    </style>
  </defs>
  <g id="Layer_1" data-name="Layer 1">
    <rect width="16" height="16"/>
  </g>
  <g id="Layer_2" data-name="Layer 2">
    <path class="cls-1" d="M14.27,9.33s-.03-2.46-2.69-2.46h-3.23v2.07h2.61c.21,0,.4.11.52.28h0c.13.2.13.46,0,.67h0c-.11.18-.31.28-.52.28h-5.48c-.64,0-1.15-.52-1.15-1.15v-2.27c0-.25.08-.49.23-.69.23-.31.62-.46,1-.46h5.58c.69,0,1.3.07,1.84.2.54.14.97.34,1.3.6v-2.42c-.16-.13-1.11-.8-2.77-.8h-7c-1.53,0-2.77,1.24-2.77,2.77v4.09c0,.9.43,1.76,1.25,2.3.5.33,1.09.47,1.69.47h3.71c2.06,0,2.21-1.62,2.21-1.62h1.49l-.33,1.62h2.53v-3.48Z"/>
  </g>
</svg>