<?xml version="1.0" encoding="UTF-8"?>
<svg xmlns="http://www.w3.org/2000/svg" viewBox="0 0 32 32">
  <defs>
    <style>
      .cls-1 {
        fill: #fff;
      }
    </style>
  </defs>
  <g id="Layer_1" data-name="Layer 1">
    <rect width="32" height="32"/>
  </g>
  <g id="Layer_2" data-name="Layer 2">
    <path class="cls-1" d="M28.9,18.3s-.06-4.16-5.54-4.16h-6.64v3.37h5.36c.43,0,.83.22,1.06.58h0c.27.42.27.95,0,1.37h0c-.23.36-.63.58-1.06.58h-11.26c-1.31,0-2.37-1.06-2.37-2.37v-3.39c0-.52.16-1,.48-1.42.48-.63,1.27-.95,2.06-.95h11.47c1.41,0,2.68.14,3.78.42,1.11.28,2,.7,2.67,1.23v-5.37c-.33-.26-2.27-1.65-5.7-1.65h-14.39c-3.15,0-5.7,2.55-5.7,5.7v7.52c0,1.85.88,3.62,2.58,4.73,1.02.67,2.25.96,3.47.96h8.67c4.23,0,4.54-3.34,4.54-3.34h2.02l-.69,3.34h5.21v-7.16Z"/>
  </g>
</svg>