<?xml version="1.0" encoding="UTF-8"?>
<svg xmlns="http://www.w3.org/2000/svg" viewBox="0 0 180 180">
  <defs>
    <style>
      .cls-1 {
        fill: #fff;
      }
    </style>
  </defs>
  <g id="Layer_1" data-name="Layer 1">
    <rect width="180" height="180"/>
  </g>
  <g id="Layer_2" data-name="Layer 2">
    <path class="cls-1" d="M133.82,133.83c.69-1.25,1.18-2.55,1.43-3.88.13-.66.19-1.34.19-2.01h4.16l-4.16,20.22h0,0s0,0,0,0h0s0,0,0,0h33.54v-47.51c0-5.05-3.78-26.11-34.43-26.11h-41.11v31.58h0s37.52,0,37.52,0c2.05,0,3.72,1.66,3.72,3.72s-1.66,3.72-3.72,3.72H58.61c-7.43,0-13.46-6.02-13.46-13.46v-20.5c0-1.86.38-3.63,1.06-5.24,2.04-4.83,6.83-8.22,12.4-8.22h70.4c7.88,0,15.73.76,22.68,2.52,6.95,1.77,13,4.54,17.29,8.58v-34.93s-11.98-10.45-35.44-10.45H46.41c-19.55,0-35.4,15.85-35.4,35.4v45.51h0c0,3.67.56,7.2,1.59,10.52,4.48,14.41,17.92,24.87,33.81,24.87h60.65c5.08,0,11.14-1.79,16.36-4.72,2.24-1.25,4.32-2.72,6.1-4.34,1.78-1.62,3.26-3.39,4.29-5.27Z"/>
  </g>
</svg>