<?xml version="1.0" encoding="UTF-8"?>
<svg xmlns="http://www.w3.org/2000/svg" viewBox="0 0 64 64">
  <defs>
    <style>
      .cls-1 {
        fill: #fff;
      }
    </style>
  </defs>
  <g id="Layer_1" data-name="Layer 1">
    <rect x="0" width="64" height="64"/>
  </g>
  <g id="Layer_2" data-name="Layer 2">
    <path class="cls-1" d="M45.26,45.26c.21-.38.36-.77.43-1.17.04-.2.06-.4.06-.61h1.26l-1.26,6.12h0,0s0,0,0,0h0s0,0,0,0h10.15v-14.38c0-1.53-1.14-7.9-10.42-7.9h-12.44v9.56h0s11.36,0,11.36,0c.62,0,1.13.5,1.13,1.13s-.5,1.13-1.13,1.13h-21.9c-2.25,0-4.07-1.82-4.07-4.07v-6.2c0-.56.11-1.1.32-1.59.62-1.46,2.07-2.49,3.75-2.49h21.31c2.39,0,4.76.23,6.87.76,2.1.53,3.94,1.37,5.23,2.6v-10.57s-3.63-3.16-10.73-3.16h-26.37c-5.92,0-10.71,4.8-10.71,10.71v13.78h0c0,1.11.17,2.18.48,3.19,1.36,4.36,5.42,7.53,10.23,7.53h18.36c1.54,0,3.37-.54,4.95-1.43.68-.38,1.31-.82,1.85-1.31.54-.49.99-1.03,1.3-1.6Z"/>
  </g>
</svg>