<?xml version="1.0" encoding="UTF-8"?>
<svg xmlns="http://www.w3.org/2000/svg" viewBox="0 0 128 128">
  <defs>
    <style>
      .cls-1 {
        fill: #fff;
      }
    </style>
  </defs>
  <g id="Layer_1" data-name="Layer 1">
    <rect x="0" width="128" height="128"/>
  </g>
  <g id="Layer_2" data-name="Layer 2">
    <path class="cls-1" d="M94.06,94.07c.47-.86.81-1.75.98-2.66.09-.46.13-.92.13-1.38h2.86l-2.85,13.87h0,0s0,0,0,0h0s0,0,0,0h23.01v-32.6c0-3.46-2.59-17.91-23.62-17.91h-28.2v21.66h0s25.74,0,25.74,0c1.41,0,2.55,1.14,2.55,2.55s-1.14,2.55-2.55,2.55h-49.65c-5.1,0-9.23-4.13-9.23-9.23v-14.06c0-1.28.26-2.49.73-3.59,1.4-3.31,4.68-5.64,8.51-5.64h48.3c5.41,0,10.79.52,15.56,1.73,4.77,1.21,8.92,3.12,11.86,5.88v-23.97s-8.22-7.17-24.31-7.17h-59.78c-13.41,0-24.29,10.87-24.29,24.29v31.23h0c0,2.51.38,4.94,1.09,7.22,3.07,9.89,12.29,17.07,23.19,17.07h41.62c3.48,0,7.64-1.23,11.22-3.24,1.53-.86,2.96-1.86,4.18-2.97,1.22-1.11,2.24-2.33,2.95-3.62Z"/>
  </g>
</svg>