<?xml version="1.0" standalone="no"?>
<!DOCTYPE svg PUBLIC "-//W3C//DTD SVG 1.1//EN" "http://www.w3.org/Graphics/SVG/1.1/DTD/svg11.dtd">
<svg version="1.1" xmlns="http://www.w3.org/2000/svg" xmlns:xlink="http://www.w3.org/1999/xlink"><metadata>This SVG WebFont was generated by YouWorkForThem.
</metadata><defs><font horiz-adv-x="564" id="ywftsvg"><font-face ascent="800" bbox="-265 -236 1129 1000" cap-height="700" descent="-200" font-family="" font-stretch="normal" font-weight="500" panose-1="0 0 0 0 0 0 0 0 0 0" underline-position="0" underline-thickness="0" unicode-range="U+0020-1F9F8" units-per-em="1000" x-height="504"/><missing-glyph horiz-adv-x="612"/><glyph glyph-name=".notdef" horiz-adv-x="612"/><glyph glyph-name="glyph1" horiz-adv-x="0"/><glyph glyph-name="glyph2" horiz-adv-x="333"/><glyph glyph-name="space" horiz-adv-x="250" unicode=" "/><glyph d="M110 344q10 114 30 227l23 129h111l-23 -129q-20 -114 -49 -227l-39 -144h-67zM92 -15q-26 0 -41.5 14.5t-15.5 37.5q0 32 24 54.5t58 22.5q25 0 40.5 -14.5t15.5 -37.5q0 -31 -24 -54t-57 -23z" glyph-name="exclam" horiz-adv-x="280" unicode="!"/><glyph d="M94 423l49 277h80l-49 -277h-80zM246 423l49 277h80l-49 -277h-80z" glyph-name="quotedbl" horiz-adv-x="360" unicode="&quot;"/><glyph d="M95 146q8 15 2 24.5t-22 9.5h-60l17 92h91q36 0 52 33l45 89q8 15 2 24.5t-22 9.5h-80l16 92h111q36 0 52 33l73 147h107l-72 -146q-7 -15 -1.5 -24.5t21.5 -9.5h47q37 0 53 33l72 147h108l-73 -146q-7 -15 -1.5 -24.5t21.5 -9.5h60l-16 -92h-91q-36 0 -52 -33l-45 -89 q-8 -15 -2 -24.5t22 -9.5h79l-16 -92h-111q-35 0 -52 -33l-73 -147h-107l72 146q7 15 2 24.5t-21 9.5h-48q-36 0 -52 -33l-73 -147h-107zM283 306q-7 -15 -2 -24.5t21 -9.5h48q36 0 53 33l44 89q7 15 2 24.5t-21 9.5h-48q-36 0 -52 -33z" glyph-name="numbersign" horiz-adv-x="695" unicode="#"/><glyph d="M208 -37q5 26 -22 32q-93 22 -131 89.5t-21 169.5h110q-16 -85 23 -128.5t128 -43.5q81 0 128 34t47 94q0 66 -99 88l-91 20q-93 21 -136 64.5t-43 112.5q0 80 55.5 138.5t153.5 75.5q31 5 35 32l7 39h103l-7 -42q-4 -26 21 -32q84 -20 121 -81t21 -154h-106 q12 74 -24 110.5t-113 36.5q-73 0 -114 -29.5t-41 -83.5q0 -65 102 -89l91 -21q92 -20 133.5 -62.5t41.5 -112.5q0 -91 -63.5 -154t-172.5 -77q-31 -5 -35 -31l-6 -38h-103z" glyph-name="dollar" horiz-adv-x="624" unicode="$"/><glyph d="M46 0l571 700h103l-571 -700h-103zM197 337q-61 0 -94 35t-33 99q0 103 55 171t138 68q61 0 94.5 -35t33.5 -99q0 -103 -55 -171t-139 -68zM209 407q39 0 66 47t27 115q0 71 -52 71q-38 0 -65 -47.5t-27 -115.5q0 -70 51 -70zM502 -8q-61 0 -94.5 35.5t-33.5 98.5 q0 103 55 171t138 68q62 0 95 -35t33 -99q0 -103 -55 -171t-138 -68zM514 62q39 0 66 47t27 115q0 71 -52 71q-39 0 -65.5 -48t-26.5 -115q0 -70 51 -70z" glyph-name="percent" horiz-adv-x="730" unicode="%"/><glyph d="M289 438l31 -40q32 23 47 35t37 33.5t31.5 44t9.5 47.5q0 35 -22.5 53.5t-60.5 18.5q-49 0 -78.5 -28t-29.5 -73q0 -44 35 -91zM9 159q0 73 45.5 132t130.5 115q-39 61 -39 119q0 80 59 135t159 55q85 0 136.5 -39t51.5 -107q0 -70 -46.5 -125.5t-133.5 -114.5l96 -127 q36 46 77 113h108q-71 -120 -130 -186l95 -125l-1 -4h-126l-41 54q-95 -69 -214 -69q-107 0 -167 47t-60 127zM118 174q0 -46 33.5 -72t98.5 -26q80 0 146 50l-160 210q-57 -40 -87.5 -78.5t-30.5 -83.5z" glyph-name="ampersand" horiz-adv-x="668" unicode="&amp;"/><glyph d="M94 423l49 277h78l-49 -277h-78z" glyph-name="quotesingle" horiz-adv-x="206" unicode="'"/><glyph d="M175 -80q-77 96 -77 293q0 143 62.5 278t148.5 209h121q-90 -74 -155.5 -211.5t-65.5 -296.5q0 -176 84 -272h-118z" glyph-name="parenleft" horiz-adv-x="400" unicode="("/><glyph d="M-10 -80q90 74 155.5 211.5t65.5 296.5q0 176 -84 272h118q77 -96 77 -293q0 -143 -62.5 -278t-148.5 -209h-121z" glyph-name="parenright" horiz-adv-x="400" unicode=")"/><glyph d="M160 351l-59 52l30 33q34 35 77 68q-29 3 -87 20l-39 13l28 77l36 -13q56 -20 92 -42q0 53 9 101l8 40h79l-8 -40q-11 -55 -33 -101q22 13 93 38l40 14l24 -74l-40 -12q-53 -16 -107 -23q23 -24 55 -75l20 -34l-70 -42l-18 34q-25 43 -36 84q-17 -28 -65 -85z" glyph-name="asterisk" horiz-adv-x="432" unicode="*"/><glyph d="M216 259q6 36 -31 36h-126l16 92h126q38 0 44 36l24 138h107l-24 -138q-6 -36 30 -36h126l-16 -92h-126q-37 0 -43 -36l-24 -138h-108z" glyph-name="plus" horiz-adv-x="537" unicode="+"/><glyph d="M52 -38q15 24 -2 35q-20 13 -20 42q0 30 22.5 52.5t55.5 22.5q27 0 43.5 -16t16.5 -42q0 -34 -35 -91l-83 -143h-81z" glyph-name="comma" horiz-adv-x="263" unicode=","/><glyph d="M90 215l15 92h355l-16 -92h-354z" glyph-name="hyphen" horiz-adv-x="546" unicode="-"/><glyph d="M80 -15q-26 0 -41.5 14.5t-15.5 37.5q0 32 24 54.5t58 22.5q25 0 40.5 -14.5t15.5 -37.5q0 -31 -24 -54t-57 -23z" glyph-name="period" horiz-adv-x="255" unicode="."/><glyph d="M-52 -80l386 780h115l-386 -780h-115z" glyph-name="slash" horiz-adv-x="377" unicode="/"/><glyph d="M247 -15q-98 0 -152.5 65t-54.5 194q0 55 9 114t32 124t57.5 116t90.5 84t125 33q98 0 152.5 -65.5t54.5 -194.5q0 -55 -9 -114.5t-32.5 -124t-57.5 -115t-90 -83.5t-125 -33zM254 77q52 0 92.5 42.5t62 106.5t31.5 125.5t10 112.5q0 159 -103 159q-52 0 -92.5 -42.5 t-62 -106t-32 -125.5t-10.5 -114q0 -158 104 -158z" glyph-name="zero" horiz-adv-x="566" unicode="0"/><glyph d="M58 468l17 92h146q40 0 48 40l17 100h107l-123 -700h-107l76 428q8 40 -34 40h-147z" glyph-name="one" horiz-adv-x="377" unicode="1"/><glyph d="M327 370q60 36 92.5 73.5t32.5 86.5q0 43 -26 68t-75 25q-60 0 -100.5 -39t-53.5 -114h-112q20 118 91 181.5t180 63.5q98 0 151.5 -48t53.5 -131q0 -75 -45 -134t-140 -115l-123 -72q-85 -51 -123 -123h363l-16 -92h-492q18 100 70.5 170.5t148.5 127.5z" glyph-name="two" horiz-adv-x="555" unicode="2"/><glyph d="M298 405q69 0 107 36t38 90q0 44 -27 68t-75 24q-59 0 -97.5 -36.5t-51.5 -108.5h-109q19 113 88.5 175t177.5 62q93 0 148.5 -45.5t55.5 -125.5q0 -61 -33.5 -104.5t-93.5 -65.5q96 -45 96 -156q0 -98 -72.5 -165.5t-194.5 -67.5q-117 0 -184 64.5t-47 177.5h109 q-12 -73 23 -111.5t101 -38.5q69 0 112 38.5t43 97.5q0 31 -12.5 52.5t-33.5 32t-42 15t-45 4.5h-48l6 35l10 53h51z" glyph-name="three" horiz-adv-x="565" unicode="3"/><glyph d="M138 276h162q40 0 48 40l44 250zM16 184l16 92l371 424h117l-74 -424h120l-16 -92h-120l-33 -184h-107l32 184h-306z" glyph-name="four" horiz-adv-x="582" unicode="4"/><glyph d="M137 223q-8 -71 26 -108.5t97 -37.5q77 0 121 53t44 127q0 61 -32.5 93t-90.5 32q-79 0 -127 -60h-106l107 378h404l-15 -92h-313l-55 -190q52 52 138 52q90 0 145.5 -54t55.5 -152q0 -116 -75 -197.5t-204 -81.5q-112 0 -178 64t-50 174h108z" glyph-name="five" horiz-adv-x="567" unicode="5"/><glyph d="M265 -15q-101 0 -164 65.5t-62 206.5q1 59 12 119.5t36.5 122t62 109t93.5 77.5t125 30q96 0 149.5 -54t51.5 -140h-105q-1 45 -27 73.5t-77 28.5q-78 0 -132.5 -67.5t-76.5 -192.5h4q54 91 168 91q91 0 147.5 -54.5t56.5 -145.5q1 -67 -28 -127.5t-90.5 -101 t-143.5 -40.5zM264 77q71 0 112 49.5t41 117.5q0 57 -31 89.5t-85 32.5q-71 0 -115 -52.5t-42 -121.5q2 -53 33.5 -84t86.5 -31z" glyph-name="six" horiz-adv-x="561" unicode="6"/><glyph d="M66 0l398 608h-381l16 92h505l-15 -84l-402 -616h-121z" glyph-name="seven" horiz-adv-x="553" unicode="7"/><glyph d="M260 -15q-105 0 -170.5 50.5t-65.5 141.5q0 75 45 134t125 83q-78 41 -78 129q0 82 69.5 137t170.5 55q90 0 147.5 -44.5t57.5 -119.5q0 -57 -33.5 -101t-93.5 -67q103 -47 103 -162q0 -98 -75 -167t-202 -69zM267 77q73 0 117.5 39t44.5 101q0 54 -34.5 84.5t-97.5 30.5 q-74 0 -120 -40.5t-46 -101.5q0 -54 36.5 -83.5t99.5 -29.5zM325 417q58 0 94 34t36 83q0 43 -28.5 68t-78.5 25q-58 0 -93.5 -33t-35.5 -81q0 -43 28.5 -69.5t77.5 -26.5z" glyph-name="eight" horiz-adv-x="580" unicode="8"/><glyph d="M227 -15q-96 0 -149.5 54t-51.5 140h105q0 -45 26 -73.5t77 -28.5q78 0 133 67.5t77 192.5h-4q-54 -91 -169 -91q-90 0 -146.5 54.5t-56.5 145.5q-1 67 28 127.5t90.5 101t143.5 40.5q101 0 164 -65.5t62 -206.5q-1 -59 -12 -119.5t-36.5 -122t-62 -109t-93.5 -77.5 t-125 -30zM294 334q71 0 115 52.5t42 121.5q-2 53 -33.5 84t-86.5 31q-71 0 -112.5 -49.5t-41.5 -117.5q0 -57 31.5 -89.5t85.5 -32.5z" glyph-name="nine" horiz-adv-x="560" unicode="9"/><glyph d="M145 349q-26 0 -42 14.5t-16 38.5q0 31 24 53.5t58 22.5q25 0 41 -14.5t16 -37.5q0 -31 -24 -54t-57 -23zM80 -15q-26 0 -41.5 14.5t-15.5 37.5q0 32 24 54.5t58 22.5q25 0 40.5 -14.5t15.5 -37.5q0 -31 -24 -54t-57 -23z" glyph-name="colon" horiz-adv-x="255" unicode=":"/><glyph d="M52 -38q15 24 -2 35q-20 13 -20 42q0 30 22.5 52.5t55.5 22.5q27 0 43.5 -16t16.5 -42q0 -34 -35 -91l-83 -143h-81zM151 349q-26 0 -41.5 14.5t-15.5 38.5q0 31 24 53.5t58 22.5q25 0 40.5 -14.5t15.5 -37.5q0 -31 -24 -54t-57 -23z" glyph-name="semicolon" horiz-adv-x="266" unicode=";"/><glyph d="M475 0l-418 258l18 102l508 258l-20 -116l-333 -172q-25 -12 -28 -28.5t18 -29.5l273 -169z" glyph-name="less" horiz-adv-x="583" unicode="&lt;"/><glyph d="M80 409l17 92h432l-17 -92h-432zM40 181l16 92h432l-17 -92h-431z" glyph-name="equal" horiz-adv-x="537" unicode="="/><glyph d="M20 0l20 116l334 171q24 12 27 28.5t-17 29.5l-274 170l18 103l418 -258l-18 -102z" glyph-name="greater" horiz-adv-x="583" unicode=">"/><glyph d="M277 395q113 65 113 144q0 39 -23 61.5t-67 22.5q-53 0 -89 -32.5t-44 -90.5h-109q13 95 80 155t167 60q88 0 141 -47t53 -122q0 -140 -208 -247q-13 -10 -16 -24l-12 -75h-108l5 30q19 107 117 165zM171 -15q-26 0 -42 14.5t-16 37.5q0 32 24 54.5t58 22.5 q25 0 41 -14.5t16 -37.5q0 -31 -24 -54t-57 -23z" glyph-name="question" horiz-adv-x="464" unicode="?"/><glyph d="M395 -184q-172 0 -273.5 98.5t-101.5 263.5q0 97 37 189t101.5 162.5t159.5 113.5t203 43q165 0 264 -92.5t99 -238.5q0 -73 -23.5 -139t-76.5 -113t-125 -47q-48 0 -80.5 21t-39.5 64q-51 -82 -135 -82q-61 0 -96.5 40t-35.5 110q0 56 21 108t65 87.5t100 35.5 q80 0 108 -71l9 55h87l-38 -217q-11 -67 41 -67q43 0 72 40t38.5 85t9.5 88q0 110 -70.5 176t-196.5 66q-175 0 -287 -121.5t-112 -289.5q0 -132 74 -204t207 -72q93 0 161 33l31 -85q-90 -40 -197 -40zM435 143q46 0 75.5 41t29.5 92q0 38 -18 59t-50 21q-47 0 -74.5 -43 t-27.5 -93q0 -36 17 -56.5t48 -20.5z" glyph-name="at" horiz-adv-x="897" unicode="@"/><glyph d="M-34 0l397 700h128l151 -700h-117l-40 192h-286l-107 -192h-126zM248 289h221l-60 282h-4z" glyph-name="A" horiz-adv-x="697" unicode="A"/><glyph d="M8 0l123 700h323q82 0 133 -40.5t51 -114.5q0 -62 -35 -106.5t-89 -60.5q44 -17 69 -57.5t25 -95.5q0 -95 -67 -160t-177 -65h-356zM352 99q65 0 103 32.5t38 86.5q0 43 -26.5 67t-78.5 24h-212l-38 -210h214zM390 406q63 0 99.5 30.5t36.5 80.5q0 84 -103 84h-196 l-35 -195h198z" glyph-name="B" horiz-adv-x="642" unicode="B"/><glyph d="M330 -15q-134 0 -213.5 77t-79.5 218q0 81 27 158t76 139t125 100t167 38q135 0 214 -79t67 -206h-114q5 85 -41 134.5t-130 49.5q-83 0 -146.5 -50t-94 -124t-30.5 -156q0 -94 45 -146t132 -52t152.5 51.5t88.5 135.5h118q-34 -132 -130.5 -210t-232.5 -78z" glyph-name="C" horiz-adv-x="714" unicode="C"/><glyph d="M8 0l123 700h242q140 0 219.5 -75.5t79.5 -215.5q0 -73 -22.5 -142t-69.5 -130.5t-131 -99t-194 -37.5h-247zM248 100q80 0 141 26t95.5 69.5t51.5 95t17 108.5q0 201 -207 201h-119l-89 -500h110z" glyph-name="D" horiz-adv-x="676" unicode="D"/><glyph d="M8 0l123 700h512l-17 -99h-399l-35 -195h358l-16 -97h-358l-38 -210h409l-17 -99h-522z" glyph-name="E" horiz-adv-x="590" unicode="E"/><glyph d="M8 0l123 700h496l-18 -101h-382l-35 -195h346l-17 -101h-346l-54 -303h-113z" glyph-name="F" unicode="F"/><glyph d="M315 -15q-127 0 -202.5 77t-75.5 217q0 81 26.5 158t75.5 139.5t126 100.5t170 38q129 0 207 -68t76 -178h-117q-2 66 -46.5 105.5t-121.5 39.5q-125 0 -201 -99.5t-76 -229.5q0 -96 46 -147.5t136 -51.5q88 0 151 51.5t87 144.5h-201l16 93h320l-66 -375h-97l23 128 q-80 -143 -256 -143z" glyph-name="G" horiz-adv-x="733" unicode="G"/><glyph d="M474 0l55 310h-353l-55 -310h-113l123 700h113l-51 -289h353l51 289h113l-123 -700h-113z" glyph-name="H" horiz-adv-x="684" unicode="H"/><glyph d="M8 0l123 700h113l-123 -700h-113z" glyph-name="I" horiz-adv-x="217" unicode="I"/><glyph d="M362 220l85 480h113l-84 -482q-20 -115 -93.5 -174t-174.5 -59q-108 0 -161.5 65.5t-34.5 178.5l9 51h113l-10 -60q-24 -134 96 -134q117 0 142 134z" glyph-name="J" horiz-adv-x="524" unicode="J"/><glyph d="M377 329q-15 36 -45 9l-179 -163l-31 -175h-114l123 700h112l-65 -369l390 369h138l-227 -217q-29 -29 -18 -59l159 -424h-123z" glyph-name="K" horiz-adv-x="674" unicode="K"/><glyph d="M8 0l123 700h113l-99 -559q-6 -40 34 -40h317l-17 -101h-471z" glyph-name="L" horiz-adv-x="543" unicode="L"/><glyph d="M311 0l-93 586l-103 -586h-107l123 700h168l89 -561l284 561h171l-123 -700h-108l102 580l-296 -580h-107z" glyph-name="M" horiz-adv-x="816" unicode="M"/><glyph d="M474 0l-259 560l-98 -560h-109l123 700h131l246 -530l93 530h109l-123 -700h-113z" glyph-name="N" horiz-adv-x="684" unicode="N"/><glyph d="M329 -15q-135 0 -213.5 77t-78.5 218q0 111 47 209t141 162t215 64q135 0 214.5 -77.5t79.5 -216.5q0 -79 -27 -155.5t-76.5 -139.5t-128 -102t-173.5 -39zM336 86q124 0 201 99.5t77 227.5q0 95 -47.5 148t-132.5 53q-83 0 -147.5 -49t-97 -123.5t-32.5 -157.5 q0 -95 47 -146.5t132 -51.5z" glyph-name="O" horiz-adv-x="736" unicode="O"/><glyph d="M8 0l123 700h319q92 0 150.5 -48.5t58.5 -134.5q0 -94 -67.5 -165t-187.5 -71h-233l-50 -281h-113zM400 382q71 0 107 36.5t36 87.5q0 93 -112 93h-204l-38 -217h211z" glyph-name="P" horiz-adv-x="632" unicode="P"/><glyph d="M448 -31q-13 29 -49 22q-34 -6 -70 -6q-135 0 -213.5 77t-78.5 217q0 111 47 209.5t141 162.5t215 64q135 0 214.5 -77t79.5 -214q0 -100 -43 -198t-122 -161q-30 -25 -17 -53l56 -125l-103 -46zM336 86q124 0 201 99.5t77 227.5q0 95 -47.5 148t-132.5 53 q-83 0 -147.5 -49t-97 -123.5t-32.5 -157.5q0 -95 47 -146.5t132 -51.5z" glyph-name="Q" horiz-adv-x="736" unicode="Q"/><glyph d="M8 0l123 700h340q90 0 143 -48.5t45 -132.5q-6 -62 -41.5 -105.5t-91.5 -61.5q74 -25 65 -139l-17 -213h-111l20 258q3 27 -25 27h-287l-50 -285h-113zM394 382q56 0 98.5 27.5t50.5 87.5q6 51 -22 77.5t-85 26.5h-209l-38 -219h205z" glyph-name="R" horiz-adv-x="645" unicode="R"/><glyph d="M318 -15q-146 0 -225.5 74.5t-56.5 204.5h114q-17 -89 28 -134.5t141 -45.5q79 0 126 31.5t47 86.5q0 40 -25 61.5t-78 34.5l-93 20q-101 22 -147 65.5t-46 115.5q0 100 77.5 158t200.5 58q131 0 202.5 -65.5t51.5 -178.5h-111q12 73 -29.5 110t-121.5 37 q-71 0 -113 -28.5t-42 -79.5q0 -37 26.5 -58.5t85.5 -35.5l91 -20q95 -21 141 -64.5t46 -118.5q0 -103 -78.5 -165.5t-211.5 -62.5z" glyph-name="S" horiz-adv-x="652" unicode="S"/><glyph d="M287 559q8 40 -34 40h-182l18 101h559l-17 -101h-183q-41 0 -47 -40l-99 -559h-113z" glyph-name="T" horiz-adv-x="579" unicode="T"/><glyph d="M286 -15q-135 0 -199 79t-41 214l75 422h113l-73 -419q-17 -99 15 -147t117 -48q175 0 209 195l73 419h113l-74 -422q-25 -142 -111 -217.5t-217 -75.5z" glyph-name="U" horiz-adv-x="652" unicode="U"/><glyph d="M227 0l-138 700h117l104 -560h4l301 560h124l-385 -700h-127z" glyph-name="V" horiz-adv-x="670" unicode="V"/><glyph d="M547 0l-35 524h-6l-220 -524h-120l-77 700h121l46 -520h3l220 520h118l35 -520h5l229 520h122l-324 -700h-117z" glyph-name="W" horiz-adv-x="919" unicode="W"/><glyph d="M252 333q24 30 10 56l-156 311h126l125 -258l215 258h139l-265 -313q-23 -29 -10 -56l169 -331h-126l-137 278l-235 -278h-141z" glyph-name="X" horiz-adv-x="660" unicode="X"/><glyph d="M284 246q6 34 -8 62l-187 392h122l147 -313h4l256 313h135l-324 -391q-25 -31 -30 -62l-44 -247h-114z" glyph-name="Y" horiz-adv-x="685" unicode="Y"/><glyph d="M-18 0l16 91l493 508h-373l17 101h529l-16 -91l-493 -508h424l-18 -101h-579z" glyph-name="Z" horiz-adv-x="632" unicode="Z"/><glyph d="M37 -80l138 780h215l-16 -92h-82q-29 0 -35 -30l-95 -536q-6 -30 25 -30h82l-16 -92h-216z" glyph-name="bracketleft" horiz-adv-x="359" unicode="["/><glyph d="M311 -80h-107l-119 780h108z" glyph-name="backslash" horiz-adv-x="376" unicode="\"/><glyph d="M-10 -80l16 92h81q31 0 37 30l94 536q6 30 -25 30h-82l16 92h215l-137 -780h-215z" glyph-name="bracketright" horiz-adv-x="359" unicode="]"/><glyph d="M105 560l148 180h130l85 -180h-88l-45 78q-11 20 -30 20t-36 -20l-73 -78h-91z" glyph-name="asciicircum" horiz-adv-x="463" unicode="^"/><glyph d="M17 -200l15 92h355l-16 -92h-354z" glyph-name="underscore" horiz-adv-x="546" unicode="_"/><glyph d="M216 560l-80 180h122l53 -180h-95z" glyph-name="grave" horiz-adv-x="307" unicode="`"/><glyph d="M170 -15q-76 0 -119 38.5t-43 104.5q0 71 50 115.5t135 49.5l144 10q36 2 44 39q10 44 -15.5 66.5t-75.5 22.5q-52 0 -85.5 -23t-40.5 -64h-107q19 85 81 130t160 45q104 0 153.5 -52.5t31.5 -158.5l-39 -216h41l-16 -92h-44q-83 0 -74 85q-62 -100 -181 -100zM197 72 q62 0 107 39t56 102l4 19l-146 -10q-101 -7 -101 -82q0 -68 80 -68z" glyph-name="a" horiz-adv-x="533" unicode="a"/><glyph d="M288 -15q-124 0 -168 99l-15 -84h-97l123 700h107l-44 -251q67 70 162 70q89 0 144 -58t55 -165q0 -124 -72.5 -217.5t-194.5 -93.5zM277 77q79 0 123 64t44 148q0 67 -31 102.5t-87 35.5q-77 0 -125.5 -63t-48.5 -146q0 -66 33.5 -103.5t91.5 -37.5z" glyph-name="b" horiz-adv-x="578" unicode="b"/><glyph d="M243 -15q-101 0 -161 57.5t-60 162.5q0 80 33 150.5t100.5 117t155.5 46.5q99 0 158 -56t53 -152h-106q2 52 -27 84t-82 32q-78 0 -126 -66.5t-48 -148.5q0 -63 31 -99t87 -36q53 0 93.5 32t56.5 87h108q-23 -96 -93 -153.5t-173 -57.5z" glyph-name="c" horiz-adv-x="544" unicode="c"/><glyph d="M222 -15q-89 0 -144 58t-55 165q0 124 73 217.5t195 93.5q115 0 160 -86l47 267h107l-123 -700h-98l12 69q-67 -84 -174 -84zM252 77q77 0 125.5 63t48.5 146q0 66 -33.5 103.5t-91.5 37.5q-79 0 -123 -64t-44 -148q0 -67 31 -102.5t87 -35.5z" glyph-name="d" horiz-adv-x="578" unicode="d"/><glyph d="M242 -15q-103 0 -161.5 58t-58.5 162q0 57 18.5 112t53 100.5t90.5 73.5t125 28q123 0 179.5 -82.5t15.5 -214.5h-376q-8 -70 23 -109.5t94 -39.5q48 0 81.5 22t48.5 53h112q-27 -73 -90.5 -118t-154.5 -45zM145 300h266q12 59 -17 96t-89 37q-57 0 -99 -35t-61 -98z" glyph-name="e" horiz-adv-x="538" unicode="e"/><glyph d="M56 0l73 413h-92l15 91h60q32 0 39 32l3 22q14 62 62.5 102t127.5 40h51l-17 -91h-81q-31 0 -36 -30l-13 -75h101l-16 -91h-99l-73 -413h-105z" glyph-name="f" horiz-adv-x="332" unicode="f"/><glyph d="M199 -200q-107 0 -160.5 55.5t-47.5 136.5h103q-1 -48 26 -76.5t85 -28.5q66 0 111 37t57 104l13 73q-74 -80 -179 -80q-85 0 -134.5 50.5t-49.5 137.5q0 131 79 220.5t193 89.5q117 0 157 -91l13 76h92l-79 -450q-22 -120 -92.5 -187t-186.5 -67zM242 107 q75 0 126.5 58.5t51.5 142.5q0 57 -32 90t-88 33q-73 0 -122.5 -58.5t-49.5 -143.5q0 -56 30.5 -89t83.5 -33z" glyph-name="g" unicode="g"/><glyph d="M405 304q22 121 -83 121q-61 0 -104 -43.5t-59 -133.5l-44 -248h-107l123 700h108l-46 -256q60 75 161 75q85 0 131 -53.5t29 -149.5l-56 -316h-107z" glyph-name="h" horiz-adv-x="543" unicode="h"/><glyph d="M8 0l88 504h108l-89 -504h-107zM166 596q-25 0 -41 14t-16 37q0 31 23.5 53.5t55.5 22.5q25 0 41 -15t16 -38q0 -30 -23.5 -52t-55.5 -22z" glyph-name="i" horiz-adv-x="211" unicode="i"/><glyph d="M-114 -200l15 92h57q31 0 36 30l102 582h108l-96 -544q-14 -76 -64 -118t-133 -42h-25zM166 596q-25 0 -41 14t-16 37q0 31 23.5 53.5t55.5 22.5q25 0 41 -15t16 -38q0 -30 -23.5 -52t-55.5 -22z" glyph-name="j" horiz-adv-x="211" unicode="j"/><glyph d="M290 224q-14 36 -48 7l-107 -94l-25 -137h-102l123 700h103l-77 -436l268 240h129l-165 -147q-28 -25 -17 -56l110 -301h-114z" glyph-name="k" horiz-adv-x="534" unicode="k"/><glyph d="M120 0q-55 0 -78.5 29t-14.5 83l104 588h107l-107 -608h49l-16 -92h-44z" glyph-name="l" horiz-adv-x="227" unicode="l"/><glyph d="M8 0l88 504h98l-13 -78q57 93 160 93q58 0 94.5 -26.5t47.5 -75.5q60 102 175 102q82 0 122.5 -53t24.5 -145l-57 -321h-107l53 302q22 123 -68 123q-53 0 -93.5 -41.5t-54.5 -123.5l-46 -260h-107l53 302q20 123 -68 123q-54 0 -94.5 -43t-56.5 -130l-44 -252h-107z" glyph-name="m" horiz-adv-x="833" unicode="m"/><glyph d="M406 304q22 121 -84 121q-61 0 -104 -43.5t-59 -133.5l-44 -248h-107l88 504h98l-14 -78q59 93 174 93q87 0 132 -55t28 -148l-55 -316h-107z" glyph-name="n" horiz-adv-x="543" unicode="n"/><glyph d="M245 -15q-102 0 -162.5 58t-60.5 164q0 125 80 218.5t216 93.5q103 0 163 -57.5t60 -162.5q0 -126 -81 -220t-215 -94zM253 77q81 0 129.5 65.5t48.5 149.5q0 63 -31 99t-89 36q-80 0 -129 -65t-49 -149q0 -64 31.5 -100t88.5 -36z" glyph-name="o" unicode="o"/><glyph d="M-27 -200l123 704h98l-12 -68q68 83 174 83q89 0 144 -58t55 -165q0 -124 -72.5 -217.5t-194.5 -93.5q-115 0 -160 87l-48 -272h-107zM277 77q79 0 123 64t44 148q0 67 -31 102.5t-87 35.5q-77 0 -125.5 -63t-48.5 -146q0 -66 33.5 -103.5t91.5 -37.5z" glyph-name="p" horiz-adv-x="578" unicode="p"/><glyph d="M340 -200l45 257q-65 -72 -163 -72q-89 0 -144 58t-55 165q0 124 73 217.5t195 93.5q125 0 167 -99l15 84h98l-124 -704h-107zM252 77q77 0 125.5 63t48.5 146q0 66 -33.5 103.5t-91.5 37.5q-79 0 -123 -64t-44 -148q0 -67 31 -102.5t87 -35.5z" glyph-name="q" horiz-adv-x="578" unicode="q"/><glyph d="M75 392q9 54 43 83t89 29h161l-16 -92h-166l-73 -412h-107z" glyph-name="r" horiz-adv-x="339" unicode="r"/><glyph d="M312 289q135 -29 135 -139q0 -77 -59.5 -121t-157.5 -44q-105 0 -166 49.5t-54 131.5h101q-2 -44 29.5 -69t91.5 -25q50 0 78.5 19t28.5 54q0 26 -16 39.5t-52 21.5l-73 16q-141 30 -141 135q0 75 56 118.5t149 43.5q98 0 153 -45.5t51 -125.5h-101q3 40 -24.5 63 t-78.5 23q-46 0 -72.5 -17.5t-26.5 -50.5q0 -25 17 -38.5t60 -22.5z" glyph-name="s" horiz-adv-x="492" unicode="s"/><glyph d="M232 0q-81 0 -117.5 41.5t-23.5 118.5l45 252h-92l16 92h57q42 0 48 40l20 116h99l-27 -156h104l-16 -92h-102l-51 -290q-6 -30 25 -30h85l-16 -92h-54z" glyph-name="t" horiz-adv-x="346" unicode="t"/><glyph d="M174 -15q-86 0 -127 54t-25 145l56 320h108l-55 -304q-21 -121 78 -121q59 0 100.5 43.5t57.5 133.5l44 248h108l-89 -504h-98l14 78q-59 -93 -172 -93z" glyph-name="u" horiz-adv-x="526" unicode="u"/><glyph d="M140 0l-88 504h109l62 -388h4l199 388h118l-266 -504h-138z" glyph-name="v" horiz-adv-x="508" unicode="v"/><glyph d="M115 0l-63 504h112l32 -360h6l163 360h103l35 -360h5l160 360h112l-240 -504h-114l-33 343h-5l-156 -343h-117z" glyph-name="w" horiz-adv-x="744" unicode="w"/><glyph d="M164 231q25 28 10 56l-111 217h116l84 -167h4l143 167h128l-187 -217q-23 -29 -10 -56l120 -231h-119l-91 176h-4l-152 -176h-131z" glyph-name="x" horiz-adv-x="513" unicode="x"/><glyph d="M145 -25q19 36 12 65l-105 464h111l73 -359h4l188 359h114l-380 -704h-111z" glyph-name="y" horiz-adv-x="506" unicode="y"/><glyph d="M-21 0l15 87l334 325h-262l16 92h407l-15 -87l-335 -325h287l-16 -92h-431z" glyph-name="z" horiz-adv-x="477" unicode="z"/><glyph d="M229 -80q-75 0 -109.5 41.5t-22.5 110.5l34 192h-49l16 92h50l33 192q12 69 61 110.5t124 41.5h57l-16 -92h-82q-30 0 -35 -30l-28 -158q-15 -85 -81 -110q56 -28 41 -118l-27 -150q-5 -30 25 -30h82l-16 -92h-57z" glyph-name="braceleft" horiz-adv-x="392" unicode="{"/><glyph d="M3 -200l183 1040h91l-183 -1040h-91z" glyph-name="bar" horiz-adv-x="255" unicode="|"/><glyph d="M-10 -80l16 92h82q30 0 35 30l28 158q15 85 81 110q-56 28 -41 118l27 150q4 30 -25 30h-82l16 92h57q74 0 109 -41.5t23 -110.5l-34 -192h49l-17 -92h-49l-33 -192q-12 -69 -61.5 -110.5t-123.5 -41.5h-57z" glyph-name="braceright" horiz-adv-x="392" unicode="}"/><glyph d="M400 349q17 -11 34.5 -6.5t26.5 23.5l24 56h112q-31 -104 -113 -145t-166 12l-68 46q-18 11 -35.5 6.5t-25.5 -23.5l-23 -56h-112q30 103 112 143.5t169 -12.5z" glyph-name="asciitilde" horiz-adv-x="619" unicode="~"/><glyph glyph-name="uni00A0" horiz-adv-x="250" unicode=" "/><glyph d="M170 426q-26 0 -41.5 14.5t-15.5 37.5q0 32 24 54.5t58 22.5q25 0 40.5 -14.5t15.5 -37.5q0 -31 -24 -54t-57 -23zM177 196q-14 -132 -31 -227l-23 -129h-111l23 129q20 114 49 227l39 144h67z" glyph-name="exclamdown" horiz-adv-x="280" unicode="¡"/><glyph d="M194 64q4 23 -22 32q-63 22 -98 74t-35 132q0 110 61 198.5t166 110.5q26 6 30 31l10 58h92l-10 -60q-4 -24 18 -33q65 -19 100.5 -71.5t32.5 -126.5h-106q2 53 -27 84.5t-82 31.5q-78 0 -126 -66.5t-48 -148.5q0 -63 31 -99t87 -36q53 0 93 32t56 87h109 q-20 -83 -74.5 -137t-134.5 -69q-28 -6 -32 -30l-10 -58h-92z" glyph-name="cent" horiz-adv-x="544" unicode="¢"/><glyph d="M4 92q69 50 94.5 95t27.5 99h-88l16 92h66q-2 36 -2 56q0 127 62 204t185 77q112 0 172 -62.5t41 -170.5h-107q11 67 -16 104t-91 37q-139 0 -139 -186q0 -21 2 -59h257l-16 -92h-239q-4 -56 -30 -103t-87 -91h407l-16 -92h-515z" glyph-name="sterling" horiz-adv-x="579" unicode="£"/><glyph d="M245 59q-50 0 -87 20q-22 11 -39 -4l-68 -58l-55 65l69 58q18 15 11 38q-6 26 -6 48q0 65 36 124q14 21 -1 39l-44 52l75 62l43 -52q14 -16 38 -7q42 18 90 18q49 0 87 -20q22 -11 39 4l67 57l56 -65l-70 -58q-18 -15 -12 -38q6 -21 6 -47q0 -65 -35 -123q-15 -22 1 -39 l45 -54l-76 -62l-43 52q-15 18 -36 8q-46 -18 -91 -18zM255 146q59 0 96.5 41.5t37.5 98.5q0 41 -25 65t-68 24q-59 0 -96.5 -41t-37.5 -97q0 -42 25 -66.5t68 -24.5z" glyph-name="currency" horiz-adv-x="549" unicode="¤"/><glyph d="M207 0l30 168h-212l14 82h210l1 6q5 21 -8 52l-9 24h-179l14 82h133l-112 286h116l119 -313h4l228 313h129l-212 -286h124l-14 -82h-170l-18 -23q-21 -29 -27 -53l-2 -6h203l-15 -82h-203l-30 -168h-114z" glyph-name="yen" horiz-adv-x="617" unicode="¥"/><glyph d="M116 440l70 400h91l-70 -400h-91zM3 -200l70 400h91l-70 -400h-91z" glyph-name="brokenbar" horiz-adv-x="255" unicode="¦"/><glyph d="M215 -80q-106 0 -165 49.5t-52 131.5h104q-2 -44 27.5 -68.5t86.5 -24.5q52 0 81.5 21t29.5 57q0 54 -68 68l-78 14q-136 26 -136 128q0 46 26.5 79.5t71.5 47.5q-54 43 -54 112q0 73 58.5 119t153.5 46q94 0 149 -46.5t51 -124.5h-105q2 40 -23.5 62.5t-76.5 22.5 q-44 0 -71 -19t-27 -52q0 -54 73 -70l73 -14q132 -26 132 -126q0 -44 -26 -77.5t-66 -49.5q53 -42 53 -115q0 -79 -60.5 -125t-161.5 -46zM155 317q0 -52 70 -65l66 -11q34 3 55.5 22.5t21.5 48.5q0 50 -63 62l-70 12q-36 -3 -58 -21.5t-22 -47.5z" glyph-name="section" horiz-adv-x="494" unicode="§"/><glyph d="M375 596q-25 0 -41 14t-16 37q0 31 24 53.5t56 22.5q25 0 40.5 -15t15.5 -38q0 -30 -23.5 -52t-55.5 -22zM178 596q-25 0 -41 14t-16 37q0 31 23.5 53.5t55.5 22.5q25 0 41 -15t16 -38q0 -30 -23.5 -52t-55.5 -22z" glyph-name="dieresis" horiz-adv-x="432" unicode="¨"/><glyph d="M347 -15q-141 0 -224.5 83t-83.5 223q0 82 30 158.5t82.5 135.5t130 94.5t167.5 35.5q141 0 224.5 -83.5t83.5 -222.5q0 -108 -49.5 -204t-145 -158t-215.5 -62zM351 63q140 0 231 101t91 238q0 107 -60.5 171t-168.5 64q-139 0 -230 -100.5t-91 -238.5q0 -107 60 -171 t168 -64zM370 137q-78 0 -123 45t-45 127q0 100 62.5 177t167.5 77q77 0 122 -44.5t42 -122.5h-92q0 36 -21.5 58.5t-59.5 22.5q-57 0 -91.5 -49t-34.5 -110q0 -45 21.5 -70t60.5 -25t70 23t42 60h93q-21 -78 -78.5 -123.5t-135.5 -45.5z" glyph-name="copyright" horiz-adv-x="762" unicode="©"/><glyph d="M171 334q-50 0 -78 27t-28 73q0 49 32.5 81t88.5 36l90 7q25 2 30 26q12 58 -51 58q-65 0 -75 -57h-83q13 60 55 92t109 32q71 0 104 -36.5t20 -112.5l-25 -144h27l-13 -71h-34q-56 0 -53 57q-40 -68 -116 -68zM195 401q36 0 62 25t34 65l2 14l-86 -7q-57 -5 -57 -54 q0 -43 45 -43z" glyph-name="ordfeminine" horiz-adv-x="382" unicode="ª"/><glyph d="M77 152q-57 101 34 200l137 152h124l-237 -263l136 -241h-109zM288 152q-29 52 -20.5 100t55.5 100l137 152h124l-238 -263l137 -241h-110z" glyph-name="guillemotleft" horiz-adv-x="603" unicode="«"/><glyph d="M375 291q6 36 -30 36h-289l15 92h433l-52 -298h-107z" glyph-name="logicalnot" horiz-adv-x="527" unicode="¬"/><glyph glyph-name="uni00AD" horiz-adv-x="0" unicode="­"/><glyph d="M247 334q-74 0 -119.5 44t-45.5 117q0 88 61.5 154t154.5 66q75 0 120.5 -43.5t45.5 -117.5q0 -88 -61.5 -154t-155.5 -66zM248 376q75 0 122 52.5t47 125.5q0 58 -31.5 89t-87.5 31q-76 0 -122.5 -53t-46.5 -125q0 -58 31.5 -89t87.5 -31zM177 424l35 201h94 q28 0 45 -13.5t17 -37.5q0 -40 -42 -56q23 -8 22 -43l-2 -51h-46l3 59q0 8 -9 8h-59l-12 -67h-46zM285 531q16 0 26.5 8.5t10.5 21.5q0 24 -30 24h-41l-10 -54h44z" glyph-name="registered" horiz-adv-x="450" unicode="®"/><glyph d="M115 618l14 82h294l-15 -82h-293z" glyph-name="macron" horiz-adv-x="394" unicode="¯"/><glyph d="M228 397q-62 0 -101 36.5t-39 98.5q0 69 49.5 122.5t126.5 53.5q63 0 101 -36t38 -97q0 -70 -49 -124t-126 -54zM233 474q39 0 62 29t23 66q0 29 -16 45t-45 16q-38 0 -61 -28t-23 -65q0 -30 16 -46.5t44 -16.5z" glyph-name="degree" horiz-adv-x="385" unicode="°"/><glyph d="M223 287q6 36 -30 36h-128l16 92h128q37 0 43 36l23 134h103l-23 -134q-6 -36 30 -36h128l-16 -92h-128q-37 0 -43 -36l-24 -134h-103zM8 0l16 92h432l-16 -92h-432z" glyph-name="plusminus" horiz-adv-x="537" unicode="±"/><glyph d="M241 575q53 28 53 61q0 35 -45 35q-57 0 -68 -62h-83q10 64 52.5 97.5t107.5 33.5q57 0 89 -25.5t32 -69.5q0 -73 -98 -126l-65 -36q-31 -17 -50 -39h181l-12 -69h-288q20 104 119 159z" glyph-name="uni00B2" horiz-adv-x="342" unicode="²"/><glyph d="M226 592q28 0 44.5 12.5t16.5 31.5q0 34 -44 34q-50 0 -60 -51h-85q10 58 51 89.5t106 31.5q55 0 87.5 -23t32.5 -63q0 -58 -62 -86q49 -23 49 -75q0 -54 -44 -90t-117 -36q-68 0 -105.5 33t-27.5 93h85q-4 -27 10.5 -41.5t44.5 -14.5q29 0 47.5 13.5t18.5 35.5 q0 40 -60 40h-28l5 26h-1l7 40h29z" glyph-name="uni00B3" horiz-adv-x="350" unicode="³"/><glyph d="M105 560l115 180h123l-143 -180h-95z" glyph-name="acute" horiz-adv-x="307" unicode="´"/><glyph d="M174 -15q-46 0 -79 16l-35 -201h-106l79 447l45 257h108l-55 -304q-21 -121 78 -121q59 0 100.5 43.5t57.5 133.5l44 248h108l-89 -504h-98l14 78q-59 -93 -172 -93z" glyph-name="mu" horiz-adv-x="526" unicode="µ"/><glyph d="M165 401q-60 0 -86 31t-15 89l10 59q10 58 47 89t96 31h114l-137 -780h-91l84 481h-22zM267 -80l137 780h90l-137 -780h-90z" glyph-name="paragraph" horiz-adv-x="468" unicode="¶"/><glyph d="M154 199q-26 0 -41.5 14.5t-15.5 37.5q0 32 24 54.5t58 22.5q25 0 40.5 -14.5t15.5 -37.5q0 -31 -24 -54t-57 -23z" glyph-name="periodcentered" horiz-adv-x="328" unicode="·"/><glyph d="M-29 -200l31 66h86q38 0 38 28q0 22 -29 22h-70l74 149h82l-50 -104h2q35 0 56.5 -17.5t21.5 -49.5q0 -42 -32.5 -68t-81.5 -26h-128z" glyph-name="cedilla" horiz-adv-x="327" unicode="¸"/><glyph d="M84 592l13 70h82q24 0 27 20l8 50h85l-63 -357h-85l35 196q4 21 -19 21h-83z" glyph-name="uni00B9" horiz-adv-x="258" unicode="¹"/><glyph d="M230 334q-71 0 -112.5 40.5t-41.5 115.5q0 88 55.5 153.5t149.5 65.5q71 0 113 -40t42 -113q0 -90 -56.5 -156t-149.5 -66zM237 405q51 0 81.5 44t30.5 101q0 42 -19 65t-55 23q-50 0 -81.5 -43.5t-31.5 -99.5q0 -42 19.5 -66t55.5 -24z" glyph-name="ordmasculine" horiz-adv-x="417" unicode="º"/><glyph d="M231 0l238 263l-137 241h110l85 -152q29 -52 20.5 -100t-55.5 -100l-137 -152h-124zM20 0l237 263l-136 241h109l85 -152q56 -100 -34 -200l-137 -152h-124z" glyph-name="guillemotright" horiz-adv-x="603" unicode="»"/><glyph d="M79 562l13 70h82q24 0 27 20l8 50h85l-63 -357h-85l35 196q3 21 -19 21h-83zM7 0l567 700h108l-567 -700h-108zM395 152h68q23 0 27 20l17 98zM304 83l13 69l194 205h92l-36 -205h63l-12 -69h-64l-14 -83h-83l14 83h-167z" glyph-name="onequarter" horiz-adv-x="692" unicode="¼"/><glyph d="M79 562l13 70h82q24 0 27 20l8 50h85l-63 -357h-85l35 196q3 21 -19 21h-83zM5 0l567 700h108l-567 -700h-108zM528 200q53 28 53 61q0 35 -45 35q-57 0 -68 -62h-83q10 64 52.5 97.5t107.5 33.5q57 0 89 -25.5t32 -69.5q0 -73 -98 -126l-65 -36q-31 -17 -50 -39h181 l-12 -69h-288q20 104 119 159z" glyph-name="onehalf" horiz-adv-x="710" unicode="½"/><glyph d="M221 562q28 0 44.5 12.5t16.5 31.5q0 34 -44 34q-50 0 -60 -51h-85q10 58 51 89.5t106 31.5q55 0 87.5 -23t32.5 -63q0 -58 -62 -86q49 -23 49 -75q0 -54 -44 -90t-117 -36q-68 0 -105.5 33t-27.5 93h85q-4 -27 10.5 -41.5t44.5 -14.5q29 0 47.5 13.5t18.5 35.5 q0 40 -60 40h-28l5 26h-1l7 40h29zM68 0l567 700h108l-567 -700h-108zM460 152h68q23 0 27 20l17 98zM369 83l13 69l194 205h92l-36 -205h63l-12 -69h-64l-14 -83h-83l14 83h-167z" glyph-name="threequarters" horiz-adv-x="742" unicode="¾"/><glyph d="M166 -175q-88 0 -141.5 47t-53.5 122q0 140 208 247q14 9 17 24l12 75h107l-5 -30q-17 -106 -117 -165q-113 -65 -113 -144q0 -39 23.5 -61.5t67.5 -22.5q53 0 89 32.5t44 90.5h109q-14 -95 -81 -155t-166 -60zM275 426q-25 0 -40.5 14.5t-15.5 37.5q0 31 24 54t57 23 q26 0 41.5 -14.5t15.5 -37.5q0 -32 -24 -54.5t-58 -22.5z" glyph-name="questiondown" horiz-adv-x="464" unicode="¿"/><glyph d="M-34 0l397 700h128l151 -700h-117l-40 192h-286l-107 -192h-126zM400 756l-80 180h122l53 -180h-95zM248 289h221l-60 282h-4z" glyph-name="Agrave" horiz-adv-x="697" unicode="À"/><glyph d="M-34 0l397 700h128l151 -700h-117l-40 192h-286l-107 -192h-126zM380 756l115 180h123l-143 -180h-95zM248 289h221l-60 282h-4z" glyph-name="Aacute" horiz-adv-x="697" unicode="Á"/><glyph d="M-34 0l397 700h128l151 -700h-117l-40 192h-286l-107 -192h-126zM256 756l148 180h130l85 -180h-88l-45 78q-11 20 -30 20t-36 -20l-73 -78h-91zM248 289h221l-60 282h-4z" glyph-name="Acircumflex" horiz-adv-x="697" unicode="Â"/><glyph d="M-34 0l397 700h128l151 -700h-117l-40 192h-286l-107 -192h-126zM500 849q14 -11 27 -7t21 21l14 33h91q-18 -59 -56.5 -93t-81.5 -34t-85 29l-27 22q-14 11 -27.5 6.5t-21.5 -21.5l-14 -33h-91q18 59 56.5 93t81.5 34t86 -28zM248 289h221l-60 282h-4z" glyph-name="Atilde" horiz-adv-x="697" unicode="Ã"/><glyph d="M-34 0l397 700h128l151 -700h-117l-40 192h-286l-107 -192h-126zM541 792q-25 0 -41 14t-16 37q0 31 24 53.5t56 22.5q25 0 40.5 -15t15.5 -38q0 -30 -23.5 -52t-55.5 -22zM344 792q-25 0 -41 14t-16 37q0 31 23.5 53.5t55.5 22.5q25 0 41 -15t16 -38q0 -30 -23.5 -52 t-55.5 -22zM248 289h221l-60 282h-4z" glyph-name="Adieresis" horiz-adv-x="697" unicode="Ä"/><glyph d="M-34 0l397 700h128l151 -700h-117l-40 192h-286l-107 -192h-126zM440 744q-53 0 -86.5 29t-33.5 75q0 63 45.5 107.5t110.5 44.5q53 0 86.5 -29t33.5 -75q0 -63 -45 -107.5t-111 -44.5zM448 817q29 0 48.5 19t19.5 47q0 20 -13 32t-35 12q-28 0 -48 -19.5t-20 -46.5 q0 -20 13 -32t35 -12zM248 289h221l-60 282h-4z" glyph-name="Aring" horiz-adv-x="697" unicode="Å"/><glyph d="M-34 0l480 700h538l-17 -99h-346l-35 -195h311l-16 -97h-311l-38 -210h368l-17 -99h-482l34 192h-208l-130 -192h-131zM291 289h161l55 312h-4z" glyph-name="AE" horiz-adv-x="943" unicode="Æ"/><glyph d="M183 -200l31 66h86q38 0 38 28q0 22 -29 22h-70l36 73q-110 15 -174 90t-64 201q0 81 27 158t76 139t125 100t167 38q135 0 214 -79t67 -206h-114q5 85 -41 134.5t-130 49.5q-83 0 -146.5 -50t-94 -124t-30.5 -156q0 -94 45 -146t132 -52t152.5 51.5t88.5 135.5h118 q-33 -125 -121.5 -202.5t-215.5 -84.5l-12 -25h3q35 0 56.5 -17.5t21.5 -49.5q0 -42 -32.5 -68t-81.5 -26h-128z" glyph-name="Ccedilla" horiz-adv-x="714" unicode="Ç"/><glyph d="M8 0l123 700h512l-17 -99h-399l-35 -195h358l-16 -97h-358l-38 -210h409l-17 -99h-522zM364 756l-80 180h122l53 -180h-95z" glyph-name="Egrave" horiz-adv-x="590" unicode="È"/><glyph d="M8 0l123 700h512l-17 -99h-399l-35 -195h358l-16 -97h-358l-38 -210h409l-17 -99h-522zM345 756l115 180h123l-143 -180h-95z" glyph-name="Eacute" horiz-adv-x="590" unicode="É"/><glyph d="M8 0l123 700h512l-17 -99h-399l-35 -195h358l-16 -97h-358l-38 -210h409l-17 -99h-522zM221 756l148 180h130l85 -180h-88l-45 78q-11 20 -30 20t-36 -20l-73 -78h-91z" glyph-name="Ecircumflex" horiz-adv-x="590" unicode="Ê"/><glyph d="M8 0l123 700h512l-17 -99h-399l-35 -195h358l-16 -97h-358l-38 -210h409l-17 -99h-522zM506 792q-25 0 -41 14t-16 37q0 31 24 53.5t56 22.5q25 0 40.5 -15t15.5 -38q0 -30 -23.5 -52t-55.5 -22zM309 792q-25 0 -41 14t-16 37q0 31 23.5 53.5t55.5 22.5q25 0 41 -15 t16 -38q0 -30 -23.5 -52t-55.5 -22z" glyph-name="Edieresis" horiz-adv-x="590" unicode="Ë"/><glyph d="M8 0l123 700h113l-123 -700h-113zM159 756l-80 180h122l53 -180h-95z" glyph-name="Igrave" horiz-adv-x="217" unicode="Ì"/><glyph d="M8 0l123 700h113l-123 -700h-113zM140 756l115 180h123l-143 -180h-95z" glyph-name="Iacute" horiz-adv-x="217" unicode="Í"/><glyph d="M8 0l123 700h113l-123 -700h-113zM16 756l148 180h130l85 -180h-88l-45 78q-11 20 -30 20t-36 -20l-73 -78h-91z" glyph-name="Icircumflex" horiz-adv-x="217" unicode="Î"/><glyph d="M8 0l123 700h113l-123 -700h-113zM301 792q-25 0 -41 14t-16 37q0 31 24 53.5t56 22.5q25 0 40.5 -15t15.5 -38q0 -30 -23.5 -52t-55.5 -22zM104 792q-25 0 -41 14t-16 37q0 31 23.5 53.5t55.5 22.5q25 0 41 -15t16 -38q0 -30 -23.5 -52t-55.5 -22z" glyph-name="Idieresis" horiz-adv-x="217" unicode="Ï"/><glyph d="M8 0l123 700h242q140 0 219.5 -75.5t79.5 -215.5q0 -73 -22.5 -142t-69.5 -130.5t-131 -99t-194 -37.5h-247zM248 100q80 0 141 26t95.5 69.5t51.5 95t17 108.5q0 201 -207 201h-119l-29 -165q-6 -35 30 -35h134l-15 -82h-134q-36 0 -41 -32l-34 -186h110z" glyph-name="Eth" horiz-adv-x="676" unicode="Ð"/><glyph d="M474 0l-259 560l-98 -560h-109l123 700h131l246 -530l93 530h109l-123 -700h-113zM493 849q14 -11 27 -7t21 21l14 33h91q-18 -59 -56.5 -93t-81.5 -34t-85 29l-27 22q-14 11 -27.5 6.5t-21.5 -21.5l-14 -33h-91q18 59 56.5 93t81.5 34t86 -28z" glyph-name="Ntilde" horiz-adv-x="684" unicode="Ñ"/><glyph d="M329 -15q-135 0 -213.5 77t-78.5 218q0 111 47 209t141 162t215 64q135 0 214.5 -77.5t79.5 -216.5q0 -79 -27 -155.5t-76.5 -139.5t-128 -102t-173.5 -39zM336 86q124 0 201 99.5t77 227.5q0 95 -47.5 148t-132.5 53q-83 0 -147.5 -49t-97 -123.5t-32.5 -157.5 q0 -95 47 -146.5t132 -51.5zM419 756l-80 180h122l53 -180h-95z" glyph-name="Ograve" horiz-adv-x="736" unicode="Ò"/><glyph d="M329 -15q-135 0 -213.5 77t-78.5 218q0 111 47 209t141 162t215 64q135 0 214.5 -77.5t79.5 -216.5q0 -79 -27 -155.5t-76.5 -139.5t-128 -102t-173.5 -39zM336 86q124 0 201 99.5t77 227.5q0 95 -47.5 148t-132.5 53q-83 0 -147.5 -49t-97 -123.5t-32.5 -157.5 q0 -95 47 -146.5t132 -51.5zM399 756l115 180h123l-143 -180h-95z" glyph-name="Oacute" horiz-adv-x="736" unicode="Ó"/><glyph d="M329 -15q-135 0 -213.5 77t-78.5 218q0 111 47 209t141 162t215 64q135 0 214.5 -77.5t79.5 -216.5q0 -79 -27 -155.5t-76.5 -139.5t-128 -102t-173.5 -39zM336 86q124 0 201 99.5t77 227.5q0 95 -47.5 148t-132.5 53q-83 0 -147.5 -49t-97 -123.5t-32.5 -157.5 q0 -95 47 -146.5t132 -51.5zM275 756l148 180h130l85 -180h-88l-45 78q-11 20 -30 20t-36 -20l-73 -78h-91z" glyph-name="Ocircumflex" horiz-adv-x="736" unicode="Ô"/><glyph d="M329 -15q-135 0 -213.5 77t-78.5 218q0 111 47 209t141 162t215 64q135 0 214.5 -77.5t79.5 -216.5q0 -79 -27 -155.5t-76.5 -139.5t-128 -102t-173.5 -39zM336 86q124 0 201 99.5t77 227.5q0 95 -47.5 148t-132.5 53q-83 0 -147.5 -49t-97 -123.5t-32.5 -157.5 q0 -95 47 -146.5t132 -51.5zM519 849q14 -11 27 -7t21 21l14 33h91q-18 -59 -56.5 -93t-81.5 -34t-85 29l-27 22q-14 11 -27.5 6.5t-21.5 -21.5l-14 -33h-91q18 59 56.5 93t81.5 34t86 -28z" glyph-name="Otilde" horiz-adv-x="736" unicode="Õ"/><glyph d="M329 -15q-135 0 -213.5 77t-78.5 218q0 111 47 209t141 162t215 64q135 0 214.5 -77.5t79.5 -216.5q0 -79 -27 -155.5t-76.5 -139.5t-128 -102t-173.5 -39zM336 86q124 0 201 99.5t77 227.5q0 95 -47.5 148t-132.5 53q-83 0 -147.5 -49t-97 -123.5t-32.5 -157.5 q0 -95 47 -146.5t132 -51.5zM560 792q-25 0 -41 14t-16 37q0 31 24 53.5t56 22.5q25 0 40.5 -15t15.5 -38q0 -30 -23.5 -52t-55.5 -22zM363 792q-25 0 -41 14t-16 37q0 31 23.5 53.5t55.5 22.5q25 0 41 -15t16 -38q0 -30 -23.5 -52t-55.5 -22z" glyph-name="Odieresis" horiz-adv-x="736" unicode="Ö"/><glyph d="M100 127l-58 68l144 121q30 26 9 51l-101 120l73 61l99 -117q21 -24 51 0l149 125l59 -69l-145 -120q-30 -25 -9 -51l102 -121l-74 -61l-99 117q-22 26 -51 0z" glyph-name="multiply" horiz-adv-x="535" unicode="×"/><glyph d="M159 -96l-77 43l44 68q15 24 -3 40q-86 75 -86 220q0 114 46.5 213t140 163t215.5 64q49 0 88 -10q22 -6 39 19l45 72l77 -43l-44 -68q-16 -23 2 -41q87 -76 87 -219q0 -80 -27 -157.5t-76 -141t-127.5 -102.5t-172.5 -39q-43 0 -88 10q-22 6 -38 -19zM491 605 q-25 9 -57 9q-83 0 -148 -49t-97.5 -123.5t-32.5 -157.5q0 -94 48 -142zM335 86q84 0 149 49t97.5 122.5t32.5 155.5q0 94 -48 144l-288 -463q27 -8 57 -8z" glyph-name="Oslash" horiz-adv-x="735" unicode="Ø"/><glyph d="M286 -15q-135 0 -199 79t-41 214l75 422h113l-73 -419q-17 -99 15 -147t117 -48q175 0 209 195l73 419h113l-74 -422q-25 -142 -111 -217.5t-217 -75.5zM376 756l-80 180h122l53 -180h-95z" glyph-name="Ugrave" horiz-adv-x="652" unicode="Ù"/><glyph d="M286 -15q-135 0 -199 79t-41 214l75 422h113l-73 -419q-17 -99 15 -147t117 -48q175 0 209 195l73 419h113l-74 -422q-25 -142 -111 -217.5t-217 -75.5zM357 756l115 180h123l-143 -180h-95z" glyph-name="Uacute" horiz-adv-x="652" unicode="Ú"/><glyph d="M286 -15q-135 0 -199 79t-41 214l75 422h113l-73 -419q-17 -99 15 -147t117 -48q175 0 209 195l73 419h113l-74 -422q-25 -142 -111 -217.5t-217 -75.5zM233 756l148 180h130l85 -180h-88l-45 78q-11 20 -30 20t-36 -20l-73 -78h-91z" glyph-name="Ucircumflex" horiz-adv-x="652" unicode="Û"/><glyph d="M286 -15q-135 0 -199 79t-41 214l75 422h113l-73 -419q-17 -99 15 -147t117 -48q175 0 209 195l73 419h113l-74 -422q-25 -142 -111 -217.5t-217 -75.5zM518 792q-25 0 -41 14t-16 37q0 31 24 53.5t56 22.5q25 0 40.5 -15t15.5 -38q0 -30 -23.5 -52t-55.5 -22zM321 792 q-25 0 -41 14t-16 37q0 31 23.5 53.5t55.5 22.5q25 0 41 -15t16 -38q0 -30 -23.5 -52t-55.5 -22z" glyph-name="Udieresis" horiz-adv-x="652" unicode="Ü"/><glyph d="M284 246q6 34 -8 62l-187 392h122l147 -313h4l256 313h135l-324 -391q-25 -31 -30 -62l-44 -247h-114zM374 756l115 180h123l-143 -180h-95z" glyph-name="Yacute" horiz-adv-x="685" unicode="Ý"/><glyph d="M8 0l123 700h113l-25 -141h207q91 0 150 -48.5t59 -134.5q0 -59 -27.5 -111.5t-87.5 -88t-141 -35.5h-233l-25 -141h-113zM376 242q71 0 107 36.5t36 86.5q0 93 -112 93h-206l-38 -216h213z" glyph-name="Thorn" horiz-adv-x="642" unicode="Þ"/><glyph d="M329 -15q-79 0 -104 16l15 90q35 -16 82 -16q50 0 81 22t31 64q0 23 -12 39.5t-42 34.5q-45 29 -66 58t-21 69q0 85 103 143q57 34 57 69q0 16 -11.5 25.5t-31.5 9.5h-99q-44 0 -52 -44l-100 -565h-103l73 412h-92l16 92h60q32 0 38 32l4 22q14 62 62 102t127 40h83 q62 0 98 -27.5t36 -78.5q0 -52 -30.5 -89.5t-88.5 -72.5q-45 -26 -45 -62q0 -33 50 -64q49 -32 72.5 -66t23.5 -81q0 -75 -56.5 -124.5t-157.5 -49.5z" glyph-name="germandbls" horiz-adv-x="588" unicode="ß"/><glyph d="M170 -15q-76 0 -119 38.5t-43 104.5q0 71 50 115.5t135 49.5l144 10q36 2 44 39q10 44 -15.5 66.5t-75.5 22.5q-52 0 -85.5 -23t-40.5 -64h-107q19 85 81 130t160 45q104 0 153.5 -52.5t31.5 -158.5l-39 -216h41l-16 -92h-44q-83 0 -74 85q-62 -100 -181 -100zM197 72 q62 0 107 39t56 102l4 19l-146 -10q-101 -7 -101 -82q0 -68 80 -68zM272 560l-80 180h122l53 -180h-95z" glyph-name="agrave" horiz-adv-x="533" unicode="à"/><glyph d="M170 -15q-76 0 -119 38.5t-43 104.5q0 71 50 115.5t135 49.5l144 10q36 2 44 39q10 44 -15.5 66.5t-75.5 22.5q-52 0 -85.5 -23t-40.5 -64h-107q19 85 81 130t160 45q104 0 153.5 -52.5t31.5 -158.5l-39 -216h41l-16 -92h-44q-83 0 -74 85q-62 -100 -181 -100zM197 72 q62 0 107 39t56 102l4 19l-146 -10q-101 -7 -101 -82q0 -68 80 -68zM253 560l115 180h123l-143 -180h-95z" glyph-name="aacute" horiz-adv-x="533" unicode="á"/><glyph d="M170 -15q-76 0 -119 38.5t-43 104.5q0 71 50 115.5t135 49.5l144 10q36 2 44 39q10 44 -15.5 66.5t-75.5 22.5q-52 0 -85.5 -23t-40.5 -64h-107q19 85 81 130t160 45q104 0 153.5 -52.5t31.5 -158.5l-39 -216h41l-16 -92h-44q-83 0 -74 85q-62 -100 -181 -100zM197 72 q62 0 107 39t56 102l4 19l-146 -10q-101 -7 -101 -82q0 -68 80 -68zM129 560l148 180h130l85 -180h-88l-45 78q-11 20 -30 20t-36 -20l-73 -78h-91z" glyph-name="acircumflex" horiz-adv-x="533" unicode="â"/><glyph d="M170 -15q-76 0 -119 38.5t-43 104.5q0 71 50 115.5t135 49.5l144 10q36 2 44 39q10 44 -15.5 66.5t-75.5 22.5q-52 0 -85.5 -23t-40.5 -64h-107q19 85 81 130t160 45q104 0 153.5 -52.5t31.5 -158.5l-39 -216h41l-16 -92h-44q-83 0 -74 85q-62 -100 -181 -100zM197 72 q62 0 107 39t56 102l4 19l-146 -10q-101 -7 -101 -82q0 -68 80 -68zM372 653q14 -11 27 -7t21 21l14 33h91q-18 -59 -56.5 -93t-81.5 -34t-85 29l-27 22q-14 11 -27.5 6.5t-21.5 -21.5l-14 -33h-91q18 59 56.5 93t81.5 34t86 -28z" glyph-name="atilde" horiz-adv-x="533" unicode="ã"/><glyph d="M170 -15q-76 0 -119 38.5t-43 104.5q0 71 50 115.5t135 49.5l144 10q36 2 44 39q10 44 -15.5 66.5t-75.5 22.5q-52 0 -85.5 -23t-40.5 -64h-107q19 85 81 130t160 45q104 0 153.5 -52.5t31.5 -158.5l-39 -216h41l-16 -92h-44q-83 0 -74 85q-62 -100 -181 -100zM197 72 q62 0 107 39t56 102l4 19l-146 -10q-101 -7 -101 -82q0 -68 80 -68zM414 596q-25 0 -41 14t-16 37q0 31 24 53.5t56 22.5q25 0 40.5 -15t15.5 -38q0 -30 -23.5 -52t-55.5 -22zM217 596q-25 0 -41 14t-16 37q0 31 23.5 53.5t55.5 22.5q25 0 41 -15t16 -38q0 -30 -23.5 -52 t-55.5 -22z" glyph-name="adieresis" horiz-adv-x="533" unicode="ä"/><glyph d="M170 -15q-76 0 -119 38.5t-43 104.5q0 71 50 115.5t135 49.5l144 10q36 2 44 39q10 44 -15.5 66.5t-75.5 22.5q-52 0 -85.5 -23t-40.5 -64h-107q19 85 81 130t160 45q104 0 153.5 -52.5t31.5 -158.5l-39 -216h41l-16 -92h-44q-83 0 -74 85q-62 -100 -181 -100zM197 72 q62 0 107 39t56 102l4 19l-146 -10q-101 -7 -101 -82q0 -68 80 -68zM312 548q-53 0 -86.5 29t-33.5 75q0 63 45.5 107.5t110.5 44.5q53 0 86.5 -29t33.5 -75q0 -63 -45 -107.5t-111 -44.5zM320 621q29 0 48.5 19t19.5 47q0 20 -13 32t-35 12q-28 0 -48 -19.5t-20 -46.5 q0 -20 13 -32t35 -12z" glyph-name="aring" horiz-adv-x="533" unicode="å"/><glyph d="M172 -15q-77 0 -120.5 38t-43.5 104q0 71 50 116t135 50l144 10q36 2 44 39q10 44 -15.5 66.5t-75.5 22.5q-52 0 -85.5 -23t-40.5 -64h-107q19 86 80.5 130.5t156.5 44.5q129 0 165 -81q74 81 188 81q118 0 172.5 -83t13.5 -214h-365q-7 -70 21.5 -109.5t87.5 -39.5 q46 0 79 22t48 53h112q-28 -74 -90.5 -118.5t-149.5 -44.5q-75 0 -125.5 36t-70.5 101q-66 -137 -208 -137zM197 72q62 0 108.5 39.5t54.5 101.5l3 19l-145 -10q-101 -7 -101 -82q0 -68 80 -68zM740 300q11 58 -16.5 95.5t-84.5 37.5q-54 0 -95.5 -35.5t-59.5 -97.5h256z " glyph-name="ae" horiz-adv-x="867" unicode="æ"/><glyph d="M91 -200l31 66h86q38 0 38 28q0 22 -29 22h-70l37 75q-75 15 -118.5 70.5t-43.5 143.5q0 80 33 150.5t100.5 117t155.5 46.5q99 0 158 -56t53 -152h-106q2 52 -27 84t-82 32q-78 0 -126 -66.5t-48 -148.5q0 -63 31 -99t87 -36q53 0 93.5 32t56.5 87h108 q-21 -91 -85.5 -147.5t-159.5 -62.5l-12 -25h3q35 0 56.5 -17.5t21.5 -49.5q0 -42 -32.5 -68t-81.5 -26h-128z" glyph-name="ccedilla" horiz-adv-x="544" unicode="ç"/><glyph d="M242 -15q-103 0 -161.5 58t-58.5 162q0 57 18.5 112t53 100.5t90.5 73.5t125 28q123 0 179.5 -82.5t15.5 -214.5h-376q-8 -70 23 -109.5t94 -39.5q48 0 81.5 22t48.5 53h112q-27 -73 -90.5 -118t-154.5 -45zM286 560l-80 180h122l53 -180h-95zM145 300h266q12 59 -17 96 t-89 37q-57 0 -99 -35t-61 -98z" glyph-name="egrave" horiz-adv-x="538" unicode="è"/><glyph d="M242 -15q-103 0 -161.5 58t-58.5 162q0 57 18.5 112t53 100.5t90.5 73.5t125 28q123 0 179.5 -82.5t15.5 -214.5h-376q-8 -70 23 -109.5t94 -39.5q48 0 81.5 22t48.5 53h112q-27 -73 -90.5 -118t-154.5 -45zM267 560l115 180h123l-143 -180h-95zM145 300h266 q12 59 -17 96t-89 37q-57 0 -99 -35t-61 -98z" glyph-name="eacute" horiz-adv-x="538" unicode="é"/><glyph d="M242 -15q-103 0 -161.5 58t-58.5 162q0 57 18.5 112t53 100.5t90.5 73.5t125 28q123 0 179.5 -82.5t15.5 -214.5h-376q-8 -70 23 -109.5t94 -39.5q48 0 81.5 22t48.5 53h112q-27 -73 -90.5 -118t-154.5 -45zM142 560l148 180h130l85 -180h-88l-45 78q-11 20 -30 20 t-36 -20l-73 -78h-91zM145 300h266q12 59 -17 96t-89 37q-57 0 -99 -35t-61 -98z" glyph-name="ecircumflex" horiz-adv-x="538" unicode="ê"/><glyph d="M242 -15q-103 0 -161.5 58t-58.5 162q0 57 18.5 112t53 100.5t90.5 73.5t125 28q123 0 179.5 -82.5t15.5 -214.5h-376q-8 -70 23 -109.5t94 -39.5q48 0 81.5 22t48.5 53h112q-27 -73 -90.5 -118t-154.5 -45zM427 596q-25 0 -41 14t-16 37q0 31 24 53.5t56 22.5 q25 0 40.5 -15t15.5 -38q0 -30 -23.5 -52t-55.5 -22zM230 596q-25 0 -41 14t-16 37q0 31 23.5 53.5t55.5 22.5q25 0 41 -15t16 -38q0 -30 -23.5 -52t-55.5 -22zM145 300h266q12 59 -17 96t-89 37q-57 0 -99 -35t-61 -98z" glyph-name="edieresis" horiz-adv-x="538" unicode="ë"/><glyph d="M8 0l88 504h108l-89 -504h-107zM122 560l-80 180h122l53 -180h-95z" glyph-name="igrave" horiz-adv-x="211" unicode="ì"/><glyph d="M8 0l88 504h108l-89 -504h-107zM103 560l115 180h123l-143 -180h-95z" glyph-name="iacute" horiz-adv-x="211" unicode="í"/><glyph d="M8 0l88 504h108l-89 -504h-107zM-21 560l148 180h130l85 -180h-88l-45 78q-11 20 -30 20t-36 -20l-73 -78h-91z" glyph-name="icircumflex" horiz-adv-x="211" unicode="î"/><glyph d="M8 0l88 504h108l-89 -504h-107zM264 596q-25 0 -41 14t-16 37q0 31 24 53.5t56 22.5q25 0 40.5 -15t15.5 -38q0 -30 -23.5 -52t-55.5 -22zM67 596q-25 0 -41 14t-16 37q0 31 23.5 53.5t55.5 22.5q25 0 41 -15t16 -38q0 -30 -23.5 -52t-55.5 -22z" glyph-name="idieresis" horiz-adv-x="211" unicode="ï"/><glyph d="M238 -15q-99 0 -158.5 57t-59.5 157q0 114 72 201.5t191 87.5q56 0 99.5 -22t62.5 -61q3 97 -28 172l-111 -41l14 88l61 22q-34 51 -85 94h125q28 -22 53 -60l117 43l-15 -88l-66 -24q36 -89 36 -199q0 -73 -16.5 -144t-50.5 -136.5t-96.5 -106t-144.5 -40.5zM249 77 q75 0 122 55.5t49 130.5q2 61 -30.5 97t-89.5 36q-75 0 -122 -58.5t-47 -134.5q0 -60 31.5 -93t86.5 -33z" glyph-name="eth" horiz-adv-x="552" unicode="ð"/><glyph d="M406 304q22 121 -84 121q-61 0 -104 -43.5t-59 -133.5l-44 -248h-107l88 504h98l-14 -78q59 93 174 93q87 0 132 -55t28 -148l-55 -316h-107zM395 653q14 -11 27 -7t21 21l14 33h91q-18 -59 -56.5 -93t-81.5 -34t-85 29l-27 22q-14 11 -27.5 6.5t-21.5 -21.5l-14 -33h-91 q18 59 56.5 93t81.5 34t86 -28z" glyph-name="ntilde" horiz-adv-x="543" unicode="ñ"/><glyph d="M245 -15q-102 0 -162.5 58t-60.5 164q0 125 80 218.5t216 93.5q103 0 163 -57.5t60 -162.5q0 -126 -81 -220t-215 -94zM253 77q81 0 129.5 65.5t48.5 149.5q0 63 -31 99t-89 36q-80 0 -129 -65t-49 -149q0 -64 31.5 -100t88.5 -36zM299 560l-80 180h122l53 -180h-95z" glyph-name="ograve" unicode="ò"/><glyph d="M245 -15q-102 0 -162.5 58t-60.5 164q0 125 80 218.5t216 93.5q103 0 163 -57.5t60 -162.5q0 -126 -81 -220t-215 -94zM253 77q81 0 129.5 65.5t48.5 149.5q0 63 -31 99t-89 36q-80 0 -129 -65t-49 -149q0 -64 31.5 -100t88.5 -36zM280 560l115 180h123l-143 -180h-95z " glyph-name="oacute" unicode="ó"/><glyph d="M245 -15q-102 0 -162.5 58t-60.5 164q0 125 80 218.5t216 93.5q103 0 163 -57.5t60 -162.5q0 -126 -81 -220t-215 -94zM253 77q81 0 129.5 65.5t48.5 149.5q0 63 -31 99t-89 36q-80 0 -129 -65t-49 -149q0 -64 31.5 -100t88.5 -36zM155 560l148 180h130l85 -180h-88 l-45 78q-11 20 -30 20t-36 -20l-73 -78h-91z" glyph-name="ocircumflex" unicode="ô"/><glyph d="M245 -15q-102 0 -162.5 58t-60.5 164q0 125 80 218.5t216 93.5q103 0 163 -57.5t60 -162.5q0 -126 -81 -220t-215 -94zM253 77q81 0 129.5 65.5t48.5 149.5q0 63 -31 99t-89 36q-80 0 -129 -65t-49 -149q0 -64 31.5 -100t88.5 -36zM399 653q14 -11 27 -7t21 21l14 33h91 q-18 -59 -56.5 -93t-81.5 -34t-85 29l-27 22q-14 11 -27.5 6.5t-21.5 -21.5l-14 -33h-91q18 59 56.5 93t81.5 34t86 -28z" glyph-name="otilde" unicode="õ"/><glyph d="M245 -15q-102 0 -162.5 58t-60.5 164q0 125 80 218.5t216 93.5q103 0 163 -57.5t60 -162.5q0 -126 -81 -220t-215 -94zM253 77q81 0 129.5 65.5t48.5 149.5q0 63 -31 99t-89 36q-80 0 -129 -65t-49 -149q0 -64 31.5 -100t88.5 -36zM440 596q-25 0 -41 14t-16 37 q0 31 24 53.5t56 22.5q25 0 40.5 -15t15.5 -38q0 -30 -23.5 -52t-55.5 -22zM243 596q-25 0 -41 14t-16 37q0 31 23.5 53.5t55.5 22.5q25 0 41 -15t16 -38q0 -30 -23.5 -52t-55.5 -22z" glyph-name="odieresis" unicode="ö"/><glyph d="M60 295l16 92h432l-16 -92h-432zM242 101q-23 0 -37.5 13t-14.5 33q0 28 22 49t51 21q23 0 37 -13t14 -33q0 -29 -21 -49.5t-51 -20.5zM306 465q-23 0 -37.5 13t-14.5 33q0 28 22 49t51 21q23 0 37 -13t14 -33q0 -29 -21 -49.5t-51 -20.5z" glyph-name="divide" horiz-adv-x="537" unicode="÷"/><glyph d="M140 -90l-72 37l30 54q11 19 -4 31q-72 61 -72 173q0 82 33.5 152.5t103 116t162.5 45.5q15 0 37 -2q19 -4 31 18l32 58l73 -37l-29 -53q-11 -18 6 -32q70 -59 70 -170q0 -82 -34 -153t-103 -117t-158 -46q-18 0 -40 3q-20 3 -32 -18zM126 215q0 -67 33 -105l176 319 q-89 12 -149 -54.5t-60 -159.5zM230 75q88 -12 147.5 54.5t59.5 159.5q0 65 -33 103z" glyph-name="oslash" unicode="ø"/><glyph d="M174 -15q-86 0 -127 54t-25 145l56 320h108l-55 -304q-21 -121 78 -121q59 0 100.5 43.5t57.5 133.5l44 248h108l-89 -504h-98l14 78q-59 -93 -172 -93zM270 560l-80 180h122l53 -180h-95z" glyph-name="ugrave" horiz-adv-x="526" unicode="ù"/><glyph d="M174 -15q-86 0 -127 54t-25 145l56 320h108l-55 -304q-21 -121 78 -121q59 0 100.5 43.5t57.5 133.5l44 248h108l-89 -504h-98l14 78q-59 -93 -172 -93zM251 560l115 180h123l-143 -180h-95z" glyph-name="uacute" horiz-adv-x="526" unicode="ú"/><glyph d="M174 -15q-86 0 -127 54t-25 145l56 320h108l-55 -304q-21 -121 78 -121q59 0 100.5 43.5t57.5 133.5l44 248h108l-89 -504h-98l14 78q-59 -93 -172 -93zM127 560l148 180h130l85 -180h-88l-45 78q-11 20 -30 20t-36 -20l-73 -78h-91z" glyph-name="ucircumflex" horiz-adv-x="526" unicode="û"/><glyph d="M174 -15q-86 0 -127 54t-25 145l56 320h108l-55 -304q-21 -121 78 -121q59 0 100.5 43.5t57.5 133.5l44 248h108l-89 -504h-98l14 78q-59 -93 -172 -93zM412 596q-25 0 -41 14t-16 37q0 31 24 53.5t56 22.5q25 0 40.5 -15t15.5 -38q0 -30 -23.5 -52t-55.5 -22zM215 596 q-25 0 -41 14t-16 37q0 31 23.5 53.5t55.5 22.5q25 0 41 -15t16 -38q0 -30 -23.5 -52t-55.5 -22z" glyph-name="udieresis" horiz-adv-x="526" unicode="ü"/><glyph d="M145 -25q19 36 12 65l-105 464h111l73 -359h4l188 359h114l-380 -704h-111zM251 560l115 180h123l-143 -180h-95z" glyph-name="yacute" horiz-adv-x="506" unicode="ý"/><glyph d="M288 -15q-114 0 -161 83l-47 -268h-107l158 900h107l-44 -250q66 69 162 69q89 0 144 -58t55 -165q0 -124 -72.5 -217.5t-194.5 -93.5zM277 77q79 0 123 64t44 148q0 67 -31 102.5t-87 35.5q-77 0 -125.5 -63t-48.5 -146q0 -66 33.5 -103.5t91.5 -37.5z" glyph-name="thorn" horiz-adv-x="578" unicode="þ"/><glyph d="M145 -25q19 36 12 65l-105 464h111l73 -359h4l188 359h114l-380 -704h-111zM411 596q-25 0 -41 14t-16 37q0 31 24 53.5t56 22.5q25 0 40.5 -15t15.5 -38q0 -30 -23.5 -52t-55.5 -22zM214 596q-25 0 -41 14t-16 37q0 31 23.5 53.5t55.5 22.5q25 0 41 -15t16 -38 q0 -30 -23.5 -52t-55.5 -22z" glyph-name="ydieresis" horiz-adv-x="506" unicode="ÿ"/><glyph d="M-34 0l397 700h128l151 -700h-117l-40 192h-286l-107 -192h-126zM301 814l14 82h294l-15 -82h-293zM248 289h221l-60 282h-4z" glyph-name="Amacron" horiz-adv-x="697" unicode="Ā"/><glyph d="M170 -15q-76 0 -119 38.5t-43 104.5q0 71 50 115.5t135 49.5l144 10q36 2 44 39q10 44 -15.5 66.5t-75.5 22.5q-52 0 -85.5 -23t-40.5 -64h-107q19 85 81 130t160 45q104 0 153.5 -52.5t31.5 -158.5l-39 -216h41l-16 -92h-44q-83 0 -74 85q-62 -100 -181 -100zM197 72 q62 0 107 39t56 102l4 19l-146 -10q-101 -7 -101 -82q0 -68 80 -68zM174 618l14 82h294l-15 -82h-293z" glyph-name="amacron" horiz-adv-x="533" unicode="ā"/><glyph d="M-34 0l397 700h128l151 -700h-117l-40 192h-286l-107 -192h-126zM444 756q-80 0 -124 50t-30 130h87q-8 -46 11.5 -75t61.5 -29t72 29t38 75h87q-15 -81 -69 -130.5t-134 -49.5zM248 289h221l-60 282h-4z" glyph-name="Abreve" horiz-adv-x="697" unicode="Ă"/><glyph d="M170 -15q-76 0 -119 38.5t-43 104.5q0 71 50 115.5t135 49.5l144 10q36 2 44 39q10 44 -15.5 66.5t-75.5 22.5q-52 0 -85.5 -23t-40.5 -64h-107q19 85 81 130t160 45q104 0 153.5 -52.5t31.5 -158.5l-39 -216h41l-16 -92h-44q-83 0 -74 85q-62 -100 -181 -100zM197 72 q62 0 107 39t56 102l4 19l-146 -10q-101 -7 -101 -82q0 -68 80 -68zM317 560q-80 0 -124 50t-30 130h87q-8 -46 11.5 -75t61.5 -29t72 29t38 75h87q-15 -81 -69 -130.5t-134 -49.5z" glyph-name="abreve" horiz-adv-x="533" unicode="ă"/><glyph d="M-34 0l397 700h128l151 -699l1 -1l-67 -52q-36 -28 -36 -54q0 -28 38 -28h41l-12 -66h-76q-43 0 -66 19.5t-23 53.5q0 53 61 99l36 28h-14l-40 192h-286l-107 -192h-126zM248 289h221l-60 282h-4z" glyph-name="Aogonek" horiz-adv-x="697" unicode="Ą"/><glyph d="M170 -15q-76 0 -119 38.5t-43 104.5q0 71 50 115.5t135 49.5l144 10q36 2 44 39q10 44 -15.5 66.5t-75.5 22.5q-52 0 -85.5 -23t-40.5 -64h-107q19 85 81 130t160 45q104 0 153.5 -52.5t31.5 -158.5l-39 -216h41l-16 -92l-67 -52q-36 -28 -36 -54q0 -28 38 -28h41 l-12 -66h-76q-43 0 -66 19.5t-23 53.5q0 53 61 99l49 39q-33 20 -27 74q-62 -100 -181 -100zM197 72q62 0 107 39t56 102l4 19l-146 -10q-101 -7 -101 -82q0 -68 80 -68z" glyph-name="aogonek" horiz-adv-x="533" unicode="ą"/><glyph d="M330 -15q-134 0 -213.5 77t-79.5 218q0 81 27 158t76 139t125 100t167 38q135 0 214 -79t67 -206h-114q5 85 -41 134.5t-130 49.5q-83 0 -146.5 -50t-94 -124t-30.5 -156q0 -94 45 -146t132 -52t152.5 51.5t88.5 135.5h118q-34 -132 -130.5 -210t-232.5 -78zM395 756 l115 180h123l-143 -180h-95z" glyph-name="Cacute" horiz-adv-x="714" unicode="Ć"/><glyph d="M243 -15q-101 0 -161 57.5t-60 162.5q0 80 33 150.5t100.5 117t155.5 46.5q99 0 158 -56t53 -152h-106q2 52 -27 84t-82 32q-78 0 -126 -66.5t-48 -148.5q0 -63 31 -99t87 -36q53 0 93.5 32t56.5 87h108q-23 -96 -93 -153.5t-173 -57.5zM270 560l115 180h123l-143 -180 h-95z" glyph-name="cacute" horiz-adv-x="544" unicode="ć"/><glyph d="M330 -15q-134 0 -213.5 77t-79.5 218q0 81 27 158t76 139t125 100t167 38q135 0 214 -79t67 -206h-114q5 85 -41 134.5t-130 49.5q-83 0 -146.5 -50t-94 -124t-30.5 -156q0 -94 45 -146t132 -52t152.5 51.5t88.5 135.5h118q-34 -132 -130.5 -210t-232.5 -78zM271 756 l148 180h130l85 -180h-88l-45 78q-11 20 -30 20t-36 -20l-73 -78h-91z" glyph-name="Ccircumflex" horiz-adv-x="714" unicode="Ĉ"/><glyph d="M243 -15q-101 0 -161 57.5t-60 162.5q0 80 33 150.5t100.5 117t155.5 46.5q99 0 158 -56t53 -152h-106q2 52 -27 84t-82 32q-78 0 -126 -66.5t-48 -148.5q0 -63 31 -99t87 -36q53 0 93.5 32t56.5 87h108q-23 -96 -93 -153.5t-173 -57.5zM146 560l148 180h130l85 -180h-88 l-45 78q-11 20 -30 20t-36 -20l-73 -78h-91z" glyph-name="ccircumflex" horiz-adv-x="544" unicode="ĉ"/><glyph d="M330 -15q-134 0 -213.5 77t-79.5 218q0 81 27 158t76 139t125 100t167 38q135 0 214 -79t67 -206h-114q5 85 -41 134.5t-130 49.5q-83 0 -146.5 -50t-94 -124t-30.5 -156q0 -94 45 -146t132 -52t152.5 51.5t88.5 135.5h118q-34 -132 -130.5 -210t-232.5 -78zM458 792 q-25 0 -41 14t-16 37q0 31 23.5 53.5t55.5 22.5q25 0 41 -15t16 -38q0 -30 -23.5 -52t-55.5 -22z" glyph-name="Cdotaccent" horiz-adv-x="714" unicode="Ċ"/><glyph d="M243 -15q-101 0 -161 57.5t-60 162.5q0 80 33 150.5t100.5 117t155.5 46.5q99 0 158 -56t53 -152h-106q2 52 -27 84t-82 32q-78 0 -126 -66.5t-48 -148.5q0 -63 31 -99t87 -36q53 0 93.5 32t56.5 87h108q-23 -96 -93 -153.5t-173 -57.5zM333 596q-25 0 -41 14t-16 37 q0 31 23.5 53.5t55.5 22.5q25 0 41 -15t16 -38q0 -30 -23.5 -52t-55.5 -22z" glyph-name="cdotaccent" horiz-adv-x="544" unicode="ċ"/><glyph d="M330 -15q-134 0 -213.5 77t-79.5 218q0 81 27 158t76 139t125 100t167 38q135 0 214 -79t67 -206h-114q5 85 -41 134.5t-130 49.5q-83 0 -146.5 -50t-94 -124t-30.5 -156q0 -94 45 -146t132 -52t152.5 51.5t88.5 135.5h118q-34 -132 -130.5 -210t-232.5 -78zM387 756 l-85 180h87l45 -78q11 -20 29.5 -20t36.5 20l73 78h92l-149 -180h-129z" glyph-name="Ccaron" horiz-adv-x="714" unicode="Č"/><glyph d="M243 -15q-101 0 -161 57.5t-60 162.5q0 80 33 150.5t100.5 117t155.5 46.5q99 0 158 -56t53 -152h-106q2 52 -27 84t-82 32q-78 0 -126 -66.5t-48 -148.5q0 -63 31 -99t87 -36q53 0 93.5 32t56.5 87h108q-23 -96 -93 -153.5t-173 -57.5zM262 560l-85 180h87l45 -78 q11 -20 29.5 -20t36.5 20l73 78h92l-149 -180h-129z" glyph-name="ccaron" horiz-adv-x="544" unicode="č"/><glyph d="M8 0l123 700h242q140 0 219.5 -75.5t79.5 -215.5q0 -73 -22.5 -142t-69.5 -130.5t-131 -99t-194 -37.5h-247zM248 100q80 0 141 26t95.5 69.5t51.5 95t17 108.5q0 201 -207 201h-119l-89 -500h110zM344 756l-85 180h87l45 -78q11 -20 29.5 -20t36.5 20l73 78h92 l-149 -180h-129z" glyph-name="Dcaron" horiz-adv-x="676" unicode="Ď"/><glyph d="M222 -15q-89 0 -144 58t-55 165q0 124 73 217.5t195 93.5q115 0 160 -86l47 267h107l-123 -700h-98l12 69q-67 -84 -174 -84zM252 77q77 0 125.5 63t48.5 146q0 66 -33.5 103.5t-91.5 37.5q-79 0 -123 -64t-44 -148q0 -67 31 -102.5t87 -35.5zM647 470l41 230h102 l-64 -230h-79z" glyph-name="dcaron" horiz-adv-x="742" unicode="ď"/><glyph d="M8 0l123 700h242q140 0 219.5 -75.5t79.5 -215.5q0 -73 -22.5 -142t-69.5 -130.5t-131 -99t-194 -37.5h-247zM248 100q80 0 141 26t95.5 69.5t51.5 95t17 108.5q0 201 -207 201h-119l-29 -165q-6 -35 30 -35h134l-15 -82h-134q-36 0 -41 -32l-34 -186h110z" glyph-name="Dcroat" horiz-adv-x="676" unicode="Đ"/><glyph d="M222 -15q-89 0 -144 58t-55 165q0 124 73 217.5t195 93.5q115 0 160 -86l22 125h-147l14 82h147l11 60h107l-11 -60h74l-14 -82h-74l-98 -558h-98l12 69q-67 -84 -174 -84zM252 77q77 0 125.5 63t48.5 146q0 66 -33.5 103.5t-91.5 37.5q-79 0 -123 -64t-44 -148 q0 -67 31 -102.5t87 -35.5z" glyph-name="dcroat" horiz-adv-x="578" unicode="đ"/><glyph d="M8 0l123 700h512l-17 -99h-399l-35 -195h358l-16 -97h-358l-38 -210h409l-17 -99h-522zM266 814l14 82h294l-15 -82h-293z" glyph-name="Emacron" horiz-adv-x="590" unicode="Ē"/><glyph d="M242 -15q-103 0 -161.5 58t-58.5 162q0 57 18.5 112t53 100.5t90.5 73.5t125 28q123 0 179.5 -82.5t15.5 -214.5h-376q-8 -70 23 -109.5t94 -39.5q48 0 81.5 22t48.5 53h112q-27 -73 -90.5 -118t-154.5 -45zM187 618l14 82h294l-15 -82h-293zM145 300h266q12 59 -17 96 t-89 37q-57 0 -99 -35t-61 -98z" glyph-name="emacron" horiz-adv-x="538" unicode="ē"/><glyph d="M8 0l123 700h512l-17 -99h-399l-35 -195h358l-16 -97h-358l-38 -210h409l-17 -99h-522zM409 756q-80 0 -124 50t-30 130h87q-8 -46 11.5 -75t61.5 -29t72 29t38 75h87q-15 -81 -69 -130.5t-134 -49.5z" glyph-name="Ebreve" horiz-adv-x="590" unicode="Ĕ"/><glyph d="M242 -15q-103 0 -161.5 58t-58.5 162q0 57 18.5 112t53 100.5t90.5 73.5t125 28q123 0 179.5 -82.5t15.5 -214.5h-376q-8 -70 23 -109.5t94 -39.5q48 0 81.5 22t48.5 53h112q-27 -73 -90.5 -118t-154.5 -45zM331 560q-80 0 -124 50t-30 130h87q-8 -46 11.5 -75t61.5 -29 t72 29t38 75h87q-15 -81 -69 -130.5t-134 -49.5zM145 300h266q12 59 -17 96t-89 37q-57 0 -99 -35t-61 -98z" glyph-name="ebreve" horiz-adv-x="538" unicode="ĕ"/><glyph d="M8 0l123 700h512l-17 -99h-399l-35 -195h358l-16 -97h-358l-38 -210h409l-17 -99h-522zM408 792q-25 0 -41 14t-16 37q0 31 23.5 53.5t55.5 22.5q25 0 41 -15t16 -38q0 -30 -23.5 -52t-55.5 -22z" glyph-name="Edotaccent" horiz-adv-x="590" unicode="Ė"/><glyph d="M242 -15q-103 0 -161.5 58t-58.5 162q0 57 18.5 112t53 100.5t90.5 73.5t125 28q123 0 179.5 -82.5t15.5 -214.5h-376q-8 -70 23 -109.5t94 -39.5q48 0 81.5 22t48.5 53h112q-27 -73 -90.5 -118t-154.5 -45zM330 596q-25 0 -41 14t-16 37q0 31 23.5 53.5t55.5 22.5 q25 0 41 -15t16 -38q0 -30 -23.5 -52t-55.5 -22zM145 300h266q12 59 -17 96t-89 37q-57 0 -99 -35t-61 -98z" glyph-name="edotaccent" horiz-adv-x="538" unicode="ė"/><glyph d="M8 0l123 700h512l-17 -99h-399l-35 -195h358l-16 -97h-358l-38 -210h409l-17 -99l-67 -52q-36 -28 -36 -54q0 -28 38 -28h41l-12 -66h-76q-43 0 -66 19.5t-23 53.5q0 53 61 99l36 28h-418z" glyph-name="Eogonek" horiz-adv-x="590" unicode="Ę"/><glyph d="M185 -200q-43 0 -66 19.5t-23 53.5q0 53 61 99l24 19q-76 16 -117.5 71.5t-41.5 142.5q0 57 18.5 112t53 100.5t90.5 73.5t125 28q123 0 179.5 -82.5t15.5 -214.5h-376q-8 -70 23 -109.5t94 -39.5q48 0 81.5 22t48.5 53h112q-24 -64 -77 -108t-129 -53l-51 -39 q-36 -28 -36 -54q0 -28 38 -28h41l-12 -66h-76zM145 300h266q12 59 -17 96t-89 37q-57 0 -99 -35t-61 -98z" glyph-name="eogonek" horiz-adv-x="538" unicode="ę"/><glyph d="M8 0l123 700h512l-17 -99h-399l-35 -195h358l-16 -97h-358l-38 -210h409l-17 -99h-522zM337 756l-85 180h87l45 -78q11 -20 29.5 -20t36.5 20l73 78h92l-149 -180h-129z" glyph-name="Ecaron" horiz-adv-x="590" unicode="Ě"/><glyph d="M242 -15q-103 0 -161.5 58t-58.5 162q0 57 18.5 112t53 100.5t90.5 73.5t125 28q123 0 179.5 -82.5t15.5 -214.5h-376q-8 -70 23 -109.5t94 -39.5q48 0 81.5 22t48.5 53h112q-27 -73 -90.5 -118t-154.5 -45zM258 560l-85 180h87l45 -78q11 -20 29.5 -20t36.5 20l73 78h92 l-149 -180h-129zM145 300h266q12 59 -17 96t-89 37q-57 0 -99 -35t-61 -98z" glyph-name="ecaron" horiz-adv-x="538" unicode="ě"/><glyph d="M315 -15q-127 0 -202.5 77t-75.5 217q0 81 26.5 158t75.5 139.5t126 100.5t170 38q129 0 207 -68t76 -178h-117q-2 66 -46.5 105.5t-121.5 39.5q-125 0 -201 -99.5t-76 -229.5q0 -96 46 -147.5t136 -51.5q88 0 151 51.5t87 144.5h-201l16 93h320l-66 -375h-97l23 128 q-80 -143 -256 -143zM266 756l148 180h130l85 -180h-88l-45 78q-11 20 -30 20t-36 -20l-73 -78h-91z" glyph-name="Gcircumflex" horiz-adv-x="733" unicode="Ĝ"/><glyph d="M199 -200q-107 0 -160.5 55.5t-47.5 136.5h103q-1 -48 26 -76.5t85 -28.5q66 0 111 37t57 104l13 73q-74 -80 -179 -80q-85 0 -134.5 50.5t-49.5 137.5q0 131 79 220.5t193 89.5q117 0 157 -91l13 76h92l-79 -450q-22 -120 -92.5 -187t-186.5 -67zM242 107 q75 0 126.5 58.5t51.5 142.5q0 57 -32 90t-88 33q-73 0 -122.5 -58.5t-49.5 -143.5q0 -56 30.5 -89t83.5 -33zM158 560l148 180h130l85 -180h-88l-45 78q-11 20 -30 20t-36 -20l-73 -78h-91z" glyph-name="gcircumflex" unicode="ĝ"/><glyph d="M315 -15q-127 0 -202.5 77t-75.5 217q0 81 26.5 158t75.5 139.5t126 100.5t170 38q129 0 207 -68t76 -178h-117q-2 66 -46.5 105.5t-121.5 39.5q-125 0 -201 -99.5t-76 -229.5q0 -96 46 -147.5t136 -51.5q88 0 151 51.5t87 144.5h-201l16 93h320l-66 -375h-97l23 128 q-80 -143 -256 -143zM454 756q-80 0 -124 50t-30 130h87q-8 -46 11.5 -75t61.5 -29t72 29t38 75h87q-15 -81 -69 -130.5t-134 -49.5z" glyph-name="Gbreve" horiz-adv-x="733" unicode="Ğ"/><glyph d="M199 -200q-107 0 -160.5 55.5t-47.5 136.5h103q-1 -48 26 -76.5t85 -28.5q66 0 111 37t57 104l13 73q-74 -80 -179 -80q-85 0 -134.5 50.5t-49.5 137.5q0 131 79 220.5t193 89.5q117 0 157 -91l13 76h92l-79 -450q-22 -120 -92.5 -187t-186.5 -67zM242 107 q75 0 126.5 58.5t51.5 142.5q0 57 -32 90t-88 33q-73 0 -122.5 -58.5t-49.5 -143.5q0 -56 30.5 -89t83.5 -33zM346 560q-80 0 -124 50t-30 130h87q-8 -46 11.5 -75t61.5 -29t72 29t38 75h87q-15 -81 -69 -130.5t-134 -49.5z" glyph-name="gbreve" unicode="ğ"/><glyph d="M315 -15q-127 0 -202.5 77t-75.5 217q0 81 26.5 158t75.5 139.5t126 100.5t170 38q129 0 207 -68t76 -178h-117q-2 66 -46.5 105.5t-121.5 39.5q-125 0 -201 -99.5t-76 -229.5q0 -96 46 -147.5t136 -51.5q88 0 151 51.5t87 144.5h-201l16 93h320l-66 -375h-97l23 128 q-80 -143 -256 -143zM453 792q-25 0 -41 14t-16 37q0 31 23.5 53.5t55.5 22.5q25 0 41 -15t16 -38q0 -30 -23.5 -52t-55.5 -22z" glyph-name="Gdotaccent" horiz-adv-x="733" unicode="Ġ"/><glyph d="M199 -200q-107 0 -160.5 55.5t-47.5 136.5h103q-1 -48 26 -76.5t85 -28.5q66 0 111 37t57 104l13 73q-74 -80 -179 -80q-85 0 -134.5 50.5t-49.5 137.5q0 131 79 220.5t193 89.5q117 0 157 -91l13 76h92l-79 -450q-22 -120 -92.5 -187t-186.5 -67zM242 107 q75 0 126.5 58.5t51.5 142.5q0 57 -32 90t-88 33q-73 0 -122.5 -58.5t-49.5 -143.5q0 -56 30.5 -89t83.5 -33zM345 596q-25 0 -41 14t-16 37q0 31 23.5 53.5t55.5 22.5q25 0 41 -15t16 -38q0 -30 -23.5 -52t-55.5 -22z" glyph-name="gdotaccent" unicode="ġ"/><glyph d="M315 -15q-127 0 -202.5 77t-75.5 217q0 81 26.5 158t75.5 139.5t126 100.5t170 38q129 0 207 -68t76 -178h-117q-2 66 -46.5 105.5t-121.5 39.5q-125 0 -201 -99.5t-76 -229.5q0 -96 46 -147.5t136 -51.5q88 0 151 51.5t87 144.5h-201l16 93h320l-66 -375h-97l23 128 q-80 -143 -256 -143zM182 -236l115 180h123l-143 -180h-95z" glyph-name="uni0122" horiz-adv-x="733" unicode="Ģ"/><glyph d="M199 -200q-107 0 -160.5 55.5t-47.5 136.5h103q-1 -48 26 -76.5t85 -28.5q66 0 111 37t57 104l13 73q-74 -80 -179 -80q-85 0 -134.5 50.5t-49.5 137.5q0 131 79 220.5t193 89.5q117 0 157 -91l13 76h92l-79 -450q-22 -120 -92.5 -187t-186.5 -67zM242 107 q75 0 126.5 58.5t51.5 142.5q0 57 -32 90t-88 33q-73 0 -122.5 -58.5t-49.5 -143.5q0 -56 30.5 -89t83.5 -33zM508 740l-116 -180h-122l143 180h95z" glyph-name="uni0123" unicode="ģ"/><glyph d="M474 0l55 310h-353l-55 -310h-113l123 700h113l-51 -289h353l51 289h113l-123 -700h-113zM249 756l148 180h130l85 -180h-88l-45 78q-11 20 -30 20t-36 -20l-73 -78h-91z" glyph-name="Hcircumflex" horiz-adv-x="684" unicode="Ĥ"/><glyph d="M405 304q22 121 -83 121q-61 0 -104 -43.5t-59 -133.5l-44 -248h-107l123 700h108l-46 -256q60 75 161 75q85 0 131 -53.5t29 -149.5l-56 -316h-107zM13 756l148 180h130l85 -180h-88l-45 78q-11 20 -30 20t-36 -20l-73 -78h-91z" glyph-name="hcircumflex" horiz-adv-x="543" unicode="ĥ"/><glyph d="M512 0l55 310h-353l-55 -310h-113l89 506h-82l15 82h81l20 112h113l-20 -112h353l20 112h113l-20 -112h83l-15 -82h-82l-89 -506h-113zM231 411h353l17 95h-353z" glyph-name="Hbar" horiz-adv-x="759" unicode="Ħ"/><glyph d="M405 304q22 121 -83 121q-61 0 -104 -43.5t-59 -133.5l-44 -248h-107l98 558h-74l14 82h74l11 60h108l-11 -60h146l-14 -82h-146l-21 -114q60 75 161 75q85 0 131 -53.5t29 -149.5l-56 -316h-107z" glyph-name="hbar" horiz-adv-x="543" unicode="ħ"/><glyph d="M8 0l123 700h113l-123 -700h-113zM260 849q14 -11 27 -7t21 21l14 33h91q-18 -59 -56.5 -93t-81.5 -34t-85 29l-27 22q-14 11 -27.5 6.5t-21.5 -21.5l-14 -33h-91q18 59 56.5 93t81.5 34t86 -28z" glyph-name="Itilde" horiz-adv-x="217" unicode="Ĩ"/><glyph d="M8 0l88 504h108l-89 -504h-107zM223 653q14 -11 27 -7t21 21l14 33h91q-18 -59 -56.5 -93t-81.5 -34t-85 29l-27 22q-14 11 -27.5 6.5t-21.5 -21.5l-14 -33h-91q18 59 56.5 93t81.5 34t86 -28z" glyph-name="itilde" horiz-adv-x="211" unicode="ĩ"/><glyph d="M8 0l123 700h113l-123 -700h-113zM61 814l14 82h294l-15 -82h-293z" glyph-name="Imacron" horiz-adv-x="217" unicode="Ī"/><glyph d="M8 0l88 504h108l-89 -504h-107zM24 618l14 82h294l-15 -82h-293z" glyph-name="imacron" horiz-adv-x="211" unicode="ī"/><glyph d="M8 0l123 700h113l-123 -700h-113zM204 756q-80 0 -124 50t-30 130h87q-8 -46 11.5 -75t61.5 -29t72 29t38 75h87q-15 -81 -69 -130.5t-134 -49.5z" glyph-name="Ibreve" horiz-adv-x="217" unicode="Ĭ"/><glyph d="M8 0l88 504h108l-89 -504h-107zM167 560q-80 0 -124 50t-30 130h87q-8 -46 11.5 -75t61.5 -29t72 29t38 75h87q-15 -81 -69 -130.5t-134 -49.5z" glyph-name="ibreve" horiz-adv-x="211" unicode="ĭ"/><glyph d="M9 -200q-42 0 -66 21.5t-24 55.5q0 58 62 106l28 22l122 695h113l-123 -700l-66 -52q-37 -29 -37 -54q0 -28 39 -28h41l-12 -66h-77z" glyph-name="Iogonek" horiz-adv-x="217" unicode="Į"/><glyph d="M166 596q-25 0 -41 14t-16 37q0 31 23.5 53.5t55.5 22.5q25 0 41 -15t16 -38q0 -30 -23.5 -52t-55.5 -22zM2 -200q-42 0 -66 21.5t-24 55.5q0 58 62 106l36 29l86 492h108l-89 -504h-1l-66 -52q-37 -29 -37 -54q0 -28 39 -28h41l-12 -66h-77z" glyph-name="iogonek" horiz-adv-x="211" unicode="į"/><glyph d="M8 0l123 700h113l-123 -700h-113zM203 792q-25 0 -41 14t-16 37q0 31 23.5 53.5t55.5 22.5q25 0 41 -15t16 -38q0 -30 -23.5 -52t-55.5 -22z" glyph-name="Idotaccent" horiz-adv-x="217" unicode="İ"/><glyph d="M8 0l88 504h108l-89 -504h-107z" glyph-name="dotlessi" horiz-adv-x="211" unicode="ı"/><glyph d="M8 0l123 700h113l-123 -700h-113zM579 220l85 480h113l-84 -482q-20 -115 -93.5 -174t-174.5 -59q-108 0 -161.5 65.5t-34.5 178.5l9 51h113l-10 -60q-24 -134 96 -134q117 0 142 134z" glyph-name="IJ" horiz-adv-x="741" unicode="Ĳ"/><glyph d="M8 0l88 504h108l-89 -504h-107zM166 596q-25 0 -41 14t-16 37q0 31 23.5 53.5t55.5 22.5q25 0 41 -15t16 -38q0 -30 -23.5 -52t-55.5 -22zM97 -200l15 92h57q31 0 36 30l102 582h108l-96 -544q-14 -76 -64 -118t-133 -42h-25zM377 596q-25 0 -41 14t-16 37 q0 31 23.5 53.5t55.5 22.5q25 0 41 -15t16 -38q0 -30 -23.5 -52t-55.5 -22z" glyph-name="ij" horiz-adv-x="422" unicode="ĳ"/><glyph d="M362 220l85 480h113l-84 -482q-20 -115 -93.5 -174t-174.5 -59q-108 0 -161.5 65.5t-34.5 178.5l9 51h113l-10 -60q-24 -134 96 -134q117 0 142 134zM332 756l148 180h130l85 -180h-88l-45 78q-11 20 -30 20t-36 -20l-73 -78h-91z" glyph-name="Jcircumflex" horiz-adv-x="524" unicode="Ĵ"/><glyph d="M-114 -200l15 92h57q31 0 36 30l102 582h108l-96 -544q-14 -76 -64 -118t-133 -42h-25zM-21 560l148 180h130l85 -180h-88l-45 78q-11 20 -30 20t-36 -20l-73 -78h-91z" glyph-name="jcircumflex" horiz-adv-x="211" unicode="ĵ"/><glyph d="M377 329q-15 36 -45 9l-179 -163l-31 -175h-114l123 700h112l-65 -369l390 369h138l-227 -217q-29 -29 -18 -59l159 -424h-123zM138 -236l115 180h123l-143 -180h-95z" glyph-name="uni0136" horiz-adv-x="674" unicode="Ķ"/><glyph d="M290 224q-14 36 -48 7l-107 -94l-25 -137h-102l123 700h103l-77 -436l268 240h129l-165 -147q-28 -25 -17 -56l110 -301h-114zM93 -236l115 180h123l-143 -180h-95z" glyph-name="uni0137" horiz-adv-x="534" unicode="ķ"/><glyph d="M290 224q-14 36 -48 7l-107 -94l-25 -137h-102l88 504h103l-42 -240l268 240h129l-165 -147q-28 -25 -17 -56l110 -301h-114z" glyph-name="kgreenlandic" horiz-adv-x="535" unicode="ĸ"/><glyph d="M8 0l123 700h113l-99 -559q-6 -40 34 -40h317l-17 -101h-471zM140 756l115 180h123l-143 -180h-95z" glyph-name="Lacute" horiz-adv-x="543" unicode="Ĺ"/><glyph d="M120 0q-55 0 -78.5 29t-14.5 83l104 588h107l-107 -608h49l-16 -92h-44zM138 756l115 180h123l-143 -180h-95z" glyph-name="lacute" horiz-adv-x="227" unicode="ĺ"/><glyph d="M8 0l123 700h113l-99 -559q-6 -40 34 -40h317l-17 -101h-471zM97 -236l115 180h123l-143 -180h-95z" glyph-name="uni013B" horiz-adv-x="543" unicode="Ļ"/><glyph d="M120 0q-55 0 -78.5 29t-14.5 83l104 588h107l-107 -608h49l-16 -92h-44zM-60 -236l115 180h123l-143 -180h-95z" glyph-name="uni013C" horiz-adv-x="227" unicode="ļ"/><glyph d="M8 0l123 700h113l-99 -559q-6 -40 34 -40h317l-17 -101h-471zM456 470l41 230h102l-64 -230h-79z" glyph-name="Lcaron" horiz-adv-x="543" unicode="Ľ"/><glyph d="M120 0q-55 0 -78.5 29t-14.5 83l104 588h107l-107 -608h49l-16 -92h-44zM277 470l41 230h102l-64 -230h-79z" glyph-name="lcaron" horiz-adv-x="373" unicode="ľ"/><glyph d="M8 0l123 700h113l-99 -559q-6 -40 34 -40h317l-17 -101h-471zM388 321q-26 0 -41.5 14.5t-15.5 37.5q0 32 24 54.5t58 22.5q25 0 40.5 -14.5t15.5 -37.5q0 -31 -24 -54t-57 -23z" glyph-name="Ldot" horiz-adv-x="543" unicode="Ŀ"/><glyph d="M120 0q-55 0 -78.5 29t-14.5 83l104 588h107l-107 -608h49l-16 -92h-44zM338 315q-26 0 -41.5 14.5t-15.5 37.5q0 32 24 54.5t58 22.5q25 0 40.5 -14.5t15.5 -37.5q0 -31 -24 -54t-57 -23z" glyph-name="ldot" horiz-adv-x="431" unicode="ŀ"/><glyph d="M8 0l123 700h113l-51 -287l255 83l-15 -91l-256 -83l-32 -181q-6 -40 34 -40h317l-17 -101h-471z" glyph-name="Lslash" horiz-adv-x="543" unicode="Ł"/><glyph d="M146 0q-55 0 -78.5 29t-14.5 83l39 219l-72 -23l14 82l72 23l51 287h107l-44 -250l70 23l-14 -82l-70 -23l-49 -276h49l-16 -92h-44z" glyph-name="lslash" horiz-adv-x="261" unicode="ł"/><glyph d="M474 0l-259 560l-98 -560h-109l123 700h131l246 -530l93 530h109l-123 -700h-113zM373 756l115 180h123l-143 -180h-95z" glyph-name="Nacute" horiz-adv-x="684" unicode="Ń"/><glyph d="M406 304q22 121 -84 121q-61 0 -104 -43.5t-59 -133.5l-44 -248h-107l88 504h98l-14 -78q59 93 174 93q87 0 132 -55t28 -148l-55 -316h-107zM275 560l115 180h123l-143 -180h-95z" glyph-name="nacute" horiz-adv-x="543" unicode="ń"/><glyph d="M474 0l-259 560l-98 -560h-109l123 700h131l246 -530l93 530h109l-123 -700h-113zM151 -236l115 180h123l-143 -180h-95z" glyph-name="uni0145" horiz-adv-x="684" unicode="Ņ"/><glyph d="M406 304q22 121 -84 121q-61 0 -104 -43.5t-59 -133.5l-44 -248h-107l88 504h98l-14 -78q59 93 174 93q87 0 132 -55t28 -148l-55 -316h-107zM87 -236l115 180h123l-143 -180h-95z" glyph-name="uni0146" horiz-adv-x="543" unicode="ņ"/><glyph d="M474 0l-259 560l-98 -560h-109l123 700h131l246 -530l93 530h109l-123 -700h-113zM365 756l-85 180h87l45 -78q11 -20 29.5 -20t36.5 20l73 78h92l-149 -180h-129z" glyph-name="Ncaron" horiz-adv-x="684" unicode="Ň"/><glyph d="M406 304q22 121 -84 121q-61 0 -104 -43.5t-59 -133.5l-44 -248h-107l88 504h98l-14 -78q59 93 174 93q87 0 132 -55t28 -148l-55 -316h-107zM267 560l-85 180h87l45 -78q11 -20 29.5 -20t36.5 20l73 78h92l-149 -180h-129z" glyph-name="ncaron" horiz-adv-x="543" unicode="ň"/><glyph d="M492 304q22 121 -84 121q-61 0 -104 -43.5t-59 -133.5l-44 -248h-107l88 504h98l-14 -78q59 93 174 93q87 0 132 -55t28 -148l-55 -316h-107zM48 470l41 230h102l-64 -230h-79z" glyph-name="napostrophe" horiz-adv-x="629" unicode="ŉ"/><glyph d="M345 -200l16 92h67q32 0 37 30l12 70l-260 570l-100 -562h-109l123 700h131l246 -529l93 529h109l-130 -744q-14 -74 -64.5 -115t-131.5 -41h-39z" glyph-name="Eng" horiz-adv-x="684" unicode="Ŋ"/><glyph d="M216 -200l16 92h69q32 0 37 30l68 382q22 121 -84 121q-61 0 -104 -43.5t-59 -133.5l-44 -248h-107l88 504h98l-13 -77q59 92 172 92q86 0 131.5 -53t30.5 -146l-64 -364q-14 -74 -64.5 -115t-131.5 -41h-39z" glyph-name="eng" horiz-adv-x="543" unicode="ŋ"/><glyph d="M329 -15q-135 0 -213.5 77t-78.5 218q0 111 47 209t141 162t215 64q135 0 214.5 -77.5t79.5 -216.5q0 -79 -27 -155.5t-76.5 -139.5t-128 -102t-173.5 -39zM336 86q124 0 201 99.5t77 227.5q0 95 -47.5 148t-132.5 53q-83 0 -147.5 -49t-97 -123.5t-32.5 -157.5 q0 -95 47 -146.5t132 -51.5zM320 814l14 82h294l-15 -82h-293z" glyph-name="Omacron" horiz-adv-x="736" unicode="Ō"/><glyph d="M245 -15q-102 0 -162.5 58t-60.5 164q0 125 80 218.5t216 93.5q103 0 163 -57.5t60 -162.5q0 -126 -81 -220t-215 -94zM253 77q81 0 129.5 65.5t48.5 149.5q0 63 -31 99t-89 36q-80 0 -129 -65t-49 -149q0 -64 31.5 -100t88.5 -36zM200 618l14 82h294l-15 -82h-293z" glyph-name="omacron" unicode="ō"/><glyph d="M329 -15q-135 0 -213.5 77t-78.5 218q0 111 47 209t141 162t215 64q135 0 214.5 -77.5t79.5 -216.5q0 -79 -27 -155.5t-76.5 -139.5t-128 -102t-173.5 -39zM336 86q124 0 201 99.5t77 227.5q0 95 -47.5 148t-132.5 53q-83 0 -147.5 -49t-97 -123.5t-32.5 -157.5 q0 -95 47 -146.5t132 -51.5zM463 756q-80 0 -124 50t-30 130h87q-8 -46 11.5 -75t61.5 -29t72 29t38 75h87q-15 -81 -69 -130.5t-134 -49.5z" glyph-name="Obreve" horiz-adv-x="736" unicode="Ŏ"/><glyph d="M245 -15q-102 0 -162.5 58t-60.5 164q0 125 80 218.5t216 93.5q103 0 163 -57.5t60 -162.5q0 -126 -81 -220t-215 -94zM253 77q81 0 129.5 65.5t48.5 149.5q0 63 -31 99t-89 36q-80 0 -129 -65t-49 -149q0 -64 31.5 -100t88.5 -36zM344 560q-80 0 -124 50t-30 130h87 q-8 -46 11.5 -75t61.5 -29t72 29t38 75h87q-15 -81 -69 -130.5t-134 -49.5z" glyph-name="obreve" unicode="ŏ"/><glyph d="M329 -15q-135 0 -213.5 77t-78.5 218q0 111 47 209t141 162t215 64q135 0 214.5 -77.5t79.5 -216.5q0 -79 -27 -155.5t-76.5 -139.5t-128 -102t-173.5 -39zM336 86q124 0 201 99.5t77 227.5q0 95 -47.5 148t-132.5 53q-83 0 -147.5 -49t-97 -123.5t-32.5 -157.5 q0 -95 47 -146.5t132 -51.5zM499 756l116 180h122l-143 -180h-95zM321 756l115 180h123l-143 -180h-95z" glyph-name="Ohungarumlaut" horiz-adv-x="736" unicode="Ő"/><glyph d="M245 -15q-102 0 -162.5 58t-60.5 164q0 125 80 218.5t216 93.5q103 0 163 -57.5t60 -162.5q0 -126 -81 -220t-215 -94zM253 77q81 0 129.5 65.5t48.5 149.5q0 63 -31 99t-89 36q-80 0 -129 -65t-49 -149q0 -64 31.5 -100t88.5 -36zM379 560l116 180h122l-143 -180h-95z M201 560l115 180h123l-143 -180h-95z" glyph-name="ohungarumlaut" unicode="ő"/><glyph d="M312 -15q-128 0 -201.5 76.5t-73.5 214.5q0 112 46.5 211.5t138.5 163.5t210 64q166 0 218 -130l20 115h459l-17 -101h-346l-34 -191h311l-17 -101h-311l-37 -206h368l-18 -101h-481l18 103q-96 -118 -253 -118zM335 86q84 0 149 49t97 123t32 156q0 95 -47 147.5 t-132 52.5q-83 0 -148 -49t-97.5 -123.5t-32.5 -157.5q0 -95 47 -146.5t132 -51.5z" glyph-name="OE" horiz-adv-x="1089" unicode="Œ"/><glyph d="M239 -15q-99 0 -158 58.5t-59 162.5q0 124 78.5 218.5t208.5 94.5q137 0 184 -107q79 107 210 107q119 0 174.5 -82.5t15.5 -214.5h-366q-8 -69 22 -109t90 -40q46 0 78.5 22t47.5 53h111q-28 -73 -89.5 -118t-149.5 -45q-137 0 -186 107q-76 -107 -212 -107zM253 77 q81 0 129 65.5t48 149.5q0 63 -30.5 99t-88.5 36q-80 0 -129 -65t-49 -149q0 -64 31.5 -100t88.5 -36zM543 300h258q11 58 -17 95.5t-85 37.5q-54 0 -95.5 -35.5t-60.5 -97.5z" glyph-name="oe" horiz-adv-x="927" unicode="œ"/><glyph d="M8 0l123 700h340q90 0 143 -48.5t45 -132.5q-6 -62 -41.5 -105.5t-91.5 -61.5q74 -25 65 -139l-17 -213h-111l20 258q3 27 -25 27h-287l-50 -285h-113zM394 382q56 0 98.5 27.5t50.5 87.5q6 51 -22 77.5t-85 26.5h-209l-38 -219h205zM357 756l115 180h123l-143 -180h-95z " glyph-name="Racute" horiz-adv-x="645" unicode="Ŕ"/><glyph d="M75 392q9 54 43 83t89 29h161l-16 -92h-166l-73 -412h-107zM193 560l115 180h123l-143 -180h-95z" glyph-name="racute" horiz-adv-x="339" unicode="ŕ"/><glyph d="M8 0l123 700h340q90 0 143 -48.5t45 -132.5q-6 -62 -41.5 -105.5t-91.5 -61.5q74 -25 65 -139l-17 -213h-111l20 258q3 27 -25 27h-287l-50 -285h-113zM394 382q56 0 98.5 27.5t50.5 87.5q6 51 -22 77.5t-85 26.5h-209l-38 -219h205zM135 -236l115 180h123l-143 -180h-95 z" glyph-name="uni0156" horiz-adv-x="645" unicode="Ŗ"/><glyph d="M75 392q9 54 43 83t89 29h161l-16 -92h-166l-73 -412h-107zM-87 -236l115 180h123l-143 -180h-95z" glyph-name="uni0157" horiz-adv-x="339" unicode="ŗ"/><glyph d="M8 0l123 700h340q90 0 143 -48.5t45 -132.5q-6 -62 -41.5 -105.5t-91.5 -61.5q74 -25 65 -139l-17 -213h-111l20 258q3 27 -25 27h-287l-50 -285h-113zM394 382q56 0 98.5 27.5t50.5 87.5q6 51 -22 77.5t-85 26.5h-209l-38 -219h205zM349 756l-85 180h87l45 -78 q11 -20 29.5 -20t36.5 20l73 78h92l-149 -180h-129z" glyph-name="Rcaron" horiz-adv-x="645" unicode="Ř"/><glyph d="M75 392q9 54 43 83t89 29h161l-16 -92h-166l-73 -412h-107zM184 560l-85 180h87l45 -78q11 -20 29.5 -20t36.5 20l73 78h92l-149 -180h-129z" glyph-name="rcaron" horiz-adv-x="339" unicode="ř"/><glyph d="M318 -15q-146 0 -225.5 74.5t-56.5 204.5h114q-17 -89 28 -134.5t141 -45.5q79 0 126 31.5t47 86.5q0 40 -25 61.5t-78 34.5l-93 20q-101 22 -147 65.5t-46 115.5q0 100 77.5 158t200.5 58q131 0 202.5 -65.5t51.5 -178.5h-111q12 73 -29.5 110t-121.5 37 q-71 0 -113 -28.5t-42 -79.5q0 -37 26.5 -58.5t85.5 -35.5l91 -20q95 -21 141 -64.5t46 -118.5q0 -103 -78.5 -165.5t-211.5 -62.5zM358 756l115 180h123l-143 -180h-95z" glyph-name="Sacute" horiz-adv-x="652" unicode="Ś"/><glyph d="M312 289q135 -29 135 -139q0 -77 -59.5 -121t-157.5 -44q-105 0 -166 49.5t-54 131.5h101q-2 -44 29.5 -69t91.5 -25q50 0 78.5 19t28.5 54q0 26 -16 39.5t-52 21.5l-73 16q-141 30 -141 135q0 75 56 118.5t149 43.5q98 0 153 -45.5t51 -125.5h-101q3 40 -24.5 63 t-78.5 23q-46 0 -72.5 -17.5t-26.5 -50.5q0 -25 17 -38.5t60 -22.5zM243 560l115 180h123l-143 -180h-95z" glyph-name="sacute" horiz-adv-x="492" unicode="ś"/><glyph d="M318 -15q-146 0 -225.5 74.5t-56.5 204.5h114q-17 -89 28 -134.5t141 -45.5q79 0 126 31.5t47 86.5q0 40 -25 61.5t-78 34.5l-93 20q-101 22 -147 65.5t-46 115.5q0 100 77.5 158t200.5 58q131 0 202.5 -65.5t51.5 -178.5h-111q12 73 -29.5 110t-121.5 37 q-71 0 -113 -28.5t-42 -79.5q0 -37 26.5 -58.5t85.5 -35.5l91 -20q95 -21 141 -64.5t46 -118.5q0 -103 -78.5 -165.5t-211.5 -62.5zM233 756l148 180h130l85 -180h-88l-45 78q-11 20 -30 20t-36 -20l-73 -78h-91z" glyph-name="Scircumflex" horiz-adv-x="652" unicode="Ŝ"/><glyph d="M312 289q135 -29 135 -139q0 -77 -59.5 -121t-157.5 -44q-105 0 -166 49.5t-54 131.5h101q-2 -44 29.5 -69t91.5 -25q50 0 78.5 19t28.5 54q0 26 -16 39.5t-52 21.5l-73 16q-141 30 -141 135q0 75 56 118.5t149 43.5q98 0 153 -45.5t51 -125.5h-101q3 40 -24.5 63 t-78.5 23q-46 0 -72.5 -17.5t-26.5 -50.5q0 -25 17 -38.5t60 -22.5zM119 560l148 180h130l85 -180h-88l-45 78q-11 20 -30 20t-36 -20l-73 -78h-91z" glyph-name="scircumflex" horiz-adv-x="492" unicode="ŝ"/><glyph d="M153 -200l31 66h86q38 0 38 28q0 22 -29 22h-70l37 74q-114 18 -172 89.5t-38 184.5h114q-17 -89 28 -134.5t141 -45.5q79 0 126 31.5t47 86.5q0 40 -25 61.5t-78 34.5l-93 20q-101 22 -147 65.5t-46 115.5q0 100 77.5 158t200.5 58q131 0 202.5 -65.5t51.5 -178.5h-111 q12 73 -29.5 110t-121.5 37q-71 0 -113 -28.5t-42 -79.5q0 -37 26.5 -58.5t85.5 -35.5l91 -20q95 -21 141 -64.5t46 -118.5q0 -102 -76.5 -164t-205.5 -64l-12 -24h3q35 0 56.5 -17.5t21.5 -49.5q0 -42 -32.5 -68t-81.5 -26h-128z" glyph-name="Scedilla" horiz-adv-x="652" unicode="Ş"/><glyph d="M312 289q135 -29 135 -139q0 -76 -58 -119.5t-154 -45.5l-12 -24h3q35 0 56.5 -17.5t21.5 -49.5q0 -42 -32.5 -68t-81.5 -26h-128l31 66h86q38 0 38 28q0 22 -29 22h-70l38 77q-73 16 -112.5 61.5t-33.5 111.5h101q-2 -44 29.5 -69t91.5 -25q50 0 78.5 19t28.5 54 q0 26 -16 39.5t-52 21.5l-73 16q-141 30 -141 135q0 75 56 118.5t149 43.5q98 0 153 -45.5t51 -125.5h-101q3 40 -24.5 63t-78.5 23q-46 0 -72.5 -17.5t-26.5 -50.5q0 -25 17 -38.5t60 -22.5z" glyph-name="scedilla" horiz-adv-x="492" unicode="ş"/><glyph d="M318 -15q-146 0 -225.5 74.5t-56.5 204.5h114q-17 -89 28 -134.5t141 -45.5q79 0 126 31.5t47 86.5q0 40 -25 61.5t-78 34.5l-93 20q-101 22 -147 65.5t-46 115.5q0 100 77.5 158t200.5 58q131 0 202.5 -65.5t51.5 -178.5h-111q12 73 -29.5 110t-121.5 37 q-71 0 -113 -28.5t-42 -79.5q0 -37 26.5 -58.5t85.5 -35.5l91 -20q95 -21 141 -64.5t46 -118.5q0 -103 -78.5 -165.5t-211.5 -62.5zM349 756l-85 180h87l45 -78q11 -20 29.5 -20t36.5 20l73 78h92l-149 -180h-129z" glyph-name="Scaron" horiz-adv-x="652" unicode="Š"/><glyph d="M312 289q135 -29 135 -139q0 -77 -59.5 -121t-157.5 -44q-105 0 -166 49.5t-54 131.5h101q-2 -44 29.5 -69t91.5 -25q50 0 78.5 19t28.5 54q0 26 -16 39.5t-52 21.5l-73 16q-141 30 -141 135q0 75 56 118.5t149 43.5q98 0 153 -45.5t51 -125.5h-101q3 40 -24.5 63 t-78.5 23q-46 0 -72.5 -17.5t-26.5 -50.5q0 -25 17 -38.5t60 -22.5zM235 560l-85 180h87l45 -78q11 -20 29.5 -20t36.5 20l73 78h92l-149 -180h-129z" glyph-name="scaron" horiz-adv-x="492" unicode="š"/><glyph d="M287 559q8 40 -34 40h-182l18 101h559l-17 -101h-183q-41 0 -47 -40l-99 -559l-19 -39h3q35 0 56.5 -17.5t21.5 -49.5q0 -42 -32.5 -68t-81.5 -26h-128l31 66h86q38 0 38 28q0 22 -29 22h-70l42 84h-31z" glyph-name="uni0162" horiz-adv-x="579" unicode="Ţ"/><glyph d="M232 0q-12 0 -17 1l-19 -40h2q35 0 56.5 -17.5t21.5 -49.5q0 -42 -32.5 -68t-81.5 -26h-128l31 66h86q38 0 38 28q0 22 -29 22h-70l52 104q-68 38 -51 140l45 252h-92l16 92h57q42 0 48 40l20 116h99l-27 -156h104l-16 -92h-102l-51 -290q-6 -30 25 -30h85l-16 -92h-54z " glyph-name="uni0163" horiz-adv-x="346" unicode="ţ"/><glyph d="M287 559q8 40 -34 40h-182l18 101h559l-17 -101h-183q-41 0 -47 -40l-99 -559h-113zM313 756l-85 180h87l45 -78q11 -20 29.5 -20t36.5 20l73 78h92l-149 -180h-129z" glyph-name="Tcaron" horiz-adv-x="579" unicode="Ť"/><glyph d="M232 0q-81 0 -117.5 41.5t-23.5 118.5l45 252h-92l16 92h57q42 0 48 40l20 116h99l-27 -156h104l-16 -92h-102l-51 -290q-6 -30 25 -30h85l-16 -92h-54zM412 510l41 230h102l-64 -230h-79z" glyph-name="tcaron" horiz-adv-x="493" unicode="ť"/><glyph d="M287 559q8 40 -34 40h-182l18 101h559l-17 -101h-183q-41 0 -47 -40l-28 -159h160l-14 -82h-161l-56 -318h-113l56 318h-165l15 82h164z" glyph-name="Tbar" horiz-adv-x="579" unicode="Ŧ"/><glyph d="M232 0q-81 0 -117.5 41.5t-23.5 118.5l11 59h-92l15 82h91l20 111h-92l16 92h57q42 0 48 40l20 116h99l-27 -156h104l-16 -92h-102l-20 -111h103l-15 -82h-102l-17 -97q-6 -30 25 -30h85l-16 -92h-54z" glyph-name="tbar" horiz-adv-x="346" unicode="ŧ"/><glyph d="M286 -15q-135 0 -199 79t-41 214l75 422h113l-73 -419q-17 -99 15 -147t117 -48q175 0 209 195l73 419h113l-74 -422q-25 -142 -111 -217.5t-217 -75.5zM477 849q14 -11 27 -7t21 21l14 33h91q-18 -59 -56.5 -93t-81.5 -34t-85 29l-27 22q-14 11 -27.5 6.5t-21.5 -21.5 l-14 -33h-91q18 59 56.5 93t81.5 34t86 -28z" glyph-name="Utilde" horiz-adv-x="652" unicode="Ũ"/><glyph d="M174 -15q-86 0 -127 54t-25 145l56 320h108l-55 -304q-21 -121 78 -121q59 0 100.5 43.5t57.5 133.5l44 248h108l-89 -504h-98l14 78q-59 -93 -172 -93zM371 653q14 -11 27 -7t21 21l14 33h91q-18 -59 -56.5 -93t-81.5 -34t-85 29l-27 22q-14 11 -27.5 6.5t-21.5 -21.5 l-14 -33h-91q18 59 56.5 93t81.5 34t86 -28z" glyph-name="utilde" horiz-adv-x="526" unicode="ũ"/><glyph d="M286 -15q-135 0 -199 79t-41 214l75 422h113l-73 -419q-17 -99 15 -147t117 -48q175 0 209 195l73 419h113l-74 -422q-25 -142 -111 -217.5t-217 -75.5zM278 814l14 82h294l-15 -82h-293z" glyph-name="Umacron" horiz-adv-x="652" unicode="Ū"/><glyph d="M174 -15q-86 0 -127 54t-25 145l56 320h108l-55 -304q-21 -121 78 -121q59 0 100.5 43.5t57.5 133.5l44 248h108l-89 -504h-98l14 78q-59 -93 -172 -93zM172 618l14 82h294l-15 -82h-293z" glyph-name="umacron" horiz-adv-x="526" unicode="ū"/><glyph d="M286 -15q-135 0 -199 79t-41 214l75 422h113l-73 -419q-17 -99 15 -147t117 -48q175 0 209 195l73 419h113l-74 -422q-25 -142 -111 -217.5t-217 -75.5zM421 756q-80 0 -124 50t-30 130h87q-8 -46 11.5 -75t61.5 -29t72 29t38 75h87q-15 -81 -69 -130.5t-134 -49.5z" glyph-name="Ubreve" horiz-adv-x="652" unicode="Ŭ"/><glyph d="M174 -15q-86 0 -127 54t-25 145l56 320h108l-55 -304q-21 -121 78 -121q59 0 100.5 43.5t57.5 133.5l44 248h108l-89 -504h-98l14 78q-59 -93 -172 -93zM315 560q-80 0 -124 50t-30 130h87q-8 -46 11.5 -75t61.5 -29t72 29t38 75h87q-15 -81 -69 -130.5t-134 -49.5z" glyph-name="ubreve" horiz-adv-x="526" unicode="ŭ"/><glyph d="M286 -15q-135 0 -199 79t-41 214l75 422h113l-73 -419q-17 -99 15 -147t117 -48q175 0 209 195l73 419h113l-74 -422q-25 -142 -111 -217.5t-217 -75.5zM417 744q-53 0 -86.5 29t-33.5 75q0 63 45.5 107.5t110.5 44.5q53 0 86.5 -29t33.5 -75q0 -63 -45 -107.5 t-111 -44.5zM425 817q29 0 48.5 19t19.5 47q0 20 -13 32t-35 12q-28 0 -48 -19.5t-20 -46.5q0 -20 13 -32t35 -12z" glyph-name="Uring" horiz-adv-x="652" unicode="Ů"/><glyph d="M174 -15q-86 0 -127 54t-25 145l56 320h108l-55 -304q-21 -121 78 -121q59 0 100.5 43.5t57.5 133.5l44 248h108l-89 -504h-98l14 78q-59 -93 -172 -93zM311 548q-53 0 -86.5 29t-33.5 75q0 63 45.5 107.5t110.5 44.5q53 0 86.5 -29t33.5 -75q0 -63 -45 -107.5 t-111 -44.5zM319 621q29 0 48.5 19t19.5 47q0 20 -13 32t-35 12q-28 0 -48 -19.5t-20 -46.5q0 -20 13 -32t35 -12z" glyph-name="uring" horiz-adv-x="526" unicode="ů"/><glyph d="M286 -15q-135 0 -199 79t-41 214l75 422h113l-73 -419q-17 -99 15 -147t117 -48q175 0 209 195l73 419h113l-74 -422q-25 -142 -111 -217.5t-217 -75.5zM456 756l116 180h122l-143 -180h-95zM278 756l115 180h123l-143 -180h-95z" glyph-name="Uhungarumlaut" horiz-adv-x="652" unicode="Ű"/><glyph d="M174 -15q-86 0 -127 54t-25 145l56 320h108l-55 -304q-21 -121 78 -121q59 0 100.5 43.5t57.5 133.5l44 248h108l-89 -504h-98l14 78q-59 -93 -172 -93zM351 560l116 180h122l-143 -180h-95zM173 560l115 180h123l-143 -180h-95z" glyph-name="uhungarumlaut" horiz-adv-x="526" unicode="ű"/><glyph d="M259 -200q-43 0 -66 19.5t-23 53.5q0 53 61 99l19 15q-118 10 -172 88t-32 203l75 422h113l-73 -419q-17 -99 15 -147t117 -48q175 0 209 195l73 419h113l-74 -422q-21 -121 -87 -193.5t-166 -92.5l-57 -44q-36 -28 -36 -54q0 -28 38 -28h41l-12 -66h-76z" glyph-name="Uogonek" horiz-adv-x="652" unicode="Ų"/><glyph d="M174 -15q-86 0 -127 54t-25 145l56 320h108l-55 -304q-21 -121 78 -121q59 0 100.5 43.5t57.5 133.5l44 248h108l-89 -504l-67 -52q-36 -28 -36 -54q0 -28 38 -28h41l-12 -66h-76q-43 0 -66 19.5t-23 53.5q0 53 61 99l43 34l13 72q-59 -93 -172 -93z" glyph-name="uogonek" horiz-adv-x="526" unicode="ų"/><glyph d="M547 0l-35 524h-6l-220 -524h-120l-77 700h121l46 -520h3l220 520h118l35 -520h5l229 520h122l-324 -700h-117zM367 756l148 180h130l85 -180h-88l-45 78q-11 20 -30 20t-36 -20l-73 -78h-91z" glyph-name="Wcircumflex" horiz-adv-x="919" unicode="Ŵ"/><glyph d="M115 0l-63 504h112l32 -360h6l163 360h103l35 -360h5l160 360h112l-240 -504h-114l-33 343h-5l-156 -343h-117zM245 560l148 180h130l85 -180h-88l-45 78q-11 20 -30 20t-36 -20l-73 -78h-91z" glyph-name="wcircumflex" horiz-adv-x="744" unicode="ŵ"/><glyph d="M284 246q6 34 -8 62l-187 392h122l147 -313h4l256 313h135l-324 -391q-25 -31 -30 -62l-44 -247h-114zM250 756l148 180h130l85 -180h-88l-45 78q-11 20 -30 20t-36 -20l-73 -78h-91z" glyph-name="Ycircumflex" horiz-adv-x="685" unicode="Ŷ"/><glyph d="M145 -25q19 36 12 65l-105 464h111l73 -359h4l188 359h114l-380 -704h-111zM126 560l148 180h130l85 -180h-88l-45 78q-11 20 -30 20t-36 -20l-73 -78h-91z" glyph-name="ycircumflex" horiz-adv-x="506" unicode="ŷ"/><glyph d="M284 246q6 34 -8 62l-187 392h122l147 -313h4l256 313h135l-324 -391q-25 -31 -30 -62l-44 -247h-114zM535 792q-25 0 -41 14t-16 37q0 31 24 53.5t56 22.5q25 0 40.5 -15t15.5 -38q0 -30 -23.5 -52t-55.5 -22zM338 792q-25 0 -41 14t-16 37q0 31 23.5 53.5t55.5 22.5 q25 0 41 -15t16 -38q0 -30 -23.5 -52t-55.5 -22z" glyph-name="Ydieresis" horiz-adv-x="685" unicode="Ÿ"/><glyph d="M-18 0l16 91l493 508h-373l17 101h529l-16 -91l-493 -508h424l-18 -101h-579zM347 756l115 180h123l-143 -180h-95z" glyph-name="Zacute" horiz-adv-x="632" unicode="Ź"/><glyph d="M-21 0l15 87l334 325h-262l16 92h407l-15 -87l-335 -325h287l-16 -92h-431zM237 560l115 180h123l-143 -180h-95z" glyph-name="zacute" horiz-adv-x="477" unicode="ź"/><glyph d="M-18 0l16 91l493 508h-373l17 101h529l-16 -91l-493 -508h424l-18 -101h-579zM410 792q-25 0 -41 14t-16 37q0 31 23.5 53.5t55.5 22.5q25 0 41 -15t16 -38q0 -30 -23.5 -52t-55.5 -22z" glyph-name="Zdotaccent" horiz-adv-x="632" unicode="Ż"/><glyph d="M-21 0l15 87l334 325h-262l16 92h407l-15 -87l-335 -325h287l-16 -92h-431zM300 596q-25 0 -41 14t-16 37q0 31 23.5 53.5t55.5 22.5q25 0 41 -15t16 -38q0 -30 -23.5 -52t-55.5 -22z" glyph-name="zdotaccent" horiz-adv-x="477" unicode="ż"/><glyph d="M-18 0l16 91l493 508h-373l17 101h529l-16 -91l-493 -508h424l-18 -101h-579zM339 756l-85 180h87l45 -78q11 -20 29.5 -20t36.5 20l73 78h92l-149 -180h-129z" glyph-name="Zcaron" horiz-adv-x="632" unicode="Ž"/><glyph d="M-21 0l15 87l334 325h-262l16 92h407l-15 -87l-335 -325h287l-16 -92h-431zM229 560l-85 180h87l45 -78q11 -20 29.5 -20t36.5 20l73 78h92l-149 -180h-129z" glyph-name="zcaron" horiz-adv-x="477" unicode="ž"/><glyph d="M106 558q12 68 58 105t121 37h63l-17 -91h-78q-30 0 -35 -30l-102 -579h-108z" glyph-name="longs" horiz-adv-x="285" unicode="ſ"/><glyph d="M8 0l123 700h242q140 0 219.5 -75.5t79.5 -215.5q0 -73 -22.5 -142t-69.5 -130.5t-131 -99t-194 -37.5h-247zM248 100q80 0 141 26t95.5 69.5t51.5 95t17 108.5q0 201 -207 201h-119l-29 -165q-6 -35 30 -35h134l-15 -82h-134q-36 0 -41 -32l-34 -186h110z" glyph-name="uni0189" horiz-adv-x="676" unicode="Ɖ"/><glyph d="M314 -15q-149 0 -226.5 93.5t-49.5 249.5l9 47h541q19 111 -28.5 175t-148.5 64q-77 0 -132.5 -37.5t-80.5 -107.5h-121q37 116 125 181t214 65q136 0 215.5 -77t79.5 -220q0 -112 -46.5 -209.5t-139 -160.5t-211.5 -63zM318 86q91 0 157.5 52.5t92.5 143.5h-414 q-12 -95 32.5 -145.5t131.5 -50.5z" glyph-name="uni018F" horiz-adv-x="714" unicode="Ə"/><glyph d="M-114 -200l15 92h53q32 0 37 30l137 778h496l-18 -101h-382l-35 -195h346l-17 -101h-346l-61 -343q-14 -76 -64.5 -118t-132.5 -42h-28z" glyph-name="uni0191" horiz-adv-x="561" unicode="Ƒ"/><glyph d="M-25 0l16 92h63q32 0 46 30l95 212h-151l15 92h178l58 129q66 145 223 145h25l-17 -92h-63q-31 0 -45 -30l-69 -152h136l-16 -92h-162l-86 -189q-66 -145 -221 -145h-25z" glyph-name="florin" horiz-adv-x="483" unicode="ƒ"/><glyph d="M48 0l56 318h-84l14 82h84l53 300h113l-53 -300h80l-15 -82h-79l-56 -318h-113z" glyph-name="uni0197" horiz-adv-x="293" unicode="Ɨ"/><glyph d="M329 -15q-135 0 -213.5 77t-78.5 218q0 111 47 209t141 162t215 64q135 0 214.5 -77.5t79.5 -216.5q0 -79 -27 -155.5t-76.5 -139.5t-128 -102t-173.5 -39zM335 82q103 0 175 68.5t95 167.5h-452q-10 -104 36 -170t146 -66zM168 400h451q4 97 -42.5 157.5t-141.5 60.5 q-97 0 -167 -62t-100 -156z" glyph-name="uni019F" horiz-adv-x="736" unicode="Ɵ"/><glyph d="M-34 0l397 700h128l151 -700h-117l-40 192h-286l-107 -192h-126zM372 756l-85 180h87l45 -78q11 -20 29.5 -20t36.5 20l73 78h92l-149 -180h-129zM248 289h221l-60 282h-4z" glyph-name="uni01CD" horiz-adv-x="697" unicode="Ǎ"/><glyph d="M170 -15q-76 0 -119 38.5t-43 104.5q0 71 50 115.5t135 49.5l144 10q36 2 44 39q10 44 -15.5 66.5t-75.5 22.5q-52 0 -85.5 -23t-40.5 -64h-107q19 85 81 130t160 45q104 0 153.5 -52.5t31.5 -158.5l-39 -216h41l-16 -92h-44q-83 0 -74 85q-62 -100 -181 -100zM197 72 q62 0 107 39t56 102l4 19l-146 -10q-101 -7 -101 -82q0 -68 80 -68zM245 560l-85 180h87l45 -78q11 -20 29.5 -20t36.5 20l73 78h92l-149 -180h-129z" glyph-name="uni01CE" horiz-adv-x="533" unicode="ǎ"/><glyph d="M8 0l123 700h113l-123 -700h-113zM132 756l-85 180h87l45 -78q11 -20 29.5 -20t36.5 20l73 78h92l-149 -180h-129z" glyph-name="uni01CF" horiz-adv-x="217" unicode="Ǐ"/><glyph d="M8 0l88 504h108l-89 -504h-107zM95 560l-85 180h87l45 -78q11 -20 29.5 -20t36.5 20l73 78h92l-149 -180h-129z" glyph-name="uni01D0" horiz-adv-x="211" unicode="ǐ"/><glyph d="M329 -15q-135 0 -213.5 77t-78.5 218q0 111 47 209t141 162t215 64q135 0 214.5 -77.5t79.5 -216.5q0 -79 -27 -155.5t-76.5 -139.5t-128 -102t-173.5 -39zM336 86q124 0 201 99.5t77 227.5q0 95 -47.5 148t-132.5 53q-83 0 -147.5 -49t-97 -123.5t-32.5 -157.5 q0 -95 47 -146.5t132 -51.5zM391 756l-85 180h87l45 -78q11 -20 29.5 -20t36.5 20l73 78h92l-149 -180h-129z" glyph-name="uni01D1" horiz-adv-x="736" unicode="Ǒ"/><glyph d="M245 -15q-102 0 -162.5 58t-60.5 164q0 125 80 218.5t216 93.5q103 0 163 -57.5t60 -162.5q0 -126 -81 -220t-215 -94zM253 77q81 0 129.5 65.5t48.5 149.5q0 63 -31 99t-89 36q-80 0 -129 -65t-49 -149q0 -64 31.5 -100t88.5 -36zM271 560l-85 180h87l45 -78 q11 -20 29.5 -20t36.5 20l73 78h92l-149 -180h-129z" glyph-name="uni01D2" unicode="ǒ"/><glyph d="M286 -15q-135 0 -199 79t-41 214l75 422h113l-73 -419q-17 -99 15 -147t117 -48q175 0 209 195l73 419h113l-74 -422q-25 -142 -111 -217.5t-217 -75.5zM349 756l-85 180h87l45 -78q11 -20 29.5 -20t36.5 20l73 78h92l-149 -180h-129z" glyph-name="uni01D3" horiz-adv-x="652" unicode="Ǔ"/><glyph d="M174 -15q-86 0 -127 54t-25 145l56 320h108l-55 -304q-21 -121 78 -121q59 0 100.5 43.5t57.5 133.5l44 248h108l-89 -504h-98l14 78q-59 -93 -172 -93zM243 560l-85 180h87l45 -78q11 -20 29.5 -20t36.5 20l73 78h92l-149 -180h-129z" glyph-name="uni01D4" horiz-adv-x="526" unicode="ǔ"/><glyph d="M315 -15q-127 0 -202.5 77t-75.5 217q0 81 26.5 158t75.5 139.5t126 100.5t170 38q129 0 207 -68t76 -178h-117q-2 66 -46.5 105.5t-121.5 39.5q-125 0 -201 -99.5t-76 -229.5q0 -96 46 -147.5t136 -51.5q88 0 151 51.5t87 144.5h-201l16 93h320l-66 -375h-97l23 128 q-80 -143 -256 -143zM382 756l-85 180h87l45 -78q11 -20 29.5 -20t36.5 20l73 78h92l-149 -180h-129z" glyph-name="Gcaron" horiz-adv-x="733" unicode="Ǧ"/><glyph d="M199 -200q-107 0 -160.5 55.5t-47.5 136.5h103q-1 -48 26 -76.5t85 -28.5q66 0 111 37t57 104l13 73q-74 -80 -179 -80q-85 0 -134.5 50.5t-49.5 137.5q0 131 79 220.5t193 89.5q117 0 157 -91l13 76h92l-79 -450q-22 -120 -92.5 -187t-186.5 -67zM242 107 q75 0 126.5 58.5t51.5 142.5q0 57 -32 90t-88 33q-73 0 -122.5 -58.5t-49.5 -143.5q0 -56 30.5 -89t83.5 -33zM274 560l-85 180h87l45 -78q11 -20 29.5 -20t36.5 20l73 78h92l-149 -180h-129z" glyph-name="gcaron" unicode="ǧ"/><glyph d="M377 329q-15 36 -45 9l-179 -163l-31 -175h-114l123 700h112l-65 -369l390 369h138l-227 -217q-29 -29 -18 -59l159 -424h-123zM352 756l-85 180h87l45 -78q11 -20 29.5 -20t36.5 20l73 78h92l-149 -180h-129z" glyph-name="uni01E8" horiz-adv-x="674" unicode="Ǩ"/><glyph d="M290 224q-14 36 -48 7l-107 -94l-25 -137h-102l123 700h103l-77 -436l268 240h129l-165 -147q-28 -25 -17 -56l110 -301h-114zM128 756l-85 180h87l45 -78q11 -20 29.5 -20t36.5 20l73 78h92l-149 -180h-129z" glyph-name="uni01E9" horiz-adv-x="534" unicode="ǩ"/><glyph d="M318 -15q-146 0 -225.5 74.5t-56.5 204.5h114q-17 -89 28 -134.5t141 -45.5q79 0 126 31.5t47 86.5q0 40 -25 61.5t-78 34.5l-93 20q-101 22 -147 65.5t-46 115.5q0 100 77.5 158t200.5 58q131 0 202.5 -65.5t51.5 -178.5h-111q12 73 -29.5 110t-121.5 37 q-71 0 -113 -28.5t-42 -79.5q0 -37 26.5 -58.5t85.5 -35.5l91 -20q95 -21 141 -64.5t46 -118.5q0 -103 -78.5 -165.5t-211.5 -62.5zM156 -236l115 180h123l-143 -180h-95z" glyph-name="uni0218" horiz-adv-x="652" unicode="Ș"/><glyph d="M312 289q135 -29 135 -139q0 -77 -59.5 -121t-157.5 -44q-105 0 -166 49.5t-54 131.5h101q-2 -44 29.5 -69t91.5 -25q50 0 78.5 19t28.5 54q0 26 -16 39.5t-52 21.5l-73 16q-141 30 -141 135q0 75 56 118.5t149 43.5q98 0 153 -45.5t51 -125.5h-101q3 40 -24.5 63 t-78.5 23q-46 0 -72.5 -17.5t-26.5 -50.5q0 -25 17 -38.5t60 -22.5zM64 -236l115 180h123l-143 -180h-95z" glyph-name="uni0219" horiz-adv-x="492" unicode="ș"/><glyph d="M287 559q8 40 -34 40h-182l18 101h559l-17 -101h-183q-41 0 -47 -40l-99 -559h-113zM99 -236l115 180h123l-143 -180h-95z" glyph-name="uni021A" horiz-adv-x="579" unicode="Ț"/><glyph d="M232 0q-81 0 -117.5 41.5t-23.5 118.5l45 252h-92l16 92h57q42 0 48 40l20 116h99l-27 -156h104l-16 -92h-102l-51 -290q-6 -30 25 -30h85l-16 -92h-54zM22 -236l115 180h123l-143 -180h-95z" glyph-name="uni021B" horiz-adv-x="346" unicode="ț"/><glyph d="M8 0l123 700h512l-17 -99h-399l-35 -195h358l-16 -97h-358l-38 -210h409l-17 -99h-212l-19 -39h3q35 0 56.5 -17.5t21.5 -49.5q0 -42 -32.5 -68t-81.5 -26h-128l31 66h86q38 0 38 28q0 22 -29 22h-70l42 84h-228z" glyph-name="uni0228" horiz-adv-x="590" unicode="Ȩ"/><glyph d="M82 -200l31 66h86q38 0 38 28q0 22 -29 22h-70l38 76q-73 17 -113.5 72t-40.5 141q0 57 18.5 112t53 100.5t90.5 73.5t125 28q123 0 179.5 -82.5t15.5 -214.5h-376q-8 -70 23 -109.5t94 -39.5q48 0 81.5 22t48.5 53h112q-26 -70 -86 -114.5t-146 -48.5l-12 -24h3 q35 0 56.5 -17.5t21.5 -49.5q0 -42 -32.5 -68t-81.5 -26h-128zM145 300h266q12 59 -17 96t-89 37q-57 0 -99 -35t-61 -98z" glyph-name="uni0229" horiz-adv-x="538" unicode="ȩ"/><glyph d="M-114 -200l15 92h57q31 0 36 30l102 582h108l-96 -544q-14 -76 -64 -118t-133 -42h-25z" glyph-name="uni0237" horiz-adv-x="211" unicode="ȷ"/><glyph d="M153 -96l-77 43l47 73q14 22 -3 39q-83 77 -83 217q0 84 27 162t76 140t125.5 99.5t167.5 37.5q49 0 88 -10q22 -6 39 19l45 72l77 -43l-45 -69q-15 -23 3 -41q85 -79 73 -213h-114q4 81 -37 130l-290 -466q29 -8 62 -8q87 0 152.5 51.5t88.5 135.5h118 q-33 -130 -129.5 -209t-230.5 -79q-52 0 -97 10q-22 6 -38 -19zM157 284q0 -89 41 -141l288 464q-30 7 -58 7q-83 0 -146.5 -50t-94 -124t-30.5 -156z" glyph-name="uni023B" horiz-adv-x="714" unicode="Ȼ"/><glyph d="M129 -90l-72 37l33 57q11 20 -2 33q-66 59 -66 168q0 80 32 150.5t99.5 117t157.5 46.5q15 0 37 -2q19 -4 31 18l32 58l73 -37l-29 -53q-10 -17 6 -32q68 -60 61 -160h-100q2 53 -26 85l-175 -319q14 -3 29 -3q55 0 97 33t59 89h103q-24 -98 -94.5 -154.5t-177.5 -56.5 q-19 0 -41 3q-20 3 -32 -18zM126 213q0 -57 27 -94l172 310q-5 1 -17 1q-82 0 -132 -66.5t-50 -150.5z" glyph-name="uni023C" horiz-adv-x="544" unicode="ȼ"/><glyph d="M224 -15q-123 0 -179.5 82.5t-16.5 214.5h377q8 70 -23 109.5t-94 39.5q-49 0 -82.5 -22.5t-46.5 -52.5h-111q27 76 90 119.5t153 43.5q102 0 161 -58t59 -162q0 -57 -18.5 -112t-53 -100.5t-91 -73.5t-124.5 -28zM227 71q58 0 100 35t61 98h-267q-11 -59 18 -96t88 -37z " glyph-name="uni0259" horiz-adv-x="527" unicode="ə"/><glyph d="M7 242l14 82h80l31 180h108l-32 -180h83l-14 -82h-83l-43 -242h-107l42 242h-79zM203 596q-25 0 -41 14t-16 37q0 31 23.5 53.5t55.5 22.5q25 0 41 -15t16 -38q0 -30 -23.5 -52t-55.5 -22z" glyph-name="uni0268" horiz-adv-x="286" unicode="ɨ"/><glyph d="M245 -15q-102 0 -162.5 58t-60.5 164q0 125 80 218.5t216 93.5q103 0 163 -57.5t60 -162.5q0 -126 -81 -220t-215 -94zM251 73q62 0 107.5 39.5t64.5 98.5h-295q-1 -59 30 -98.5t93 -39.5zM142 293h294q0 60 -30.5 99t-92.5 39t-107.5 -39.5t-63.5 -98.5z" glyph-name="uni0275" unicode="ɵ"/><glyph d="M170 -200l33 188q-84 12 -132.5 68t-48.5 151q0 120 73.5 211.5t200.5 99.5l32 182h103l-32 -184q84 -12 131.5 -68.5t47.5 -150.5q0 -120 -73.5 -211t-198.5 -100l-33 -186h-103zM129 213q0 -55 23.5 -91t66.5 -46l61 352q-70 -14 -110.5 -77t-40.5 -138zM322 76 q69 14 109.5 77t40.5 138q0 55 -23 90.5t-66 45.5z" glyph-name="uni0278" horiz-adv-x="601" unicode="ɸ"/><glyph d="M105 560l148 180h130l85 -180h-88l-45 78q-11 20 -30 20t-36 -20l-73 -78h-91z" glyph-name="circumflex" horiz-adv-x="463" unicode="ˆ"/><glyph d="M221 560l-85 180h87l45 -78q11 -20 29.5 -20t36.5 20l73 78h92l-149 -180h-129z" glyph-name="caron" horiz-adv-x="463" unicode="ˇ"/><glyph d="M290 560q-80 0 -124 50t-30 130h87q-8 -46 11.5 -75t61.5 -29t72 29t38 75h87q-15 -81 -69 -130.5t-134 -49.5z" glyph-name="breve" horiz-adv-x="457" unicode="˘"/><glyph d="M178 596q-25 0 -41 14t-16 37q0 31 23.5 53.5t55.5 22.5q25 0 41 -15t16 -38q0 -30 -23.5 -52t-55.5 -22z" glyph-name="dotaccent" horiz-adv-x="234" unicode="˙"/><glyph d="M243 548q-53 0 -86.5 29t-33.5 75q0 63 45.5 107.5t110.5 44.5q53 0 86.5 -29t33.5 -75q0 -63 -45 -107.5t-111 -44.5zM251 621q29 0 48.5 19t19.5 47q0 20 -13 32t-35 12q-28 0 -48 -19.5t-20 -46.5q0 -20 13 -32t35 -12z" glyph-name="ring" horiz-adv-x="372" unicode="˚"/><glyph d="M74 -200q-43 0 -66 19.5t-23 53.5q0 53 61 99l75 59l65 -31l-67 -52q-36 -28 -36 -54q0 -28 38 -28h41l-12 -66h-76z" glyph-name="ogonek" horiz-adv-x="280" unicode="˛"/><glyph d="M358 653q14 -11 27 -7t21 21l14 33h91q-18 -59 -56.5 -93t-81.5 -34t-85 29l-27 22q-14 11 -27.5 6.5t-21.5 -21.5l-14 -33h-91q18 59 56.5 93t81.5 34t86 -28z" glyph-name="tilde" horiz-adv-x="483" unicode="˜"/><glyph d="M283 560l116 180h122l-143 -180h-95zM105 560l115 180h123l-143 -180h-95z" glyph-name="hungarumlaut" horiz-adv-x="485" unicode="˝"/><glyph d="M216 560l-80 180h122l53 -180h-95z" glyph-name="gravecomb" horiz-adv-x="0" unicode="̀"/><glyph d="M105 560l115 180h123l-143 -180h-95z" glyph-name="acutecomb" horiz-adv-x="0" unicode="́"/><glyph d="M105 560l148 180h130l85 -180h-88l-45 78q-11 20 -30 20t-36 -20l-73 -78h-91z" glyph-name="uni0302" horiz-adv-x="0" unicode="̂"/><glyph d="M358 653q14 -11 27 -7t21 21l14 33h91q-18 -59 -56.5 -93t-81.5 -34t-85 29l-27 22q-14 11 -27.5 6.5t-21.5 -21.5l-14 -33h-91q18 59 56.5 93t81.5 34t86 -28z" glyph-name="tildecomb" horiz-adv-x="0" unicode="̃"/><glyph d="M115 618l14 82h294l-15 -82h-293z" glyph-name="uni0304" horiz-adv-x="0" unicode="̄"/><glyph d="M290 560q-80 0 -124 50t-30 130h87q-8 -46 11.5 -75t61.5 -29t72 29t38 75h87q-15 -81 -69 -130.5t-134 -49.5z" glyph-name="uni0306" horiz-adv-x="0" unicode="̆"/><glyph d="M178 596q-25 0 -41 14t-16 37q0 31 23.5 53.5t55.5 22.5q25 0 41 -15t16 -38q0 -30 -23.5 -52t-55.5 -22z" glyph-name="uni0307" horiz-adv-x="0" unicode="̇"/><glyph d="M375 596q-25 0 -41 14t-16 37q0 31 24 53.5t56 22.5q25 0 40.5 -15t15.5 -38q0 -30 -23.5 -52t-55.5 -22zM178 596q-25 0 -41 14t-16 37q0 31 23.5 53.5t55.5 22.5q25 0 41 -15t16 -38q0 -30 -23.5 -52t-55.5 -22z" glyph-name="uni0308" horiz-adv-x="0" unicode="̈"/><glyph d="M243 548q-53 0 -86.5 29t-33.5 75q0 63 45.5 107.5t110.5 44.5q53 0 86.5 -29t33.5 -75q0 -63 -45 -107.5t-111 -44.5zM251 621q29 0 48.5 19t19.5 47q0 20 -13 32t-35 12q-28 0 -48 -19.5t-20 -46.5q0 -20 13 -32t35 -12z" glyph-name="uni030A" horiz-adv-x="0" unicode="̊"/><glyph d="M283 560l116 180h122l-143 -180h-95zM105 560l115 180h123l-143 -180h-95z" glyph-name="uni030B" horiz-adv-x="0" unicode="̋"/><glyph d="M221 560l-85 180h87l45 -78q11 -20 29.5 -20t36.5 20l73 78h92l-149 -180h-129z" glyph-name="uni030C" horiz-adv-x="0" unicode="̌"/><glyph d="M343 740l-116 -180h-122l143 180h95z" glyph-name="uni0312" horiz-adv-x="0" unicode="̒"/><glyph d="M34 -219q-25 0 -41 15t-16 38q0 30 23.5 52t56.5 22q25 0 40.5 -14t15.5 -37q0 -30 -23.5 -53t-55.5 -23z" glyph-name="dotbelowcomb" horiz-adv-x="0" unicode="̣"/><glyph d="M-38 -236l115 180h123l-143 -180h-95z" glyph-name="uni0326" horiz-adv-x="0" unicode="̦"/><glyph d="M-29 -200l31 66h86q38 0 38 28q0 22 -29 22h-70l74 149h82l-50 -104h2q35 0 56.5 -17.5t21.5 -49.5q0 -42 -32.5 -68t-81.5 -26h-128z" glyph-name="uni0327" horiz-adv-x="0" unicode="̧"/><glyph d="M74 -200q-43 0 -66 19.5t-23 53.5q0 53 61 99l75 59l65 -31l-67 -52q-36 -28 -36 -54q0 -28 38 -28h41l-12 -66h-76z" glyph-name="uni0328" horiz-adv-x="0" unicode="̨"/><glyph d="M62 318l14 82h314l-14 -82h-314z" glyph-name="uni0335" horiz-adv-x="0" unicode="̵"/><glyph d="M52 -38q15 24 -2 35q-20 13 -20 42q0 30 22.5 52.5t55.5 22.5q27 0 43.5 -16t16.5 -42q0 -34 -35 -91l-83 -143h-81zM151 349q-26 0 -41.5 14.5t-15.5 38.5q0 31 24 53.5t58 22.5q25 0 40.5 -14.5t15.5 -37.5q0 -31 -24 -54t-57 -23z" glyph-name="uni037E" horiz-adv-x="266" unicode=";"/><glyph d="M171 293q-26 0 -41.5 14.5t-15.5 37.5q0 32 24 54.5t58 22.5q25 0 40.5 -14.5t15.5 -37.5q0 -31 -24 -54t-57 -23z" glyph-name="anoteleia" horiz-adv-x="328" unicode="·"/><glyph d="M-27 -200l123 704h108l-55 -304q-21 -121 78 -121q59 0 100.5 43.5t57.5 133.5l44 248h108l-89 -504h-98l14 78q-60 -93 -169 -93q-48 0 -79 19l-36 -204h-107z" glyph-name="uni03BC" horiz-adv-x="544" unicode="μ"/><glyph d="M8 0l123 700h323q82 0 133 -40.5t51 -114.5q0 -62 -35 -106.5t-89 -60.5q44 -17 69 -57.5t25 -95.5q0 -95 -67 -160t-177 -65h-356zM352 99q65 0 103 32.5t38 86.5q0 43 -26.5 67t-78.5 24h-212l-38 -210h214zM390 406q63 0 99.5 30.5t36.5 80.5q0 84 -103 84h-196 l-35 -195h198zM230 -219q-25 0 -41 15t-16 38q0 30 23.5 52t56.5 22q25 0 40.5 -14t15.5 -37q0 -30 -23.5 -53t-55.5 -23z" glyph-name="uni1E04" horiz-adv-x="642" unicode="Ḅ"/><glyph d="M288 -15q-124 0 -168 99l-15 -84h-97l123 700h107l-44 -251q67 70 162 70q89 0 144 -58t55 -165q0 -124 -72.5 -217.5t-194.5 -93.5zM277 77q79 0 123 64t44 148q0 67 -31 102.5t-87 35.5q-77 0 -125.5 -63t-48.5 -146q0 -66 33.5 -103.5t91.5 -37.5zM219 -219 q-25 0 -41 15t-16 38q0 30 23.5 52t56.5 22q25 0 40.5 -14t15.5 -37q0 -30 -23.5 -53t-55.5 -23z" glyph-name="uni1E05" horiz-adv-x="578" unicode="ḅ"/><glyph d="M8 0l123 700h242q140 0 219.5 -75.5t79.5 -215.5q0 -73 -22.5 -142t-69.5 -130.5t-131 -99t-194 -37.5h-247zM248 100q80 0 141 26t95.5 69.5t51.5 95t17 108.5q0 201 -207 201h-119l-89 -500h110zM224 -220q-25 0 -41 15t-16 38q0 30 23.5 52t56.5 22q25 0 40.5 -14 t15.5 -37q0 -30 -23.5 -53t-55.5 -23z" glyph-name="uni1E0C" horiz-adv-x="676" unicode="Ḍ"/><glyph d="M222 -15q-89 0 -144 58t-55 165q0 124 73 217.5t195 93.5q115 0 160 -86l47 267h107l-123 -700h-98l12 69q-67 -84 -174 -84zM252 77q77 0 125.5 63t48.5 146q0 66 -33.5 103.5t-91.5 37.5q-79 0 -123 -64t-44 -148q0 -67 31 -102.5t87 -35.5zM203 -219q-25 0 -41 15 t-16 38q0 30 23.5 52t56.5 22q25 0 40.5 -14t15.5 -37q0 -30 -23.5 -53t-55.5 -23z" glyph-name="uni1E0D" horiz-adv-x="578" unicode="ḍ"/><glyph d="M315 -15q-127 0 -202.5 77t-75.5 217q0 81 26.5 158t75.5 139.5t126 100.5t170 38q129 0 207 -68t76 -178h-117q-2 66 -46.5 105.5t-121.5 39.5q-125 0 -201 -99.5t-76 -229.5q0 -96 46 -147.5t136 -51.5q88 0 151 51.5t87 144.5h-201l16 93h320l-66 -375h-97l23 128 q-80 -143 -256 -143zM311 814l14 82h294l-15 -82h-293z" glyph-name="uni1E20" horiz-adv-x="733" unicode="Ḡ"/><glyph d="M199 -200q-107 0 -160.5 55.5t-47.5 136.5h103q-1 -48 26 -76.5t85 -28.5q66 0 111 37t57 104l13 73q-74 -80 -179 -80q-85 0 -134.5 50.5t-49.5 137.5q0 131 79 220.5t193 89.5q117 0 157 -91l13 76h92l-79 -450q-22 -120 -92.5 -187t-186.5 -67zM242 107 q75 0 126.5 58.5t51.5 142.5q0 57 -32 90t-88 33q-73 0 -122.5 -58.5t-49.5 -143.5q0 -56 30.5 -89t83.5 -33zM203 618l14 82h294l-15 -82h-293z" glyph-name="uni1E21" unicode="ḡ"/><glyph d="M474 0l55 310h-353l-55 -310h-113l123 700h113l-51 -289h353l51 289h113l-123 -700h-113zM258 -219q-25 0 -41 15t-16 38q0 30 23.5 52t56.5 22q25 0 40.5 -14t15.5 -37q0 -30 -23.5 -53t-55.5 -23z" glyph-name="uni1E24" horiz-adv-x="684" unicode="Ḥ"/><glyph d="M405 304q22 121 -83 121q-61 0 -104 -43.5t-59 -133.5l-44 -248h-107l123 700h108l-46 -256q60 75 161 75q85 0 131 -53.5t29 -149.5l-56 -316h-107zM194 -219q-25 0 -41 15t-16 38q0 30 23.5 52t56.5 22q25 0 40.5 -14t15.5 -37q0 -30 -23.5 -53t-55.5 -23z" glyph-name="uni1E25" horiz-adv-x="543" unicode="ḥ"/><glyph d="M8 0l123 700h113l-99 -559q-6 -40 34 -40h317l-17 -101h-471zM204 -219q-25 0 -41 15t-16 38q0 30 23.5 52t56.5 22q25 0 40.5 -14t15.5 -37q0 -30 -23.5 -53t-55.5 -23z" glyph-name="uni1E36" horiz-adv-x="543" unicode="Ḷ"/><glyph d="M120 0q-55 0 -78.5 29t-14.5 83l104 588h107l-107 -608h49l-16 -92h-44zM47 -219q-25 0 -41 15t-16 38q0 30 23.5 52t56.5 22q25 0 40.5 -14t15.5 -37q0 -30 -23.5 -53t-55.5 -23z" glyph-name="uni1E37" horiz-adv-x="227" unicode="ḷ"/><glyph d="M474 0l-259 560l-98 -560h-109l123 700h131l246 -530l93 530h109l-123 -700h-113zM436 792q-25 0 -41 14t-16 37q0 31 23.5 53.5t55.5 22.5q25 0 41 -15t16 -38q0 -30 -23.5 -52t-55.5 -22z" glyph-name="uni1E44" horiz-adv-x="684" unicode="Ṅ"/><glyph d="M406 304q22 121 -84 121q-61 0 -104 -43.5t-59 -133.5l-44 -248h-107l88 504h98l-14 -78q59 93 174 93q87 0 132 -55t28 -148l-55 -316h-107zM338 596q-25 0 -41 14t-16 37q0 31 23.5 53.5t55.5 22.5q25 0 41 -15t16 -38q0 -30 -23.5 -52t-55.5 -22z" glyph-name="uni1E45" horiz-adv-x="543" unicode="ṅ"/><glyph d="M474 0l-259 560l-98 -560h-109l123 700h131l246 -530l93 530h109l-123 -700h-113zM258 -219q-25 0 -41 15t-16 38q0 30 23.5 52t56.5 22q25 0 40.5 -14t15.5 -37q0 -30 -23.5 -53t-55.5 -23z" glyph-name="uni1E46" horiz-adv-x="684" unicode="Ṇ"/><glyph d="M406 304q22 121 -84 121q-61 0 -104 -43.5t-59 -133.5l-44 -248h-107l88 504h98l-14 -78q59 93 174 93q87 0 132 -55t28 -148l-55 -316h-107zM194 -219q-25 0 -41 15t-16 38q0 30 23.5 52t56.5 22q25 0 40.5 -14t15.5 -37q0 -30 -23.5 -53t-55.5 -23z" glyph-name="uni1E47" horiz-adv-x="543" unicode="ṇ"/><glyph d="M318 -15q-146 0 -225.5 74.5t-56.5 204.5h114q-17 -89 28 -134.5t141 -45.5q79 0 126 31.5t47 86.5q0 40 -25 61.5t-78 34.5l-93 20q-101 22 -147 65.5t-46 115.5q0 100 77.5 158t200.5 58q131 0 202.5 -65.5t51.5 -178.5h-111q12 73 -29.5 110t-121.5 37 q-71 0 -113 -28.5t-42 -79.5q0 -37 26.5 -58.5t85.5 -35.5l91 -20q95 -21 141 -64.5t46 -118.5q0 -103 -78.5 -165.5t-211.5 -62.5zM264 -219q-25 0 -41 15t-16 38q0 30 23.5 52t56.5 22q25 0 40.5 -14t15.5 -37q0 -30 -23.5 -53t-55.5 -23z" glyph-name="uni1E62" horiz-adv-x="652" unicode="Ṣ"/><glyph d="M312 289q135 -29 135 -139q0 -77 -59.5 -121t-157.5 -44q-105 0 -166 49.5t-54 131.5h101q-2 -44 29.5 -69t91.5 -25q50 0 78.5 19t28.5 54q0 26 -16 39.5t-52 21.5l-73 16q-141 30 -141 135q0 75 56 118.5t149 43.5q98 0 153 -45.5t51 -125.5h-101q3 40 -24.5 63 t-78.5 23q-46 0 -72.5 -17.5t-26.5 -50.5q0 -25 17 -38.5t60 -22.5zM172 -219q-25 0 -41 15t-16 38q0 30 23.5 52t56.5 22q25 0 40.5 -14t15.5 -37q0 -30 -23.5 -53t-55.5 -23z" glyph-name="uni1E63" horiz-adv-x="492" unicode="ṣ"/><glyph d="M287 559q8 40 -34 40h-182l18 101h559l-17 -101h-183q-41 0 -47 -40l-99 -559h-113zM206 -219q-25 0 -41 15t-16 38q0 30 23.5 52t56.5 22q25 0 40.5 -14t15.5 -37q0 -30 -23.5 -53t-55.5 -23z" glyph-name="uni1E6C" horiz-adv-x="579" unicode="Ṭ"/><glyph d="M232 0q-81 0 -117.5 41.5t-23.5 118.5l45 252h-92l16 92h57q42 0 48 40l20 116h99l-27 -156h104l-16 -92h-102l-51 -290q-6 -30 25 -30h85l-16 -92h-54zM129 -219q-25 0 -41 15t-16 38q0 30 23.5 52t56.5 22q25 0 40.5 -14t15.5 -37q0 -30 -23.5 -53t-55.5 -23z" glyph-name="uni1E6D" horiz-adv-x="346" unicode="ṭ"/><glyph d="M547 0l-35 524h-6l-220 -524h-120l-77 700h121l46 -520h3l220 520h118l35 -520h5l229 520h122l-324 -700h-117zM510 756l-80 180h122l53 -180h-95z" glyph-name="Wgrave" horiz-adv-x="919" unicode="Ẁ"/><glyph d="M115 0l-63 504h112l32 -360h6l163 360h103l35 -360h5l160 360h112l-240 -504h-114l-33 343h-5l-156 -343h-117zM388 560l-80 180h122l53 -180h-95z" glyph-name="wgrave" horiz-adv-x="744" unicode="ẁ"/><glyph d="M547 0l-35 524h-6l-220 -524h-120l-77 700h121l46 -520h3l220 520h118l35 -520h5l229 520h122l-324 -700h-117zM491 756l115 180h123l-143 -180h-95z" glyph-name="Wacute" horiz-adv-x="919" unicode="Ẃ"/><glyph d="M115 0l-63 504h112l32 -360h6l163 360h103l35 -360h5l160 360h112l-240 -504h-114l-33 343h-5l-156 -343h-117zM369 560l115 180h123l-143 -180h-95z" glyph-name="wacute" horiz-adv-x="744" unicode="ẃ"/><glyph d="M547 0l-35 524h-6l-220 -524h-120l-77 700h121l46 -520h3l220 520h118l35 -520h5l229 520h122l-324 -700h-117zM652 792q-25 0 -41 14t-16 37q0 31 24 53.5t56 22.5q25 0 40.5 -15t15.5 -38q0 -30 -23.5 -52t-55.5 -22zM455 792q-25 0 -41 14t-16 37q0 31 23.5 53.5 t55.5 22.5q25 0 41 -15t16 -38q0 -30 -23.5 -52t-55.5 -22z" glyph-name="Wdieresis" horiz-adv-x="919" unicode="Ẅ"/><glyph d="M115 0l-63 504h112l32 -360h6l163 360h103l35 -360h5l160 360h112l-240 -504h-114l-33 343h-5l-156 -343h-117zM530 596q-25 0 -41 14t-16 37q0 31 24 53.5t56 22.5q25 0 40.5 -15t15.5 -38q0 -30 -23.5 -52t-55.5 -22zM333 596q-25 0 -41 14t-16 37q0 31 23.5 53.5 t55.5 22.5q25 0 41 -15t16 -38q0 -30 -23.5 -52t-55.5 -22z" glyph-name="wdieresis" horiz-adv-x="744" unicode="ẅ"/><glyph d="M-18 0l16 91l493 508h-373l17 101h529l-16 -91l-493 -508h424l-18 -101h-579zM232 -219q-25 0 -41 15t-16 38q0 30 23.5 52t56.5 22q25 0 40.5 -14t15.5 -37q0 -30 -23.5 -53t-55.5 -23z" glyph-name="uni1E92" horiz-adv-x="632" unicode="Ẓ"/><glyph d="M-21 0l15 87l334 325h-262l16 92h407l-15 -87l-335 -325h287l-16 -92h-431zM137 -219q-25 0 -41 15t-16 38q0 30 23.5 52t56.5 22q25 0 40.5 -14t15.5 -37q0 -30 -23.5 -53t-55.5 -23z" glyph-name="uni1E93" horiz-adv-x="477" unicode="ẓ"/><glyph d="M333 -15q-81 0 -131 15l18 101q49 -17 115 -17q86 0 133 33.5t47 90.5q0 62 -67 86q-75 28 -86 90.5t48 122.5l83 92h-266l-106 -599h-113l123 700h535l-15 -87l-169 -177q-14 -15 -12.5 -28t18.5 -18q140 -43 140 -176q0 -103 -78 -166t-217 -63z" glyph-name="uni1E9E" horiz-adv-x="665" unicode="ẞ"/><glyph d="M-34 0l397 700h128l151 -700h-117l-40 192h-286l-107 -192h-126zM265 -219q-25 0 -41 15t-16 38q0 30 23.5 52t56.5 22q25 0 40.5 -14t15.5 -37q0 -30 -23.5 -53t-55.5 -23zM248 289h221l-60 282h-4z" glyph-name="uni1EA0" horiz-adv-x="697" unicode="Ạ"/><glyph d="M170 -15q-76 0 -119 38.5t-43 104.5q0 71 50 115.5t135 49.5l144 10q36 2 44 39q10 44 -15.5 66.5t-75.5 22.5q-52 0 -85.5 -23t-40.5 -64h-107q19 85 81 130t160 45q104 0 153.5 -52.5t31.5 -158.5l-39 -216h41l-16 -92h-44q-83 0 -74 85q-62 -100 -181 -100zM197 72 q62 0 107 39t56 102l4 19l-146 -10q-101 -7 -101 -82q0 -68 80 -68zM191 -219q-25 0 -41 15t-16 38q0 30 23.5 52t56.5 22q25 0 40.5 -14t15.5 -37q0 -30 -23.5 -53t-55.5 -23z" glyph-name="uni1EA1" horiz-adv-x="533" unicode="ạ"/><glyph d="M8 0l123 700h512l-17 -99h-399l-35 -195h358l-16 -97h-358l-38 -210h409l-17 -99h-522zM230 -219q-25 0 -41 15t-16 38q0 30 23.5 52t56.5 22q25 0 40.5 -14t15.5 -37q0 -30 -23.5 -53t-55.5 -23z" glyph-name="uni1EB8" horiz-adv-x="590" unicode="Ẹ"/><glyph d="M242 -15q-103 0 -161.5 58t-58.5 162q0 57 18.5 112t53 100.5t90.5 73.5t125 28q123 0 179.5 -82.5t15.5 -214.5h-376q-8 -70 23 -109.5t94 -39.5q48 0 81.5 22t48.5 53h112q-27 -73 -90.5 -118t-154.5 -45zM194 -219q-25 0 -41 15t-16 38q0 30 23.5 52t56.5 22 q25 0 40.5 -14t15.5 -37q0 -30 -23.5 -53t-55.5 -23zM145 300h266q12 59 -17 96t-89 37q-57 0 -99 -35t-61 -98z" glyph-name="uni1EB9" horiz-adv-x="538" unicode="ẹ"/><glyph d="M8 0l123 700h512l-17 -99h-399l-35 -195h358l-16 -97h-358l-38 -210h409l-17 -99h-522zM464 849q14 -11 27 -7t21 21l14 33h91q-18 -59 -56.5 -93t-81.5 -34t-85 29l-27 22q-14 11 -27.5 6.5t-21.5 -21.5l-14 -33h-91q18 59 56.5 93t81.5 34t86 -28z" glyph-name="uni1EBC" horiz-adv-x="590" unicode="Ẽ"/><glyph d="M242 -15q-103 0 -161.5 58t-58.5 162q0 57 18.5 112t53 100.5t90.5 73.5t125 28q123 0 179.5 -82.5t15.5 -214.5h-376q-8 -70 23 -109.5t94 -39.5q48 0 81.5 22t48.5 53h112q-27 -73 -90.5 -118t-154.5 -45zM386 653q14 -11 27 -7t21 21l14 33h91q-18 -59 -56.5 -93 t-81.5 -34t-85 29l-27 22q-14 11 -27.5 6.5t-21.5 -21.5l-14 -33h-91q18 59 56.5 93t81.5 34t86 -28zM145 300h266q12 59 -17 96t-89 37q-57 0 -99 -35t-61 -98z" glyph-name="uni1EBD" horiz-adv-x="538" unicode="ẽ"/><glyph d="M8 0l123 700h113l-123 -700h-113zM25 -219q-25 0 -41 15t-16 38q0 30 23.5 52t56.5 22q25 0 40.5 -14t15.5 -37q0 -30 -23.5 -53t-55.5 -23z" glyph-name="uni1ECA" horiz-adv-x="217" unicode="Ị"/><glyph d="M8 0l88 504h108l-89 -504h-107zM166 596q-25 0 -41 14t-16 37q0 31 23.5 53.5t55.5 22.5q25 0 41 -15t16 -38q0 -30 -23.5 -52t-55.5 -22zM22 -219q-25 0 -41 15t-16 38q0 30 23.5 52t56.5 22q25 0 40.5 -14t15.5 -37q0 -30 -23.5 -53t-55.5 -23z" glyph-name="uni1ECB" horiz-adv-x="211" unicode="ị"/><glyph d="M329 -15q-135 0 -213.5 77t-78.5 218q0 111 47 209t141 162t215 64q135 0 214.5 -77.5t79.5 -216.5q0 -79 -27 -155.5t-76.5 -139.5t-128 -102t-173.5 -39zM336 86q124 0 201 99.5t77 227.5q0 95 -47.5 148t-132.5 53q-83 0 -147.5 -49t-97 -123.5t-32.5 -157.5 q0 -95 47 -146.5t132 -51.5zM284 -219q-25 0 -41 15t-16 38q0 30 23.5 52t56.5 22q25 0 40.5 -14t15.5 -37q0 -30 -23.5 -53t-55.5 -23z" glyph-name="uni1ECC" horiz-adv-x="736" unicode="Ọ"/><glyph d="M245 -15q-102 0 -162.5 58t-60.5 164q0 125 80 218.5t216 93.5q103 0 163 -57.5t60 -162.5q0 -126 -81 -220t-215 -94zM253 77q81 0 129.5 65.5t48.5 149.5q0 63 -31 99t-89 36q-80 0 -129 -65t-49 -149q0 -64 31.5 -100t88.5 -36zM199 -219q-25 0 -41 15t-16 38 q0 30 23.5 52t56.5 22q25 0 40.5 -14t15.5 -37q0 -30 -23.5 -53t-55.5 -23z" glyph-name="uni1ECD" unicode="ọ"/><glyph d="M286 -15q-135 0 -199 79t-41 214l75 422h113l-73 -419q-17 -99 15 -147t117 -48q175 0 209 195l73 419h113l-74 -422q-25 -142 -111 -217.5t-217 -75.5zM242 -219q-25 0 -41 15t-16 38q0 30 23.5 52t56.5 22q25 0 40.5 -14t15.5 -37q0 -30 -23.5 -53t-55.5 -23z" glyph-name="uni1EE4" horiz-adv-x="652" unicode="Ụ"/><glyph d="M174 -15q-86 0 -127 54t-25 145l56 320h108l-55 -304q-21 -121 78 -121q59 0 100.5 43.5t57.5 133.5l44 248h108l-89 -504h-98l14 78q-59 -93 -172 -93zM170 -219q-25 0 -41 15t-16 38q0 30 23.5 52t56.5 22q25 0 40.5 -14t15.5 -37q0 -30 -23.5 -53t-55.5 -23z" glyph-name="uni1EE5" horiz-adv-x="526" unicode="ụ"/><glyph d="M284 246q6 34 -8 62l-187 392h122l147 -313h4l256 313h135l-324 -391q-25 -31 -30 -62l-44 -247h-114zM394 756l-80 180h122l53 -180h-95z" glyph-name="Ygrave" horiz-adv-x="685" unicode="Ỳ"/><glyph d="M145 -25q19 36 12 65l-105 464h111l73 -359h4l188 359h114l-380 -704h-111zM270 560l-80 180h122l53 -180h-95z" glyph-name="ygrave" horiz-adv-x="506" unicode="ỳ"/><glyph d="M284 246q6 34 -8 62l-187 392h122l147 -313h4l256 313h135l-324 -391q-25 -31 -30 -62l-44 -247h-114zM259 -219q-25 0 -41 15t-16 38q0 30 23.5 52t56.5 22q25 0 40.5 -14t15.5 -37q0 -30 -23.5 -53t-55.5 -23z" glyph-name="uni1EF4" horiz-adv-x="685" unicode="Ỵ"/><glyph d="M145 -25q19 36 12 65l-105 464h111l73 -359h4l188 359h114l-380 -704h-111zM347 -219q-25 0 -41 15t-16 38q0 30 23.5 52t56.5 22q25 0 40.5 -14t15.5 -37q0 -30 -23.5 -53t-55.5 -23z" glyph-name="uni1EF5" horiz-adv-x="506" unicode="ỵ"/><glyph d="M284 246q6 34 -8 62l-187 392h122l147 -313h4l256 313h135l-324 -391q-25 -31 -30 -62l-44 -247h-114zM494 849q14 -11 27 -7t21 21l14 33h91q-18 -59 -56.5 -93t-81.5 -34t-85 29l-27 22q-14 11 -27.5 6.5t-21.5 -21.5l-14 -33h-91q18 59 56.5 93t81.5 34t86 -28z" glyph-name="uni1EF8" horiz-adv-x="685" unicode="Ỹ"/><glyph d="M145 -25q19 36 12 65l-105 464h111l73 -359h4l188 359h114l-380 -704h-111zM370 653q14 -11 27 -7t21 21l14 33h91q-18 -59 -56.5 -93t-81.5 -34t-85 29l-27 22q-14 11 -27.5 6.5t-21.5 -21.5l-14 -33h-91q18 59 56.5 93t81.5 34t86 -28z" glyph-name="uni1EF9" horiz-adv-x="506" unicode="ỹ"/><glyph glyph-name="uni2000" horiz-adv-x="500" unicode=" "/><glyph glyph-name="uni2001" horiz-adv-x="1000" unicode=" "/><glyph glyph-name="uni2002" horiz-adv-x="500" unicode=" "/><glyph glyph-name="uni2003" horiz-adv-x="1000" unicode=" "/><glyph glyph-name="uni2004" horiz-adv-x="333" unicode=" "/><glyph glyph-name="uni2005" horiz-adv-x="250" unicode=" "/><glyph glyph-name="uni2006" horiz-adv-x="166" unicode=" "/><glyph glyph-name="uni2007" horiz-adv-x="566" unicode=" "/><glyph glyph-name="uni2008" horiz-adv-x="255" unicode=" "/><glyph glyph-name="uni2009" horiz-adv-x="125" unicode=" "/><glyph glyph-name="uni200A" horiz-adv-x="70" unicode=" "/><glyph glyph-name="uni200B" horiz-adv-x="0" unicode="​"/><glyph d="M90 215l15 92h422l-16 -92h-421z" glyph-name="endash" horiz-adv-x="613" unicode="–"/><glyph d="M90 215l15 92h731l-15 -92h-731z" glyph-name="emdash" horiz-adv-x="923" unicode="—"/><glyph d="M215 560q-15 -24 2 -35q20 -13 20 -42q0 -30 -22.5 -52.5t-55.5 -22.5q-27 0 -43.5 16t-16.5 42q0 34 35 91l83 143h81z" glyph-name="quoteleft" horiz-adv-x="263" unicode="‘"/><glyph d="M158 563q15 24 -2 35q-20 13 -20 42q0 30 22.5 52.5t55.5 22.5q27 0 43.5 -16t16.5 -42q0 -34 -35 -91l-83 -143h-81z" glyph-name="quoteright" horiz-adv-x="263" unicode="’"/><glyph d="M52 -38q15 24 -2 35q-20 13 -20 42q0 30 22.5 52.5t55.5 22.5q27 0 43.5 -16t16.5 -42q0 -34 -35 -91l-83 -143h-81z" glyph-name="quotesinglbase" horiz-adv-x="263" unicode="‚"/><glyph d="M135 566q-7 28 -7 54q0 44 22.5 69.5t59.5 25.5q27 0 42.5 -14.5t15.5 -37.5q0 -46 -42 -66q-20 -10 -13 -34l36 -140h-80z" glyph-name="quotereversed" horiz-adv-x="263" unicode="‛"/><glyph d="M405 560q-15 -24 2 -35q20 -13 20 -42q0 -30 -22.5 -52.5t-55.5 -22.5q-27 0 -43.5 16t-16.5 42q0 34 35 91l83 143h81zM215 560q-15 -24 2 -35q20 -13 20 -42q0 -30 -22.5 -52.5t-55.5 -22.5q-27 0 -43.5 16t-16.5 42q0 34 35 91l83 143h81z" glyph-name="quotedblleft" horiz-adv-x="453" unicode="“"/><glyph d="M158 563q15 24 -2 35q-20 13 -20 42q0 30 22.5 52.5t55.5 22.5q27 0 43.5 -16t16.5 -42q0 -34 -35 -91l-83 -143h-81zM348 563q15 24 -2 35q-20 13 -20 42q0 30 22.5 52.5t55.5 22.5q27 0 43.5 -16t16.5 -42q0 -34 -35 -91l-83 -143h-81z" glyph-name="quotedblright" horiz-adv-x="453" unicode="”"/><glyph d="M52 -38q15 24 -2 35q-20 13 -20 42q0 30 22.5 52.5t55.5 22.5q27 0 43.5 -16t16.5 -42q0 -34 -35 -91l-83 -143h-81zM242 -38q15 24 -2 35q-20 13 -20 42q0 30 22.5 52.5t55.5 22.5q27 0 43.5 -16t16.5 -42q0 -34 -35 -91l-83 -143h-81z" glyph-name="quotedblbase" horiz-adv-x="453" unicode="„"/><glyph d="M217 376q6 36 -30 36h-127l17 92h126q37 0 43 36l28 160h108l-28 -160q-8 -36 30 -36h126l-17 -92h-126q-36 0 -42 -36l-80 -456h-108z" glyph-name="dagger" horiz-adv-x="497" unicode="†"/><glyph d="M164 80q8 36 -30 36h-126l16 92h127q36 0 42 36l23 132q6 36 -29 36h-127l16 92h127q37 0 42 36l28 160h108l-28 -160q-6 -36 30 -36h127l-17 -92h-126q-37 0 -43 -36l-23 -132q-4 -17 4.5 -26.5t25.5 -9.5h127l-17 -92h-126q-37 0 -43 -36l-28 -160h-108z" glyph-name="daggerdbl" horiz-adv-x="497" unicode="‡"/><glyph d="M202 183q-47 0 -75 26t-28 68q0 57 43.5 98.5t104.5 41.5q46 0 74 -26t28 -68q0 -57 -43 -98.5t-104 -41.5z" glyph-name="bullet" horiz-adv-x="430" unicode="•"/><glyph d="M500 -15q-26 0 -41.5 14.5t-15.5 37.5q0 32 24 54.5t58 22.5q25 0 40.5 -14.5t15.5 -37.5q0 -31 -24 -54t-57 -23zM290 -15q-26 0 -41.5 14.5t-15.5 37.5q0 32 24 54.5t58 22.5q25 0 40.5 -14.5t15.5 -37.5q0 -31 -24 -54t-57 -23zM80 -15q-26 0 -41.5 14.5t-15.5 37.5 q0 32 24 54.5t58 22.5q25 0 40.5 -14.5t15.5 -37.5q0 -31 -24 -54t-57 -23z" glyph-name="ellipsis" horiz-adv-x="675" unicode="…"/><glyph glyph-name="uni202F" horiz-adv-x="55" unicode=" "/><glyph d="M46 0l571 700h103l-571 -700h-103zM197 337q-61 0 -94 35t-33 99q0 103 55 171t138 68q61 0 94.5 -35t33.5 -99q0 -103 -55 -171t-139 -68zM209 407q39 0 66 47t27 115q0 71 -52 71q-38 0 -65 -47.5t-27 -115.5q0 -70 51 -70zM502 -8q-61 0 -94.5 35.5t-33.5 98.5 q0 103 55 171t138 68q62 0 95 -35t33 -99q0 -103 -55 -171t-138 -68zM514 62q39 0 66 47t27 115q0 71 -52 71q-39 0 -65.5 -48t-26.5 -115q0 -70 51 -70zM860 -8q-61 0 -94 35.5t-33 98.5q0 103 54.5 171t137.5 68q62 0 95.5 -35t33.5 -99q0 -103 -55 -171t-139 -68zM873 62 q38 0 65 47t27 115q0 71 -52 71q-38 0 -65 -48t-27 -115q0 -70 52 -70z" glyph-name="perthousand" horiz-adv-x="1079" unicode="‰"/><glyph d="M77 152q-57 101 34 200l137 152h124l-237 -263l136 -241h-109z" glyph-name="guilsinglleft" horiz-adv-x="392" unicode="‹"/><glyph d="M20 0l237 263l-136 241h109l85 -152q56 -100 -34 -200l-137 -152h-124z" glyph-name="guilsinglright" horiz-adv-x="392" unicode="›"/><glyph d="M-265 0l567 700h108l-567 -700h-108z" glyph-name="fraction" horiz-adv-x="111" unicode="⁄"/><glyph d="M88 93q-14 19 -6.5 40.5t30.5 37.5l192 145l-223 -16q-25 -2 -39.5 9t-14.5 31q0 29 22 45.5t50 14.5l218 -16l-142 145q-18 15 -17 38.5t23 41.5q20 17 42 14.5t35 -24.5l115 -168l23 221q2 26 18 44.5t43 18.5q25 0 36 -18t3 -45l-55 -220l174 167q20 20 42 24t39 -15 q15 -20 8 -41t-30 -38l-193 -145l223 16q25 2 39.5 -9t14.5 -31q0 -30 -22 -46t-50 -14l-218 16l143 -145q18 -16 16.5 -38.5t-22.5 -40.5q-19 -17 -41.5 -15t-36.5 24l-115 168l-22 -221q-2 -26 -19 -44.5t-43 -18.5t-36 18t-3 45l55 220l-174 -167q-22 -22 -44 -24.5 t-38 16.5z" glyph-name="uni2055" horiz-adv-x="750" unicode="⁕"/><glyph glyph-name="uni205F" horiz-adv-x="222" unicode=" "/><glyph d="M214 367q-63 0 -98 36t-35 110q0 36 9 72.5t28.5 73t57 59t88.5 22.5q62 0 97.5 -37t35.5 -111q0 -36 -9 -72.5t-28.5 -72t-57.5 -58t-88 -22.5zM218 437q33 0 54.5 30t28.5 64t7 67q0 72 -49 72q-32 0 -53.5 -30t-29 -64.5t-7.5 -68.5q0 -70 49 -70z" glyph-name="uni2070" horiz-adv-x="372" unicode="⁰"/><glyph d="M155 527h68q23 0 27 20l17 98zM64 458l13 69l194 205h92l-36 -205h63l-12 -69h-64l-14 -83h-83l14 83h-167z" glyph-name="uni2074" horiz-adv-x="367" unicode="⁴"/><glyph d="M156 489q-2 -25 12.5 -38.5t42.5 -13.5q33 0 51.5 18.5t18.5 43.5q0 51 -56 51q-35 0 -57 -22h-82l58 204h244l-11 -70h-175l-20 -69q28 22 72 22q51 0 82 -28t31 -81q0 -59 -41 -99t-117 -40q-66 0 -106 32t-33 90h86z" glyph-name="uni2075" horiz-adv-x="352" unicode="⁵"/><glyph d="M211 367q-58 0 -96 34.5t-38 107.5q0 91 48.5 161t137.5 70q57 0 89.5 -27t32.5 -75h-81q-4 35 -46 35q-35 0 -60.5 -27.5t-32.5 -77.5q23 41 89 41q51 0 81.5 -27t31.5 -71q1 -59 -43 -101.5t-113 -42.5zM214 437q30 0 48.5 18t18.5 43q0 21 -14.5 33.5t-38.5 12.5 q-30 0 -49 -18.5t-18 -43.5q2 -45 53 -45z" glyph-name="uni2076" horiz-adv-x="352" unicode="⁶"/><glyph d="M92 375l196 287h-190l12 70h289l-11 -60l-201 -297h-95z" glyph-name="uni2077" horiz-adv-x="343" unicode="⁷"/><glyph d="M206 367q-62 0 -100 26.5t-38 73.5q0 37 23.5 66t64.5 44q-39 22 -39 62q0 44 41 72.5t103 28.5q55 0 87.5 -22.5t32.5 -60.5q0 -57 -64 -83q55 -26 55 -81q0 -53 -46.5 -89.5t-119.5 -36.5zM214 436q33 0 53.5 15t20.5 38q0 21 -16.5 33t-44.5 12q-33 0 -54 -15.5 t-21 -39.5q0 -20 16.5 -31.5t45.5 -11.5zM242 596q26 0 42 12.5t16 30.5q0 17 -13 26.5t-35 9.5q-26 0 -42.5 -12t-16.5 -31q0 -17 13.5 -26.5t35.5 -9.5z" glyph-name="uni2078" horiz-adv-x="360" unicode="⁸"/><glyph d="M192 367q-57 0 -89.5 27t-32.5 75h82q1 -15 13 -25t33 -10q34 0 59 26.5t34 73.5q-25 -36 -89 -36q-51 0 -82 27t-31 71q-1 59 43 101.5t113 42.5q58 0 96 -34t38 -108q0 -91 -49 -161t-138 -70zM228 563q31 0 49.5 18.5t17.5 44.5q-1 21 -15.5 32.5t-38.5 11.5 q-29 0 -47.5 -18t-18.5 -43q0 -22 14.5 -34t38.5 -12z" glyph-name="uni2079" horiz-adv-x="349" unicode="⁹"/><glyph d="M130 -108q-63 0 -98 36t-35 110q0 36 9 72.5t28.5 73t57 59t88.5 22.5q62 0 97.5 -37t35.5 -111q0 -36 -9 -72.5t-28.5 -72t-57.5 -58t-88 -22.5zM134 -38q33 0 54.5 30t28.5 64t7 67q0 72 -49 72q-32 0 -53.5 -30t-29 -64.5t-7.5 -68.5q0 -70 49 -70z" glyph-name="uni2080" horiz-adv-x="372" unicode="₀"/><glyph d="M0 117l13 70h82q24 0 27 20l8 50h85l-63 -357h-85l35 196q4 21 -19 21h-83z" glyph-name="uni2081" horiz-adv-x="258" unicode="₁"/><glyph d="M157 100q53 28 53 61q0 35 -45 35q-57 0 -68 -62h-83q10 64 52.5 97.5t107.5 33.5q57 0 89 -25.5t32 -69.5q0 -73 -98 -126l-65 -36q-31 -17 -50 -39h181l-12 -69h-288q21 104 119 159z" glyph-name="uni2082" horiz-adv-x="342" unicode="₂"/><glyph d="M142 117q28 0 44.5 12.5t16.5 31.5q0 34 -44 34q-50 0 -60 -51h-85q10 58 51 89.5t106 31.5q55 0 87.5 -23t32.5 -63q0 -58 -62 -86q49 -23 49 -75q0 -54 -44 -90t-117 -36q-68 0 -105.5 33t-27.5 93h85q-4 -27 10.5 -41.5t44.5 -14.5q29 0 47.5 13.5t18.5 35.5 q0 40 -60 40h-28l5 26h-1l7 40h29z" glyph-name="uni2083" horiz-adv-x="350" unicode="₃"/><glyph d="M71 52h68q23 0 27 20l17 98zM-20 -17l13 69l194 205h92l-36 -205h63l-12 -69h-64l-14 -83h-83l14 83h-167z" glyph-name="uni2084" horiz-adv-x="367" unicode="₄"/><glyph d="M72 14q-2 -25 12.5 -38.5t42.5 -13.5q33 0 51.5 18.5t18.5 43.5q0 51 -56 51q-35 0 -57 -22h-82l58 204h244l-11 -70h-175l-20 -69q28 22 72 22q51 0 82 -28t31 -81q0 -59 -41 -99t-117 -40q-66 0 -106 32t-33 90h86z" glyph-name="uni2085" horiz-adv-x="352" unicode="₅"/><glyph d="M127 -108q-58 0 -96 34.5t-38 107.5q0 91 48.5 161t137.5 70q57 0 89.5 -27t32.5 -75h-81q-4 35 -46 35q-35 0 -60.5 -27.5t-32.5 -77.5q23 41 89 41q51 0 81.5 -27t31.5 -71q1 -59 -43 -101.5t-113 -42.5zM130 -38q30 0 48.5 18t18.5 43q0 21 -14.5 33.5t-38.5 12.5 q-30 0 -49 -18.5t-18 -43.5q2 -45 53 -45z" glyph-name="uni2086" horiz-adv-x="352" unicode="₆"/><glyph d="M8 -100l196 287h-190l12 70h289l-11 -60l-201 -297h-95z" glyph-name="uni2087" horiz-adv-x="343" unicode="₇"/><glyph d="M122 -108q-62 0 -100 26.5t-38 73.5q0 37 23.5 66t64.5 44q-39 22 -39 62q0 44 41 72.5t103 28.5q55 0 87.5 -22.5t32.5 -60.5q0 -57 -64 -83q55 -26 55 -81q0 -53 -46.5 -89.5t-119.5 -36.5zM130 -39q33 0 53.5 15t20.5 38q0 21 -16.5 33t-44.5 12q-33 0 -54 -15.5 t-21 -39.5q0 -20 16.5 -31.5t45.5 -11.5zM158 121q26 0 42 12.5t16 30.5q0 17 -13 26.5t-35 9.5q-26 0 -42.5 -12t-16.5 -31q0 -17 13.5 -26.5t35.5 -9.5z" glyph-name="uni2088" horiz-adv-x="360" unicode="₈"/><glyph d="M108 -108q-57 0 -89.5 27t-32.5 75h82q1 -15 13 -25t33 -10q34 0 59 26.5t34 73.5q-25 -36 -89 -36q-51 0 -82 27t-31 71q-1 59 43 101.5t113 42.5q58 0 96 -34t38 -108q0 -91 -49 -161t-138 -70zM144 88q31 0 49.5 18.5t17.5 44.5q-1 21 -15.5 32.5t-38.5 11.5 q-29 0 -47.5 -18.5t-18.5 -42.5q0 -22 14.5 -34t38.5 -12z" glyph-name="uni2089" horiz-adv-x="349" unicode="₉"/><glyph d="M286 -15q-114 0 -181.5 73t-67.5 206q0 123 45.5 226t127.5 164t183 61q119 0 182 -77t53 -208h-103q4 91 -31.5 142t-108.5 51q-69 0 -121 -41.5t-66 -83.5q-8 -24 14 -24h152l-15 -82h-164q-24 0 -27 -22q-2 -11 -3.5 -17t-2 -7.5t-1 -4t-0.5 -8.5q0 -19 20 -19h164 l-14 -82h-153q-23 0 -23 -27q0 -25 13 -52.5t47.5 -51.5t83.5 -24q73 0 126.5 51t82.5 145h106q-38 -136 -120 -212t-198 -76z" glyph-name="Euro" horiz-adv-x="625" unicode="€"/><glyph d="M35 269l15 85h157q55 0 100 22.5t64 66.5h-306l15 83h303q-4 47 -34 68t-92 21h-161l15 85h517l-15 -85h-131q20 -37 20 -86v-3h95l-15 -83h-97q-33 -74 -117 -105q56 -20 74 -99l63 -239h-113l-62 242q-6 27 -34 27h-261z" glyph-name="uni20B9" horiz-adv-x="581" unicode="₹"/><glyph d="M59 0l23 129h-72l14 82h72l14 82h-71l16 89h71l56 318h276q89 0 146 -47t57 -131q0 -91 -65.5 -160t-182.5 -69h-188l-15 -82h222l-14 -82h-223l-23 -129h-113zM402 382q71 0 107 36.5t36 87.5q0 93 -112 93h-155l-38 -217h162z" glyph-name="uni20BD" horiz-adv-x="633" unicode="₽"/><glyph d="M8 0l123 700h83q29 0 34 28l9 52h99l-9 -52q-4 -28 22 -28h20q28 0 33 28l10 52h99l-12 -64q-4 -22 18 -30q42 -14 67 -46.5t25 -80.5q0 -61 -35.5 -110t-93.5 -70q95 -37 95 -140q0 -78 -48.5 -141t-126.5 -87q-28 -7 -31 -31l-10 -60h-99l9 52q5 28 -23 28h-20 q-28 0 -33 -28l-9 -52h-99l10 52q5 28 -24 28h-83zM344 92q62 0 101.5 36.5t39.5 94.5q0 41 -27 64.5t-76 23.5h-212l-39 -219h213zM387 406q57 0 93.5 34.5t36.5 88.5q0 37 -24.5 58t-69.5 21h-201l-36 -202h201z" glyph-name="uni20BF" horiz-adv-x="627" unicode="₿"/><glyph d="M181 606q3 23 -20 23h-78l12 71h292l-12 -71h-80q-23 0 -28 -23l-47 -265h-86zM547 341l-38 270l-47 -270h-82l63 359h127l33 -240l116 240h132l-63 -359h-82l47 269l-131 -269h-75z" glyph-name="trademark" horiz-adv-x="808" unicode="™"/><glyph d="M79 562l13 70h82q24 0 27 20l8 50h85l-63 -357h-85l35 196q3 21 -19 21h-83zM5 0l567 700h108l-567 -700h-108zM480 -8q-62 0 -100 26.5t-38 73.5q0 37 23.5 66t64.5 44q-39 22 -39 62q0 44 41 72.5t103 28.5q55 0 87.5 -22.5t32.5 -60.5q0 -57 -64 -83q55 -26 55 -81 q0 -53 -46.5 -89.5t-119.5 -36.5zM488 61q33 0 53.5 15t20.5 38q0 21 -16.5 33t-44.5 12q-33 0 -54 -15.5t-21 -39.5q0 -20 16.5 -31.5t45.5 -11.5zM516 221q26 0 42 12.5t16 30.5q0 17 -13 26.5t-35 9.5q-26 0 -42.5 -12t-16.5 -31q0 -17 13.5 -26.5t35.5 -9.5z" glyph-name="oneeighth" horiz-adv-x="714" unicode="⅛"/><glyph d="M221 562q28 0 44.5 12.5t16.5 31.5q0 34 -44 34q-50 0 -60 -51h-85q10 58 51 89.5t106 31.5q55 0 87.5 -23t32.5 -63q0 -58 -62 -86q49 -23 49 -75q0 -54 -44 -90t-117 -36q-68 0 -105.5 33t-27.5 93h85q-4 -27 10.5 -41.5t44.5 -14.5q29 0 47.5 13.5t18.5 35.5 q0 40 -60 40h-28l5 26h-1l7 40h29zM68 0l567 700h108l-567 -700h-108zM547 -8q-62 0 -100 26.5t-38 73.5q0 37 23.5 66t64.5 44q-39 22 -39 62q0 44 41 72.5t103 28.5q55 0 87.5 -22.5t32.5 -60.5q0 -57 -64 -83q55 -26 55 -81q0 -53 -46.5 -89.5t-119.5 -36.5zM555 61 q33 0 53.5 15t20.5 38q0 21 -16.5 33t-44.5 12q-33 0 -54 -15.5t-21 -39.5q0 -20 16.5 -31.5t45.5 -11.5zM583 221q26 0 42 12.5t16 30.5q0 17 -13 26.5t-35 9.5q-26 0 -42.5 -12t-16.5 -31q0 -17 13.5 -26.5t35.5 -9.5z" glyph-name="threeeighths" horiz-adv-x="767" unicode="⅜"/><glyph d="M151 459q-2 -25 12.5 -38.5t42.5 -13.5q33 0 51.5 18.5t18.5 43.5q0 51 -56 51q-35 0 -57 -22h-82l58 204h244l-11 -70h-175l-20 -69q28 22 72 22q51 0 82 -28t31 -81q0 -59 -41 -99t-117 -40q-66 0 -106 32t-33 90h86zM66 0l567 700h108l-567 -700h-108zM545 -8 q-62 0 -100 26.5t-38 73.5q0 37 23.5 66t64.5 44q-39 22 -39 62q0 44 41 72.5t103 28.5q55 0 87.5 -22.5t32.5 -60.5q0 -57 -64 -83q55 -26 55 -81q0 -53 -46.5 -89.5t-119.5 -36.5zM553 61q33 0 53.5 15t20.5 38q0 21 -16.5 33t-44.5 12q-33 0 -54 -15.5t-21 -39.5 q0 -20 16.5 -31.5t45.5 -11.5zM581 221q26 0 42 12.5t16 30.5q0 17 -13 26.5t-35 9.5q-26 0 -42.5 -12t-16.5 -31q0 -17 13.5 -26.5t35.5 -9.5z" glyph-name="fiveeighths" horiz-adv-x="763" unicode="⅝"/><glyph d="M87 345l196 287h-190l12 70h289l-11 -60l-201 -297h-95zM-10 0l567 700h108l-567 -700h-108zM470 -8q-62 0 -100 26.5t-38 73.5q0 37 23.5 66t64.5 44q-39 22 -39 62q0 44 41 72.5t103 28.5q55 0 87.5 -22.5t32.5 -60.5q0 -57 -64 -83q55 -26 55 -81q0 -53 -46.5 -89.5 t-119.5 -36.5zM478 61q33 0 53.5 15t20.5 38q0 21 -16.5 33t-44.5 12q-33 0 -54 -15.5t-21 -39.5q0 -20 16.5 -31.5t45.5 -11.5zM506 221q26 0 42 12.5t16 30.5q0 17 -13 26.5t-35 9.5q-26 0 -42.5 -12t-16.5 -31q0 -17 13.5 -26.5t35.5 -9.5z" glyph-name="seveneighths" horiz-adv-x="689" unicode="⅞"/><glyph d="M60 294q-29 56 20 112l210 239h123l-213 -245h469l-18 -100h-479l127 -244h-113z" glyph-name="arrowleft" horiz-adv-x="675" unicode="←"/><glyph d="M214 0l102 579l-254 -158l21 118l247 156q63 39 112 0l192 -156l-18 -105l-191 151l-104 -585h-107z" glyph-name="arrowup" horiz-adv-x="616" unicode="↑"/><glyph d="M297 56l213 245h-469l17 100h480l-127 244h113l126 -238q29 -56 -20 -112l-210 -239h-123z" glyph-name="arrowright" horiz-adv-x="675" unicode="→"/><glyph d="M208 5l-192 156l18 105l191 -151l104 585h108l-103 -579l255 158l-21 -118l-248 -156q-63 -39 -112 0z" glyph-name="arrowdown" horiz-adv-x="616" unicode="↓"/><glyph d="M60 295q-29 56 20 112l119 136h120l-122 -142h440l-73 142h109l72 -136q30 -56 -20 -112l-119 -136h-120l123 142h-441l75 -142h-111z" glyph-name="arrowboth" horiz-adv-x="770" unicode="↔"/><glyph d="M125 6l-120 95l19 107l121 -95l84 464l-157 -98l21 120l153 96q64 39 112 0l120 -96l-19 -107l-120 95l-84 -463l156 97l-21 -120l-153 -95q-63 -40 -112 0z" glyph-name="arrowupdn" horiz-adv-x="449" unicode="↕"/><glyph d="M572 98l-377 434l-54 -309h-94l70 398q6 36 31.5 57.5t61.5 21.5h398l-16 -92h-324l385 -439z" glyph-name="uni2196" horiz-adv-x="699" unicode="↖"/><glyph d="M80 98l-62 78l533 432h-318l16 92h398q36 0 54 -21.5t11 -57.5l-70 -398h-94l53 298z" glyph-name="uni2197" horiz-adv-x="699" unicode="↗"/><glyph d="M126 0l16 92h324l-385 439l81 71l376 -434l54 309h94l-69 -398q-6 -36 -31.5 -57.5t-61.5 -21.5h-398z" glyph-name="uni2198" horiz-adv-x="699" unicode="↘"/><glyph d="M87 0q-36 0 -54 21.5t-11 57.5l70 398h94l-54 -304l522 429l61 -78l-527 -432h313l-16 -92h-398z" glyph-name="uni2199" horiz-adv-x="699" unicode="↙"/><glyph d="M238 -15q-99 0 -158.5 57t-59.5 157q0 114 72 201.5t191 87.5q56 0 99.5 -22t62.5 -61q7 203 -149 335h125q57 -47 91 -133.5t34 -194.5q0 -73 -16.5 -144t-50.5 -136.5t-96.5 -106t-144.5 -40.5zM249 77q75 0 122 55.5t49 130.5q2 61 -30.5 97t-89.5 36 q-75 0 -122 -58.5t-47 -134.5q0 -60 31.5 -93t86.5 -33z" glyph-name="partialdiff" horiz-adv-x="552" unicode="∂"/><glyph d="M29 -52l-57 73l94 77q15 13 7 33q-19 44 -19 101q0 135 98.5 237t243.5 102q90 0 156 -43q17 -12 34 1l94 78l57 -72l-93 -77q-14 -13 -7 -33q19 -48 19 -101q0 -134 -97.5 -237t-243.5 -103q-92 0 -158 44q-18 12 -34 -1zM319 72q100 0 170 73t70 170q0 38 -11 64 l-331 -276q44 -31 102 -31zM150 241q0 -34 11 -64l331 275q-41 31 -100 31q-101 0 -171.5 -73t-70.5 -169z" glyph-name="emptyset" horiz-adv-x="700" unicode="∅"/><glyph d="M166 559q8 40 -33 40h-58l18 101h567l-17 -101h-58q-40 0 -48 -40l-112 -639h-114l113 639q6 40 -34 40h-62q-40 0 -48 -40l-112 -639h-114z" glyph-name="product" horiz-adv-x="596" unicode="∏"/><glyph d="M-32 -80l27 155l309 222q44 29 10 58l-234 205l25 140h511l-17 -99h-421l267 -240l-14 -83l-361 -259h437l-17 -99h-522z" glyph-name="summation" unicode="∑"/><glyph d="M59 295l16 92h433l-16 -92h-433z" glyph-name="minus" horiz-adv-x="537" unicode="−"/><glyph d="M106 -80l39 224q7 40 -34 40h-81l16 92h183l154 464h108l-278 -820h-107z" glyph-name="radical" horiz-adv-x="430" unicode="√"/><glyph d="M223 137q-77 0 -126.5 48.5t-49.5 128.5q0 92 62.5 161.5t160.5 69.5q61 0 106 -29.5t69 -77.5q79 107 194 107q77 0 127 -48t50 -128q0 -92 -62.5 -162t-160.5 -70q-61 0 -106 29.5t-69 78.5q-80 -108 -195 -108zM229 225q50 0 93 35.5t64 80.5q-7 49 -37 82t-80 33 q-57 0 -93.5 -39.5t-36.5 -95.5q0 -45 24.5 -70.5t65.5 -25.5zM595 225q55 0 92 40t37 97q0 44 -24.5 69t-65.5 25q-50 0 -92.5 -34.5t-63.5 -80.5q5 -47 35 -81.5t82 -34.5z" glyph-name="infinity" horiz-adv-x="831" unicode="∞"/><glyph d="M-49 -69l17 93h73q30 0 44 30l224 494q69 152 224 152h26l-16 -92h-64q-31 0 -44 -30l-225 -495q-70 -152 -228 -152h-31z" glyph-name="integral" horiz-adv-x="489" unicode="∫"/><glyph d="M411 465q13 -9 27.5 -4.5t21.5 20.5l24 56h113q-32 -104 -109.5 -144t-162.5 13l-65 44q-13 9 -27.5 4t-21.5 -21l-24 -56h-113q32 105 108.5 144.5t165.5 -14.5zM370 232q13 -8 27.5 -3.5t21.5 20.5l24 56h113q-32 -105 -108 -145t-163 14l-66 44q-13 9 -27.5 4 t-21.5 -21l-24 -56h-113q32 105 109 144.5t166 -14.5z" glyph-name="approxequal" horiz-adv-x="599" unicode="≈"/><glyph d="M80 409l17 92h179q36 0 52 33l29 59h106l-28 -58q-7 -16 -2 -25t21 -9h75l-17 -92h-105q-37 0 -53 -33l-34 -69q-8 -15 -2 -24.5t22 -9.5h148l-17 -92h-179q-36 0 -52 -33l-29 -59h-106l28 58q8 15 2.5 24.5t-21.5 9.5h-74l16 92h105q37 0 53 33l34 69q7 15 1.5 24.5 t-21.5 9.5h-148z" glyph-name="notequal" horiz-adv-x="537" unicode="≠"/><glyph d="M469 162l-405 156l17 102l462 162l-19 -108l-251 -82q-31 -10 -34 -27.5t25 -26.5l222 -77zM8 0l16 92h432l-16 -92h-432z" glyph-name="lessequal" horiz-adv-x="537" unicode="≤"/><glyph d="M37 162l18 108l250 77q31 9 34.5 26.5t-24.5 27.5l-222 83l18 98l404 -162l-18 -102zM8 0l16 92h433l-16 -92h-433z" glyph-name="greaterequal" horiz-adv-x="537" unicode="≥"/><glyph d="M147 -15q-62 0 -100 37t-38 96q0 68 49 116t124 48h60l22 128h-46q-60 0 -96.5 37.5t-36.5 95.5q0 67 46 116t118 49q68 0 105.5 -43.5t26.5 -113.5l-8 -49h119l11 65q10 65 54 103t106 38q61 0 99.5 -37t38.5 -96q0 -69 -49.5 -117t-124.5 -48h-60l-22 -128h47 q59 0 95.5 -37t36.5 -95q0 -67 -46 -116t-118 -49q-67 0 -105 44t-27 113l8 48h-119l-11 -64q-10 -65 -53.5 -103t-105.5 -38zM152 77q25 0 42 15t22 41l10 57h-57q-29 0 -48.5 -19t-19.5 -45q0 -23 14 -36t37 -13zM224 502h57l9 54q5 26 -9 43t-40 17q-29 0 -46.5 -19 t-17.5 -46q0 -23 12.5 -36t34.5 -13zM569 77q28 0 46 19t18 46q0 23 -13 35.5t-34 12.5h-58l-9 -54q-4 -26 10 -42.5t40 -16.5zM334 282h119l22 128h-119zM641 502q29 0 48.5 19t19.5 46q0 22 -14 35.5t-37 13.5q-25 0 -42 -15.5t-22 -41.5l-10 -57h57z" glyph-name="uni2318" horiz-adv-x="776" unicode="⌘"/><glyph d="M16 0l123 700h686l-123 -700h-686z" glyph-name="filledbox" horiz-adv-x="806" unicode="■"/><glyph d="M16 0l123 700h686l-123 -700h-686zM96 68h550l99 564h-550z" glyph-name="H22073" horiz-adv-x="806" unicode="□"/><glyph d="M219 -80l-185 430l336 430h4l186 -430l-337 -430h-4zM225 128q7 -20 23 -20t32 20l169 229l-83 215q-8 20 -23.5 20t-30.5 -20l-169 -229z" glyph-name="lozenge" horiz-adv-x="558" unicode="◊"/><glyph d="M375 -15q-139 0 -225.5 82t-86.5 221q0 108 52 205.5t149.5 159.5t216.5 62q140 0 226.5 -82.5t86.5 -221.5q0 -108 -52 -205t-149.5 -159t-217.5 -62zM376 53q143 0 243.5 107.5t100.5 246.5q0 108 -65.5 174t-174.5 66q-143 0 -243 -107.5t-100 -246.5q0 -108 65 -174 t174 -66z" glyph-name="circle" horiz-adv-x="822" unicode="○"/><glyph d="M110 0l137 272l-203 169h286l137 274l41 -274h287l-261 -169l40 -272l-203 167z" glyph-name="uni2605" horiz-adv-x="771" unicode="★"/><glyph d="M401 -15q-153 130 -233 237.5t-80 218.5q0 115 70.5 194.5t174.5 79.5q49 0 89 -20.5t56.5 -40.5t26.5 -40q94 101 206 101q80 0 131 -49.5t51 -127.5q0 -59 -27 -119.5t-70 -113.5t-110.5 -111t-132.5 -105.5t-152 -103.5zM409 69q180 124 251 188q159 143 159 272 q0 53 -30 83.5t-82 30.5q-124 0 -218 -162q-41 162 -163 162q-72 0 -118.5 -55.5t-46.5 -141.5q0 -91 59.5 -175.5t188.5 -201.5z" glyph-name="uni2661" horiz-adv-x="896" unicode="♡"/><glyph d="M401 -15q-153 130 -233 237.5t-80 218.5q0 112 75 193t178 81q71 0 112.5 -35t56.5 -76q28 40 83 75.5t126 35.5q79 0 126.5 -49t47.5 -128q0 -59 -27 -119.5t-70 -113.5t-110.5 -111t-132.5 -105.5t-152 -103.5z" glyph-name="heart" horiz-adv-x="896" unicode="♥"/><glyph d="M-37 -16l210 352h-148l188 364h195l-176 -256h172z" glyph-name="uni26A1" horiz-adv-x="380" unicode="⚡"/><glyph d="M96 503h29l33 -85q12 -31 44 -28l145 16l-116 309h73l198 -281q18 -23 45 -23h115q77 0 111 -33q16 -14 13 -27t-21 -28q-43 -33 -124 -33h-116q-28 0 -53 -23l-297 -282h-73l226 310l-139 17q-32 4 -54 -28l-64 -87h-29z" glyph-name="uni2708" horiz-adv-x="788" unicode="✈"/><glyph d="M519 585q-7 -122 23 -159t149 -51l-6 -38q-124 -14 -167.5 -51t-79.5 -159h-38q8 122 -22.5 159t-150.5 51l6 38q125 14 168.5 51t79.5 159h38zM233 680q-3 -49 8.5 -63.5t59.5 -19.5l-4 -24q-50 -5 -67 -19.5t-31 -63.5h-24q3 48 -9 63t-59 20l4 24q49 5 66.5 20 t31.5 63h24zM235 190q-3 -48 8.5 -63t59.5 -20l-4 -24q-49 -5 -66 -20t-31 -63h-24q2 49 -9.5 63.5t-59.5 19.5l4 24q49 5 66.5 20t31.5 63h24z" glyph-name="uni2728" horiz-adv-x="720" unicode="✨"/><glyph d="M350 -15q-139 0 -225.5 82t-86.5 221q0 108 52 205.5t149.5 159.5t216.5 62q140 0 226.5 -82.5t86.5 -221.5q0 -108 -52 -205t-149.5 -159t-217.5 -62zM351 53q143 0 243.5 107.5t100.5 246.5q0 108 -65.5 174t-174.5 66q-143 0 -243 -107.5t-100 -246.5q0 -108 65 -174 t174 -66zM302 394l11 64h80q22 0 25 22l12 65h72l-68 -389h-72l38 216q3 22 -18 22h-80z" glyph-name="uni2780" horiz-adv-x="772" unicode="➀"/><glyph d="M229 159q11 61 36.5 102t82.5 72l77 43q60 33 60 73q0 43 -48 43q-66 0 -79 -79h-73q11 67 51.5 105t103.5 38q54 0 86 -27.5t32 -74.5q0 -78 -93 -130l-80 -45q-37 -21 -57 -56h194l-12 -64h-281zM350 -15q-139 0 -225.5 82t-86.5 221q0 108 52 205.5t149.5 159.5 t216.5 62q140 0 226.5 -82.5t86.5 -221.5q0 -108 -52 -205t-149.5 -159t-217.5 -62zM351 53q143 0 243.5 107.5t100.5 246.5q0 108 -65.5 174t-174.5 66q-143 0 -243 -107.5t-100 -246.5q0 -108 65 -174t174 -66z" glyph-name="uni2781" horiz-adv-x="772" unicode="➁"/><glyph d="M380 144q-68 0 -104.5 36t-27.5 101h72q-8 -73 63 -73q35 0 57.5 17t22.5 45q0 49 -64 49h-34l11 62h34q31 0 50 16.5t19 43.5q0 44 -53 44q-61 0 -74 -67h-72q11 63 49.5 97t103.5 34q55 0 88 -25.5t33 -70.5q0 -68 -74 -94q56 -21 56 -84q0 -58 -43 -94.5t-113 -36.5z M350 -15q-139 0 -225.5 82t-86.5 221q0 108 52 205.5t149.5 159.5t216.5 62q140 0 226.5 -82.5t86.5 -221.5q0 -108 -52 -205t-149.5 -159t-217.5 -62zM351 53q143 0 243.5 107.5t100.5 246.5q0 108 -65.5 174t-174.5 66q-143 0 -243 -107.5t-100 -246.5q0 -108 65 -174 t174 -66z" glyph-name="uni2782" horiz-adv-x="772" unicode="➂"/><glyph d="M375 156l16 89h-160l11 64l196 236h78l-42 -236h60l-11 -64h-60l-16 -89h-72zM383 309q22 0 26 22l21 120l-117 -142h70zM350 -15q-139 0 -225.5 82t-86.5 221q0 108 52 205.5t149.5 159.5t216.5 62q140 0 226.5 -82.5t86.5 -221.5q0 -108 -52 -205t-149.5 -159 t-217.5 -62zM351 53q143 0 243.5 107.5t100.5 246.5q0 108 -65.5 174t-174.5 66q-143 0 -243 -107.5t-100 -246.5q0 -108 65 -174t174 -66z" glyph-name="uni2783" horiz-adv-x="772" unicode="➃"/><glyph d="M350 -15q-139 0 -225.5 82t-86.5 221q0 108 52 205.5t149.5 159.5t216.5 62q140 0 226.5 -82.5t86.5 -221.5q0 -108 -52 -205t-149.5 -159t-217.5 -62zM351 53q143 0 243.5 107.5t100.5 246.5q0 108 -65.5 174t-174.5 66q-143 0 -243 -107.5t-100 -246.5q0 -108 65 -174 t174 -66zM378 144q-64 0 -101 36t-27 96h72q-5 -32 11 -50t47 -18q37 0 60 25.5t23 59.5q0 59 -58 59q-45 0 -71 -34h-71l61 223h237l-10 -64h-175l-25 -92q29 27 77 27t78 -30t30 -82q0 -64 -43 -110t-115 -46z" glyph-name="uni2784" horiz-adv-x="772" unicode="➄"/><glyph d="M380 148q-57 0 -95 36t-38 118q0 42 10.5 83.5t31 80.5t58 63t85.5 24q54 0 87 -30.5t32 -80.5h-70q0 21 -14.5 34t-40.5 13q-42 0 -70 -34t-36 -96q10 19 35 31t55 12q50 0 84.5 -29.5t34.5 -82.5q0 -59 -41 -100.5t-108 -41.5zM380 212q35 0 55.5 21.5t20.5 51.5 q0 26 -16.5 41t-44.5 15q-34 0 -55 -20.5t-21 -51.5q0 -27 17 -42t44 -15zM350 -15q-139 0 -225.5 82t-86.5 221q0 108 52 205.5t149.5 159.5t216.5 62q140 0 226.5 -82.5t86.5 -221.5q0 -108 -52 -205t-149.5 -159t-217.5 -62zM351 53q143 0 243.5 107.5t100.5 246.5 q0 108 -65.5 174t-174.5 66q-143 0 -243 -107.5t-100 -246.5q0 -108 65 -174t174 -66z" glyph-name="uni2785" horiz-adv-x="772" unicode="➅"/><glyph d="M282 156l211 325h-204l12 64h288l-11 -60l-214 -329h-82zM350 -15q-139 0 -225.5 82t-86.5 221q0 108 52 205.5t149.5 159.5t216.5 62q140 0 226.5 -82.5t86.5 -221.5q0 -108 -52 -205t-149.5 -159t-217.5 -62zM351 53q143 0 243.5 107.5t100.5 246.5q0 108 -65.5 174 t-174.5 66q-143 0 -243 -107.5t-100 -246.5q0 -108 65 -174t174 -66z" glyph-name="uni2786" horiz-adv-x="772" unicode="➆"/><glyph d="M350 -15q-139 0 -225.5 82t-86.5 221q0 108 52 205.5t149.5 159.5t216.5 62q140 0 226.5 -82.5t86.5 -221.5q0 -108 -52 -205t-149.5 -159t-217.5 -62zM351 53q143 0 243.5 107.5t100.5 246.5q0 108 -65.5 174t-174.5 66q-143 0 -243 -107.5t-100 -246.5q0 -108 65 -174 t174 -66zM379 148q-61 0 -99.5 29.5t-38.5 78.5q0 41 26.5 71.5t68.5 44.5q-43 22 -43 71t40 79.5t103 30.5q54 0 87 -23.5t33 -66.5q0 -65 -73 -93q60 -22 60 -88q0 -59 -47 -96.5t-117 -37.5zM382 212q38 0 63.5 18.5t25.5 48.5q0 25 -18 38.5t-50 13.5q-36 0 -63 -18.5 t-27 -48.5q0 -25 18.5 -38.5t50.5 -13.5zM416 395q29 0 49 15t20 40q0 19 -15 30t-40 11q-29 0 -49.5 -15t-20.5 -39q0 -19 15 -30.5t41 -11.5z" glyph-name="uni2787" horiz-adv-x="772" unicode="➇"/><glyph d="M374 148q-54 0 -87 30.5t-32 80.5h69q1 -21 15.5 -34t40.5 -13q41 0 69 34t36 96q-10 -19 -35 -31t-55 -12q-49 0 -83.5 29.5t-34.5 82.5q0 59 40.5 100.5t107.5 41.5q57 0 95 -36t38 -118q0 -57 -17 -111.5t-60.5 -97t-106.5 -42.5zM350 -15q-139 0 -225.5 82t-86.5 221 q0 108 52 205.5t149.5 159.5t216.5 62q140 0 226.5 -82.5t86.5 -221.5q0 -108 -52 -205t-149.5 -159t-217.5 -62zM351 53q143 0 243.5 107.5t100.5 246.5q0 108 -65.5 174t-174.5 66q-143 0 -243 -107.5t-100 -246.5q0 -108 65 -174t174 -66zM411 360q34 0 54.5 20.5 t20.5 52.5q0 25 -16.5 40.5t-44.5 15.5q-34 0 -54.5 -21.5t-20.5 -52.5q0 -25 16.5 -40t44.5 -15z" glyph-name="uni2788" horiz-adv-x="772" unicode="➈"/><glyph d="M468 148q-57 0 -90.5 40t-33.5 114q0 40 10 82t30.5 81t56 63.5t80.5 24.5q58 0 92 -40t34 -115q0 -58 -19 -113.5t-61.5 -96t-98.5 -40.5zM350 -15q-139 0 -225.5 82t-86.5 221q0 108 52 205.5t149.5 159.5t216.5 62q140 0 226.5 -82.5t86.5 -221.5q0 -108 -52 -205 t-149.5 -159t-217.5 -62zM351 53q143 0 243.5 107.5t100.5 246.5q0 108 -65.5 174t-174.5 66q-143 0 -243 -107.5t-100 -246.5q0 -108 65 -174t174 -66zM253 372q4 22 -18 22h-55l11 64h55q22 0 26 22l12 65h72l-69 -389h-72zM471 212q37 0 62.5 37.5t34 77.5t8.5 73 q0 89 -58 89q-27 0 -48 -20.5t-32 -51.5t-16.5 -60.5t-5.5 -54.5q0 -90 55 -90z" glyph-name="uni2789" horiz-adv-x="772" unicode="➉"/><glyph d="M350 -15q-139 0 -225.5 82t-86.5 221q0 108 52 205.5t149.5 159.5t217.5 62q139 0 225.5 -82.5t86.5 -221.5q0 -108 -52 -205t-149.5 -159t-217.5 -62zM362 156h72l69 389h-72l-12 -65q-4 -22 -26 -22h-80l-11 -64h80q22 0 18 -22z" glyph-name="uni278A" horiz-adv-x="772" unicode="➊"/><glyph d="M350 -15q-139 0 -225.5 82t-86.5 221q0 108 52 205.5t149.5 159.5t217.5 62q139 0 225.5 -82.5t86.5 -221.5q0 -108 -52 -205t-149.5 -159t-217.5 -62zM230 159h281l11 64h-193q19 36 56 56l80 45q94 54 94 129q0 47 -32.5 75t-85.5 28q-64 0 -104.5 -38t-51.5 -105h74 q13 79 77 79q49 0 49 -43q0 -40 -60 -73l-76 -43q-57 -31 -82.5 -72t-36.5 -102z" glyph-name="uni278B" horiz-adv-x="772" unicode="➋"/><glyph d="M350 -15q-139 0 -225.5 82t-86.5 221q0 108 52 205.5t149.5 159.5t217.5 62q139 0 225.5 -82.5t86.5 -221.5q0 -108 -52 -205t-149.5 -159t-217.5 -62zM379 144q71 0 114.5 36.5t43.5 93.5q0 64 -57 85q35 11 55 35.5t20 58.5q0 45 -33.5 70.5t-88.5 25.5 q-64 0 -102.5 -34t-49.5 -97h72q5 32 24.5 49.5t49.5 17.5q25 0 39 -12t14 -32q0 -27 -19.5 -43.5t-49.5 -16.5h-35l-11 -62h34q64 0 64 -49q0 -28 -22.5 -45t-57.5 -17q-71 0 -63 73h-72q-9 -66 27.5 -101.5t103.5 -35.5z" glyph-name="uni278C" horiz-adv-x="772" unicode="➌"/><glyph d="M350 -15q-139 0 -225.5 82t-86.5 221q0 108 52 205.5t149.5 159.5t217.5 62q139 0 225.5 -82.5t86.5 -221.5q0 -108 -52 -205t-149.5 -159t-217.5 -62zM375 156h72l16 89h60l12 64h-60l41 236h-78l-195 -236l-12 -64h160zM313 309l117 143l-20 -121q-4 -22 -26 -22h-71z " glyph-name="uni278D" horiz-adv-x="772" unicode="➍"/><glyph d="M350 -15q-139 0 -225.5 82t-86.5 221q0 108 52 205.5t149.5 159.5t217.5 62q139 0 225.5 -82.5t86.5 -221.5q0 -108 -52 -205t-149.5 -159t-217.5 -62zM378 144q72 0 115.5 46t43.5 110q0 52 -30.5 82t-80.5 30q-47 0 -75 -26l26 91h174l11 64h-237l-61 -223h71 q25 34 71 34q27 0 42 -15t15 -42q0 -36 -22.5 -61.5t-60.5 -25.5q-31 0 -46.5 18t-10.5 50h-72q-10 -60 27 -96t100 -36z" glyph-name="uni278E" horiz-adv-x="772" unicode="➎"/><glyph d="M350 -15q-139 0 -225.5 82t-86.5 221q0 108 52 205.5t149.5 159.5t217.5 62q139 0 225.5 -82.5t86.5 -221.5q0 -108 -52 -205t-149.5 -159t-217.5 -62zM381 148q67 0 107.5 41.5t40.5 100.5q0 53 -34.5 82.5t-83.5 29.5q-30 0 -55 -12t-36 -31q9 62 37 96t69 34 q26 0 40.5 -13t15.5 -34h69q1 50 -32 80.5t-87 30.5q-63 0 -106.5 -42.5t-60.5 -97t-17 -111.5q0 -82 37.5 -118t95.5 -36zM381 212q-28 0 -44.5 15t-16.5 42q0 31 20.5 51.5t54.5 20.5q28 0 44.5 -15t16.5 -41q0 -30 -20.5 -51.5t-54.5 -21.5z" glyph-name="uni278F" horiz-adv-x="772" unicode="➏"/><glyph d="M351 -15q-140 0 -226.5 82t-86.5 220q0 109 52 206.5t149.5 159.5t216.5 62q139 0 226 -82.5t87 -220.5q0 -109 -52 -206t-149.5 -159t-216.5 -62zM282 156h82l214 329l11 60h-288l-12 -64h204z" glyph-name="uni2790" horiz-adv-x="772" unicode="➐"/><glyph d="M350 -15q-139 0 -225.5 82t-86.5 221q0 108 52 205.5t149.5 159.5t217.5 62q139 0 225.5 -82.5t86.5 -221.5q0 -108 -52 -205t-149.5 -159t-217.5 -62zM380 148q70 0 116.5 37.5t46.5 96.5q0 66 -60 88q74 29 74 93q0 43 -33 66.5t-88 23.5q-62 0 -102.5 -30.5 t-40.5 -78.5q0 -49 43 -73q-43 -13 -69 -43.5t-26 -71.5q0 -49 38.5 -78.5t100.5 -29.5zM382 212q-68 0 -68 52q0 30 26.5 48.5t63.5 18.5q31 0 49 -13.5t18 -38.5q0 -30 -25.5 -48.5t-63.5 -18.5zM415 395q-24 0 -39 11.5t-15 31.5q0 23 20.5 38t49.5 15q25 0 39.5 -11.5 t14.5 -30.5q0 -24 -20.5 -39t-49.5 -15z" glyph-name="uni2791" horiz-adv-x="772" unicode="➑"/><glyph d="M350 -15q-139 0 -225.5 82t-86.5 221q0 108 52 205.5t149.5 159.5t217.5 62q139 0 225.5 -82.5t86.5 -221.5q0 -108 -52 -205t-149.5 -159t-217.5 -62zM374 148q63 0 107 42.5t61 97t17 111.5q0 82 -38 118t-95 36q-67 0 -108 -41.5t-41 -100.5q0 -53 34.5 -82.5 t83.5 -29.5q30 0 55 12t36 31q-8 -62 -36.5 -96t-69.5 -34q-26 0 -40.5 13t-14.5 34h-70q-1 -50 32 -80.5t87 -30.5zM411 360q-28 0 -44.5 15t-16.5 41q0 30 20.5 51.5t55.5 21.5q27 0 43.5 -15t16.5 -42q0 -31 -20.5 -51.5t-54.5 -20.5z" glyph-name="uni2792" horiz-adv-x="772" unicode="➒"/><glyph d="M350 -15q-139 0 -225.5 82t-86.5 221q0 108 52 205.5t149.5 159.5t217.5 62q139 0 225.5 -82.5t86.5 -221.5q0 -108 -52 -205t-149.5 -159t-217.5 -62zM209 156h72l69 389h-72l-12 -65q-4 -22 -25 -22h-55l-11 -64h55q22 0 18 -22zM474 148q57 0 99 40.5t61 96t19 113.5 q0 75 -34 115t-91 40q-60 0 -102 -43t-59 -98t-17 -110q0 -74 33.5 -114t90.5 -40zM479 212q-57 0 -57 87q0 26 5.5 56.5t17 61.5t32.5 51.5t48 20.5q57 0 57 -84q0 -38 -9 -79.5t-34 -77.5t-60 -36z" glyph-name="uni2793" horiz-adv-x="772" unicode="➓"/><glyph d="M225 -80l-185 430l336 430h4l186 -430l-337 -430h-4zM231 128q7 -20 23 -20t32 20l133 181h-256zM185 391h256l-69 181q-8 20 -23.5 20t-30.5 -20z" glyph-name="uni27E0" horiz-adv-x="570" unicode="⟠"/><glyph d="M225 -80l-185 430l336 430h4l186 -430l-337 -430h-4z" glyph-name="uni29EB" horiz-adv-x="570" unicode="⧫"/><glyph d="M375 -15q-139 0 -225.5 82t-86.5 221q0 108 52 205.5t149.5 159.5t216.5 62q140 0 226.5 -82.5t86.5 -221.5q0 -108 -52 -205t-149.5 -159t-217.5 -62z" glyph-name="uni2B24" horiz-adv-x="822" unicode="⬤"/><glyph d="M219 -80l-185 430l336 430h4l186 -430l-337 -430h-4zM225 128q7 -20 23 -20t32 20l169 229l-83 215q-8 20 -23.5 20t-30.5 -20l-169 -229z" glyph-name="uni2B28" horiz-adv-x="558" unicode="⬨"/><glyph d="M216 376q6 36 -30 36h-126l16 92h126q38 0 43 36l28 160h108l-137 -780h-108z" glyph-name="uni2E36" horiz-adv-x="366" unicode="⸶"/><glyph d="M6 -80l137 780h107l-28 -160q-6 -36 30 -36h126l-16 -92h-126q-37 0 -43 -36l-80 -456h-107z" glyph-name="uni2E37" horiz-adv-x="366" unicode="⸷"/><glyph d="M164 80q8 36 -30 36h-126l16 92h127q36 0 42 36l80 456h108l-80 -456q-4 -17 4.5 -26.5t25.5 -9.5h127l-17 -92h-126q-37 0 -43 -36l-28 -160h-108z" glyph-name="uni2E38" horiz-adv-x="497" unicode="⸸"/><glyph d="M37 -80l138 780h245q-100 -84 -159 -228.5t-59 -288.5q0 -167 80 -263h-245z" glyph-name="uni3010" horiz-adv-x="389" unicode="【"/><glyph d="M-10 -80q100 84 159 228.5t59 288.5q0 167 -80 263h244l-138 -780h-244z" glyph-name="uni3011" horiz-adv-x="389" unicode="】"/><glyph d="M183 445q7 0 25.5 6t29.5 6q31 0 55 -29q-30 -22 -30 -59q0 -21 11 -37t28 -21q-4 -11 -12 -26.5t-23.5 -33t-30.5 -17.5q-8 0 -24 5.5t-25 5.5t-25.5 -6t-23.5 -6q-29 0 -53.5 47t-24.5 86q0 37 18.5 63t50.5 26q10 0 29.5 -5t24.5 -5zM236 522q0 -28 -16.5 -49 t-40.5 -21q0 28 16.5 49t40.5 21z" glyph-name="uniF8FF" horiz-adv-x="342" unicode=""/><glyph d="M38 184q23 0 40 14t21 39l37 213q20 115 102.5 190t197.5 75q116 0 180.5 -75t44.5 -190l-37 -213q-9 -53 42 -53l-13 -71q-57 0 -83.5 34.5t-16.5 95.5l36 207q16 86 -27.5 141.5t-128.5 55.5q-84 0 -147 -55t-78 -142l-40 -221q-9 -54 -47.5 -85t-95.5 -31zM113 0 q-31 0 -57 20t-43 20l12 73q29 0 54 -20t39 -20q15 0 48 20t65 20t57.5 -20t39.5 -20q15 0 47.5 20t64.5 20q31 0 57 -20t41 -20q14 0 47.5 20t67.5 20l-12 -73q-12 0 -44 -20t-64 -20t-58 20t-40 20q-15 0 -47.5 -20t-64.5 -20t-57.5 20t-39.5 20q-15 0 -48 -20t-65 -20z M306 387q-16 0 -26 9.5t-10 24.5q0 21 15 36.5t36 15.5q17 0 27 -9.5t10 -25.5q0 -21 -15 -36t-37 -15zM476 387q-16 0 -26.5 9.5t-10.5 24.5q0 21 15 36.5t36 15.5q17 0 27 -9.5t10 -25.5q0 -21 -14.5 -36t-36.5 -15z" glyph-name="u1F47B" horiz-adv-x="728" unicode="👻"/><glyph d="M412 524l104 183l8 -211l87 70l-45 -81l215 66l-143 -155l109 -36l-124 -31l144 -148l-197 33l44 -118l-170 89l-27 -99l-30 88l-184 -126l69 172l-108 -32l89 84l-200 63l219 68l-66 67l91 -18l-68 207z" glyph-name="u1F4A5" horiz-adv-x="817" unicode="💥"/><glyph d="M354 -15q-141 0 -228 82.5t-87 221.5q0 108 52.5 205t150.5 159t218 62q140 0 227 -82.5t87 -220.5q0 -80 -31 -157t-85.5 -137t-134 -96.5t-169.5 -36.5zM354 53q95 0 175.5 51t125.5 132t45 171q0 108 -66 174t-176 66q-143 0 -244 -107t-101 -247q0 -108 65.5 -174 t175.5 -66zM372 171q-67 0 -101 41t-28 107h322q-18 -67 -72 -107.5t-121 -40.5zM328 387q-16 0 -26 9.5t-10 25.5q0 21 15 36t36 15q16 0 26.5 -9.5t10.5 -24.5q0 -21 -15 -36.5t-37 -15.5zM504 387q-17 0 -27 9.5t-10 25.5q0 21 15 36t36 15q16 0 26.5 -9.5t10.5 -24.5 q0 -21 -15 -36.5t-36 -15.5z" glyph-name="u1F600" horiz-adv-x="778" unicode="😀"/><glyph d="M354 -15q-141 0 -228 82.5t-87 221.5q0 108 52.5 205t150.5 159t218 62q140 0 227 -82.5t87 -220.5q0 -80 -31 -157t-85.5 -137t-134 -96.5t-169.5 -36.5zM354 53q95 0 175.5 51t125.5 132t45 171q0 108 -66 174t-176 66q-143 0 -244 -107t-101 -247q0 -108 65.5 -174 t175.5 -66zM372 171q-67 0 -101 41t-28 107h68q-5 -39 13.5 -62t57.5 -23q40 0 72 23.5t40 61.5h71q-10 -38 -34 -70l13 -16q22 -27 -7 -51l-6 -5q-31 -24 -51 2l-13 16q-44 -24 -95 -24zM328 387q-16 0 -26 9.5t-10 25.5q0 21 15 36t36 15q16 0 26.5 -9.5t10.5 -24.5 q0 -21 -15 -36.5t-37 -15.5zM504 387q-17 0 -27 9.5t-10 25.5q0 21 15 36t36 15q16 0 26.5 -9.5t10.5 -24.5q0 -21 -15 -36.5t-36 -15.5z" glyph-name="u1F60B" horiz-adv-x="778" unicode="😋"/><glyph d="M354 -15q-141 0 -228 82.5t-87 221.5q0 108 52.5 205t150.5 159t218 62q140 0 227 -82.5t87 -220.5q0 -80 -31 -157t-85.5 -137t-134 -96.5t-169.5 -36.5zM354 53q95 0 175.5 51t125.5 132t45 171q0 108 -66 174t-176 66q-143 0 -244 -107t-101 -247q0 -108 65.5 -174 t175.5 -66zM372 171q-67 0 -101 41t-28 107h68q-5 -39 13.5 -62t57.5 -23q40 0 72 23.5t40 61.5h71q-18 -67 -72 -107.5t-121 -40.5zM318 370q-46 0 -63.5 13.5t-15.5 52.5h-18l8 44h406l-8 -44h-17q-12 -39 -34 -52.5t-67 -13.5q-46 0 -63.5 13.5t-15.5 52.5h-11 q-12 -39 -33.5 -52.5t-67.5 -13.5z" glyph-name="u1F60E" horiz-adv-x="778" unicode="😎"/><glyph d="M354 -15q-141 0 -228 82.5t-87 221.5q0 108 52.5 205t150.5 159t218 62q140 0 227 -82.5t87 -220.5q0 -80 -31 -157t-85.5 -137t-134 -96.5t-169.5 -36.5zM354 53q95 0 175.5 51t125.5 132t45 171q0 108 -66 174t-176 66q-143 0 -244 -107t-101 -247q0 -108 65.5 -174 t175.5 -66zM328 387q-16 0 -26 9.5t-10 25.5q0 21 15 36t36 15q16 0 26.5 -9.5t10.5 -24.5q0 -21 -15 -36.5t-37 -15.5zM504 387q-17 0 -27 9.5t-10 25.5q0 21 15 36t36 15q16 0 26.5 -9.5t10.5 -24.5q0 -21 -15 -36.5t-36 -15.5zM234 251l11 65h322l-11 -65h-322z" glyph-name="u1F610" horiz-adv-x="778" unicode="😐"/><glyph d="M354 -15q-141 0 -228 82.5t-87 221.5q0 108 52.5 205t150.5 159t218 62q140 0 227 -82.5t87 -220.5q0 -80 -31 -157t-85.5 -137t-134 -96.5t-169.5 -36.5zM354 53q95 0 175.5 51t125.5 132t45 171q0 108 -66 174t-176 66q-143 0 -244 -107t-101 -247q0 -108 65.5 -174 t175.5 -66zM372 171q-67 0 -101 41t-28 107h68q-5 -39 13.5 -62t57.5 -23q40 0 72 23.5t40 61.5h71q-18 -67 -72 -107.5t-121 -40.5zM328 387q-16 0 -26 9.5t-10 25.5q0 21 15 36t36 15q16 0 26.5 -9.5t10.5 -24.5q0 -21 -15 -36.5t-37 -15.5zM504 387q-17 0 -27 9.5 t-10 25.5q0 21 15 36t36 15q16 0 26.5 -9.5t10.5 -24.5q0 -21 -15 -36.5t-36 -15.5z" glyph-name="u1F642" horiz-adv-x="778" unicode="🙂"/><glyph d="M352 -15q-139 0 -226 82.5t-87 220.5q0 108 52 205.5t150 159.5t218 62q140 0 227.5 -82.5t87.5 -221.5q0 -108 -52.5 -205t-151 -159t-218.5 -62zM354 53q143 0 244 107t101 247q0 108 -65.5 174t-175.5 66q-95 0 -175.5 -51t-125.5 -132t-45 -171q0 -108 66 -174 t176 -66zM294 227q-16 0 -26.5 9.5t-10.5 24.5q0 21 15 36.5t37 15.5q16 0 26 -9.5t10 -25.5q0 -21 -15 -36t-36 -15zM469 227q-16 0 -26.5 9.5t-10.5 24.5q0 21 15 36.5t37 15.5q16 0 26.5 -9.5t10.5 -25.5q0 -21 -15.5 -36t-36.5 -15zM247 381q18 67 72 107.5t121 40.5 t101 -41t28 -107h-68q5 39 -13.5 62t-57.5 23q-40 0 -71.5 -23.5t-40.5 -61.5h-71z" glyph-name="u1F643" horiz-adv-x="778" unicode="🙃"/><glyph d="M134 -15q-24 0 -92 22q-24 7 -37.5 26t-13.5 43q0 33 21 60t58 42l15 6q22 9 22 25q0 7 -7 13q-33 28 -33 67q0 43 29.5 77t75.5 45q10 2 15 9.5t0 16.5q-15 27 -15 61q0 58 37 110q7 10 3 20q-4 8 -4 22q0 27 20 46t48 19q22 0 37 -15q12 -12 22 -12q5 0 15.5 0.5 t15.5 0.5t15.5 -0.5t15.5 -0.5q10 0 26 12q20 15 41 15q23 0 36.5 -12t13.5 -32q0 -23 -16 -43q-8 -10 -4 -20q9 -24 9 -50q0 -68 -48 -121q-7 -7 -5.5 -15t12.5 -11q30 -7 49 -29t19 -55q0 -64 -64 -105q-12 -7 -12 -21q0 -11 15 -17l13 -6q48 -22 48 -70q0 -34 -23 -62.5 t-58 -38.5q-76 -22 -99 -22q-24 0 -36.5 7t-28.5 28q-15 19 -34 19t-40 -19q-24 -21 -39 -28t-38 -7zM323 445l49 13l-2 11l-38 -10l8 47l23 17l-1 11h-48l-5 -11l17 -17l-8 -47l-34 10l-6 -11zM282 553q6 0 10.5 4.5t4.5 10.5q0 10 -11 10q-14 0 -14 -15q0 -10 10 -10z M402 553q5 0 9.5 4.5t4.5 10.5q0 10 -10 10q-15 0 -15 -15q0 -10 11 -10z" glyph-name="u1F9F8" horiz-adv-x="576" unicode="🧸"/><glyph d="M362 220l85 480h113l-84 -482q-20 -115 -93.5 -174t-174.5 -59q-108 0 -161.5 65.5t-34.5 178.5l9 51h113l-10 -60q-24 -134 96 -134q117 0 142 134zM457 756l115 180h123l-143 -180h-95z" glyph-name="glyph556" horiz-adv-x="524"/><glyph d="M8 0l123 700h113l-99 -559q-6 -40 34 -40h317l-17 -101h-471zM97 -236l115 180h123l-143 -180h-95z" glyph-name="uni013B.locl" horiz-adv-x="543"/><glyph d="M474 0l-259 560l-98 -560h-109l123 700h131l246 -530l93 530h109l-123 -700h-113zM151 -236l115 180h123l-143 -180h-95z" glyph-name="uni0145.locl" horiz-adv-x="684"/><glyph d="M8 0l88 504h108l-89 -504h-107zM166 596q-25 0 -41 14t-16 37q0 31 23.5 53.5t55.5 22.5q25 0 41 -15t16 -38q0 -30 -23.5 -52t-55.5 -22z" glyph-name="i.locl" horiz-adv-x="211"/><glyph d="M-114 -200l15 92h57q31 0 36 30l102 582h108l-96 -544q-14 -76 -64 -118t-133 -42h-25zM103 560l115 180h123l-143 -180h-95z" glyph-name="glyph560" horiz-adv-x="211"/><glyph d="M106 558q12 68 58 105t121 37h63l-17 -91h-80q-30 0 -35 -30l-13 -75h100l-15 -91h-99l-73 -413h-108z" glyph-name="glyph561" horiz-adv-x="285"/><glyph d="M177 0q-83 0 -119 42t-22 118l88 500h105l-27 -156h103l-16 -92h-101l-52 -290q-6 -30 26 -30h84l-16 -92h-53z" glyph-name="glyph562" horiz-adv-x="290"/><glyph d="M177 0q-83 0 -118.5 42t-22.5 118l88 500h105l-27 -156h103l-16 -92h-101l-20 -111h102l-15 -82h-102l-17 -97q-6 -30 26 -30h84l-16 -92h-53z" glyph-name="glyph563" horiz-adv-x="290"/><glyph d="M177 0q-83 0 -119 42t-22 118l88 500h105l-27 -156h103l-16 -92h-101l-52 -290q-6 -30 26 -30h84l-16 -92h-53zM357 510l41 230h102l-64 -230h-79z" glyph-name="glyph564" horiz-adv-x="446"/><glyph d="M177 0q-20 0 -29 1l-19 -40h2q35 0 56.5 -17.5t21.5 -49.5q0 -42 -32.5 -68t-81.5 -26h-128l31 66h86q38 0 38 28q0 22 -29 22h-70l54 109q-58 41 -41 135l88 500h105l-27 -156h103l-16 -92h-101l-52 -290q-6 -30 26 -30h84l-16 -92h-53z" glyph-name="glyph565" horiz-adv-x="290"/><glyph d="M177 0q-83 0 -119 42t-22 118l88 500h105l-27 -156h103l-16 -92h-101l-52 -290q-6 -30 26 -30h84l-16 -92h-53zM-45 -236l115 180h123l-143 -180h-95z" glyph-name="glyph566" horiz-adv-x="290"/><glyph d="M177 0q-83 0 -119 42t-22 118l88 500h105l-27 -156h103l-16 -92h-101l-52 -290q-6 -30 26 -30h84l-16 -92h-53zM62 -219q-25 0 -41 15t-16 38q0 30 23.5 52t56.5 22q25 0 40.5 -14t15.5 -37q0 -30 -23.5 -53t-55.5 -23z" glyph-name="glyph567" horiz-adv-x="290"/><glyph d="M120 0q-55 0 -78.5 29t-14.5 83l104 588h107l-107 -608h49l-16 -92h-44zM-60 -236l115 180h123l-143 -180h-95z" glyph-name="uni013C.locl" horiz-adv-x="227"/><glyph d="M406 304q22 121 -84 121q-61 0 -104 -43.5t-59 -133.5l-44 -248h-107l88 504h98l-14 -78q59 93 174 93q87 0 132 -55t28 -148l-55 -316h-107zM87 -236l115 180h123l-143 -180h-95z" glyph-name="uni0146.locl" horiz-adv-x="543"/><glyph d="M247 -15q-98 0 -152.5 65t-54.5 194q0 55 9 114t32 124t57.5 116t90.5 84t125 33q98 0 152.5 -65.5t54.5 -194.5q0 -55 -9 -114.5t-32.5 -124t-57.5 -115t-90 -83.5t-125 -33zM254 77q52 0 92.5 42.5t62 106.5t31.5 125.5t10 112.5q0 159 -103 159q-52 0 -92.5 -42.5 t-62 -106t-32 -125.5t-10.5 -114q0 -158 104 -158z" glyph-name="zero.pnum" horiz-adv-x="566"/><glyph d="M58 468l17 92h146q40 0 48 40l17 100h107l-123 -700h-107l76 428q8 40 -34 40h-147z" glyph-name="one.pnum" horiz-adv-x="377"/><glyph d="M327 370q60 36 92.5 73.5t32.5 86.5q0 43 -26 68t-75 25q-60 0 -100.5 -39t-53.5 -114h-112q20 118 91 181.5t180 63.5q98 0 151.5 -48t53.5 -131q0 -75 -45 -134t-140 -115l-123 -72q-85 -51 -123 -123h363l-16 -92h-492q18 100 70.5 170.5t148.5 127.5z" glyph-name="two.pnum" horiz-adv-x="555"/><glyph d="M298 405q69 0 107 36t38 90q0 44 -27 68t-75 24q-59 0 -97.5 -36.5t-51.5 -108.5h-109q19 113 88.5 175t177.5 62q93 0 148.5 -45.5t55.5 -125.5q0 -61 -33.5 -104.5t-93.5 -65.5q96 -45 96 -156q0 -98 -72.5 -165.5t-194.5 -67.5q-117 0 -184 64.5t-47 177.5h109 q-12 -73 23 -111.5t101 -38.5q69 0 112 38.5t43 97.5q0 31 -12.5 52.5t-33.5 32t-42 15t-45 4.5h-48l6 35l10 53h51z" glyph-name="three.pnum" horiz-adv-x="565"/><glyph d="M138 276h162q40 0 48 40l44 250zM16 184l16 92l371 424h117l-74 -424h120l-16 -92h-120l-33 -184h-107l32 184h-306z" glyph-name="four.pnum" horiz-adv-x="582"/><glyph d="M137 223q-8 -71 26 -108.5t97 -37.5q77 0 121 53t44 127q0 61 -32.5 93t-90.5 32q-79 0 -127 -60h-106l107 378h404l-15 -92h-313l-55 -190q52 52 138 52q90 0 145.5 -54t55.5 -152q0 -116 -75 -197.5t-204 -81.5q-112 0 -178 64t-50 174h108z" glyph-name="five.pnum" horiz-adv-x="567"/><glyph d="M265 -15q-101 0 -164 65.5t-62 206.5q1 59 12 119.5t36.5 122t62 109t93.5 77.5t125 30q96 0 149.5 -54t51.5 -140h-105q-1 45 -27 73.5t-77 28.5q-78 0 -132.5 -67.5t-76.5 -192.5h4q54 91 168 91q91 0 147.5 -54.5t56.5 -145.5q1 -67 -28 -127.5t-90.5 -101 t-143.5 -40.5zM264 77q71 0 112 49.5t41 117.5q0 57 -31 89.5t-85 32.5q-71 0 -115 -52.5t-42 -121.5q2 -53 33.5 -84t86.5 -31z" glyph-name="six.pnum" horiz-adv-x="561"/><glyph d="M66 0l398 608h-381l16 92h505l-15 -84l-402 -616h-121z" glyph-name="seven.pnum" horiz-adv-x="553"/><glyph d="M260 -15q-105 0 -170.5 50.5t-65.5 141.5q0 75 45 134t125 83q-78 41 -78 129q0 82 69.5 137t170.5 55q90 0 147.5 -44.5t57.5 -119.5q0 -57 -33.5 -101t-93.5 -67q103 -47 103 -162q0 -98 -75 -167t-202 -69zM267 77q73 0 117.5 39t44.5 101q0 54 -34.5 84.5t-97.5 30.5 q-74 0 -120 -40.5t-46 -101.5q0 -54 36.5 -83.5t99.5 -29.5zM325 417q58 0 94 34t36 83q0 43 -28.5 68t-78.5 25q-58 0 -93.5 -33t-35.5 -81q0 -43 28.5 -69.5t77.5 -26.5z" glyph-name="eight.pnum" horiz-adv-x="580"/><glyph d="M227 -15q-96 0 -149.5 54t-51.5 140h105q0 -45 26 -73.5t77 -28.5q78 0 133 67.5t77 192.5h-4q-54 -91 -169 -91q-90 0 -146.5 54.5t-56.5 145.5q-1 67 28 127.5t90.5 101t143.5 40.5q101 0 164 -65.5t62 -206.5q-1 -59 -12 -119.5t-36.5 -122t-62 -109t-93.5 -77.5 t-125 -30zM294 334q71 0 115 52.5t42 121.5q-2 53 -33.5 84t-86.5 31q-71 0 -112.5 -49.5t-41.5 -117.5q0 -57 31.5 -89.5t85.5 -32.5z" glyph-name="nine.pnum" horiz-adv-x="560"/><glyph d="M246 -15q-98 0 -152 65t-54 194q0 55 9 114t32 124t57 116t90 84t125 33q99 0 152.5 -65.5t53.5 -194.5q0 -55 -9 -114.5t-32 -124t-57 -115t-90 -83.5t-125 -33zM253 77q52 0 92.5 42.5t62 106.5t31.5 125.5t10 112.5q0 159 -102 159q-52 0 -92.5 -42.5t-62 -106 t-32 -125.5t-10.5 -114q0 -158 103 -158z" glyph-name="zero.tnum"/><glyph d="M12 0l16 92h159q40 0 48 40l52 296q8 40 -34 40h-129l17 92h128q42 0 48 40l18 100h107l-107 -608h145l-17 -92h-451z" glyph-name="one.tnum"/><glyph d="M324 370q60 36 92.5 73.5t32.5 86.5q0 43 -26 68t-75 25q-60 0 -100.5 -39t-53.5 -114h-112q20 118 91 181.5t180 63.5q98 0 151.5 -48t53.5 -131q0 -75 -45 -134t-140 -115l-123 -72q-85 -51 -123 -123h363l-16 -92h-492q18 100 70.5 170.5t148.5 127.5z" glyph-name="two.tnum"/><glyph d="M295 405q69 0 107 36t38 90q0 44 -27 68t-75 24q-59 0 -97.5 -36.5t-51.5 -108.5h-109q19 113 88.5 175t177.5 62q93 0 148.5 -45.5t55.5 -125.5q0 -61 -33.5 -104.5t-93.5 -65.5q96 -45 96 -156q0 -98 -72.5 -165.5t-194.5 -67.5q-117 0 -184 64.5t-47 177.5h109 q-12 -73 23 -111.5t101 -38.5q69 0 112 38.5t43 97.5q0 31 -12.5 52.5t-33.5 32t-42 15t-45 4.5h-48l6 35l10 53h51z" glyph-name="three.tnum"/><glyph d="M132 276h162q40 0 48 40l44 250zM10 184l16 92l371 424h117l-74 -424h120l-16 -92h-120l-33 -184h-107l32 184h-306z" glyph-name="four.tnum"/><glyph d="M138 223q-8 -71 26 -108.5t97 -37.5q77 0 121 53t44 127q0 61 -32.5 93t-89.5 32q-80 0 -128 -60h-106l108 378h404l-16 -92h-313l-54 -190q52 52 137 52q90 0 145.5 -54t55.5 -152q0 -116 -74.5 -197.5t-203.5 -81.5q-113 0 -179 64t-50 174h108z" glyph-name="five.tnum"/><glyph d="M273 -15q-101 0 -163.5 65.5t-61.5 206.5q1 59 12 119.5t36 122t61.5 109t93.5 77.5t125 30q96 0 149.5 -54t52.5 -140h-105q-1 45 -27 73.5t-77 28.5q-78 0 -133 -67.5t-77 -192.5h4q54 91 169 91q90 0 146.5 -54.5t57.5 -145.5q1 -106 -70 -187.5t-193 -81.5zM272 77 q71 0 112.5 49.5t41.5 117.5q0 57 -31 89.5t-86 32.5q-71 0 -114.5 -52.5t-41.5 -121.5q1 -53 32.5 -84t86.5 -31z" glyph-name="six.tnum"/><glyph d="M75 0l398 608h-381l16 92h505l-14 -84l-403 -616h-121z" glyph-name="seven.tnum"/><glyph d="M252 -15q-105 0 -171 50.5t-66 141.5q0 75 45 134t126 83q-78 43 -78 129q0 82 69 137t171 55q90 0 147 -44.5t57 -119.5q0 -57 -33.5 -101t-92.5 -67q103 -47 103 -162q0 -98 -75 -167t-202 -69zM258 77q74 0 118.5 39t44.5 101q0 54 -34.5 84.5t-97.5 30.5 q-74 0 -120 -40.5t-46 -101.5q0 -54 36.5 -83.5t98.5 -29.5zM317 417q58 0 94 34t36 83q0 43 -28.5 68t-78.5 25q-58 0 -93.5 -33t-35.5 -81q0 -43 28.5 -69.5t77.5 -26.5z" glyph-name="eight.tnum"/><glyph d="M222 -15q-96 0 -149.5 54t-51.5 140h105q0 -45 26 -73.5t77 -28.5q78 0 133 67.5t77 192.5h-4q-54 -91 -169 -91q-90 0 -146.5 54.5t-56.5 145.5q-1 67 28 127.5t90.5 101t143.5 40.5q101 0 164 -65.5t62 -206.5q0 -59 -11.5 -119.5t-37 -122t-62 -109t-93.5 -77.5 t-125 -30zM289 334q71 0 115 52.5t42 121.5q-2 53 -33.5 84t-86.5 31q-71 0 -112.5 -49.5t-41.5 -117.5q0 -57 31.5 -89.5t85.5 -32.5z" glyph-name="nine.tnum"/><glyph d="M148 -8q-63 0 -98 36t-35 110q0 36 9 72.5t28.5 73t57 59t88.5 22.5q62 0 97.5 -37t35.5 -111q0 -36 -9 -72.5t-28.5 -72t-57.5 -58t-88 -22.5zM152 62q33 0 54.5 30t28.5 64t7 67q0 72 -49 72q-32 0 -53.5 -30t-29 -64.5t-7.5 -68.5q0 -70 49 -70z" glyph-name="zero.dnom" horiz-adv-x="372"/><glyph d="M18 217l13 70h82q24 0 27 20l8 50h85l-63 -357h-85l35 196q3 21 -19 21h-83z" glyph-name="one.dnom" horiz-adv-x="258"/><glyph d="M175 200q53 28 53 61q0 35 -45 35q-57 0 -68 -62h-83q10 64 52.5 97.5t107.5 33.5q57 0 89 -25.5t32 -69.5q0 -73 -98 -126l-65 -36q-31 -17 -50 -39h181l-12 -69h-288q20 104 119 159z" glyph-name="two.dnom" horiz-adv-x="342"/><glyph d="M160 217q28 0 44.5 12.5t16.5 31.5q0 34 -44 34q-50 0 -60 -51h-85q10 58 51 89.5t106 31.5q55 0 87.5 -23t32.5 -63q0 -58 -62 -86q49 -23 49 -75q0 -54 -44 -90t-117 -36q-68 0 -105.5 33t-27.5 93h85q-4 -27 10.5 -41.5t44.5 -14.5q29 0 47.5 13.5t18.5 35.5 q0 40 -60 40h-28l5 26h-1l7 40h29z" glyph-name="three.dnom" horiz-adv-x="350"/><glyph d="M89 152h68q23 0 27 20l17 98zM-2 83l13 69l194 205h92l-36 -205h63l-12 -69h-64l-14 -83h-83l14 83h-167z" glyph-name="four.dnom" horiz-adv-x="367"/><glyph d="M90 114q-2 -25 12.5 -38.5t42.5 -13.5q33 0 51.5 18.5t18.5 43.5q0 51 -56 51q-35 0 -57 -22h-82l58 204h244l-11 -70h-175l-20 -69q28 22 72 22q51 0 82 -28t31 -81q0 -59 -41 -99t-117 -40q-66 0 -106 32t-33 90h86z" glyph-name="five.dnom" horiz-adv-x="352"/><glyph d="M145 -8q-58 0 -96 34.5t-38 107.5q0 91 48.5 161t137.5 70q57 0 89.5 -27t32.5 -75h-81q-4 35 -46 35q-35 0 -60.5 -27.5t-32.5 -77.5q23 41 89 41q51 0 81.5 -27t31.5 -71q1 -59 -43 -101.5t-113 -42.5zM148 62q30 0 48.5 18t18.5 43q0 21 -14.5 33.5t-38.5 12.5 q-30 0 -49 -18.5t-18 -43.5q2 -45 53 -45z" glyph-name="six.dnom" horiz-adv-x="352"/><glyph d="M26 0l196 287h-190l12 70h289l-11 -60l-201 -297h-95z" glyph-name="seven.dnom" horiz-adv-x="343"/><glyph d="M140 -8q-62 0 -100 26.5t-38 73.5q0 37 23.5 66t64.5 44q-39 22 -39 62q0 44 41 72.5t103 28.5q55 0 87.5 -22.5t32.5 -60.5q0 -57 -64 -83q55 -26 55 -81q0 -53 -46.5 -89.5t-119.5 -36.5zM148 61q33 0 53.5 15t20.5 38q0 21 -16.5 33t-44.5 12q-33 0 -54 -15.5 t-21 -39.5q0 -20 16.5 -31.5t45.5 -11.5zM176 221q26 0 42 12.5t16 30.5q0 17 -13 26.5t-35 9.5q-26 0 -42.5 -12t-16.5 -31q0 -17 13.5 -26.5t35.5 -9.5z" glyph-name="eight.dnom" horiz-adv-x="360"/><glyph d="M126 -8q-57 0 -89.5 27t-32.5 75h82q1 -15 13 -25t33 -10q34 0 59 26.5t34 73.5q-25 -36 -89 -36q-51 0 -82 27t-31 71q-1 59 43 101.5t113 42.5q58 0 96 -34t38 -108q0 -91 -49 -161t-138 -70zM162 188q31 0 49.5 18.5t17.5 44.5q-1 21 -15.5 32.5t-38.5 11.5 q-29 0 -47.5 -18.5t-18.5 -42.5q0 -22 14.5 -34t38.5 -12z" glyph-name="nine.dnom" horiz-adv-x="349"/><glyph d="M209 337q-63 0 -98 36t-35 110q0 36 9 72.5t28.5 73t57 59t88.5 22.5q62 0 97.5 -37t35.5 -111q0 -36 -9 -72.5t-28.5 -72t-57.5 -58t-88 -22.5zM213 407q33 0 54.5 30t28.5 64t7 67q0 72 -49 72q-32 0 -53.5 -30t-29 -64.5t-7.5 -68.5q0 -70 49 -70z" glyph-name="zero.numr" horiz-adv-x="372"/><glyph d="M79 562l13 70h82q24 0 27 20l8 50h85l-63 -357h-85l35 196q3 21 -19 21h-83z" glyph-name="one.numr" horiz-adv-x="258"/><glyph d="M236 545q53 29 53 61q0 35 -45 35q-57 0 -68 -62h-83q10 64 52.5 97.5t107.5 33.5q57 0 89 -25.5t32 -69.5q0 -73 -98 -126l-65 -36q-31 -17 -50 -39h181l-12 -69h-288q20 104 119 159z" glyph-name="two.numr" horiz-adv-x="342"/><glyph d="M221 562q28 0 44.5 12.5t16.5 31.5q0 34 -44 34q-50 0 -60 -51h-85q10 58 51 89.5t106 31.5q55 0 87.5 -23t32.5 -63q0 -58 -62 -86q49 -23 49 -75q0 -54 -44 -90t-117 -36q-68 0 -105.5 33t-27.5 93h85q-4 -27 10.5 -41.5t44.5 -14.5q29 0 47.5 13.5t18.5 35.5 q0 40 -60 40h-28l5 26h-1l7 40h29z" glyph-name="three.numr" horiz-adv-x="350"/><glyph d="M150 497h68q23 0 27 20l17 98zM59 428l13 69l194 205h92l-36 -205h63l-12 -69h-64l-14 -83h-83l14 83h-167z" glyph-name="four.numr" horiz-adv-x="367"/><glyph d="M151 459q-2 -25 12.5 -38.5t42.5 -13.5q33 0 51.5 18.5t18.5 43.5q0 51 -56 51q-35 0 -57 -22h-82l58 204h244l-11 -70h-175l-20 -69q28 22 72 22q51 0 82 -28t31 -81q0 -59 -41 -99t-117 -40q-66 0 -106 32t-33 90h86z" glyph-name="five.numr" horiz-adv-x="352"/><glyph d="M206 337q-58 0 -96 34.5t-38 107.5q0 91 48.5 161t137.5 70q57 0 89.5 -27t32.5 -75h-81q-3 35 -46 35q-35 0 -60.5 -27.5t-32.5 -77.5q23 41 89 41q51 0 81.5 -27t31.5 -71q1 -59 -43 -101.5t-113 -42.5zM209 407q30 0 48.5 18t18.5 43q0 21 -14.5 33.5t-38.5 12.5 q-30 0 -49 -18.5t-18 -43.5q2 -45 53 -45z" glyph-name="six.numr" horiz-adv-x="352"/><glyph d="M87 345l196 287h-190l12 70h289l-11 -60l-201 -297h-95z" glyph-name="seven.numr" horiz-adv-x="343"/><glyph d="M201 337q-62 0 -100 26.5t-38 73.5q0 37 23.5 66t64.5 44q-39 22 -39 62q0 44 41 72.5t103 28.5q55 0 87.5 -22.5t32.5 -60.5q0 -57 -64 -83q55 -26 55 -81q0 -53 -46.5 -89.5t-119.5 -36.5zM209 406q33 0 53.5 15t20.5 38q0 21 -16.5 33t-44.5 12q-33 0 -54 -15.5 t-21 -39.5q0 -20 16.5 -31.5t45.5 -11.5zM237 566q26 0 42 12.5t16 30.5q0 17 -13 26.5t-35 9.5q-26 0 -42.5 -12t-16.5 -31q0 -17 13.5 -26.5t35.5 -9.5z" glyph-name="eight.numr" horiz-adv-x="360"/><glyph d="M187 337q-57 0 -89.5 27t-32.5 75h82q1 -15 13 -25t33 -10q34 0 59 26.5t34 73.5q-26 -36 -89 -36q-51 0 -82 27t-31 71q-1 59 43 101.5t113 42.5q58 0 96 -34t38 -108q0 -91 -49 -161t-138 -70zM223 533q31 0 49.5 18.5t17.5 44.5q-1 21 -15.5 32.5t-38.5 11.5 q-30 0 -48 -18t-18 -43q0 -22 14.5 -34t38.5 -12z" glyph-name="nine.numr" horiz-adv-x="349"/><glyph d="M88 470l41 230h102l-64 -230h-79z" glyph-name="glyph610" horiz-adv-x="0"/><glyph d="M-29 -200l31 66h86q38 0 38 28q0 22 -29 22h-70l49 99l75 -15l-19 -39h3q35 0 56.5 -17.5t21.5 -49.5q0 -42 -32.5 -68t-81.5 -26h-128z" glyph-name="glyph611" horiz-adv-x="0"/><glyph d="M75 -200q-42 0 -66 21.5t-24 55.5q0 58 62 106l72 57l68 -40l-66 -52q-37 -29 -37 -54q0 -28 39 -28h41l-12 -66h-77z" glyph-name="glyph612" horiz-adv-x="0"/><glyph d="M326 558l14 82h328l-14 -82h-328z" glyph-name="glyph613" horiz-adv-x="0"/><glyph d="M-38 -236l115 180h123l-143 -180h-95z" glyph-name="uni0326.locl" horiz-adv-x="0"/><glyph d="M99 297l17 91l332 108l-15 -91z" glyph-name="glyph615" horiz-adv-x="0"/><glyph d="M181 591q-27 0 -43.5 15.5t-16.5 40.5q0 32 38 91l68 104h86l-75 -110q-13 -20 2 -37q14 -16 14 -37q0 -26 -20 -46.5t-53 -20.5z" glyph-name="glyph616" horiz-adv-x="259"/><glyph d="M34 -219q-25 0 -41 15t-16 38q0 30 23.5 52t56.5 22q25 0 40.5 -14t15.5 -37q0 -30 -23.5 -53t-55.5 -23z" glyph-name="glyph617" horiz-adv-x="234"/><glyph d="M62 318l14 82h314l-14 -82h-314z" glyph-name="glyph618" horiz-adv-x="414"/></font>
</defs>
</svg>
