<?xml version="1.0" standalone="no"?>
<!DOCTYPE svg PUBLIC "-//W3C//DTD SVG 1.1//EN" "http://www.w3.org/Graphics/SVG/1.1/DTD/svg11.dtd">
<svg version="1.1" xmlns="http://www.w3.org/2000/svg" xmlns:xlink="http://www.w3.org/1999/xlink"><metadata>This SVG WebFont was generated by YouWorkForThem.
</metadata><defs><font horiz-adv-x="0" id="ywftsvg"><font-face ascent="800" bbox="-254 -238 1122 997" cap-height="700" descent="-200" font-family="" font-stretch="normal" font-weight="400" panose-1="0 0 0 0 0 0 0 0 0 0" underline-position="0" underline-thickness="0" unicode-range="U+0020-1F9F8" units-per-em="1000" x-height="502"/><missing-glyph horiz-adv-x="606"/><glyph glyph-name=".notdef" horiz-adv-x="606"/><glyph glyph-name="glyph1"/><glyph glyph-name="glyph2" horiz-adv-x="333"/><glyph glyph-name="space" horiz-adv-x="250" unicode=" "/><glyph d="M110 332q10 113 32 231l25 137h89l-24 -137q-31 -161 -49 -231l-36 -142h-53zM86 -15q-22 0 -35 12t-13 32q0 26 20 45.5t48 19.5q21 0 34 -12t13 -32q0 -26 -19.5 -45.5t-47.5 -19.5z" glyph-name="exclam" horiz-adv-x="265" unicode="!"/><glyph d="M106 443l45 257h65l-45 -257h-65zM246 443l46 257h64l-45 -257h-65z" glyph-name="quotedbl" horiz-adv-x="350" unicode="&quot;"/><glyph d="M110 156q7 15 2 24.5t-21 9.5h-68l14 76h93q36 0 52 33l51 101q8 15 2 24.5t-22 9.5h-86l13 76h112q35 0 51 33l78 157h89l-76 -156q-7 -15 -2 -24.5t21 -9.5h57q36 0 52 33l77 157h90l-77 -156q-8 -15 -2 -24.5t22 -9.5h67l-13 -76h-93q-36 0 -52 -33l-50 -101 q-7 -15 -2 -24.5t21 -9.5h85l-13 -76h-111q-35 0 -52 -33l-77 -157h-90l77 156q7 15 2 24.5t-21 9.5h-58q-35 0 -51 -33l-78 -157h-89zM272 300q-7 -15 -2 -24.5t21 -9.5h58q36 0 52 33l50 101q7 15 2 24.5t-21 9.5h-57q-36 0 -52 -33z" glyph-name="numbersign" horiz-adv-x="687" unicode="#"/><glyph d="M213 -39q5 26 -22 33q-94 21 -133 88.5t-21 169.5h89q-33 -186 162 -186q87 0 137.5 38t50.5 105q0 37 -26.5 60.5t-82.5 37.5l-89 20q-91 21 -132 63.5t-41 109.5q0 80 55 137.5t155 72.5q31 5 35 32l7 38h83l-6 -40q-4 -27 20 -33q86 -18 123.5 -78t20.5 -155h-87 q26 160 -145 160q-81 0 -125.5 -33t-44.5 -94q0 -73 114 -100l90 -22q87 -20 126.5 -61t39.5 -108q0 -91 -63.5 -153t-173.5 -75q-29 -3 -34 -31l-6 -37h-84z" glyph-name="dollar" horiz-adv-x="613" unicode="$"/><glyph d="M45 0l566 700h87l-567 -700h-86zM194 337q-58 0 -90 35t-32 98q0 103 53.5 171.5t134.5 68.5q59 0 91 -34.5t32 -97.5q0 -104 -53.5 -172.5t-135.5 -68.5zM205 398q43 0 72.5 50t29.5 122q0 79 -58 79q-42 0 -71.5 -51t-29.5 -123q0 -77 57 -77zM482 -8q-59 0 -91 35 t-32 98q0 103 54 171.5t134 68.5q60 0 92 -34.5t32 -97.5q0 -104 -54 -172.5t-135 -68.5zM493 53q42 0 71.5 50t29.5 122q0 79 -58 79q-42 0 -71 -51t-29 -123q0 -77 57 -77z" glyph-name="percent" horiz-adv-x="707" unicode="%"/><glyph d="M278 436l36 -47q36 26 50.5 37.5t40 36t36 48.5t10.5 52q0 39 -24 59t-66 20q-55 0 -87 -30.5t-32 -80.5q0 -47 36 -95zM13 159q0 73 47 133t132 116q-39 62 -39 121q0 78 56 132t152 54q80 0 129 -39t49 -106q0 -70 -46.5 -124.5t-134.5 -115.5l107 -142q41 50 82 119 h87q-73 -122 -123 -180l93 -123l-1 -4h-104l-47 62q-95 -77 -217 -77q-103 0 -162.5 47t-59.5 127zM102 169q0 -50 35.5 -79t104.5 -29q91 0 165 61l-171 227q-64 -44 -99 -86t-35 -94z" glyph-name="ampersand" horiz-adv-x="656" unicode="&amp;"/><glyph d="M106 443l45 257h64l-45 -257h-64z" glyph-name="quotesingle" horiz-adv-x="208" unicode="'"/><glyph d="M186 -80q-76 96 -76 290q0 144 63 280t148 210h98q-90 -75 -155 -212.5t-65 -297.5q0 -174 83 -270h-96z" glyph-name="parenleft" horiz-adv-x="395" unicode="("/><glyph d="M-4 -80q90 75 155 212.5t65 297.5q0 173 -82 270h95q76 -96 76 -290q0 -144 -62.5 -280t-147.5 -210h-99z" glyph-name="parenright" horiz-adv-x="395" unicode=")"/><glyph d="M159 353l-51 46l34 38q35 36 78 69q-45 8 -87 21l-46 14l24 68l42 -15q46 -16 92 -42q2 59 10 102l9 46h68l-9 -46q-10 -52 -32 -102q21 12 94 39l46 16l21 -65l-46 -15q-39 -11 -107 -23q30 -35 55 -76l23 -38l-62 -36l-20 38q-23 42 -38 85q-20 -33 -65 -86z" glyph-name="asterisk" horiz-adv-x="437" unicode="*"/><glyph d="M225 267q6 38 -32 38h-128l13 76h128q40 0 46 38l24 139h86l-24 -139q-8 -38 31 -38h128l-13 -76h-128q-39 0 -45 -38l-25 -139h-86z" glyph-name="plus" horiz-adv-x="531" unicode="+"/><glyph d="M60 -40q14 24 -3 33q-20 12 -20 37t18.5 44.5t47.5 19.5q24 0 38 -14.5t14 -37.5q0 -30 -33 -85l-79 -135h-66z" glyph-name="comma" horiz-adv-x="262" unicode=","/><glyph d="M104 223l12 76h347l-13 -76h-346z" glyph-name="hyphen" horiz-adv-x="563" unicode="-"/><glyph d="M80 -15q-22 0 -35 12t-13 32q0 26 20 45.5t48 19.5q21 0 34 -12t13 -32q0 -26 -19.5 -45.5t-47.5 -19.5z" glyph-name="period" horiz-adv-x="253" unicode="."/><glyph d="M-50 -80l384 780h92l-383 -780h-93z" glyph-name="slash" horiz-adv-x="356" unicode="/"/><glyph d="M242 -15q-95 0 -148 64.5t-53 190.5q0 44 6.5 93t20.5 103.5t39 103.5t58 88.5t81 63t105 23.5q95 0 147.5 -64.5t52.5 -191.5q0 -54 -9 -114t-32 -125.5t-57 -116.5t-89 -84.5t-122 -33.5zM247 61q57 0 101.5 44.5t67.5 111.5t34.5 131.5t11.5 118.5q0 83 -29.5 127.5 t-86.5 44.5q-56 0 -100.5 -44t-68 -110t-35.5 -131t-12 -120q0 -173 117 -173z" glyph-name="zero" horiz-adv-x="557" unicode="0"/><glyph d="M61 484l14 76h145q40 0 48 40l17 100h85l-123 -700h-85l78 444q8 40 -34 40h-145z" glyph-name="one" horiz-adv-x="357" unicode="1"/><glyph d="M327 360q65 39 99 80t34 94q0 49 -29 77t-83 28q-65 0 -109 -42t-59 -123h-90q20 116 88.5 178.5t173.5 62.5q94 0 145 -47.5t51 -128.5q0 -74 -45.5 -134t-142.5 -117l-115 -69q-103 -61 -141 -143h373l-12 -76h-477q18 98 71.5 166t151.5 126z" glyph-name="two" horiz-adv-x="546" unicode="2"/><glyph d="M293 398q78 0 119 40t41 99q0 49 -29.5 75.5t-83.5 26.5q-65 0 -108 -40.5t-58 -120.5h-88q19 113 88 175t173 62q88 0 141.5 -45t53.5 -123q0 -63 -35.5 -108t-97.5 -67q100 -44 100 -157q0 -95 -69 -162.5t-189 -67.5q-115 0 -179.5 64t-44.5 176h88q-14 -80 25 -122 t111 -42q76 0 122.5 42.5t46.5 106.5q0 35 -14.5 59t-38.5 35t-45.5 15.5t-45.5 4.5h-47l13 71l1 3h50z" glyph-name="three" horiz-adv-x="555" unicode="3"/><glyph d="M120 268h181q39 0 47 40l49 278zM18 192l14 76l376 432h93l-75 -432h122l-14 -76h-122l-34 -192h-85l33 192h-308z" glyph-name="four" horiz-adv-x="565" unicode="4"/><glyph d="M119 223q-10 -79 27.5 -120.5t105.5 -41.5q84 0 133 58.5t49 140.5q0 67 -35 101.5t-98 34.5q-85 0 -139 -66h-84l105 370h385l-12 -76h-312l-60 -209q52 55 140 55q90 0 145 -54t55 -151q0 -115 -74.5 -197.5t-198.5 -82.5q-107 0 -171 64t-48 174h87z" glyph-name="five" horiz-adv-x="558" unicode="5"/><glyph d="M258 -15q-99 0 -158.5 64.5t-58.5 202.5q1 59 12 120t36 123t61.5 110.5t92 79t122.5 30.5q94 0 145 -54.5t49 -137.5h-84q0 51 -29 83.5t-86 32.5q-84 0 -143 -74t-84 -214h4q58 101 177 101q91 0 146.5 -55t56.5 -145q1 -105 -70 -186t-189 -81zM259 61 q78 0 123.5 54.5t45.5 128.5q0 62 -34.5 98t-93.5 36q-79 0 -127.5 -58t-45.5 -134q2 -58 36.5 -91.5t95.5 -33.5z" glyph-name="six" horiz-adv-x="554" unicode="6"/><glyph d="M70 0l410 624h-394l13 76h492l-13 -72l-412 -628h-96z" glyph-name="seven" horiz-adv-x="541" unicode="7"/><glyph d="M256 -15q-104 0 -166.5 50.5t-62.5 140.5q0 76 45 134.5t126 81.5q-79 42 -79 130q0 81 66.5 137t163.5 56q86 0 141.5 -44.5t55.5 -119.5q0 -58 -34 -103t-95 -66q104 -48 104 -164q0 -97 -71 -165t-194 -68zM261 61q79 0 126 43t47 112q0 60 -37 93t-105 33 q-80 0 -129 -44t-49 -112q0 -60 39.5 -92.5t107.5 -32.5zM320 409q62 0 100.5 37t38.5 92q0 47 -30.5 75.5t-84.5 28.5q-63 0 -101.5 -37t-38.5 -90q0 -48 31.5 -77t84.5 -29z" glyph-name="eight" horiz-adv-x="568" unicode="8"/><glyph d="M223 -15q-93 0 -144.5 54.5t-49.5 137.5h84q0 -51 29 -83.5t86 -32.5q84 0 143 74t84 214h-4q-58 -101 -177 -101q-90 0 -146 55t-57 145q-1 105 70 186t189 81q99 0 159 -64.5t58 -202.5q-1 -59 -12 -120t-36 -123t-61.5 -110.5t-92 -79t-122.5 -30.5zM288 322 q79 0 127.5 58t46.5 134q-2 58 -37 91.5t-95 33.5q-79 0 -124.5 -54.5t-45.5 -128.5q0 -62 34.5 -98t93.5 -36z" glyph-name="nine" horiz-adv-x="553" unicode="9"/><glyph d="M147 365q-22 0 -35 12t-13 32q0 26 20 45.5t48 19.5q21 0 34 -12t13 -32q0 -27 -19.5 -46t-47.5 -19zM80 -15q-22 0 -35 12t-13 32q0 26 20 45.5t48 19.5q21 0 34 -12t13 -32q0 -26 -19.5 -45.5t-47.5 -19.5z" glyph-name="colon" horiz-adv-x="253" unicode=":"/><glyph d="M60 -40q14 24 -3 33q-20 12 -20 37t18.5 44.5t47.5 19.5q24 0 38 -14.5t14 -37.5q0 -30 -33 -85l-79 -135h-66zM152 365q-22 0 -35 12t-13 32q0 26 20 45.5t48 19.5q22 0 34.5 -12t12.5 -32q0 -27 -19.5 -46t-47.5 -19z" glyph-name="semicolon" horiz-adv-x="263" unicode=";"/><glyph d="M475 0l-409 266l14 82l503 266l-16 -96l-356 -189q-23 -13 -26 -29t16 -28l289 -188z" glyph-name="less" horiz-adv-x="592" unicode="&lt;"/><glyph d="M86 417l13 76h418l-14 -76h-417zM46 193l14 76h417l-14 -76h-417z" glyph-name="equal" horiz-adv-x="531" unicode="="/><glyph d="M28 0l16 96l357 188q23 12 25.5 28.5t-16.5 28.5l-289 189l15 84l410 -266l-15 -82z" glyph-name="greater" horiz-adv-x="592" unicode=">"/><glyph d="M280 383q118 68 118 160q0 43 -26 69.5t-75 26.5q-59 0 -99 -36.5t-49 -102.5h-88q13 94 79 154.5t161 60.5q83 0 134 -46.5t51 -120.5q0 -142 -211 -250q-13 -8 -16 -23l-14 -85h-86l5 30q10 56 37 94t79 69zM166 -15q-22 0 -35 12t-13 32q0 26 20 45.5t48 19.5 q21 0 34 -12t13 -32q0 -26 -19.5 -45.5t-47.5 -19.5z" glyph-name="question" horiz-adv-x="453" unicode="?"/><glyph d="M386 -173q-168 0 -266 95t-98 256q0 128 61 241.5t174.5 184.5t253.5 71q160 0 255 -89.5t95 -229.5q0 -114 -59 -204t-161 -91q-98 0 -112 80q-47 -79 -130 -79q-59 0 -94 39.5t-35 109.5q0 86 49 156t133 70q81 0 108 -72l9 55h71l-38 -221q-12 -68 44 -68 q47 0 79 41.5t43 90t11 94.5q0 109 -71.5 176t-198.5 67q-89 0 -165.5 -34.5t-128.5 -92t-81.5 -133t-29.5 -157.5q0 -133 75.5 -206t209.5 -73q95 0 163 34l27 -71q-87 -40 -193 -40zM422 134q51 0 82.5 44t31.5 100q0 41 -19 64t-54 23q-51 0 -81.5 -45.5t-30.5 -100.5 q0 -40 18.5 -62.5t52.5 -22.5z" glyph-name="at" horiz-adv-x="876" unicode="@"/><glyph d="M-34 0l401 700h103l155 -700h-94l-46 210h-298l-118 -210h-103zM229 291h242l-66 306h-4z" glyph-name="A" horiz-adv-x="679" unicode="A"/><glyph d="M12 0l123 700h308q82 0 133.5 -40.5t51.5 -114.5q0 -63 -36.5 -109t-90.5 -61q44 -17 69 -57t25 -95q0 -94 -66 -158.5t-175 -64.5h-342zM344 82q73 0 116 37t43 97q0 48 -29.5 75.5t-88.5 27.5h-226l-42 -237h227zM385 399q70 0 111.5 34.5t41.5 90.5q0 94 -116 94h-210 l-39 -219h212z" glyph-name="B" horiz-adv-x="632" unicode="B"/><glyph d="M323 -15q-131 0 -207.5 76t-76.5 216q0 110 45 208.5t136 164t209 65.5q130 0 206 -77t66 -200h-90q4 89 -45.5 141.5t-139.5 52.5q-88 0 -156 -53t-101 -132.5t-33 -167.5q0 -100 48 -155.5t141 -55.5q94 0 164 54.5t95 142.5h94q-35 -128 -129 -204t-226 -76z" glyph-name="C" horiz-adv-x="703" unicode="C"/><glyph d="M12 0l123 700h231q140 0 217 -75t77 -214q0 -74 -22.5 -143.5t-69.5 -131t-131 -99t-194 -37.5h-231zM236 82q86 0 151.5 27.5t103 74.5t55.5 102t18 116q0 216 -222 216h-130l-95 -536h119z" glyph-name="D" horiz-adv-x="666" unicode="D"/><glyph d="M12 0l123 700h497l-14 -82h-406l-39 -219h365l-13 -80h-366l-42 -237h416l-14 -82h-507z" glyph-name="E" horiz-adv-x="581" unicode="E"/><glyph d="M12 0l123 700h479l-15 -83h-387l-39 -219h349l-14 -82h-349l-56 -316h-91z" glyph-name="F" horiz-adv-x="553" unicode="F"/><glyph d="M313 -15q-127 0 -200.5 76t-73.5 215q0 82 27 160t75.5 140.5t124.5 100.5t167 38q123 0 198.5 -65.5t75.5 -174.5h-92q-2 71 -51 114t-132 43q-90 0 -159 -52t-103 -131t-34 -168q0 -102 49.5 -157.5t144.5 -55.5q99 0 168 59t93 163h-215l14 79h309l-65 -369h-78 l25 143q-38 -79 -108 -118.5t-160 -39.5z" glyph-name="G" horiz-adv-x="725" unicode="G"/><glyph d="M486 0l57 319h-384l-56 -319h-91l123 700h91l-52 -298h383l52 298h91l-123 -700h-91z" glyph-name="H" horiz-adv-x="678" unicode="H"/><glyph d="M12 0l123 700h91l-123 -700h-91z" glyph-name="I" horiz-adv-x="203" unicode="I"/><glyph d="M368 218l86 482h91l-86 -491q-19 -110 -90 -167t-168 -57q-104 0 -155.5 63t-33.5 172l11 60h91l-11 -63q-26 -149 108 -149q130 0 157 150z" glyph-name="J" horiz-adv-x="513" unicode="J"/><glyph d="M378 350q-7 17 -19 20t-27 -10l-197 -179l-32 -181h-91l123 700h91l-69 -392l418 392h113l-227 -215q-28 -26 -17 -57l159 -428h-98z" glyph-name="K" horiz-adv-x="657" unicode="K"/><glyph d="M12 0l123 700h91l-102 -577q-6 -40 34 -40h324l-14 -83h-456z" glyph-name="L" horiz-adv-x="532" unicode="L"/><glyph d="M313 0l-107 601l-106 -601h-88l123 700h137l106 -585l310 585h138l-123 -700h-88l105 598l-317 -598h-90z" glyph-name="M" horiz-adv-x="804" unicode="M"/><glyph d="M482 0l-277 590l-104 -590h-89l123 700h109l268 -566l99 566h89l-123 -700h-95z" glyph-name="N" horiz-adv-x="678" unicode="N"/><glyph d="M323 -15q-131 0 -207.5 76t-76.5 216q0 83 28 161.5t78 140t126.5 99t166.5 37.5q131 0 208 -77t77 -214q0 -79 -26.5 -155.5t-75 -140.5t-126.5 -103.5t-172 -39.5zM328 68q89 0 158.5 51.5t104.5 130.5t35 167q0 103 -50.5 159t-142.5 56q-89 0 -158 -52.5t-104 -132 t-35 -168.5q0 -103 50 -157t142 -54z" glyph-name="O" horiz-adv-x="727" unicode="O"/><glyph d="M12 0l123 700h311q89 0 145.5 -47t56.5 -131q0 -91 -65 -159.5t-182 -68.5h-246l-52 -294h-91zM397 377q78 0 118 40.5t40 96.5q0 103 -124 103h-219l-42 -240h227z" glyph-name="P" horiz-adv-x="622" unicode="P"/><glyph d="M451 -30q-14 30 -52 22q-30 -7 -76 -7q-131 0 -207.5 76t-76.5 216q0 83 28 161t78 140t126.5 99.5t166.5 37.5q131 0 208 -76.5t77 -211.5q0 -102 -44 -202.5t-124 -163.5q-30 -25 -19 -53l56 -125l-85 -38zM328 68q89 0 158.5 51.5t104.5 130.5t35 167q0 103 -50.5 159 t-142.5 56q-89 0 -158 -52.5t-104 -132t-35 -168.5q0 -103 50 -157t142 -54z" glyph-name="Q" horiz-adv-x="727" unicode="Q"/><glyph d="M12 0l123 700h327q90 0 141 -49.5t41 -134.5q-7 -61 -43.5 -103.5t-91.5 -59.5q76 -22 67 -135l-18 -218h-90l21 268q3 28 -26 28h-308l-52 -296h-91zM387 377q58 0 105.5 28.5t57.5 95.5q8 58 -22 87.5t-94 29.5h-222l-42 -241h217z" glyph-name="R" horiz-adv-x="631" unicode="R"/><glyph d="M313 -15q-142 0 -219.5 74t-54.5 203h91q-18 -97 31.5 -146t151.5 -49q88 0 138 35.5t50 96.5q0 45 -28 69t-88 38l-91 21q-99 23 -143 65.5t-44 111.5q0 96 75.5 153.5t194.5 57.5q127 0 196.5 -64.5t49.5 -176.5h-90q14 79 -32 119.5t-133 40.5q-78 0 -123.5 -31 t-45.5 -89q0 -43 29.5 -67t96.5 -40l90 -21q91 -21 135 -63.5t44 -114.5q0 -99 -76.5 -161t-204.5 -62z" glyph-name="S" horiz-adv-x="642" unicode="S"/><glyph d="M295 577q6 40 -34 40h-186l14 83h545l-14 -83h-187q-41 0 -47 -40l-102 -577h-91z" glyph-name="T" horiz-adv-x="565" unicode="T"/><glyph d="M280 -15q-131 0 -192.5 77t-38.5 208l76 430h91l-74 -421q-19 -108 16 -159.5t128 -51.5q187 0 224 211l73 421h91l-75 -430q-25 -139 -109 -212t-210 -73z" glyph-name="U" horiz-adv-x="642" unicode="U"/><glyph d="M230 0l-141 700h95l113 -585h4l318 585h101l-387 -700h-103z" glyph-name="V" horiz-adv-x="651" unicode="V"/><glyph d="M552 0l-42 549h-6l-236 -549h-99l-80 700h98l55 -549h4l236 549h98l42 -549h6l247 549h99l-327 -700h-95z" glyph-name="W" horiz-adv-x="905" unicode="W"/><glyph d="M254 333q23 29 10 56l-158 311h103l135 -274l231 274h114l-267 -313q-24 -27 -10 -56l171 -331h-104l-146 294l-252 -294h-115z" glyph-name="X" horiz-adv-x="637" unicode="X"/><glyph d="M286 246q6 34 -8 62l-189 392h101l157 -330h4l272 330h111l-326 -391q-24 -30 -30 -62l-43 -247h-92z" glyph-name="Y" horiz-adv-x="665" unicode="Y"/><glyph d="M-16 0l13 73l515 544h-389l14 83h515l-12 -73l-516 -544h439l-14 -83h-565z" glyph-name="Z" horiz-adv-x="622" unicode="Z"/><glyph d="M50 -80l137 780h195l-13 -76h-81q-30 0 -35 -30l-101 -568q-3 -16 2.5 -23t22.5 -7h81l-13 -76h-195z" glyph-name="bracketleft" horiz-adv-x="357" unicode="["/><glyph d="M289 -80h-86l-116 780h86z" glyph-name="backslash" horiz-adv-x="356" unicode="\"/><glyph d="M-4 -80l13 76h81q31 0 36 30l100 568q3 16 -2.5 23t-22.5 7h-81l13 76h195l-137 -780h-195z" glyph-name="bracketright" horiz-adv-x="357" unicode="]"/><glyph d="M105 560l149 180h109l85 -180h-75l-48 84q-11 19 -29 19t-34 -19l-78 -84h-79z" glyph-name="asciicircum" horiz-adv-x="444" unicode="^"/><glyph d="M29 -200l12 76h347l-13 -76h-346z" glyph-name="underscore" horiz-adv-x="563" unicode="_"/><glyph d="M212 560l-76 180h102l51 -180h-77z" glyph-name="grave" horiz-adv-x="284" unicode="`"/><glyph d="M169 -15q-75 0 -117.5 38t-42.5 103q0 70 49.5 114.5t135.5 49.5l150 10q35 2 43 41q11 51 -17.5 76.5t-82.5 25.5q-57 0 -94.5 -25.5t-45.5 -72.5h-87q19 84 79 128t153 44q100 0 147.5 -51.5t29.5 -155.5l-42 -234h41l-13 -76h-37q-38 0 -54.5 23t-9.5 65l1 3 q-64 -106 -186 -106zM186 58q68 0 118 44t64 119l4 17l-159 -10q-115 -7 -115 -93q0 -77 88 -77z" glyph-name="a" horiz-adv-x="521" unicode="a"/><glyph d="M275 -15q-129 0 -169 105l-16 -90h-78l123 700h86l-46 -260q67 77 169 77q89 0 143 -57.5t54 -163.5q0 -125 -72 -218t-194 -93zM271 61q85 0 132.5 69.5t47.5 160.5q0 73 -33.5 111.5t-93.5 38.5q-84 0 -136.5 -69t-52.5 -158q0 -72 37 -112.5t99 -40.5z" glyph-name="b" horiz-adv-x="566" unicode="b"/><glyph d="M235 -15q-96 0 -153.5 57t-57.5 161q0 124 77.5 219t203.5 95q94 0 150.5 -54.5t51.5 -148.5h-85q2 58 -30.5 92.5t-88.5 34.5q-85 0 -137 -73t-52 -162q0 -68 33 -106.5t93 -38.5q57 0 102 35t62 95h88q-24 -95 -92.5 -150.5t-164.5 -55.5z" glyph-name="c" horiz-adv-x="530" unicode="c"/><glyph d="M222 -15q-89 0 -143 57.5t-54 163.5q0 125 72 218t194 93q120 0 164 -95l48 278h86l-124 -700h-78l13 73q-69 -88 -178 -88zM242 60q84 0 136 69t52 159q0 73 -36.5 113t-98.5 40q-86 0 -133.5 -70t-47.5 -160q0 -73 33.5 -112t94.5 -39z" glyph-name="d" horiz-adv-x="566" unicode="d"/><glyph d="M234 -15q-97 0 -153.5 57t-56.5 158q0 77 30 147.5t96 120t154 49.5q116 0 169.5 -80t15.5 -211h-378q-9 -78 23.5 -122.5t101.5 -44.5q54 0 90 24.5t52 58.5h91q-28 -70 -88 -113.5t-147 -43.5zM126 295h288q14 65 -17 107t-96 42q-63 0 -109.5 -40.5t-65.5 -108.5z" glyph-name="e" horiz-adv-x="524" unicode="e"/><glyph d="M56 0l76 427h-92l13 75h55q38 0 43 36l4 28q12 61 56 97.5t117 36.5h46l-14 -75h-80q-31 0 -36 -30l-16 -93h98l-13 -75h-97l-75 -427h-85z" glyph-name="f" horiz-adv-x="313" unicode="f"/><glyph d="M193 -200q-103 0 -154.5 55.5t-46.5 132.5h81q-1 -53 29 -85t95 -32q73 0 122.5 41.5t62.5 117.5l14 78q-75 -89 -186 -89q-86 0 -135.5 50.5t-49.5 137.5q0 131 79 220.5t193 89.5q123 0 160 -99l15 84h73l-80 -455q-21 -116 -91 -181.5t-181 -65.5zM234 90 q81 0 137.5 64t56.5 156q0 62 -35 98.5t-96 36.5q-79 0 -133.5 -64t-54.5 -158q0 -62 33 -97.5t92 -35.5z" glyph-name="g" horiz-adv-x="557" unicode="g"/><glyph d="M412 308q24 133 -92 133q-68 0 -115 -48.5t-64 -147.5l-44 -245h-85l123 700h86l-47 -266q59 83 166 83q85 0 130 -52.5t28 -146.5l-55 -318h-86z" glyph-name="h" horiz-adv-x="532" unicode="h"/><glyph d="M12 0l88 502h86l-89 -502h-85zM163 612q-21 0 -34 12t-13 31q0 25 19.5 44.5t45.5 19.5q21 0 34 -12.5t13 -31.5q0 -25 -19.5 -44t-45.5 -19z" glyph-name="i" horiz-adv-x="198" unicode="i"/><glyph d="M-112 -200l13 76h58q32 0 37 30l104 596h86l-99 -559q-12 -67 -56.5 -105t-118.5 -38h-24zM163 612q-21 0 -34 12t-13 31q0 25 19.5 44.5t45.5 19.5q21 0 34 -12.5t13 -31.5q0 -25 -19.5 -44t-45.5 -19z" glyph-name="j" horiz-adv-x="198" unicode="j"/><glyph d="M289 239q-6 17 -19 19t-28 -12l-122 -107l-25 -139h-83l123 700h83l-80 -457l291 259h106l-161 -144q-28 -25 -17 -55l108 -303h-94z" glyph-name="k" horiz-adv-x="518" unicode="k"/><glyph d="M105 0q-45 0 -64.5 25t-11.5 71l106 604h86l-111 -624h45l-13 -76h-37z" glyph-name="l" horiz-adv-x="208" unicode="l"/><glyph d="M12 0l88 502h79l-15 -83q59 98 163 98q59 0 95.5 -27.5t46.5 -78.5q59 106 175 106q80 0 120.5 -52t24.5 -140l-58 -325h-85l53 302q12 71 -6.5 105t-68.5 34q-60 0 -104 -47.5t-61 -142.5l-45 -251h-85l53 302q12 71 -6.5 105t-68.5 34q-60 0 -104.5 -48.5t-61.5 -145.5 l-44 -247h-85z" glyph-name="m" horiz-adv-x="821" unicode="m"/><glyph d="M413 308q24 133 -93 133q-68 0 -115 -48.5t-64 -147.5l-44 -245h-85l88 502h79l-15 -83q60 98 176 98q88 0 131.5 -54t27.5 -145l-56 -318h-85z" glyph-name="n" horiz-adv-x="533" unicode="n"/><glyph d="M238 -15q-98 0 -156 57t-58 162q0 80 32.5 150t100 116.5t155.5 46.5q98 0 156 -57t58 -161q0 -80 -33 -150.5t-100 -117t-155 -46.5zM243 61q88 0 141 71t53 163q0 69 -34 107.5t-96 38.5q-87 0 -140.5 -71t-53.5 -162q0 -69 34 -108t96 -39z" glyph-name="o" horiz-adv-x="550" unicode="o"/><glyph d="M-23 -200l123 702h79l-13 -73q69 88 178 88q89 0 143 -57.5t54 -163.5q0 -125 -72 -218t-194 -93q-121 0 -163 95l-50 -280h-85zM271 61q85 0 132.5 69.5t47.5 160.5q0 73 -33.5 111.5t-93.5 38.5q-84 0 -136.5 -69t-52.5 -158q0 -72 37 -112.5t99 -40.5z" glyph-name="p" horiz-adv-x="566" unicode="p"/><glyph d="M345 -200l47 264q-67 -79 -170 -79q-89 0 -143 57.5t-54 163.5q0 125 72 218t194 93q128 0 168 -105l16 90h79l-124 -702h-85zM242 60q84 0 136 69t52 159q0 73 -36.5 113t-98.5 40q-86 0 -133.5 -70t-47.5 -160q0 -73 33.5 -112t94.5 -39z" glyph-name="q" horiz-adv-x="566" unicode="q"/><glyph d="M83 406q8 46 36 71t74 25h157l-12 -76h-166l-76 -426h-85z" glyph-name="r" horiz-adv-x="324" unicode="r"/><glyph d="M305 281q126 -28 126 -135q0 -74 -58 -117.5t-152 -43.5q-101 0 -159.5 49t-51.5 128h81q-2 -48 32 -76t100 -28q56 0 88.5 22.5t32.5 62.5q0 29 -18 44.5t-58 24.5l-76 17q-133 29 -133 129q0 73 54 116t144 43q93 0 146 -45t49 -122h-82q3 43 -27 69t-86 26 q-53 0 -82 -21t-29 -58q0 -28 18.5 -43t64.5 -25z" glyph-name="s" horiz-adv-x="476" unicode="s"/><glyph d="M216 0q-74 0 -106 37t-20 106l50 283h-91l13 76h55q41 0 48 40l20 118h80l-27 -158h102l-13 -76h-101l-57 -320q-3 -16 2.5 -23t22.5 -7h84l-13 -76h-49z" glyph-name="t" horiz-adv-x="328" unicode="t"/><glyph d="M177 -15q-85 0 -126.5 53.5t-25.5 143.5l56 320h86l-55 -308q-12 -66 11 -99.5t76 -33.5q65 0 111 48.5t63 147.5l43 245h86l-89 -502h-78l15 83q-61 -98 -173 -98z" glyph-name="u" horiz-adv-x="514" unicode="u"/><glyph d="M148 0l-95 502h87l72 -402h4l213 402h95l-272 -502h-104z" glyph-name="v" horiz-adv-x="489" unicode="v"/><glyph d="M118 0l-65 502h90l39 -386h6l180 386h81l43 -386h4l177 386h90l-242 -502h-92l-41 366h-4l-172 -366h-94z" glyph-name="w" horiz-adv-x="727" unicode="w"/><glyph d="M167 229q24 27 10 56l-114 217h93l95 -182h4l158 182h104l-190 -217q-24 -29 -10 -56l121 -229h-95l-101 190h-4l-168 -190h-105z" glyph-name="x" horiz-adv-x="491" unicode="x"/><glyph d="M146 -23q19 36 13 63l-106 462h88l82 -381h4l203 381h93l-384 -702h-90z" glyph-name="y" horiz-adv-x="488" unicode="y"/><glyph d="M-20 0l13 71l352 355h-275l13 76h392l-13 -71l-353 -355h300l-13 -76h-416z" glyph-name="z" horiz-adv-x="464" unicode="z"/><glyph d="M222 -80q-70 0 -101 37t-20 102l37 213h-44l13 76h45l37 213q11 65 55.5 102t114.5 37h49l-13 -76h-81q-30 0 -35 -30l-32 -183q-14 -77 -74 -101q52 -25 38 -105l-32 -179q-3 -17 2.5 -23.5t21.5 -6.5h81l-13 -76h-49z" glyph-name="braceleft" horiz-adv-x="383" unicode="{"/><glyph d="M7 -200l183 1040h78l-183 -1040h-78z" glyph-name="bar" horiz-adv-x="250" unicode="|"/><glyph d="M-4 -80l13 76h81q30 0 35 30l32 183q14 79 74 101q-52 26 -37 105l32 179q2 17 -3.5 23.5t-21.5 6.5h-81l13 76h49q70 0 101.5 -37t20.5 -102l-38 -213h44l-13 -76h-45l-37 -213q-11 -65 -55.5 -102t-114.5 -37h-49z" glyph-name="braceright" horiz-adv-x="383" unicode="}"/><glyph d="M399 336q16 -11 36 -5.5t28 24.5l26 63h89q-30 -99 -107 -135.5t-155 14.5l-78 54q-18 11 -37 5.5t-27 -24.5l-26 -63h-89q30 99 106.5 135t156.5 -15z" glyph-name="asciitilde" horiz-adv-x="605" unicode="~"/><glyph glyph-name="uni00A0" horiz-adv-x="250" unicode=" "/><glyph d="M168 446q-22 0 -35 12t-13 32q0 26 20 45.5t48 19.5q21 0 34 -12t13 -32q0 -26 -19.5 -45.5t-47.5 -19.5zM162 208q-18 -153 -32 -231l-25 -137h-90l25 137q22 126 49 231l35 142h54z" glyph-name="exclamdown" horiz-adv-x="265" unicode="¡"/><glyph d="M194 65q4 21 -22 31q-62 21 -96.5 73t-34.5 131q0 110 60.5 199t163.5 111q26 6 30 31l10 59h78l-10 -60q-4 -23 17 -33q64 -17 99.5 -68.5t33.5 -125.5h-85q2 58 -30 93t-88 35q-85 0 -137 -73.5t-52 -162.5q0 -68 33 -106.5t93 -38.5q57 0 101.5 35t62.5 95h87 q-22 -83 -75.5 -136t-130.5 -66q-28 -4 -32 -30l-10 -58h-78z" glyph-name="cent" horiz-adv-x="529" unicode="¢"/><glyph d="M5 76q75 55 99.5 105.5t22.5 113.5h-83l13 75h65q-3 28 -3 60q0 127 59.5 206t182.5 79q108 0 165.5 -62t39.5 -171h-86q13 76 -17.5 116.5t-101.5 40.5q-156 0 -156 -210q0 -21 2 -59h269l-14 -75h-253q0 -66 -24.5 -118t-92.5 -101h412l-13 -76h-499z" glyph-name="sterling" horiz-adv-x="571" unicode="£"/><glyph d="M240 63q-50 0 -88 22q-23 12 -41 -3l-67 -57l-46 55l68 58q18 16 11 40q-7 25 -7 51q0 64 37 124q14 21 -1 40l-41 51l62 51l40 -49q14 -17 40 -8q42 20 89 20q50 0 89 -22q22 -12 40 3l66 56l47 -55l-69 -57q-19 -16 -11 -40q7 -21 7 -50q0 -65 -37 -125q-15 -21 1 -40 l43 -52l-63 -51l-41 49q-15 19 -37 9q-47 -20 -91 -20zM246 137q64 0 104 45t40 105q0 46 -26.5 71.5t-73.5 25.5q-64 0 -104 -44.5t-40 -104.5q0 -46 26.5 -72t73.5 -26z" glyph-name="currency" horiz-adv-x="532" unicode="¤"/><glyph d="M211 0l31 176h-215l13 71h213l1 4q6 24 -8 57l-12 30h-178l13 70h137l-117 292h96l130 -330h4l245 330h106l-219 -292h132l-12 -70h-173l-22 -29q-22 -30 -29 -58l-1 -4h209l-13 -71h-209l-30 -176h-92z" glyph-name="yen" horiz-adv-x="601" unicode="¥"/><glyph d="M120 440l70 400h78l-70 -400h-78zM7 -200l70 400h78l-70 -400h-78z" glyph-name="brokenbar" horiz-adv-x="250" unicode="¦"/><glyph d="M204 -80q-102 0 -158 48.5t-48 128.5h83q-2 -48 29.5 -75.5t95.5 -27.5q59 0 92 24t33 65q0 61 -73 75l-80 15q-130 27 -130 130q0 46 26 80.5t70 48.5q-53 42 -53 108q0 70 56.5 115t147.5 45t143 -45t48 -122h-86q3 44 -25 69t-84 25q-50 0 -81 -21t-31 -59 q0 -62 81 -78l66 -13q135 -27 135 -129q0 -45 -26 -79.5t-66 -49.5q51 -40 51 -111q0 -77 -59 -122t-157 -45zM137 318q0 -60 80 -75l67 -12q39 3 64.5 25.5t25.5 55.5q0 56 -73 71l-69 13q-43 -2 -69 -23t-26 -55z" glyph-name="section" horiz-adv-x="477" unicode="§"/><glyph d="M351 612q-21 0 -34 12t-13 31q0 25 20 44.5t46 19.5q21 0 33.5 -12.5t12.5 -31.5q0 -25 -19.5 -44t-45.5 -19zM170 612q-21 0 -34 12t-13 31q0 25 19.5 44.5t45.5 19.5q21 0 34 -12.5t13 -31.5q0 -25 -19.5 -44t-45.5 -19z" glyph-name="dieresis" horiz-adv-x="392" unicode="¨"/><glyph d="M347 -15q-142 0 -224 83t-82 222q0 110 50 206.5t144.5 157.5t212.5 61q141 0 223.5 -83.5t82.5 -222.5q0 -80 -29 -156t-80.5 -135.5t-129.5 -96t-168 -36.5zM349 54q145 0 237 104.5t92 245.5q0 110 -61 176t-172 66q-95 0 -171.5 -49.5t-117 -129.5t-40.5 -172 q0 -110 61 -175.5t172 -65.5zM372 133q-78 0 -124.5 46t-46.5 130q0 100 62.5 179t167.5 79q76 0 121.5 -44.5t43.5 -120.5h-78q0 41 -24.5 66.5t-67.5 25.5q-65 0 -104 -55.5t-39 -124.5q0 -51 24 -79.5t69 -28.5t79.5 26.5t47.5 68.5h80q-22 -77 -78 -122.5t-133 -45.5z " glyph-name="copyright" horiz-adv-x="760" unicode="©"/><glyph d="M168 334q-49 0 -76.5 26.5t-27.5 72.5q0 49 32 81t89 36l93 7q23 1 29 26q7 33 -8.5 49.5t-47.5 16.5q-33 0 -55 -17t-27 -46h-72q13 60 54 91t105 31q69 0 101 -36.5t19 -110.5l-27 -154h26l-11 -62h-30q-55 0 -47 60q-41 -71 -119 -71zM187 394q39 0 68 28t38 73l2 13 l-93 -7q-65 -5 -65 -60q0 -47 50 -47z" glyph-name="ordfeminine" horiz-adv-x="371" unicode="ª"/><glyph d="M79 168q-46 83 30 166l150 168h107l-235 -261l134 -241h-93zM285 168q-46 83 29 166l150 168h108l-236 -261l135 -241h-94z" glyph-name="guillemotleft" horiz-adv-x="600" unicode="«"/><glyph d="M389 303q6 38 -32 38h-294l12 76h419l-51 -289h-85z" glyph-name="logicalnot" horiz-adv-x="521" unicode="¬"/><glyph glyph-name="uni00AD" unicode="­"/><glyph d="M246 337q-73 0 -117 43t-44 116q0 87 60 153t152 66q73 0 117 -43t44 -116q0 -86 -60 -152.5t-152 -66.5zM246 377q75 0 122 53.5t47 125.5q0 57 -31 88.5t-87 31.5q-75 0 -122 -54t-47 -126q0 -56 31 -87.5t87 -31.5zM176 426l35 201h92q27 0 44 -14t17 -38 q0 -41 -42 -56q23 -7 22 -42l-2 -51h-44l4 58q0 8 -10 8h-60l-12 -66h-44zM282 531q17 0 28 9t11 23q0 25 -31 25h-41l-11 -57h44z" glyph-name="registered" horiz-adv-x="446" unicode="®"/><glyph d="M117 629l13 71h286l-13 -71h-286z" glyph-name="macron" horiz-adv-x="387" unicode="¯"/><glyph d="M226 401q-60 0 -97.5 36t-37.5 97q0 69 48 121.5t123 52.5q60 0 97.5 -35.5t37.5 -94.5q0 -69 -48.5 -123t-122.5 -54zM230 467q43 0 68.5 32t25.5 74q0 33 -17.5 51t-49.5 18q-43 0 -68.5 -32t-25.5 -73q0 -33 18 -51.5t49 -18.5z" glyph-name="degree" horiz-adv-x="380" unicode="°"/><glyph d="M229 281q6 38 -32 38h-129l13 76h129q40 0 45 38l24 137h84l-24 -137q-6 -38 31 -38h129l-13 -76h-129q-37 0 -45 -38l-24 -137h-84zM12 0l13 76h418l-13 -76h-418z" glyph-name="plusminus" horiz-adv-x="531" unicode="±"/><glyph d="M237 571q60 34 60 68q0 40 -51 40q-63 0 -74 -68h-74q10 63 51 96t104 33q56 0 87 -25.5t31 -69.5q0 -71 -99 -125l-67 -37q-38 -21 -56 -47h189l-11 -61h-280q18 102 119 156z" glyph-name="uni00B2" horiz-adv-x="334" unicode="²"/><glyph d="M222 588q32 0 50.5 14.5t18.5 36.5q0 40 -51 40q-58 0 -69 -60h-73q10 58 49.5 89.5t101.5 31.5q54 0 85.5 -23.5t31.5 -64.5q0 -59 -64 -85q50 -23 50 -77q0 -53 -41.5 -88t-111.5 -35q-67 0 -104.5 33t-26.5 92h73q-5 -30 12 -47t50 -17t53.5 16t20.5 41q0 45 -67 45 h-27l4 23l6 35h29z" glyph-name="uni00B3" horiz-adv-x="340" unicode="³"/><glyph d="M105 560l112 180h103l-138 -180h-77z" glyph-name="acute" horiz-adv-x="284" unicode="´"/><glyph d="M177 -15q-59 0 -98 27l-37 -212h-84l65 365q0 5 2 17l56 320h86l-55 -308q-12 -66 11 -99.5t76 -33.5q65 0 111 48.5t63 147.5l43 245h86l-89 -502h-78l15 83q-61 -98 -173 -98z" glyph-name="mu" horiz-adv-x="514" unicode="µ"/><glyph d="M166 401q-60 0 -85 31t-15 89l10 59q10 58 46.5 89t95.5 31h101l-137 -780h-78l84 481h-22zM258 -80l137 780h78l-137 -780h-78z" glyph-name="paragraph" horiz-adv-x="450" unicode="¶"/><glyph d="M158 207q-22 0 -35 12t-13 32q0 26 20 45.5t48 19.5q21 0 34 -12t13 -32q0 -26 -19.5 -45.5t-47.5 -19.5z" glyph-name="periodcentered" horiz-adv-x="329" unicode="·"/><glyph d="M-29 -200l27 57h92q42 0 42 31q0 25 -32 25h-74l71 143h69l-48 -100h9q34 0 55 -17.5t21 -48.5q0 -41 -30.5 -65.5t-79.5 -24.5h-122z" glyph-name="cedilla" horiz-adv-x="318" unicode="¸"/><glyph d="M84 600l12 61h81q22 0 26 20l9 51h73l-63 -357h-73l36 204q3 21 -19 21h-82z" glyph-name="uni00B9" horiz-adv-x="244" unicode="¹"/><glyph d="M225 334q-69 0 -109.5 40t-40.5 114q0 89 55 154.5t147 65.5q68 0 109.5 -39.5t41.5 -112.5q0 -89 -55.5 -155.5t-147.5 -66.5zM231 396q54 0 87.5 47t33.5 108q0 45 -21 70t-59 25q-54 0 -88 -46.5t-34 -107.5q0 -45 21 -70.5t60 -25.5z" glyph-name="ordmasculine" horiz-adv-x="408" unicode="º"/><glyph d="M234 0l235 261l-134 241h94l92 -168q46 -84 -29 -166l-151 -168h-107zM28 0l236 261l-134 241h93l92 -168q45 -83 -29 -166l-150 -168h-108z" glyph-name="guillemotright" horiz-adv-x="600" unicode="»"/><glyph d="M79 570l12 61h81q23 0 26 20l9 51h73l-63 -357h-73l36 204q3 21 -19 21h-82zM9 0l563 700h90l-563 -700h-90zM374 148h77q23 0 27 20l19 111zM293 87l12 61l197 209h79l-36 -209h64l-11 -61h-65l-14 -87h-73l15 87h-168z" glyph-name="onequarter" horiz-adv-x="671" unicode="¼"/><glyph d="M79 570l12 61h81q23 0 26 20l9 51h73l-63 -357h-73l36 204q3 21 -19 21h-82zM5 0l563 700h90l-563 -700h-90zM516 196q60 34 60 68q0 40 -51 40q-63 0 -74 -68h-74q10 63 51 96t104 33q56 0 87 -25.5t31 -69.5q0 -71 -99 -125l-67 -37q-38 -21 -56 -47h189l-11 -61h-280 q18 102 119 156z" glyph-name="onehalf" horiz-adv-x="694" unicode="½"/><glyph d="M217 558q32 0 50.5 14.5t18.5 36.5q0 40 -51 40q-58 0 -69 -60h-73q10 58 49.5 89.5t101.5 31.5q54 0 85.5 -23.5t31.5 -64.5q0 -59 -64 -85q50 -23 50 -77q0 -53 -41.5 -88t-111.5 -35q-67 0 -104.5 33t-26.5 92h73q-5 -30 11.5 -47t50.5 -17q33 0 53.5 16t20.5 41 q0 45 -67 45h-27l4 23l6 35h29zM74 0l563 700h90l-563 -700h-90zM444 148h77q23 0 27 20l19 111zM363 87l12 61l197 209h79l-36 -209h64l-11 -61h-65l-14 -87h-73l15 87h-168z" glyph-name="threequarters" horiz-adv-x="726" unicode="¾"/><glyph d="M159 -175q-83 0 -134 46.5t-51 120.5q0 142 211 250q13 8 16 23l14 85h86l-5 -30q-10 -56 -37 -94t-79 -69q-118 -68 -118 -160q0 -44 26 -70t75 -26q59 0 99 36.5t49 102.5h88q-13 -94 -79 -154.5t-161 -60.5zM274 446q-21 0 -34 12t-13 32q0 26 19.5 45.5t47.5 19.5 q22 0 35 -12t13 -32q0 -26 -20 -45.5t-48 -19.5z" glyph-name="questiondown" horiz-adv-x="453" unicode="¿"/><glyph d="M-34 0l401 700h103l155 -700h-94l-46 210h-298l-118 -210h-103zM401 758l-76 180h102l51 -180h-77zM229 291h242l-66 306h-4z" glyph-name="Agrave" horiz-adv-x="679" unicode="À"/><glyph d="M-34 0l401 700h103l155 -700h-94l-46 210h-298l-118 -210h-103zM381 758l112 180h103l-138 -180h-77zM229 291h242l-66 306h-4z" glyph-name="Aacute" horiz-adv-x="679" unicode="Á"/><glyph d="M-34 0l401 700h103l155 -700h-94l-46 210h-298l-118 -210h-103zM258 758l149 180h109l85 -180h-75l-48 84q-10 19 -28 19t-35 -19l-78 -84h-79zM229 291h242l-66 306h-4z" glyph-name="Acircumflex" horiz-adv-x="679" unicode="Â"/><glyph d="M-34 0l401 700h103l155 -700h-94l-46 210h-298l-118 -210h-103zM492 847q14 -13 28 -8.5t22 23.5l15 36h78q-19 -57 -55.5 -89t-75.5 -30.5t-77 28.5l-31 26q-15 12 -29 7.5t-22 -22.5l-15 -37h-77q29 85 92 111t117 -20zM229 291h242l-66 306h-4z" glyph-name="Atilde" horiz-adv-x="679" unicode="Ã"/><glyph d="M-34 0l401 700h103l155 -700h-94l-46 210h-298l-118 -210h-103zM528 810q-21 0 -34 12t-13 31q0 25 20 44.5t46 19.5q21 0 33.5 -12.5t12.5 -31.5q0 -25 -19.5 -44t-45.5 -19zM347 810q-21 0 -34 12t-13 31q0 25 19.5 44.5t45.5 19.5q21 0 34 -12.5t13 -31.5 q0 -25 -19.5 -44t-45.5 -19zM229 291h242l-66 306h-4z" glyph-name="Adieresis" horiz-adv-x="679" unicode="Ä"/><glyph d="M-34 0l401 700h103l155 -700h-94l-46 210h-298l-118 -210h-103zM431 745q-50 0 -83 28.5t-33 73.5q0 62 44.5 106t107.5 44q50 0 82.5 -28.5t32.5 -73.5q0 -62 -44 -106t-107 -44zM438 810q31 0 52.5 21t21.5 52q0 22 -14 35.5t-38 13.5q-31 0 -52.5 -21.5t-21.5 -51.5 q0 -22 14 -35.5t38 -13.5zM229 291h242l-66 306h-4z" glyph-name="Aring" horiz-adv-x="679" unicode="Å"/><glyph d="M-34 0l490 700h503l-14 -82h-349l-39 -219h317l-14 -80h-316l-43 -237h375l-14 -82h-466l37 210h-214l-145 -210h-108zM274 291h173l58 327h-4z" glyph-name="AE" horiz-adv-x="925" unicode="Æ"/><glyph d="M184 -200l27 57h92q42 0 42 31q0 25 -32 25h-74l37 75q-111 13 -174 87.5t-63 201.5q0 110 45 208.5t136 164t209 65.5q130 0 206 -77t66 -200h-90q4 89 -45.5 141.5t-139.5 52.5q-88 0 -156 -53t-101 -132.5t-33 -167.5q0 -100 48 -155.5t141 -55.5q94 0 164 54.5 t95 142.5h94q-34 -123 -122 -198t-211 -81l-14 -30h9q34 0 55 -17.5t21 -48.5q0 -41 -30.5 -65.5t-79.5 -24.5h-122z" glyph-name="Ccedilla" horiz-adv-x="703" unicode="Ç"/><glyph d="M12 0l123 700h497l-14 -82h-406l-39 -219h365l-13 -80h-366l-42 -237h416l-14 -82h-507zM370 758l-76 180h102l51 -180h-77z" glyph-name="Egrave" horiz-adv-x="581" unicode="È"/><glyph d="M12 0l123 700h497l-14 -82h-406l-39 -219h365l-13 -80h-366l-42 -237h416l-14 -82h-507zM351 758l112 180h103l-138 -180h-77z" glyph-name="Eacute" horiz-adv-x="581" unicode="É"/><glyph d="M12 0l123 700h497l-14 -82h-406l-39 -219h365l-13 -80h-366l-42 -237h416l-14 -82h-507zM227 758l149 180h109l85 -180h-75l-48 84q-11 19 -29 19t-34 -19l-78 -84h-79z" glyph-name="Ecircumflex" horiz-adv-x="581" unicode="Ê"/><glyph d="M12 0l123 700h497l-14 -82h-406l-39 -219h365l-13 -80h-366l-42 -237h416l-14 -82h-507zM498 810q-21 0 -34 12t-13 31q0 25 20 44.5t46 19.5q21 0 33.5 -12.5t12.5 -31.5q0 -25 -19.5 -44t-45.5 -19zM317 810q-21 0 -34 12t-13 31q0 25 19.5 44.5t45.5 19.5 q21 0 34 -12.5t13 -31.5q0 -25 -19.5 -44t-45.5 -19z" glyph-name="Edieresis" horiz-adv-x="581" unicode="Ë"/><glyph d="M12 0l123 700h91l-123 -700h-91zM162 758l-76 180h102l51 -180h-77z" glyph-name="Igrave" horiz-adv-x="203" unicode="Ì"/><glyph d="M12 0l123 700h91l-123 -700h-91zM143 758l112 180h103l-138 -180h-77z" glyph-name="Iacute" horiz-adv-x="203" unicode="Í"/><glyph d="M12 0l123 700h91l-123 -700h-91zM19 758l149 180h109l85 -180h-75l-48 84q-11 19 -29 19t-34 -19l-78 -84h-79z" glyph-name="Icircumflex" horiz-adv-x="203" unicode="Î"/><glyph d="M12 0l123 700h91l-123 -700h-91zM290 810q-21 0 -34 12t-13 31q0 25 20 44.5t46 19.5q21 0 33.5 -12.5t12.5 -31.5q0 -25 -19.5 -44t-45.5 -19zM109 810q-21 0 -34 12t-13 31q0 25 19.5 44.5t45.5 19.5q21 0 34 -12.5t13 -31.5q0 -25 -19.5 -44t-45.5 -19z" glyph-name="Idieresis" horiz-adv-x="203" unicode="Ï"/><glyph d="M12 0l123 700h231q140 0 217 -75t77 -214q0 -74 -22.5 -143.5t-69.5 -131t-131 -99t-194 -37.5h-231zM236 82q86 0 151.5 27.5t103 74.5t55.5 102t18 116q0 216 -222 216h-130l-33 -185q-5 -36 32 -36h138l-12 -71h-139q-37 0 -43 -33l-38 -211h119z" glyph-name="Eth" horiz-adv-x="666" unicode="Ð"/><glyph d="M482 0l-277 590l-104 -590h-89l123 700h109l268 -566l99 566h89l-123 -700h-95zM491 847q14 -13 28 -8.5t22 23.5l15 36h78q-19 -57 -55.5 -89t-75.5 -30.5t-77 28.5l-31 26q-15 12 -29 7.5t-22 -22.5l-15 -37h-77q29 85 92 111t117 -20z" glyph-name="Ntilde" horiz-adv-x="678" unicode="Ñ"/><glyph d="M323 -15q-131 0 -207.5 76t-76.5 216q0 83 28 161.5t78 140t126.5 99t166.5 37.5q131 0 208 -77t77 -214q0 -79 -26.5 -155.5t-75 -140.5t-126.5 -103.5t-172 -39.5zM328 68q89 0 158.5 51.5t104.5 130.5t35 167q0 103 -50.5 159t-142.5 56q-89 0 -158 -52.5t-104 -132 t-35 -168.5q0 -103 50 -157t142 -54zM424 758l-76 180h102l51 -180h-77z" glyph-name="Ograve" horiz-adv-x="727" unicode="Ò"/><glyph d="M323 -15q-131 0 -207.5 76t-76.5 216q0 83 28 161.5t78 140t126.5 99t166.5 37.5q131 0 208 -77t77 -214q0 -79 -26.5 -155.5t-75 -140.5t-126.5 -103.5t-172 -39.5zM328 68q89 0 158.5 51.5t104.5 130.5t35 167q0 103 -50.5 159t-142.5 56q-89 0 -158 -52.5t-104 -132 t-35 -168.5q0 -103 50 -157t142 -54zM404 758l112 180h103l-138 -180h-77z" glyph-name="Oacute" horiz-adv-x="727" unicode="Ó"/><glyph d="M323 -15q-131 0 -207.5 76t-76.5 216q0 83 28 161.5t78 140t126.5 99t166.5 37.5q131 0 208 -77t77 -214q0 -79 -26.5 -155.5t-75 -140.5t-126.5 -103.5t-172 -39.5zM328 68q89 0 158.5 51.5t104.5 130.5t35 167q0 103 -50.5 159t-142.5 56q-89 0 -158 -52.5t-104 -132 t-35 -168.5q0 -103 50 -157t142 -54zM281 758l149 180h109l85 -180h-75l-48 84q-10 19 -28.5 19t-34.5 -19l-78 -84h-79z" glyph-name="Ocircumflex" horiz-adv-x="727" unicode="Ô"/><glyph d="M323 -15q-131 0 -207.5 76t-76.5 216q0 83 28 161.5t78 140t126.5 99t166.5 37.5q131 0 208 -77t77 -214q0 -79 -26.5 -155.5t-75 -140.5t-126.5 -103.5t-172 -39.5zM328 68q89 0 158.5 51.5t104.5 130.5t35 167q0 103 -50.5 159t-142.5 56q-89 0 -158 -52.5t-104 -132 t-35 -168.5q0 -103 50 -157t142 -54zM515 847q14 -13 28 -8.5t22 23.5l15 36h78q-19 -57 -55.5 -89t-75.5 -30.5t-77 28.5l-31 26q-15 12 -29 7.5t-22 -22.5l-15 -37h-77q29 85 92 111t117 -20z" glyph-name="Otilde" horiz-adv-x="727" unicode="Õ"/><glyph d="M323 -15q-131 0 -207.5 76t-76.5 216q0 83 28 161.5t78 140t126.5 99t166.5 37.5q131 0 208 -77t77 -214q0 -79 -26.5 -155.5t-75 -140.5t-126.5 -103.5t-172 -39.5zM328 68q89 0 158.5 51.5t104.5 130.5t35 167q0 103 -50.5 159t-142.5 56q-89 0 -158 -52.5t-104 -132 t-35 -168.5q0 -103 50 -157t142 -54zM552 810q-21 0 -34 12t-13 31q0 25 20 44.5t46 19.5q21 0 33.5 -12.5t12.5 -31.5q0 -25 -19.5 -44t-45.5 -19zM371 810q-21 0 -34 12t-13 31q0 25 19.5 44.5t45.5 19.5q21 0 34 -12.5t13 -31.5q0 -25 -19.5 -44t-45.5 -19z" glyph-name="Odieresis" horiz-adv-x="727" unicode="Ö"/><glyph d="M93 136l-48 56l148 125q32 26 10 53l-103 124l59 50l101 -121q22 -27 53 0l152 128l48 -57l-149 -124q-32 -27 -9 -53l104 -125l-60 -50l-101 121q-22 27 -54 0z" glyph-name="multiply" horiz-adv-x="526" unicode="×"/><glyph d="M152 -91l-65 36l42 66q15 25 -3 40q-87 75 -87 222q0 85 28 164.5t77.5 141.5t126 99t166.5 37q48 0 92 -12q23 -6 38 20l44 68l63 -36l-42 -66q-16 -24 3 -41q88 -77 88 -220q0 -80 -26.5 -157.5t-75 -142t-126 -104t-170.5 -39.5q-51 0 -93 12q-22 6 -38 -20zM504 621 q-33 11 -71 11q-89 0 -158 -52.5t-104 -132t-35 -168.5q0 -110 58 -162zM327 68q90 0 159.5 51.5t104.5 130.5t35 167q0 109 -59 165l-311 -504q37 -10 71 -10z" glyph-name="Oslash" horiz-adv-x="726" unicode="Ø"/><glyph d="M280 -15q-131 0 -192.5 77t-38.5 208l76 430h91l-74 -421q-19 -108 16 -159.5t128 -51.5q187 0 224 211l73 421h91l-75 -430q-25 -139 -109 -212t-210 -73zM381 758l-76 180h102l51 -180h-77z" glyph-name="Ugrave" horiz-adv-x="642" unicode="Ù"/><glyph d="M280 -15q-131 0 -192.5 77t-38.5 208l76 430h91l-74 -421q-19 -108 16 -159.5t128 -51.5q187 0 224 211l73 421h91l-75 -430q-25 -139 -109 -212t-210 -73zM362 758l112 180h103l-138 -180h-77z" glyph-name="Uacute" horiz-adv-x="642" unicode="Ú"/><glyph d="M280 -15q-131 0 -192.5 77t-38.5 208l76 430h91l-74 -421q-19 -108 16 -159.5t128 -51.5q187 0 224 211l73 421h91l-75 -430q-25 -139 -109 -212t-210 -73zM238 758l149 180h109l85 -180h-75l-48 84q-10 19 -28 19t-35 -19l-78 -84h-79z" glyph-name="Ucircumflex" horiz-adv-x="642" unicode="Û"/><glyph d="M280 -15q-131 0 -192.5 77t-38.5 208l76 430h91l-74 -421q-19 -108 16 -159.5t128 -51.5q187 0 224 211l73 421h91l-75 -430q-25 -139 -109 -212t-210 -73zM509 810q-21 0 -34 12t-13 31q0 25 20 44.5t46 19.5q21 0 33.5 -12.5t12.5 -31.5q0 -25 -19.5 -44t-45.5 -19z M328 810q-21 0 -34 12t-13 31q0 25 19.5 44.5t45.5 19.5q21 0 34 -12.5t13 -31.5q0 -25 -19.5 -44t-45.5 -19z" glyph-name="Udieresis" horiz-adv-x="642" unicode="Ü"/><glyph d="M286 246q6 34 -8 62l-189 392h101l157 -330h4l272 330h111l-326 -391q-24 -30 -30 -62l-43 -247h-92zM374 758l112 180h103l-138 -180h-77z" glyph-name="Yacute" horiz-adv-x="665" unicode="Ý"/><glyph d="M12 0l123 700h91l-26 -148h220q89 0 146 -47t57 -131q0 -90 -65.5 -158.5t-182.5 -68.5h-246l-26 -147h-91zM371 230q78 0 118.5 40.5t40.5 96.5q0 51 -32.5 77t-92.5 26h-219l-42 -240h227z" glyph-name="Thorn" horiz-adv-x="632" unicode="Þ"/><glyph d="M310 -15q-77 0 -103 16l13 74q38 -16 83 -16q56 0 91.5 25.5t35.5 73.5q0 26 -13.5 44.5t-47.5 37.5q-46 28 -68 57t-22 69q0 84 109 144q60 35 60 75q0 18 -13 29t-36 11h-100q-49 0 -57 -49l-102 -576h-84l75 426h-90l13 76h55q36 0 42 36l5 28q12 61 56 97.5t117 36.5 h84q56 0 89 -26t33 -75q0 -51 -31.5 -88t-92.5 -71q-48 -28 -48 -69q0 -36 59 -71q95 -58 95 -142q0 -75 -55.5 -124t-151.5 -49z" glyph-name="germandbls" horiz-adv-x="564" unicode="ß"/><glyph d="M169 -15q-75 0 -117.5 38t-42.5 103q0 70 49.5 114.5t135.5 49.5l150 10q35 2 43 41q11 51 -17.5 76.5t-82.5 25.5q-57 0 -94.5 -25.5t-45.5 -72.5h-87q19 84 79 128t153 44q100 0 147.5 -51.5t29.5 -155.5l-42 -234h41l-13 -76h-37q-38 0 -54.5 23t-9.5 65l1 3 q-64 -106 -186 -106zM186 58q68 0 118 44t64 119l4 17l-159 -10q-115 -7 -115 -93q0 -77 88 -77zM276 560l-76 180h102l51 -180h-77z" glyph-name="agrave" horiz-adv-x="521" unicode="à"/><glyph d="M169 -15q-75 0 -117.5 38t-42.5 103q0 70 49.5 114.5t135.5 49.5l150 10q35 2 43 41q11 51 -17.5 76.5t-82.5 25.5q-57 0 -94.5 -25.5t-45.5 -72.5h-87q19 84 79 128t153 44q100 0 147.5 -51.5t29.5 -155.5l-42 -234h41l-13 -76h-37q-38 0 -54.5 23t-9.5 65l1 3 q-64 -106 -186 -106zM186 58q68 0 118 44t64 119l4 17l-159 -10q-115 -7 -115 -93q0 -77 88 -77zM256 560l112 180h103l-138 -180h-77z" glyph-name="aacute" horiz-adv-x="521" unicode="á"/><glyph d="M169 -15q-75 0 -117.5 38t-42.5 103q0 70 49.5 114.5t135.5 49.5l150 10q35 2 43 41q11 51 -17.5 76.5t-82.5 25.5q-57 0 -94.5 -25.5t-45.5 -72.5h-87q19 84 79 128t153 44q100 0 147.5 -51.5t29.5 -155.5l-42 -234h41l-13 -76h-37q-38 0 -54.5 23t-9.5 65l1 3 q-64 -106 -186 -106zM186 58q68 0 118 44t64 119l4 17l-159 -10q-115 -7 -115 -93q0 -77 88 -77zM133 560l149 180h109l85 -180h-75l-48 84q-11 19 -29 19t-34 -19l-78 -84h-79z" glyph-name="acircumflex" horiz-adv-x="521" unicode="â"/><glyph d="M169 -15q-75 0 -117.5 38t-42.5 103q0 70 49.5 114.5t135.5 49.5l150 10q35 2 43 41q11 51 -17.5 76.5t-82.5 25.5q-57 0 -94.5 -25.5t-45.5 -72.5h-87q19 84 79 128t153 44q100 0 147.5 -51.5t29.5 -155.5l-42 -234h41l-13 -76h-37q-38 0 -54.5 23t-9.5 65l1 3 q-64 -106 -186 -106zM186 58q68 0 118 44t64 119l4 17l-159 -10q-115 -7 -115 -93q0 -77 88 -77zM367 649q14 -13 28 -8.5t22 23.5l15 36h78q-19 -57 -55.5 -89t-75.5 -30.5t-77 28.5l-31 26q-15 12 -29 7.5t-22 -22.5l-15 -37h-77q29 85 92 111t117 -20z" glyph-name="atilde" horiz-adv-x="521" unicode="ã"/><glyph d="M169 -15q-75 0 -117.5 38t-42.5 103q0 70 49.5 114.5t135.5 49.5l150 10q35 2 43 41q11 51 -17.5 76.5t-82.5 25.5q-57 0 -94.5 -25.5t-45.5 -72.5h-87q19 84 79 128t153 44q100 0 147.5 -51.5t29.5 -155.5l-42 -234h41l-13 -76h-37q-38 0 -54.5 23t-9.5 65l1 3 q-64 -106 -186 -106zM186 58q68 0 118 44t64 119l4 17l-159 -10q-115 -7 -115 -93q0 -77 88 -77zM404 612q-21 0 -34 12t-13 31q0 25 20 44.5t46 19.5q21 0 33.5 -12.5t12.5 -31.5q0 -25 -19.5 -44t-45.5 -19zM223 612q-21 0 -34 12t-13 31q0 25 19.5 44.5t45.5 19.5 q21 0 34 -12.5t13 -31.5q0 -25 -19.5 -44t-45.5 -19z" glyph-name="adieresis" horiz-adv-x="521" unicode="ä"/><glyph d="M169 -15q-75 0 -117.5 38t-42.5 103q0 70 49.5 114.5t135.5 49.5l150 10q35 2 43 41q11 51 -17.5 76.5t-82.5 25.5q-57 0 -94.5 -25.5t-45.5 -72.5h-87q19 84 79 128t153 44q100 0 147.5 -51.5t29.5 -155.5l-42 -234h41l-13 -76h-37q-38 0 -54.5 23t-9.5 65l1 3 q-64 -106 -186 -106zM186 58q68 0 118 44t64 119l4 17l-159 -10q-115 -7 -115 -93q0 -77 88 -77zM307 547q-50 0 -83 28.5t-33 73.5q0 62 44.5 106t107.5 44q50 0 82.5 -28.5t32.5 -73.5q0 -62 -44 -106t-107 -44zM314 612q31 0 52.5 21t21.5 52q0 22 -14 35.5t-38 13.5 q-31 0 -52.5 -21.5t-21.5 -51.5q0 -22 14 -35.5t38 -13.5z" glyph-name="aring" horiz-adv-x="521" unicode="å"/><glyph d="M170 -15q-75 0 -118 37.5t-43 102.5q0 71 49.5 115.5t135.5 49.5l150 10q35 2 43 41q11 51 -17.5 76.5t-82.5 25.5q-57 0 -94.5 -25.5t-45.5 -72.5h-87q18 85 78.5 128.5t151.5 43.5q130 0 166 -87q74 87 189 87q112 0 164.5 -80t14.5 -211h-368q-9 -78 22 -122.5 t97 -44.5q51 0 86.5 25t51.5 58h91q-29 -70 -88 -113.5t-142 -43.5q-77 0 -127.5 38.5t-66.5 108.5q-66 -147 -210 -147zM186 58q69 0 120.5 44.5t61.5 118.5l3 17l-158 -10q-115 -7 -115 -93q0 -77 88 -77zM749 295q14 65 -16 107t-93 42q-60 0 -105.5 -40.5t-64.5 -108.5 h279z" glyph-name="ae" horiz-adv-x="858" unicode="æ"/><glyph d="M90 -200l27 57h92q42 0 42 31q0 25 -32 25h-74l38 77q-74 15 -116.5 70t-42.5 143q0 124 77.5 219t203.5 95q94 0 150.5 -54.5t51.5 -148.5h-85q2 58 -30.5 92.5t-88.5 34.5q-85 0 -137 -73t-52 -162q0 -68 33 -106.5t93 -38.5q57 0 102 35t62 95h88q-23 -91 -86.5 -146 t-154.5 -60l-14 -29h9q34 0 55 -17.5t21 -48.5q0 -41 -30.5 -65.5t-79.5 -24.5h-122z" glyph-name="ccedilla" horiz-adv-x="530" unicode="ç"/><glyph d="M234 -15q-97 0 -153.5 57t-56.5 158q0 77 30 147.5t96 120t154 49.5q116 0 169.5 -80t15.5 -211h-378q-9 -78 23.5 -122.5t101.5 -44.5q54 0 90 24.5t52 58.5h91q-28 -70 -88 -113.5t-147 -43.5zM289 560l-76 180h102l51 -180h-77zM126 295h288q14 65 -17 107t-96 42 q-63 0 -109.5 -40.5t-65.5 -108.5z" glyph-name="egrave" horiz-adv-x="524" unicode="è"/><glyph d="M234 -15q-97 0 -153.5 57t-56.5 158q0 77 30 147.5t96 120t154 49.5q116 0 169.5 -80t15.5 -211h-378q-9 -78 23.5 -122.5t101.5 -44.5q54 0 90 24.5t52 58.5h91q-28 -70 -88 -113.5t-147 -43.5zM269 560l112 180h103l-138 -180h-77zM126 295h288q14 65 -17 107t-96 42 q-63 0 -109.5 -40.5t-65.5 -108.5z" glyph-name="eacute" horiz-adv-x="524" unicode="é"/><glyph d="M234 -15q-97 0 -153.5 57t-56.5 158q0 77 30 147.5t96 120t154 49.5q116 0 169.5 -80t15.5 -211h-378q-9 -78 23.5 -122.5t101.5 -44.5q54 0 90 24.5t52 58.5h91q-28 -70 -88 -113.5t-147 -43.5zM145 560l149 180h109l85 -180h-75l-48 84q-11 19 -29 19t-34 -19l-78 -84 h-79zM126 295h288q14 65 -17 107t-96 42q-63 0 -109.5 -40.5t-65.5 -108.5z" glyph-name="ecircumflex" horiz-adv-x="524" unicode="ê"/><glyph d="M234 -15q-97 0 -153.5 57t-56.5 158q0 77 30 147.5t96 120t154 49.5q116 0 169.5 -80t15.5 -211h-378q-9 -78 23.5 -122.5t101.5 -44.5q54 0 90 24.5t52 58.5h91q-28 -70 -88 -113.5t-147 -43.5zM416 612q-21 0 -34 12t-13 31q0 25 20 44.5t46 19.5q21 0 33.5 -12.5 t12.5 -31.5q0 -25 -19.5 -44t-45.5 -19zM235 612q-21 0 -34 12t-13 31q0 25 19.5 44.5t45.5 19.5q21 0 34 -12.5t13 -31.5q0 -25 -19.5 -44t-45.5 -19zM126 295h288q14 65 -17 107t-96 42q-63 0 -109.5 -40.5t-65.5 -108.5z" glyph-name="edieresis" horiz-adv-x="524" unicode="ë"/><glyph d="M12 0l88 502h86l-89 -502h-85zM125 560l-76 180h102l51 -180h-77z" glyph-name="igrave" horiz-adv-x="198" unicode="ì"/><glyph d="M12 0l88 502h86l-89 -502h-85zM106 560l112 180h103l-138 -180h-77z" glyph-name="iacute" horiz-adv-x="198" unicode="í"/><glyph d="M12 0l88 502h86l-89 -502h-85zM-18 560l149 180h109l85 -180h-75l-48 84q-10 19 -28 19t-35 -19l-78 -84h-79z" glyph-name="icircumflex" horiz-adv-x="198" unicode="î"/><glyph d="M12 0l88 502h86l-89 -502h-85zM253 612q-21 0 -34 12t-13 31q0 25 20 44.5t46 19.5q21 0 33.5 -12.5t12.5 -31.5q0 -25 -19.5 -44t-45.5 -19zM72 612q-21 0 -34 12t-13 31q0 25 19.5 44.5t45.5 19.5q21 0 34 -12.5t13 -31.5q0 -25 -19.5 -44t-45.5 -19z" glyph-name="idieresis" horiz-adv-x="198" unicode="ï"/><glyph d="M230 -15q-95 0 -151.5 56t-56.5 155q0 115 71.5 204t189.5 89q60 0 104.5 -25.5t62.5 -70.5q3 112 -29 192l-109 -40l13 77l65 24q-31 48 -85 94h102q34 -28 57 -66l110 41l-12 -77l-67 -25q35 -89 35 -198q0 -58 -9.5 -115.5t-32 -115t-56 -101t-86 -71t-116.5 -27.5z M239 61q82 0 132 61t53 143q3 69 -31.5 109t-96.5 40q-82 0 -133 -65.5t-51 -150.5q0 -66 34 -101.5t93 -35.5z" glyph-name="eth" horiz-adv-x="538" unicode="ð"/><glyph d="M413 308q24 133 -93 133q-68 0 -115 -48.5t-64 -147.5l-44 -245h-85l88 502h79l-15 -83q60 98 176 98q88 0 131.5 -54t27.5 -145l-56 -318h-85zM389 649q14 -13 28 -8.5t22 23.5l15 36h78q-19 -57 -55.5 -89t-75.5 -30.5t-77 28.5l-31 26q-15 12 -29 7.5t-22 -22.5 l-15 -37h-77q29 85 92 111t117 -20z" glyph-name="ntilde" horiz-adv-x="533" unicode="ñ"/><glyph d="M238 -15q-98 0 -156 57t-58 162q0 80 32.5 150t100 116.5t155.5 46.5q98 0 156 -57t58 -161q0 -80 -33 -150.5t-100 -117t-155 -46.5zM243 61q88 0 141 71t53 163q0 69 -34 107.5t-96 38.5q-87 0 -140.5 -71t-53.5 -162q0 -69 34 -108t96 -39zM302 560l-76 180h102 l51 -180h-77z" glyph-name="ograve" horiz-adv-x="550" unicode="ò"/><glyph d="M238 -15q-98 0 -156 57t-58 162q0 80 32.5 150t100 116.5t155.5 46.5q98 0 156 -57t58 -161q0 -80 -33 -150.5t-100 -117t-155 -46.5zM243 61q88 0 141 71t53 163q0 69 -34 107.5t-96 38.5q-87 0 -140.5 -71t-53.5 -162q0 -69 34 -108t96 -39zM282 560l112 180h103 l-138 -180h-77z" glyph-name="oacute" horiz-adv-x="550" unicode="ó"/><glyph d="M238 -15q-98 0 -156 57t-58 162q0 80 32.5 150t100 116.5t155.5 46.5q98 0 156 -57t58 -161q0 -80 -33 -150.5t-100 -117t-155 -46.5zM243 61q88 0 141 71t53 163q0 69 -34 107.5t-96 38.5q-87 0 -140.5 -71t-53.5 -162q0 -69 34 -108t96 -39zM158 560l149 180h109 l85 -180h-75l-48 84q-10 19 -28 19t-35 -19l-78 -84h-79z" glyph-name="ocircumflex" horiz-adv-x="550" unicode="ô"/><glyph d="M238 -15q-98 0 -156 57t-58 162q0 80 32.5 150t100 116.5t155.5 46.5q98 0 156 -57t58 -161q0 -80 -33 -150.5t-100 -117t-155 -46.5zM243 61q88 0 141 71t53 163q0 69 -34 107.5t-96 38.5q-87 0 -140.5 -71t-53.5 -162q0 -69 34 -108t96 -39zM393 649q14 -13 28 -8.5 t22 23.5l15 36h78q-19 -57 -55.5 -89t-75.5 -30.5t-77 28.5l-31 26q-15 12 -29 7.5t-22 -22.5l-15 -37h-77q29 85 92 111t117 -20z" glyph-name="otilde" horiz-adv-x="550" unicode="õ"/><glyph d="M238 -15q-98 0 -156 57t-58 162q0 80 32.5 150t100 116.5t155.5 46.5q98 0 156 -57t58 -161q0 -80 -33 -150.5t-100 -117t-155 -46.5zM243 61q88 0 141 71t53 163q0 69 -34 107.5t-96 38.5q-87 0 -140.5 -71t-53.5 -162q0 -69 34 -108t96 -39zM429 612q-21 0 -34 12 t-13 31q0 25 20 44.5t46 19.5q21 0 33.5 -12.5t12.5 -31.5q0 -25 -19.5 -44t-45.5 -19zM248 612q-21 0 -34 12t-13 31q0 25 19.5 44.5t45.5 19.5q21 0 34 -12.5t13 -31.5q0 -25 -19.5 -44t-45.5 -19z" glyph-name="odieresis" horiz-adv-x="550" unicode="ö"/><glyph d="M66 305l13 76h418l-13 -76h-418zM242 113q-21 0 -33.5 11.5t-12.5 29.5q0 25 19 43.5t45 18.5q20 0 32 -11.5t12 -29.5q0 -25 -18 -43.5t-44 -18.5zM305 470q-21 0 -33.5 11.5t-12.5 29.5q0 25 19 43.5t45 18.5q20 0 32 -11.5t12 -29.5q0 -25 -18 -43.5t-44 -18.5z" glyph-name="divide" horiz-adv-x="531" unicode="÷"/><glyph d="M128 -86l-59 31l30 53q11 19 -4 32q-71 60 -71 173q0 127 78.5 220.5t211.5 93.5q26 0 42 -3q20 -4 33 18l30 55l61 -30l-29 -53q-11 -20 6 -33q69 -58 69 -170q0 -126 -78.5 -221t-206.5 -95q-17 0 -47 4q-21 2 -34 -18zM110 209q0 -77 40 -117l191 348 q-97 18 -164 -54.5t-67 -176.5zM210 62q96 -18 163 54.5t67 177.5q0 75 -40 115z" glyph-name="oslash" horiz-adv-x="550" unicode="ø"/><glyph d="M177 -15q-85 0 -126.5 53.5t-25.5 143.5l56 320h86l-55 -308q-12 -66 11 -99.5t76 -33.5q65 0 111 48.5t63 147.5l43 245h86l-89 -502h-78l15 83q-61 -98 -173 -98zM273 560l-76 180h102l51 -180h-77z" glyph-name="ugrave" horiz-adv-x="514" unicode="ù"/><glyph d="M177 -15q-85 0 -126.5 53.5t-25.5 143.5l56 320h86l-55 -308q-12 -66 11 -99.5t76 -33.5q65 0 111 48.5t63 147.5l43 245h86l-89 -502h-78l15 83q-61 -98 -173 -98zM254 560l112 180h103l-138 -180h-77z" glyph-name="uacute" horiz-adv-x="514" unicode="ú"/><glyph d="M177 -15q-85 0 -126.5 53.5t-25.5 143.5l56 320h86l-55 -308q-12 -66 11 -99.5t76 -33.5q65 0 111 48.5t63 147.5l43 245h86l-89 -502h-78l15 83q-61 -98 -173 -98zM130 560l149 180h109l85 -180h-75l-48 84q-10 19 -28 19t-35 -19l-78 -84h-79z" glyph-name="ucircumflex" horiz-adv-x="514" unicode="û"/><glyph d="M177 -15q-85 0 -126.5 53.5t-25.5 143.5l56 320h86l-55 -308q-12 -66 11 -99.5t76 -33.5q65 0 111 48.5t63 147.5l43 245h86l-89 -502h-78l15 83q-61 -98 -173 -98zM401 612q-21 0 -34 12t-13 31q0 25 20 44.5t46 19.5q21 0 33.5 -12.5t12.5 -31.5q0 -25 -19.5 -44 t-45.5 -19zM220 612q-21 0 -34 12t-13 31q0 25 19.5 44.5t45.5 19.5q21 0 34 -12.5t13 -31.5q0 -25 -19.5 -44t-45.5 -19z" glyph-name="udieresis" horiz-adv-x="514" unicode="ü"/><glyph d="M146 -23q19 36 13 63l-106 462h88l82 -381h4l203 381h93l-384 -702h-90zM251 560l112 180h103l-138 -180h-77z" glyph-name="yacute" horiz-adv-x="488" unicode="ý"/><glyph d="M275 -15q-120 0 -164 93l-49 -278h-85l158 900h86l-46 -259q69 76 169 76q89 0 143 -57.5t54 -163.5q0 -125 -72 -218t-194 -93zM271 61q85 0 132.5 69.5t47.5 160.5q0 73 -33.5 111.5t-93.5 38.5q-84 0 -136.5 -69t-52.5 -158q0 -72 37 -112.5t99 -40.5z" glyph-name="thorn" horiz-adv-x="566" unicode="þ"/><glyph d="M146 -23q19 36 13 63l-106 462h88l82 -381h4l203 381h93l-384 -702h-90zM398 612q-21 0 -34 12t-13 31q0 25 20 44.5t46 19.5q21 0 33.5 -12.5t12.5 -31.5q0 -25 -19.5 -44t-45.5 -19zM217 612q-21 0 -34 12t-13 31q0 25 19.5 44.5t45.5 19.5q21 0 34 -12.5t13 -31.5 q0 -25 -19.5 -44t-45.5 -19z" glyph-name="ydieresis" horiz-adv-x="488" unicode="ÿ"/><glyph d="M-34 0l401 700h103l155 -700h-94l-46 210h-298l-118 -210h-103zM299 827l13 71h286l-13 -71h-286zM229 291h242l-66 306h-4z" glyph-name="Amacron" horiz-adv-x="679" unicode="Ā"/><glyph d="M169 -15q-75 0 -117.5 38t-42.5 103q0 70 49.5 114.5t135.5 49.5l150 10q35 2 43 41q11 51 -17.5 76.5t-82.5 25.5q-57 0 -94.5 -25.5t-45.5 -72.5h-87q19 84 79 128t153 44q100 0 147.5 -51.5t29.5 -155.5l-42 -234h41l-13 -76h-37q-38 0 -54.5 23t-9.5 65l1 3 q-64 -106 -186 -106zM186 58q68 0 118 44t64 119l4 17l-159 -10q-115 -7 -115 -93q0 -77 88 -77zM174 629l13 71h286l-13 -71h-286z" glyph-name="amacron" horiz-adv-x="521" unicode="ā"/><glyph d="M-34 0l401 700h103l155 -700h-94l-46 210h-298l-118 -210h-103zM436 758q-78 0 -120.5 50.5t-28.5 129.5h73q-9 -51 13 -83t67 -32q46 0 79 32t42 83h73q-15 -80 -68 -130t-130 -50zM229 291h242l-66 306h-4z" glyph-name="Abreve" horiz-adv-x="679" unicode="Ă"/><glyph d="M169 -15q-75 0 -117.5 38t-42.5 103q0 70 49.5 114.5t135.5 49.5l150 10q35 2 43 41q11 51 -17.5 76.5t-82.5 25.5q-57 0 -94.5 -25.5t-45.5 -72.5h-87q19 84 79 128t153 44q100 0 147.5 -51.5t29.5 -155.5l-42 -234h41l-13 -76h-37q-38 0 -54.5 23t-9.5 65l1 3 q-64 -106 -186 -106zM186 58q68 0 118 44t64 119l4 17l-159 -10q-115 -7 -115 -93q0 -77 88 -77zM311 560q-78 0 -120.5 50.5t-28.5 129.5h73q-9 -51 13 -83t67 -32q46 0 79 32t42 83h73q-15 -80 -68 -130t-130 -50z" glyph-name="abreve" horiz-adv-x="521" unicode="ă"/><glyph d="M-34 0l401 700h103l155 -700l-72 -59q-34 -27 -34 -54q0 -30 42 -30h39l-10 -57h-60q-41 0 -64 19.5t-23 53.5q0 51 59 97l37 30h-8l-46 210h-298l-118 -210h-103zM229 291h242l-66 306h-4z" glyph-name="Aogonek" horiz-adv-x="679" unicode="Ą"/><glyph d="M169 -15q-75 0 -117.5 38t-42.5 103q0 70 49.5 114.5t135.5 49.5l150 10q35 2 43 41q11 51 -17.5 76.5t-82.5 25.5q-57 0 -94.5 -25.5t-45.5 -72.5h-87q19 84 79 128t153 44q100 0 147.5 -51.5t29.5 -155.5l-42 -234h41l-13 -76h-1l-72 -59q-34 -27 -34 -54q0 -30 42 -30 h39l-10 -57h-60q-41 0 -64 19.5t-23 53.5q0 51 59 97l48 39q-36 20 -25 79l1 3q-64 -106 -186 -106zM186 58q68 0 118 44t64 119l4 17l-159 -10q-115 -7 -115 -93q0 -77 88 -77z" glyph-name="aogonek" horiz-adv-x="521" unicode="ą"/><glyph d="M323 -15q-131 0 -207.5 76t-76.5 216q0 110 45 208.5t136 164t209 65.5q130 0 206 -77t66 -200h-90q4 89 -45.5 141.5t-139.5 52.5q-88 0 -156 -53t-101 -132.5t-33 -167.5q0 -100 48 -155.5t141 -55.5q94 0 164 54.5t95 142.5h94q-35 -128 -129 -204t-226 -76zM401 758 l112 180h103l-138 -180h-77z" glyph-name="Cacute" horiz-adv-x="703" unicode="Ć"/><glyph d="M235 -15q-96 0 -153.5 57t-57.5 161q0 124 77.5 219t203.5 95q94 0 150.5 -54.5t51.5 -148.5h-85q2 58 -30.5 92.5t-88.5 34.5q-85 0 -137 -73t-52 -162q0 -68 33 -106.5t93 -38.5q57 0 102 35t62 95h88q-24 -95 -92.5 -150.5t-164.5 -55.5zM272 560l112 180h103 l-138 -180h-77z" glyph-name="cacute" horiz-adv-x="530" unicode="ć"/><glyph d="M323 -15q-131 0 -207.5 76t-76.5 216q0 110 45 208.5t136 164t209 65.5q130 0 206 -77t66 -200h-90q4 89 -45.5 141.5t-139.5 52.5q-88 0 -156 -53t-101 -132.5t-33 -167.5q0 -100 48 -155.5t141 -55.5q94 0 164 54.5t95 142.5h94q-35 -128 -129 -204t-226 -76zM278 758 l149 180h109l85 -180h-75l-48 84q-11 19 -28.5 19t-34.5 -19l-78 -84h-79z" glyph-name="Ccircumflex" horiz-adv-x="703" unicode="Ĉ"/><glyph d="M235 -15q-96 0 -153.5 57t-57.5 161q0 124 77.5 219t203.5 95q94 0 150.5 -54.5t51.5 -148.5h-85q2 58 -30.5 92.5t-88.5 34.5q-85 0 -137 -73t-52 -162q0 -68 33 -106.5t93 -38.5q57 0 102 35t62 95h88q-24 -95 -92.5 -150.5t-164.5 -55.5zM149 560l149 180h109l85 -180 h-75l-48 84q-10 19 -28.5 19t-34.5 -19l-78 -84h-79z" glyph-name="ccircumflex" horiz-adv-x="530" unicode="ĉ"/><glyph d="M323 -15q-131 0 -207.5 76t-76.5 216q0 110 45 208.5t136 164t209 65.5q130 0 206 -77t66 -200h-90q4 89 -45.5 141.5t-139.5 52.5q-88 0 -156 -53t-101 -132.5t-33 -167.5q0 -100 48 -155.5t141 -55.5q94 0 164 54.5t95 142.5h94q-35 -128 -129 -204t-226 -76zM458 810 q-21 0 -34 12t-13 31q0 25 19.5 44.5t45.5 19.5q21 0 34 -12.5t13 -31.5q0 -25 -19.5 -44t-45.5 -19z" glyph-name="Cdotaccent" horiz-adv-x="703" unicode="Ċ"/><glyph d="M235 -15q-96 0 -153.5 57t-57.5 161q0 124 77.5 219t203.5 95q94 0 150.5 -54.5t51.5 -148.5h-85q2 58 -30.5 92.5t-88.5 34.5q-85 0 -137 -73t-52 -162q0 -68 33 -106.5t93 -38.5q57 0 102 35t62 95h88q-24 -95 -92.5 -150.5t-164.5 -55.5zM329 612q-21 0 -34 12t-13 31 q0 25 19.5 44.5t45.5 19.5q21 0 34 -12.5t13 -31.5q0 -25 -19.5 -44t-45.5 -19z" glyph-name="cdotaccent" horiz-adv-x="530" unicode="ċ"/><glyph d="M323 -15q-131 0 -207.5 76t-76.5 216q0 110 45 208.5t136 164t209 65.5q130 0 206 -77t66 -200h-90q4 89 -45.5 141.5t-139.5 52.5q-88 0 -156 -53t-101 -132.5t-33 -167.5q0 -100 48 -155.5t141 -55.5q94 0 164 54.5t95 142.5h94q-35 -128 -129 -204t-226 -76zM394 758 l-85 180h75l48 -84q11 -19 28.5 -19t34.5 19l78 84h80l-150 -180h-109z" glyph-name="Ccaron" horiz-adv-x="703" unicode="Č"/><glyph d="M235 -15q-96 0 -153.5 57t-57.5 161q0 124 77.5 219t203.5 95q94 0 150.5 -54.5t51.5 -148.5h-85q2 58 -30.5 92.5t-88.5 34.5q-85 0 -137 -73t-52 -162q0 -68 33 -106.5t93 -38.5q57 0 102 35t62 95h88q-24 -95 -92.5 -150.5t-164.5 -55.5zM265 560l-85 180h75l48 -84 q10 -19 28 -19t35 19l78 84h80l-150 -180h-109z" glyph-name="ccaron" horiz-adv-x="530" unicode="č"/><glyph d="M12 0l123 700h231q140 0 217 -75t77 -214q0 -74 -22.5 -143.5t-69.5 -131t-131 -99t-194 -37.5h-231zM236 82q86 0 151.5 27.5t103 74.5t55.5 102t18 116q0 216 -222 216h-130l-95 -536h119zM351 758l-85 180h75l48 -84q11 -19 28.5 -19t34.5 19l78 84h80l-150 -180h-109 z" glyph-name="Dcaron" horiz-adv-x="666" unicode="Ď"/><glyph d="M222 -15q-89 0 -143 57.5t-54 163.5q0 125 72 218t194 93q120 0 164 -95l48 278h86l-124 -700h-78l13 73q-69 -88 -178 -88zM242 60q84 0 136 69t52 159q0 73 -36.5 113t-98.5 40q-86 0 -133.5 -70t-47.5 -160q0 -73 33.5 -112t94.5 -39zM635 474l40 226h84l-61 -226h-63 z" glyph-name="dcaron" horiz-adv-x="710" unicode="ď"/><glyph d="M12 0l123 700h231q140 0 217 -75t77 -214q0 -74 -22.5 -143.5t-69.5 -131t-131 -99t-194 -37.5h-231zM236 82q86 0 151.5 27.5t103 74.5t55.5 102t18 116q0 216 -222 216h-130l-33 -185q-5 -36 32 -36h138l-12 -71h-139q-37 0 -43 -33l-38 -211h119z" glyph-name="Dcroat" horiz-adv-x="666" unicode="Đ"/><glyph d="M222 -15q-89 0 -143 57.5t-54 163.5q0 125 72 218t194 93q120 0 164 -95l25 144h-151l12 71h151l11 63h86l-11 -63h71l-12 -71h-72l-100 -566h-78l13 73q-69 -88 -178 -88zM242 60q84 0 136 69t52 159q0 73 -36.5 113t-98.5 40q-86 0 -133.5 -70t-47.5 -160 q0 -73 33.5 -112t94.5 -39z" glyph-name="dcroat" horiz-adv-x="566" unicode="đ"/><glyph d="M12 0l123 700h497l-14 -82h-406l-39 -219h365l-13 -80h-366l-42 -237h416l-14 -82h-507zM268 827l13 71h286l-13 -71h-286z" glyph-name="Emacron" horiz-adv-x="581" unicode="Ē"/><glyph d="M234 -15q-97 0 -153.5 57t-56.5 158q0 77 30 147.5t96 120t154 49.5q116 0 169.5 -80t15.5 -211h-378q-9 -78 23.5 -122.5t101.5 -44.5q54 0 90 24.5t52 58.5h91q-28 -70 -88 -113.5t-147 -43.5zM186 629l13 71h286l-13 -71h-286zM126 295h288q14 65 -17 107t-96 42 q-63 0 -109.5 -40.5t-65.5 -108.5z" glyph-name="emacron" horiz-adv-x="524" unicode="ē"/><glyph d="M12 0l123 700h497l-14 -82h-406l-39 -219h365l-13 -80h-366l-42 -237h416l-14 -82h-507zM405 758q-78 0 -120.5 50.5t-28.5 129.5h73q-9 -51 13 -83t67 -32q46 0 79 32t42 83h73q-15 -80 -68 -130t-130 -50z" glyph-name="Ebreve" horiz-adv-x="581" unicode="Ĕ"/><glyph d="M234 -15q-97 0 -153.5 57t-56.5 158q0 77 30 147.5t96 120t154 49.5q116 0 169.5 -80t15.5 -211h-378q-9 -78 23.5 -122.5t101.5 -44.5q54 0 90 24.5t52 58.5h91q-28 -70 -88 -113.5t-147 -43.5zM324 560q-78 0 -120.5 50.5t-28.5 129.5h73q-9 -51 13 -83t67 -32 q46 0 79 32t42 83h73q-15 -80 -68 -130t-130 -50zM126 295h288q14 65 -17 107t-96 42q-63 0 -109.5 -40.5t-65.5 -108.5z" glyph-name="ebreve" horiz-adv-x="524" unicode="ĕ"/><glyph d="M12 0l123 700h497l-14 -82h-406l-39 -219h365l-13 -80h-366l-42 -237h416l-14 -82h-507zM408 810q-21 0 -34 12t-13 31q0 25 19.5 44.5t45.5 19.5q21 0 34 -12.5t13 -31.5q0 -25 -19.5 -44t-45.5 -19z" glyph-name="Edotaccent" horiz-adv-x="581" unicode="Ė"/><glyph d="M234 -15q-97 0 -153.5 57t-56.5 158q0 77 30 147.5t96 120t154 49.5q116 0 169.5 -80t15.5 -211h-378q-9 -78 23.5 -122.5t101.5 -44.5q54 0 90 24.5t52 58.5h91q-28 -70 -88 -113.5t-147 -43.5zM326 612q-21 0 -34 12t-13 31q0 25 19.5 44.5t45.5 19.5q21 0 34 -12.5 t13 -31.5q0 -25 -19.5 -44t-45.5 -19zM126 295h288q14 65 -17 107t-96 42q-63 0 -109.5 -40.5t-65.5 -108.5z" glyph-name="edotaccent" horiz-adv-x="524" unicode="ė"/><glyph d="M12 0l123 700h497l-14 -82h-406l-39 -219h365l-13 -80h-366l-42 -237h416l-14 -82h-1l-72 -59q-34 -27 -34 -54q0 -30 42 -30h39l-10 -57h-60q-41 0 -64 19.5t-23 53.5q0 51 59 97l37 30h-420z" glyph-name="Eogonek" horiz-adv-x="581" unicode="Ę"/><glyph d="M189 -200q-41 0 -64 19.5t-23 53.5q0 51 59 97l24 19q-76 14 -118.5 68.5t-42.5 142.5q0 77 30 147.5t96 120t154 49.5q116 0 169.5 -80t15.5 -211h-378q-9 -78 23.5 -122.5t101.5 -44.5q54 0 90 24.5t52 58.5h91q-25 -63 -76 -104.5t-125 -50.5l-56 -46q-34 -27 -34 -54 q0 -30 42 -30h39l-10 -57h-60zM126 295h288q14 65 -17 107t-96 42q-63 0 -109.5 -40.5t-65.5 -108.5z" glyph-name="eogonek" horiz-adv-x="524" unicode="ę"/><glyph d="M12 0l123 700h497l-14 -82h-406l-39 -219h365l-13 -80h-366l-42 -237h416l-14 -82h-507zM343 758l-85 180h75l48 -84q11 -19 28.5 -19t34.5 19l78 84h80l-150 -180h-109z" glyph-name="Ecaron" horiz-adv-x="581" unicode="Ě"/><glyph d="M234 -15q-97 0 -153.5 57t-56.5 158q0 77 30 147.5t96 120t154 49.5q116 0 169.5 -80t15.5 -211h-378q-9 -78 23.5 -122.5t101.5 -44.5q54 0 90 24.5t52 58.5h91q-28 -70 -88 -113.5t-147 -43.5zM261 560l-85 180h75l48 -84q11 -19 28.5 -19t34.5 19l78 84h80l-150 -180 h-109zM126 295h288q14 65 -17 107t-96 42q-63 0 -109.5 -40.5t-65.5 -108.5z" glyph-name="ecaron" horiz-adv-x="524" unicode="ě"/><glyph d="M313 -15q-127 0 -200.5 76t-73.5 215q0 82 27 160t75.5 140.5t124.5 100.5t167 38q123 0 198.5 -65.5t75.5 -174.5h-92q-2 71 -51 114t-132 43q-90 0 -159 -52t-103 -131t-34 -168q0 -102 49.5 -157.5t144.5 -55.5q99 0 168 59t93 163h-215l14 79h309l-65 -369h-78 l25 143q-38 -79 -108 -118.5t-160 -39.5zM271 758l149 180h109l85 -180h-75l-48 84q-11 19 -29 19t-34 -19l-78 -84h-79z" glyph-name="Gcircumflex" horiz-adv-x="725" unicode="Ĝ"/><glyph d="M193 -200q-103 0 -154.5 55.5t-46.5 132.5h81q-1 -53 29 -85t95 -32q73 0 122.5 41.5t62.5 117.5l14 78q-75 -89 -186 -89q-86 0 -135.5 50.5t-49.5 137.5q0 131 79 220.5t193 89.5q123 0 160 -99l15 84h73l-80 -455q-21 -116 -91 -181.5t-181 -65.5zM234 90 q81 0 137.5 64t56.5 156q0 62 -35 98.5t-96 36.5q-79 0 -133.5 -64t-54.5 -158q0 -62 33 -97.5t92 -35.5zM167 560l149 180h109l85 -180h-75l-48 84q-11 19 -29 19t-34 -19l-78 -84h-79z" glyph-name="gcircumflex" horiz-adv-x="557" unicode="ĝ"/><glyph d="M313 -15q-127 0 -200.5 76t-73.5 215q0 82 27 160t75.5 140.5t124.5 100.5t167 38q123 0 198.5 -65.5t75.5 -174.5h-92q-2 71 -51 114t-132 43q-90 0 -159 -52t-103 -131t-34 -168q0 -102 49.5 -157.5t144.5 -55.5q99 0 168 59t93 163h-215l14 79h309l-65 -369h-78 l25 143q-38 -79 -108 -118.5t-160 -39.5zM450 758q-78 0 -120.5 50.5t-28.5 129.5h73q-9 -51 13 -83t67 -32q46 0 79 32t42 83h73q-15 -80 -68 -130t-130 -50z" glyph-name="Gbreve" horiz-adv-x="725" unicode="Ğ"/><glyph d="M193 -200q-103 0 -154.5 55.5t-46.5 132.5h81q-1 -53 29 -85t95 -32q73 0 122.5 41.5t62.5 117.5l14 78q-75 -89 -186 -89q-86 0 -135.5 50.5t-49.5 137.5q0 131 79 220.5t193 89.5q123 0 160 -99l15 84h73l-80 -455q-21 -116 -91 -181.5t-181 -65.5zM234 90 q81 0 137.5 64t56.5 156q0 62 -35 98.5t-96 36.5q-79 0 -133.5 -64t-54.5 -158q0 -62 33 -97.5t92 -35.5zM346 560q-78 0 -120.5 50.5t-28.5 129.5h73q-9 -51 13 -83t67 -32q46 0 79 32t42 83h73q-15 -80 -68 -130t-130 -50z" glyph-name="gbreve" horiz-adv-x="557" unicode="ğ"/><glyph d="M313 -15q-127 0 -200.5 76t-73.5 215q0 82 27 160t75.5 140.5t124.5 100.5t167 38q123 0 198.5 -65.5t75.5 -174.5h-92q-2 71 -51 114t-132 43q-90 0 -159 -52t-103 -131t-34 -168q0 -102 49.5 -157.5t144.5 -55.5q99 0 168 59t93 163h-215l14 79h309l-65 -369h-78 l25 143q-38 -79 -108 -118.5t-160 -39.5zM452 810q-21 0 -34 12t-13 31q0 25 19.5 44.5t45.5 19.5q21 0 34 -12.5t13 -31.5q0 -25 -19.5 -44t-45.5 -19z" glyph-name="Gdotaccent" horiz-adv-x="725" unicode="Ġ"/><glyph d="M193 -200q-103 0 -154.5 55.5t-46.5 132.5h81q-1 -53 29 -85t95 -32q73 0 122.5 41.5t62.5 117.5l14 78q-75 -89 -186 -89q-86 0 -135.5 50.5t-49.5 137.5q0 131 79 220.5t193 89.5q123 0 160 -99l15 84h73l-80 -455q-21 -116 -91 -181.5t-181 -65.5zM234 90 q81 0 137.5 64t56.5 156q0 62 -35 98.5t-96 36.5q-79 0 -133.5 -64t-54.5 -158q0 -62 33 -97.5t92 -35.5zM348 612q-21 0 -34 12t-13 31q0 25 19.5 44.5t45.5 19.5q21 0 34 -12.5t13 -31.5q0 -25 -19.5 -44t-45.5 -19z" glyph-name="gdotaccent" horiz-adv-x="557" unicode="ġ"/><glyph d="M313 -15q-127 0 -200.5 76t-73.5 215q0 82 27 160t75.5 140.5t124.5 100.5t167 38q123 0 198.5 -65.5t75.5 -174.5h-92q-2 71 -51 114t-132 43q-90 0 -159 -52t-103 -131t-34 -168q0 -102 49.5 -157.5t144.5 -55.5q99 0 168 59t93 163h-215l14 79h309l-65 -369h-78 l25 143q-38 -79 -108 -118.5t-160 -39.5zM189 -238l112 180h103l-138 -180h-77z" glyph-name="uni0122" horiz-adv-x="725" unicode="Ģ"/><glyph d="M193 -200q-103 0 -154.5 55.5t-46.5 132.5h81q-1 -53 29 -85t95 -32q73 0 122.5 41.5t62.5 117.5l14 78q-75 -89 -186 -89q-86 0 -135.5 50.5t-49.5 137.5q0 131 79 220.5t193 89.5q123 0 160 -99l15 84h73l-80 -455q-21 -116 -91 -181.5t-181 -65.5zM234 90 q81 0 137.5 64t56.5 156q0 62 -35 98.5t-96 36.5q-79 0 -133.5 -64t-54.5 -158q0 -62 33 -97.5t92 -35.5zM494 740l-113 -180h-102l138 180h77z" glyph-name="uni0123" horiz-adv-x="557" unicode="ģ"/><glyph d="M486 0l57 319h-384l-56 -319h-91l123 700h91l-52 -298h383l52 298h91l-123 -700h-91zM256 758l149 180h109l85 -180h-75l-48 84q-10 19 -28 19t-35 -19l-78 -84h-79z" glyph-name="Hcircumflex" horiz-adv-x="678" unicode="Ĥ"/><glyph d="M412 308q24 133 -92 133q-68 0 -115 -48.5t-64 -147.5l-44 -245h-85l123 700h86l-47 -266q59 83 166 83q85 0 130 -52.5t28 -146.5l-55 -318h-86zM17 758l149 180h109l85 -180h-75l-48 84q-10 19 -28.5 19t-34.5 -19l-78 -84h-79z" glyph-name="hcircumflex" horiz-adv-x="532" unicode="ĥ"/><glyph d="M520 0l57 319h-384l-56 -319h-91l89 506h-81l13 70h80l22 124h91l-22 -124h383l22 124h91l-22 -124h82l-13 -70h-81l-89 -506h-91zM208 402h383l18 104h-383z" glyph-name="Hbar" horiz-adv-x="745" unicode="Ħ"/><glyph d="M412 308q24 133 -92 133q-68 0 -115 -48.5t-64 -147.5l-44 -245h-85l99 566h-71l12 71h72l11 63h86l-11 -63h151l-12 -71h-152l-23 -132q59 83 166 83q85 0 130 -52.5t28 -146.5l-55 -318h-86z" glyph-name="hbar" horiz-adv-x="532" unicode="ħ"/><glyph d="M12 0l123 700h91l-123 -700h-91zM253 847q14 -13 28 -8.5t22 23.5l15 36h78q-19 -57 -55.5 -89t-75.5 -30.5t-77 28.5l-31 26q-15 12 -29 7.5t-22 -22.5l-15 -37h-77q29 85 92 111t117 -20z" glyph-name="Itilde" horiz-adv-x="203" unicode="Ĩ"/><glyph d="M12 0l88 502h86l-89 -502h-85zM216 649q14 -13 28 -8.5t22 23.5l15 36h78q-19 -57 -55.5 -89t-75.5 -30.5t-77 28.5l-31 26q-15 12 -29 7.5t-22 -22.5l-15 -37h-77q29 85 92 111t117 -20z" glyph-name="itilde" horiz-adv-x="198" unicode="ĩ"/><glyph d="M12 0l123 700h91l-123 -700h-91zM60 827l13 71h286l-13 -71h-286z" glyph-name="Imacron" horiz-adv-x="203" unicode="Ī"/><glyph d="M12 0l88 502h86l-89 -502h-85zM23 629l13 71h286l-13 -71h-286z" glyph-name="imacron" horiz-adv-x="198" unicode="ī"/><glyph d="M12 0l123 700h91l-123 -700h-91zM198 758q-78 0 -120.5 50.5t-28.5 129.5h73q-9 -51 13 -83t67 -32q46 0 79 32t42 83h73q-15 -80 -68 -130t-130 -50z" glyph-name="Ibreve" horiz-adv-x="203" unicode="Ĭ"/><glyph d="M12 0l88 502h86l-89 -502h-85zM161 560q-78 0 -120.5 50.5t-28.5 129.5h73q-9 -51 13 -83t67 -32q46 0 79 32t42 83h73q-15 -80 -68 -130t-130 -50z" glyph-name="ibreve" horiz-adv-x="198" unicode="ĭ"/><glyph d="M8 -200q-41 0 -64.5 20.5t-23.5 54.5q0 55 57 101l36 29l122 695h91l-123 -700l-72 -59q-34 -27 -34 -54q0 -30 41 -30h40l-11 -57h-59z" glyph-name="Iogonek" horiz-adv-x="203" unicode="Į"/><glyph d="M163 612q-21 0 -34 12t-13 31q0 25 19.5 44.5t45.5 19.5q21 0 34 -12.5t13 -31.5q0 -25 -19.5 -44t-45.5 -19zM2 -200q-41 0 -64.5 20.5t-23.5 54.5q0 55 57 101l43 35l86 491h86l-89 -502l-72 -59q-34 -27 -34 -54q0 -30 41 -30h40l-11 -57h-59z" glyph-name="iogonek" horiz-adv-x="198" unicode="į"/><glyph d="M12 0l123 700h91l-123 -700h-91zM200 810q-21 0 -34 12t-13 31q0 25 19.5 44.5t45.5 19.5q21 0 34 -12.5t13 -31.5q0 -25 -19.5 -44t-45.5 -19z" glyph-name="Idotaccent" horiz-adv-x="203" unicode="İ"/><glyph d="M12 0l88 502h86l-89 -502h-85z" glyph-name="dotlessi" horiz-adv-x="198" unicode="ı"/><glyph d="M12 0l123 700h91l-123 -700h-91zM571 218l86 482h91l-86 -491q-19 -110 -90 -167t-168 -57q-104 0 -155.5 63t-33.5 172l11 60h91l-11 -63q-26 -149 108 -149q130 0 157 150z" glyph-name="IJ" horiz-adv-x="716" unicode="Ĳ"/><glyph d="M12 0l88 502h86l-89 -502h-85zM163 612q-21 0 -34 12t-13 31q0 25 19.5 44.5t45.5 19.5q21 0 34 -12.5t13 -31.5q0 -25 -19.5 -44t-45.5 -19zM86 -200l13 76h58q32 0 37 30l104 596h86l-99 -559q-12 -67 -56.5 -105t-118.5 -38h-24zM360 612q-21 0 -34 12t-13 31 q0 25 19.5 44.5t45.5 19.5q21 0 34 -12.5t13 -31.5q0 -25 -19.5 -44t-45.5 -19z" glyph-name="ij" horiz-adv-x="395" unicode="ĳ"/><glyph d="M368 218l86 482h91l-86 -491q-19 -110 -90 -167t-168 -57q-104 0 -155.5 63t-33.5 172l11 60h91l-11 -63q-26 -149 108 -149q130 0 157 150zM338 758l149 180h109l85 -180h-75l-48 84q-10 19 -28.5 19t-34.5 -19l-78 -84h-79z" glyph-name="Jcircumflex" horiz-adv-x="513" unicode="Ĵ"/><glyph d="M-112 -200l13 76h58q32 0 37 30l104 596h86l-99 -559q-12 -67 -56.5 -105t-118.5 -38h-24zM-18 560l149 180h109l85 -180h-75l-48 84q-10 19 -28 19t-35 -19l-78 -84h-79z" glyph-name="jcircumflex" horiz-adv-x="198" unicode="ĵ"/><glyph d="M378 350q-7 17 -19 20t-27 -10l-197 -179l-32 -181h-91l123 700h91l-69 -392l418 392h113l-227 -215q-28 -26 -17 -57l159 -428h-98zM143 -238l112 180h103l-138 -180h-77z" glyph-name="uni0136" horiz-adv-x="657" unicode="Ķ"/><glyph d="M289 239q-6 17 -19 19t-28 -12l-122 -107l-25 -139h-83l123 700h83l-80 -457l291 259h106l-161 -144q-28 -25 -17 -55l108 -303h-94zM98 -238l112 180h103l-138 -180h-77z" glyph-name="uni0137" horiz-adv-x="518" unicode="ķ"/><glyph d="M289 239q-6 17 -19 19t-28 -12l-122 -107l-25 -139h-83l88 502h84l-46 -259l291 259h106l-161 -144q-28 -25 -17 -55l108 -303h-94z" glyph-name="kgreenlandic" horiz-adv-x="518" unicode="ĸ"/><glyph d="M12 0l123 700h91l-102 -577q-6 -40 34 -40h324l-14 -83h-456zM143 758l112 180h103l-138 -180h-77z" glyph-name="Lacute" horiz-adv-x="532" unicode="Ĺ"/><glyph d="M105 0q-45 0 -64.5 25t-11.5 71l106 604h86l-111 -624h45l-13 -76h-37zM140 758l112 180h103l-138 -180h-77z" glyph-name="lacute" horiz-adv-x="208" unicode="ĺ"/><glyph d="M12 0l123 700h91l-102 -577q-6 -40 34 -40h324l-14 -83h-456zM104 -238l112 180h103l-138 -180h-77z" glyph-name="uni013B" horiz-adv-x="532" unicode="Ļ"/><glyph d="M105 0q-45 0 -64.5 25t-11.5 71l106 604h86l-111 -624h45l-13 -76h-37zM-59 -238l112 180h103l-138 -180h-77z" glyph-name="uni013C" horiz-adv-x="208" unicode="ļ"/><glyph d="M12 0l123 700h91l-102 -577q-6 -40 34 -40h324l-14 -83h-456zM464 474l40 226h84l-61 -226h-63z" glyph-name="Lcaron" horiz-adv-x="532" unicode="Ľ"/><glyph d="M105 0q-45 0 -64.5 25t-11.5 71l106 604h86l-111 -624h45l-13 -76h-37zM266 474l40 226h84l-61 -226h-63z" glyph-name="lcaron" horiz-adv-x="342" unicode="ľ"/><glyph d="M12 0l123 700h91l-102 -577q-6 -40 34 -40h324l-14 -83h-456zM376 323q-22 0 -35 12t-13 32q0 26 20 45.5t48 19.5q21 0 34 -12t13 -32q0 -26 -19.5 -45.5t-47.5 -19.5z" glyph-name="Ldot" horiz-adv-x="532" unicode="Ŀ"/><glyph d="M105 0q-45 0 -64.5 25t-11.5 71l106 604h86l-111 -624h45l-13 -76h-37zM316 325q-22 0 -35 12t-13 32q0 26 20 45.5t48 19.5q21 0 34 -12t13 -32q0 -26 -19.5 -45.5t-47.5 -19.5z" glyph-name="ldot" horiz-adv-x="397" unicode="ŀ"/><glyph d="M12 0l123 700h91l-52 -294l254 84l-13 -78l-255 -84l-36 -205q-6 -40 34 -40h324l-14 -83h-456z" glyph-name="Lslash" horiz-adv-x="532" unicode="Ł"/><glyph d="M125 0q-45 0 -64.5 25t-11.5 71l43 243l-71 -23l13 71l70 23l51 290h86l-46 -260l67 22l-12 -71l-68 -22l-52 -293h45l-13 -76h-37z" glyph-name="lslash" horiz-adv-x="235" unicode="ł"/><glyph d="M482 0l-277 590l-104 -590h-89l123 700h109l268 -566l99 566h89l-123 -700h-95zM380 758l112 180h103l-138 -180h-77z" glyph-name="Nacute" horiz-adv-x="678" unicode="Ń"/><glyph d="M413 308q24 133 -93 133q-68 0 -115 -48.5t-64 -147.5l-44 -245h-85l88 502h79l-15 -83q60 98 176 98q88 0 131.5 -54t27.5 -145l-56 -318h-85zM279 560l112 180h103l-138 -180h-77z" glyph-name="nacute" horiz-adv-x="533" unicode="ń"/><glyph d="M482 0l-277 590l-104 -590h-89l123 700h109l268 -566l99 566h89l-123 -700h-95zM158 -238l112 180h103l-138 -180h-77z" glyph-name="uni0145" horiz-adv-x="678" unicode="Ņ"/><glyph d="M413 308q24 133 -93 133q-68 0 -115 -48.5t-64 -147.5l-44 -245h-85l88 502h79l-15 -83q60 98 176 98q88 0 131.5 -54t27.5 -145l-56 -318h-85zM91 -238l112 180h103l-138 -180h-77z" glyph-name="uni0146" horiz-adv-x="533" unicode="ņ"/><glyph d="M482 0l-277 590l-104 -590h-89l123 700h109l268 -566l99 566h89l-123 -700h-95zM372 758l-85 180h75l48 -84q11 -19 28.5 -19t34.5 19l78 84h80l-150 -180h-109z" glyph-name="Ncaron" horiz-adv-x="678" unicode="Ň"/><glyph d="M413 308q24 133 -93 133q-68 0 -115 -48.5t-64 -147.5l-44 -245h-85l88 502h79l-15 -83q60 98 176 98q88 0 131.5 -54t27.5 -145l-56 -318h-85zM271 560l-85 180h75l48 -84q10 -19 28 -19t35 19l78 84h80l-150 -180h-109z" glyph-name="ncaron" horiz-adv-x="533" unicode="ň"/><glyph d="M481 308q24 133 -93 133q-68 0 -115 -48.5t-64 -147.5l-44 -245h-85l88 502h79l-15 -83q60 98 176 98q88 0 131.5 -54t27.5 -145l-56 -318h-85zM49 474l40 226h84l-61 -226h-63z" glyph-name="napostrophe" horiz-adv-x="600" unicode="ŉ"/><glyph d="M362 -200l13 76h61q31 0 36 30l15 83l-282 602l-104 -591h-89l123 700h109l268 -565l99 565h89l-133 -759q-12 -67 -56.5 -104t-118.5 -37h-30z" glyph-name="Eng" horiz-adv-x="678" unicode="Ŋ"/><glyph d="M228 -200l13 76h63q32 0 37 30l72 402q24 133 -93 133q-68 0 -115 -48.5t-64 -147.5l-44 -245h-85l88 502h79l-15 -83q60 98 175 98q87 0 131.5 -52.5t29.5 -144.5l-67 -379q-12 -67 -57 -104t-119 -37h-29z" glyph-name="eng" horiz-adv-x="533" unicode="ŋ"/><glyph d="M323 -15q-131 0 -207.5 76t-76.5 216q0 83 28 161.5t78 140t126.5 99t166.5 37.5q131 0 208 -77t77 -214q0 -79 -26.5 -155.5t-75 -140.5t-126.5 -103.5t-172 -39.5zM328 68q89 0 158.5 51.5t104.5 130.5t35 167q0 103 -50.5 159t-142.5 56q-89 0 -158 -52.5t-104 -132 t-35 -168.5q0 -103 50 -157t142 -54zM322 827l13 71h286l-13 -71h-286z" glyph-name="Omacron" horiz-adv-x="727" unicode="Ō"/><glyph d="M238 -15q-98 0 -156 57t-58 162q0 80 32.5 150t100 116.5t155.5 46.5q98 0 156 -57t58 -161q0 -80 -33 -150.5t-100 -117t-155 -46.5zM243 61q88 0 141 71t53 163q0 69 -34 107.5t-96 38.5q-87 0 -140.5 -71t-53.5 -162q0 -69 34 -108t96 -39zM199 629l13 71h286l-13 -71 h-286z" glyph-name="omacron" horiz-adv-x="550" unicode="ō"/><glyph d="M323 -15q-131 0 -207.5 76t-76.5 216q0 83 28 161.5t78 140t126.5 99t166.5 37.5q131 0 208 -77t77 -214q0 -79 -26.5 -155.5t-75 -140.5t-126.5 -103.5t-172 -39.5zM328 68q89 0 158.5 51.5t104.5 130.5t35 167q0 103 -50.5 159t-142.5 56q-89 0 -158 -52.5t-104 -132 t-35 -168.5q0 -103 50 -157t142 -54zM459 758q-78 0 -120.5 50.5t-28.5 129.5h73q-9 -51 13 -83t67 -32q46 0 79 32t42 83h73q-15 -80 -68 -130t-130 -50z" glyph-name="Obreve" horiz-adv-x="727" unicode="Ŏ"/><glyph d="M238 -15q-98 0 -156 57t-58 162q0 80 32.5 150t100 116.5t155.5 46.5q98 0 156 -57t58 -161q0 -80 -33 -150.5t-100 -117t-155 -46.5zM243 61q88 0 141 71t53 163q0 69 -34 107.5t-96 38.5q-87 0 -140.5 -71t-53.5 -162q0 -69 34 -108t96 -39zM337 560q-78 0 -120.5 50.5 t-28.5 129.5h73q-9 -51 13 -83t67 -32q46 0 79 32t42 83h73q-15 -80 -68 -130t-130 -50z" glyph-name="obreve" horiz-adv-x="550" unicode="ŏ"/><glyph d="M323 -15q-131 0 -207.5 76t-76.5 216q0 83 28 161.5t78 140t126.5 99t166.5 37.5q131 0 208 -77t77 -214q0 -79 -26.5 -155.5t-75 -140.5t-126.5 -103.5t-172 -39.5zM328 68q89 0 158.5 51.5t104.5 130.5t35 167q0 103 -50.5 159t-142.5 56q-89 0 -158 -52.5t-104 -132 t-35 -168.5q0 -103 50 -157t142 -54zM497 758l112 180h102l-137 -180h-77zM333 758l112 180h103l-138 -180h-77z" glyph-name="Ohungarumlaut" horiz-adv-x="727" unicode="Ő"/><glyph d="M238 -15q-98 0 -156 57t-58 162q0 80 32.5 150t100 116.5t155.5 46.5q98 0 156 -57t58 -161q0 -80 -33 -150.5t-100 -117t-155 -46.5zM243 61q88 0 141 71t53 163q0 69 -34 107.5t-96 38.5q-87 0 -140.5 -71t-53.5 -162q0 -69 34 -108t96 -39zM374 560l112 180h102 l-137 -180h-77zM210 560l112 180h103l-138 -180h-77z" glyph-name="ohungarumlaut" horiz-adv-x="550" unicode="ő"/><glyph d="M314 -15q-128 0 -201.5 76t-73.5 214q0 83 27.5 161.5t77 141t125.5 100t166 37.5q177 0 224 -145l23 130h440l-14 -83h-349l-39 -217h317l-14 -82h-317l-42 -235h375l-14 -83h-466l21 117q-99 -132 -266 -132zM327 68q90 0 159.5 51.5t104 130.5t34.5 167q0 103 -50 159 t-142 56q-89 0 -158 -52.5t-104 -132t-35 -168.5q0 -103 50 -157t141 -54z" glyph-name="OE" horiz-adv-x="1087" unicode="Œ"/><glyph d="M234 -15q-95 0 -152.5 58t-57.5 161q0 124 78 218.5t206 94.5q140 0 182 -119q35 55 89.5 87t123.5 32q113 0 166 -80t15 -211h-369q-9 -78 23 -122.5t98 -44.5q51 0 86 25t51 58h91q-29 -70 -88 -113.5t-142 -43.5q-68 0 -116 30.5t-70 87.5q-75 -118 -214 -118zM243 61 q87 0 140 71t53 163q0 69 -33.5 107.5t-95.5 38.5q-87 0 -140.5 -71t-53.5 -162q0 -69 34 -108t96 -39zM530 295h279q14 65 -16 107t-93 42q-60 0 -105.5 -40.5t-64.5 -108.5z" glyph-name="oe" horiz-adv-x="918" unicode="œ"/><glyph d="M12 0l123 700h327q90 0 141 -49.5t41 -134.5q-7 -61 -43.5 -103.5t-91.5 -59.5q76 -22 67 -135l-18 -218h-90l21 268q3 28 -26 28h-308l-52 -296h-91zM387 377q58 0 105.5 28.5t57.5 95.5q8 58 -22 87.5t-94 29.5h-222l-42 -241h217zM361 758l112 180h103l-138 -180h-77z " glyph-name="Racute" horiz-adv-x="631" unicode="Ŕ"/><glyph d="M83 406q8 46 36 71t74 25h157l-12 -76h-166l-76 -426h-85zM195 560l112 180h103l-138 -180h-77z" glyph-name="racute" horiz-adv-x="324" unicode="ŕ"/><glyph d="M12 0l123 700h327q90 0 141 -49.5t41 -134.5q-7 -61 -43.5 -103.5t-91.5 -59.5q76 -22 67 -135l-18 -218h-90l21 268q3 28 -26 28h-308l-52 -296h-91zM387 377q58 0 105.5 28.5t57.5 95.5q8 58 -22 87.5t-94 29.5h-222l-42 -241h217zM139 -238l112 180h103l-138 -180h-77 z" glyph-name="uni0156" horiz-adv-x="631" unicode="Ŗ"/><glyph d="M83 406q8 46 36 71t74 25h157l-12 -76h-166l-76 -426h-85zM-82 -238l112 180h103l-138 -180h-77z" glyph-name="uni0157" horiz-adv-x="324" unicode="ŗ"/><glyph d="M12 0l123 700h327q90 0 141 -49.5t41 -134.5q-7 -61 -43.5 -103.5t-91.5 -59.5q76 -22 67 -135l-18 -218h-90l21 268q3 28 -26 28h-308l-52 -296h-91zM387 377q58 0 105.5 28.5t57.5 95.5q8 58 -22 87.5t-94 29.5h-222l-42 -241h217zM353 758l-85 180h75l48 -84 q11 -19 28.5 -19t34.5 19l78 84h80l-150 -180h-109z" glyph-name="Rcaron" horiz-adv-x="631" unicode="Ř"/><glyph d="M83 406q8 46 36 71t74 25h157l-12 -76h-166l-76 -426h-85zM187 560l-85 180h75l48 -84q10 -19 28 -19t35 19l78 84h80l-150 -180h-109z" glyph-name="rcaron" horiz-adv-x="324" unicode="ř"/><glyph d="M313 -15q-142 0 -219.5 74t-54.5 203h91q-18 -97 31.5 -146t151.5 -49q88 0 138 35.5t50 96.5q0 45 -28 69t-88 38l-91 21q-99 23 -143 65.5t-44 111.5q0 96 75.5 153.5t194.5 57.5q127 0 196.5 -64.5t49.5 -176.5h-90q14 79 -32 119.5t-133 40.5q-78 0 -123.5 -31 t-45.5 -89q0 -43 29.5 -67t96.5 -40l90 -21q91 -21 135 -63.5t44 -114.5q0 -99 -76.5 -161t-204.5 -62zM362 758l112 180h103l-138 -180h-77z" glyph-name="Sacute" horiz-adv-x="642" unicode="Ś"/><glyph d="M305 281q126 -28 126 -135q0 -74 -58 -117.5t-152 -43.5q-101 0 -159.5 49t-51.5 128h81q-2 -48 32 -76t100 -28q56 0 88.5 22.5t32.5 62.5q0 29 -18 44.5t-58 24.5l-76 17q-133 29 -133 129q0 73 54 116t144 43q93 0 146 -45t49 -122h-82q3 43 -27 69t-86 26 q-53 0 -82 -21t-29 -58q0 -28 18.5 -43t64.5 -25zM245 560l112 180h103l-138 -180h-77z" glyph-name="sacute" horiz-adv-x="476" unicode="ś"/><glyph d="M313 -15q-142 0 -219.5 74t-54.5 203h91q-18 -97 31.5 -146t151.5 -49q88 0 138 35.5t50 96.5q0 45 -28 69t-88 38l-91 21q-99 23 -143 65.5t-44 111.5q0 96 75.5 153.5t194.5 57.5q127 0 196.5 -64.5t49.5 -176.5h-90q14 79 -32 119.5t-133 40.5q-78 0 -123.5 -31 t-45.5 -89q0 -43 29.5 -67t96.5 -40l90 -21q91 -21 135 -63.5t44 -114.5q0 -99 -76.5 -161t-204.5 -62zM238 758l149 180h109l85 -180h-75l-48 84q-10 19 -28 19t-35 -19l-78 -84h-79z" glyph-name="Scircumflex" horiz-adv-x="642" unicode="Ŝ"/><glyph d="M305 281q126 -28 126 -135q0 -74 -58 -117.5t-152 -43.5q-101 0 -159.5 49t-51.5 128h81q-2 -48 32 -76t100 -28q56 0 88.5 22.5t32.5 62.5q0 29 -18 44.5t-58 24.5l-76 17q-133 29 -133 129q0 73 54 116t144 43q93 0 146 -45t49 -122h-82q3 43 -27 69t-86 26 q-53 0 -82 -21t-29 -58q0 -28 18.5 -43t64.5 -25zM121 560l149 180h109l85 -180h-75l-48 84q-10 19 -28.5 19t-34.5 -19l-78 -84h-79z" glyph-name="scircumflex" horiz-adv-x="476" unicode="ŝ"/><glyph d="M313 -15l-14 -29h9q34 0 55 -17.5t21 -48.5q0 -41 -30.5 -65.5t-79.5 -24.5h-122l27 57h92q42 0 42 31q0 25 -32 25h-74l38 77q-112 17 -169 88.5t-37 183.5h91q-18 -97 31.5 -146t151.5 -49q88 0 138 35.5t50 96.5q0 45 -28 69t-88 38l-91 21q-99 23 -143 65.5 t-44 111.5q0 96 75.5 153.5t194.5 57.5q127 0 196.5 -64.5t49.5 -176.5h-90q14 79 -32 119.5t-133 40.5q-78 0 -123.5 -31t-45.5 -89q0 -43 29.5 -67t96.5 -40l90 -21q91 -21 135 -63.5t44 -114.5q0 -99 -76.5 -161t-204.5 -62z" glyph-name="Scedilla" horiz-adv-x="642" unicode="Ş"/><glyph d="M305 281q126 -28 126 -135q0 -73 -57 -116.5t-150 -44.5l-14 -29h9q34 0 55 -17.5t21 -48.5q0 -41 -30.5 -65.5t-79.5 -24.5h-122l27 57h92q42 0 42 31q0 25 -32 25h-74l38 78q-73 14 -112.5 60t-33.5 111h81q-2 -48 32 -76t100 -28q56 0 88.5 22.5t32.5 62.5 q0 29 -18 44.5t-58 24.5l-76 17q-133 29 -133 129q0 73 54 116t144 43q93 0 146 -45t49 -122h-82q3 43 -27 69t-86 26q-53 0 -82 -21t-29 -58q0 -28 18.5 -43t64.5 -25z" glyph-name="scedilla" horiz-adv-x="476" unicode="ş"/><glyph d="M313 -15q-142 0 -219.5 74t-54.5 203h91q-18 -97 31.5 -146t151.5 -49q88 0 138 35.5t50 96.5q0 45 -28 69t-88 38l-91 21q-99 23 -143 65.5t-44 111.5q0 96 75.5 153.5t194.5 57.5q127 0 196.5 -64.5t49.5 -176.5h-90q14 79 -32 119.5t-133 40.5q-78 0 -123.5 -31 t-45.5 -89q0 -43 29.5 -67t96.5 -40l90 -21q91 -21 135 -63.5t44 -114.5q0 -99 -76.5 -161t-204.5 -62zM354 758l-85 180h75l48 -84q10 -19 28 -19t35 19l78 84h80l-150 -180h-109z" glyph-name="Scaron" horiz-adv-x="642" unicode="Š"/><glyph d="M305 281q126 -28 126 -135q0 -74 -58 -117.5t-152 -43.5q-101 0 -159.5 49t-51.5 128h81q-2 -48 32 -76t100 -28q56 0 88.5 22.5t32.5 62.5q0 29 -18 44.5t-58 24.5l-76 17q-133 29 -133 129q0 73 54 116t144 43q93 0 146 -45t49 -122h-82q3 43 -27 69t-86 26 q-53 0 -82 -21t-29 -58q0 -28 18.5 -43t64.5 -25zM237 560l-85 180h75l48 -84q11 -19 28.5 -19t34.5 19l78 84h80l-150 -180h-109z" glyph-name="scaron" horiz-adv-x="476" unicode="š"/><glyph d="M295 577q6 40 -34 40h-186l14 83h545l-14 -83h-187q-41 0 -47 -40l-102 -577l-21 -44h9q34 0 55 -17.5t21 -48.5q0 -41 -30.5 -65.5t-79.5 -24.5h-122l27 57h92q42 0 42 31q0 25 -32 25h-74l43 87h-21z" glyph-name="uni0162" horiz-adv-x="565" unicode="Ţ"/><glyph d="M216 0q-15 0 -21 1l-22 -45h9q34 0 55 -17.5t21 -48.5q0 -41 -30.5 -65.5t-79.5 -24.5h-122l27 57h92q42 0 42 31q0 25 -32 25h-74l52 105q-58 34 -43 125l50 283h-91l13 76h55q41 0 48 40l20 118h80l-27 -158h102l-13 -76h-101l-57 -320q-3 -16 2.5 -23t22.5 -7h84 l-13 -76h-49z" glyph-name="uni0163" horiz-adv-x="328" unicode="ţ"/><glyph d="M295 577q6 40 -34 40h-186l14 83h545l-14 -83h-187q-41 0 -47 -40l-102 -577h-91zM316 758l-85 180h75l48 -84q11 -19 28.5 -19t34.5 19l78 84h80l-150 -180h-109z" glyph-name="Tcaron" horiz-adv-x="565" unicode="Ť"/><glyph d="M216 0q-74 0 -106 37t-20 106l50 283h-91l13 76h55q41 0 48 40l20 118h80l-27 -158h102l-13 -76h-101l-57 -320q-3 -16 2.5 -23t22.5 -7h84l-13 -76h-49zM392 514l40 226h84l-61 -226h-63z" glyph-name="tcaron" horiz-adv-x="452" unicode="ť"/><glyph d="M295 577q6 40 -34 40h-186l14 83h545l-14 -83h-187q-41 0 -47 -40l-32 -180h170l-12 -71h-170l-58 -326h-91l58 326h-173l12 71h173z" glyph-name="Tbar" horiz-adv-x="565" unicode="Ŧ"/><glyph d="M216 0q-74 0 -106 37t-20 106l15 83h-91l12 71h91l23 129h-91l13 76h55q41 0 48 40l20 118h80l-27 -158h102l-13 -76h-101l-23 -129h101l-13 -71h-101l-21 -120q-3 -16 2.5 -23t22.5 -7h84l-13 -76h-49z" glyph-name="tbar" horiz-adv-x="328" unicode="ŧ"/><glyph d="M280 -15q-131 0 -192.5 77t-38.5 208l76 430h91l-74 -421q-19 -108 16 -159.5t128 -51.5q187 0 224 211l73 421h91l-75 -430q-25 -139 -109 -212t-210 -73zM473 847q14 -13 28 -8.5t22 23.5l15 36h78q-19 -57 -55.5 -89t-75.5 -30.5t-77 28.5l-31 26q-15 12 -29 7.5 t-22 -22.5l-15 -37h-77q29 85 92 111t117 -20z" glyph-name="Utilde" horiz-adv-x="642" unicode="Ũ"/><glyph d="M177 -15q-85 0 -126.5 53.5t-25.5 143.5l56 320h86l-55 -308q-12 -66 11 -99.5t76 -33.5q65 0 111 48.5t63 147.5l43 245h86l-89 -502h-78l15 83q-61 -98 -173 -98zM364 649q14 -13 28 -8.5t22 23.5l15 36h78q-19 -57 -55.5 -89t-75.5 -30.5t-77 28.5l-31 26 q-15 12 -29 7.5t-22 -22.5l-15 -37h-77q29 85 92 111t117 -20z" glyph-name="utilde" horiz-adv-x="514" unicode="ũ"/><glyph d="M280 -15q-131 0 -192.5 77t-38.5 208l76 430h91l-74 -421q-19 -108 16 -159.5t128 -51.5q187 0 224 211l73 421h91l-75 -430q-25 -139 -109 -212t-210 -73zM279 827l13 71h286l-13 -71h-286z" glyph-name="Umacron" horiz-adv-x="642" unicode="Ū"/><glyph d="M177 -15q-85 0 -126.5 53.5t-25.5 143.5l56 320h86l-55 -308q-12 -66 11 -99.5t76 -33.5q65 0 111 48.5t63 147.5l43 245h86l-89 -502h-78l15 83q-61 -98 -173 -98zM171 629l13 71h286l-13 -71h-286z" glyph-name="umacron" horiz-adv-x="514" unicode="ū"/><glyph d="M280 -15q-131 0 -192.5 77t-38.5 208l76 430h91l-74 -421q-19 -108 16 -159.5t128 -51.5q187 0 224 211l73 421h91l-75 -430q-25 -139 -109 -212t-210 -73zM417 758q-78 0 -120.5 50.5t-28.5 129.5h73q-9 -51 13 -83t67 -32q46 0 79 32t42 83h73q-15 -80 -68 -130 t-130 -50z" glyph-name="Ubreve" horiz-adv-x="642" unicode="Ŭ"/><glyph d="M177 -15q-85 0 -126.5 53.5t-25.5 143.5l56 320h86l-55 -308q-12 -66 11 -99.5t76 -33.5q65 0 111 48.5t63 147.5l43 245h86l-89 -502h-78l15 83q-61 -98 -173 -98zM309 560q-78 0 -120.5 50.5t-28.5 129.5h73q-9 -51 13 -83t67 -32q46 0 79 32t42 83h73 q-15 -80 -68 -130t-130 -50z" glyph-name="ubreve" horiz-adv-x="514" unicode="ŭ"/><glyph d="M280 -15q-131 0 -192.5 77t-38.5 208l76 430h91l-74 -421q-19 -108 16 -159.5t128 -51.5q187 0 224 211l73 421h91l-75 -430q-25 -139 -109 -212t-210 -73zM412 745q-50 0 -83 28.5t-33 73.5q0 62 44.5 106t107.5 44q50 0 82.5 -28.5t32.5 -73.5q0 -62 -44 -106t-107 -44 zM419 810q31 0 52.5 21t21.5 52q0 22 -14 35.5t-38 13.5q-31 0 -52.5 -21.5t-21.5 -51.5q0 -22 14 -35.5t38 -13.5z" glyph-name="Uring" horiz-adv-x="642" unicode="Ů"/><glyph d="M177 -15q-85 0 -126.5 53.5t-25.5 143.5l56 320h86l-55 -308q-12 -66 11 -99.5t76 -33.5q65 0 111 48.5t63 147.5l43 245h86l-89 -502h-78l15 83q-61 -98 -173 -98zM304 547q-50 0 -83 28.5t-33 73.5q0 62 44.5 106t107.5 44q50 0 82.5 -28.5t32.5 -73.5q0 -62 -44 -106 t-107 -44zM311 612q31 0 52.5 21t21.5 52q0 22 -14 35.5t-38 13.5q-31 0 -52.5 -21.5t-21.5 -51.5q0 -22 14 -35.5t38 -13.5z" glyph-name="uring" horiz-adv-x="514" unicode="ů"/><glyph d="M280 -15q-131 0 -192.5 77t-38.5 208l76 430h91l-74 -421q-19 -108 16 -159.5t128 -51.5q187 0 224 211l73 421h91l-75 -430q-25 -139 -109 -212t-210 -73zM454 758l112 180h102l-137 -180h-77zM290 758l112 180h103l-138 -180h-77z" glyph-name="Uhungarumlaut" horiz-adv-x="642" unicode="Ű"/><glyph d="M177 -15q-85 0 -126.5 53.5t-25.5 143.5l56 320h86l-55 -308q-12 -66 11 -99.5t76 -33.5q65 0 111 48.5t63 147.5l43 245h86l-89 -502h-78l15 83q-61 -98 -173 -98zM346 560l112 180h102l-137 -180h-77zM182 560l112 180h103l-138 -180h-77z" glyph-name="uhungarumlaut" horiz-adv-x="514" unicode="ű"/><glyph d="M267 -200q-41 0 -64 19.5t-23 53.5q0 51 59 97l19 16q-120 7 -175.5 83t-33.5 201l76 430h91l-74 -421q-19 -108 16 -159.5t128 -51.5q187 0 224 211l73 421h91l-75 -430q-21 -118 -85.5 -189t-161.5 -89l-62 -51q-34 -27 -34 -54q0 -30 42 -30h39l-10 -57h-60z" glyph-name="Uogonek" horiz-adv-x="642" unicode="Ų"/><glyph d="M177 -15q-85 0 -126.5 53.5t-25.5 143.5l56 320h86l-55 -308q-12 -66 11 -99.5t76 -33.5q65 0 111 48.5t63 147.5l43 245h86l-89 -502l-72 -59q-34 -27 -34 -54q0 -30 42 -30h39l-10 -57h-60q-41 0 -64 19.5t-23 53.5q0 51 59 97l46 38l14 75q-61 -98 -173 -98z" glyph-name="uogonek" horiz-adv-x="514" unicode="ų"/><glyph d="M552 0l-42 549h-6l-236 -549h-99l-80 700h98l55 -549h4l236 549h98l42 -549h6l247 549h99l-327 -700h-95zM370 758l149 180h109l85 -180h-75l-48 84q-10 19 -28 19t-35 -19l-78 -84h-79z" glyph-name="Wcircumflex" horiz-adv-x="905" unicode="Ŵ"/><glyph d="M118 0l-65 502h90l39 -386h6l180 386h81l43 -386h4l177 386h90l-242 -502h-92l-41 366h-4l-172 -366h-94zM246 560l149 180h109l85 -180h-75l-48 84q-10 19 -28 19t-35 -19l-78 -84h-79z" glyph-name="wcircumflex" horiz-adv-x="727" unicode="ŵ"/><glyph d="M286 246q6 34 -8 62l-189 392h101l157 -330h4l272 330h111l-326 -391q-24 -30 -30 -62l-43 -247h-92zM251 758l149 180h109l85 -180h-75l-48 84q-10 19 -28.5 19t-34.5 -19l-78 -84h-79z" glyph-name="Ycircumflex" horiz-adv-x="665" unicode="Ŷ"/><glyph d="M146 -23q19 36 13 63l-106 462h88l82 -381h4l203 381h93l-384 -702h-90zM127 560l149 180h109l85 -180h-75l-48 84q-10 19 -28.5 19t-34.5 -19l-78 -84h-79z" glyph-name="ycircumflex" horiz-adv-x="488" unicode="ŷ"/><glyph d="M286 246q6 34 -8 62l-189 392h101l157 -330h4l272 330h111l-326 -391q-24 -30 -30 -62l-43 -247h-92zM521 810q-21 0 -34 12t-13 31q0 25 20 44.5t46 19.5q21 0 33.5 -12.5t12.5 -31.5q0 -25 -19.5 -44t-45.5 -19zM340 810q-21 0 -34 12t-13 31q0 25 19.5 44.5t45.5 19.5 q21 0 34 -12.5t13 -31.5q0 -25 -19.5 -44t-45.5 -19z" glyph-name="Ydieresis" horiz-adv-x="665" unicode="Ÿ"/><glyph d="M-16 0l13 73l515 544h-389l14 83h515l-12 -73l-516 -544h439l-14 -83h-565zM352 758l112 180h103l-138 -180h-77z" glyph-name="Zacute" horiz-adv-x="622" unicode="Ź"/><glyph d="M-20 0l13 71l352 355h-275l13 76h392l-13 -71l-353 -355h300l-13 -76h-416zM239 560l112 180h103l-138 -180h-77z" glyph-name="zacute" horiz-adv-x="464" unicode="ź"/><glyph d="M-16 0l13 73l515 544h-389l14 83h515l-12 -73l-516 -544h439l-14 -83h-565zM409 810q-21 0 -34 12t-13 31q0 25 19.5 44.5t45.5 19.5q21 0 34 -12.5t13 -31.5q0 -25 -19.5 -44t-45.5 -19z" glyph-name="Zdotaccent" horiz-adv-x="622" unicode="Ż"/><glyph d="M-20 0l13 71l352 355h-275l13 76h392l-13 -71l-353 -355h300l-13 -76h-416zM296 612q-21 0 -34 12t-13 31q0 25 19.5 44.5t45.5 19.5q21 0 34 -12.5t13 -31.5q0 -25 -19.5 -44t-45.5 -19z" glyph-name="zdotaccent" horiz-adv-x="464" unicode="ż"/><glyph d="M-16 0l13 73l515 544h-389l14 83h515l-12 -73l-516 -544h439l-14 -83h-565zM344 758l-85 180h75l48 -84q11 -19 28.5 -19t34.5 19l78 84h80l-150 -180h-109z" glyph-name="Zcaron" horiz-adv-x="622" unicode="Ž"/><glyph d="M-20 0l13 71l352 355h-275l13 76h392l-13 -71l-353 -355h300l-13 -76h-416zM231 560l-85 180h75l48 -84q11 -19 28.5 -19t34.5 19l78 84h80l-150 -180h-109z" glyph-name="zcaron" horiz-adv-x="464" unicode="ž"/><glyph d="M112 566q11 63 53.5 98.5t113.5 35.5h51l-13 -75h-79q-30 0 -35 -30l-105 -595h-85z" glyph-name="longs" horiz-adv-x="270" unicode="ſ"/><glyph d="M12 0l123 700h231q140 0 217 -75t77 -214q0 -74 -22.5 -143.5t-69.5 -131t-131 -99t-194 -37.5h-231zM236 82q86 0 151.5 27.5t103 74.5t55.5 102t18 116q0 216 -222 216h-130l-33 -185q-5 -36 32 -36h138l-12 -71h-139q-37 0 -43 -33l-38 -211h119z" glyph-name="uni0189" horiz-adv-x="666" unicode="Ɖ"/><glyph d="M308 -15q-145 0 -220.5 93t-47.5 246l8 45h552q22 121 -30.5 192t-160.5 71q-83 0 -143.5 -41t-87.5 -116h-96q38 114 123.5 177t206.5 63q133 0 211 -76.5t78 -217.5q0 -111 -46 -209.5t-137.5 -162.5t-209.5 -64zM311 68q99 0 171.5 59.5t101.5 162.5h-452 q-13 -106 35 -164t144 -58z" glyph-name="uni018F" horiz-adv-x="705" unicode="Ə"/><glyph d="M-112 -200l13 76h54q32 0 37 30l139 794h479l-15 -83h-387l-39 -219h349l-14 -82h-349l-66 -373q-12 -68 -57 -105.5t-119 -37.5h-25z" glyph-name="uni0191" horiz-adv-x="549" unicode="Ƒ"/><glyph d="M-22 0l13 76h62q33 0 47 30l107 236h-159l13 76h180l66 146q31 70 79.5 103t122.5 33h24l-14 -76h-62q-32 0 -46 -30l-80 -176h142l-13 -76h-163l-94 -206q-61 -136 -201 -136h-24z" glyph-name="florin" horiz-adv-x="476" unicode="ƒ"/><glyph d="M48 0l57 326h-83l13 71h83l53 303h91l-53 -303h78l-12 -71h-79l-57 -326h-91z" glyph-name="uni0197" horiz-adv-x="271" unicode="Ɨ"/><glyph d="M323 -15q-131 0 -207.5 76t-76.5 216q0 83 28 161.5t78 140t126.5 99t166.5 37.5q131 0 208 -77t77 -214q0 -79 -26.5 -155.5t-75 -140.5t-126.5 -103.5t-172 -39.5zM327 66q112 0 189.5 76t100.5 184h-482q-14 -113 34 -186.5t158 -73.5zM149 397h479q6 104 -42.5 170.5 t-152.5 66.5q-105 0 -179.5 -68t-104.5 -169z" glyph-name="uni019F" horiz-adv-x="727" unicode="Ɵ"/><glyph d="M-34 0l401 700h103l155 -700h-94l-46 210h-298l-118 -210h-103zM374 758l-85 180h75l48 -84q10 -19 28 -19t35 19l78 84h80l-150 -180h-109zM229 291h242l-66 306h-4z" glyph-name="uni01CD" horiz-adv-x="679" unicode="Ǎ"/><glyph d="M169 -15q-75 0 -117.5 38t-42.5 103q0 70 49.5 114.5t135.5 49.5l150 10q35 2 43 41q11 51 -17.5 76.5t-82.5 25.5q-57 0 -94.5 -25.5t-45.5 -72.5h-87q19 84 79 128t153 44q100 0 147.5 -51.5t29.5 -155.5l-42 -234h41l-13 -76h-37q-38 0 -54.5 23t-9.5 65l1 3 q-64 -106 -186 -106zM186 58q68 0 118 44t64 119l4 17l-159 -10q-115 -7 -115 -93q0 -77 88 -77zM249 560l-85 180h75l48 -84q11 -19 28.5 -19t34.5 19l78 84h80l-150 -180h-109z" glyph-name="uni01CE" horiz-adv-x="521" unicode="ǎ"/><glyph d="M12 0l123 700h91l-123 -700h-91zM135 758l-85 180h75l48 -84q11 -19 28.5 -19t34.5 19l78 84h80l-150 -180h-109z" glyph-name="uni01CF" horiz-adv-x="203" unicode="Ǐ"/><glyph d="M12 0l88 502h86l-89 -502h-85zM98 560l-85 180h75l48 -84q10 -19 28 -19t35 19l78 84h80l-150 -180h-109z" glyph-name="uni01D0" horiz-adv-x="198" unicode="ǐ"/><glyph d="M323 -15q-131 0 -207.5 76t-76.5 216q0 83 28 161.5t78 140t126.5 99t166.5 37.5q131 0 208 -77t77 -214q0 -79 -26.5 -155.5t-75 -140.5t-126.5 -103.5t-172 -39.5zM328 68q89 0 158.5 51.5t104.5 130.5t35 167q0 103 -50.5 159t-142.5 56q-89 0 -158 -52.5t-104 -132 t-35 -168.5q0 -103 50 -157t142 -54zM397 758l-85 180h75l48 -84q10 -19 28 -19t35 19l78 84h80l-150 -180h-109z" glyph-name="uni01D1" horiz-adv-x="727" unicode="Ǒ"/><glyph d="M238 -15q-98 0 -156 57t-58 162q0 80 32.5 150t100 116.5t155.5 46.5q98 0 156 -57t58 -161q0 -80 -33 -150.5t-100 -117t-155 -46.5zM243 61q88 0 141 71t53 163q0 69 -34 107.5t-96 38.5q-87 0 -140.5 -71t-53.5 -162q0 -69 34 -108t96 -39zM274 560l-85 180h75l48 -84 q11 -19 28.5 -19t34.5 19l78 84h80l-150 -180h-109z" glyph-name="uni01D2" horiz-adv-x="550" unicode="ǒ"/><glyph d="M280 -15q-131 0 -192.5 77t-38.5 208l76 430h91l-74 -421q-19 -108 16 -159.5t128 -51.5q187 0 224 211l73 421h91l-75 -430q-25 -139 -109 -212t-210 -73zM354 758l-85 180h75l48 -84q10 -19 28 -19t35 19l78 84h80l-150 -180h-109z" glyph-name="uni01D3" horiz-adv-x="642" unicode="Ǔ"/><glyph d="M177 -15q-85 0 -126.5 53.5t-25.5 143.5l56 320h86l-55 -308q-12 -66 11 -99.5t76 -33.5q65 0 111 48.5t63 147.5l43 245h86l-89 -502h-78l15 83q-61 -98 -173 -98zM246 560l-85 180h75l48 -84q10 -19 28 -19t35 19l78 84h80l-150 -180h-109z" glyph-name="uni01D4" horiz-adv-x="514" unicode="ǔ"/><glyph d="M313 -15q-127 0 -200.5 76t-73.5 215q0 82 27 160t75.5 140.5t124.5 100.5t167 38q123 0 198.5 -65.5t75.5 -174.5h-92q-2 71 -51 114t-132 43q-90 0 -159 -52t-103 -131t-34 -168q0 -102 49.5 -157.5t144.5 -55.5q99 0 168 59t93 163h-215l14 79h309l-65 -369h-78 l25 143q-38 -79 -108 -118.5t-160 -39.5zM387 758l-85 180h75l48 -84q11 -19 28.5 -19t34.5 19l78 84h80l-150 -180h-109z" glyph-name="Gcaron" horiz-adv-x="725" unicode="Ǧ"/><glyph d="M193 -200q-103 0 -154.5 55.5t-46.5 132.5h81q-1 -53 29 -85t95 -32q73 0 122.5 41.5t62.5 117.5l14 78q-75 -89 -186 -89q-86 0 -135.5 50.5t-49.5 137.5q0 131 79 220.5t193 89.5q123 0 160 -99l15 84h73l-80 -455q-21 -116 -91 -181.5t-181 -65.5zM234 90 q81 0 137.5 64t56.5 156q0 62 -35 98.5t-96 36.5q-79 0 -133.5 -64t-54.5 -158q0 -62 33 -97.5t92 -35.5zM283 560l-85 180h75l48 -84q11 -19 28.5 -19t34.5 19l78 84h80l-150 -180h-109z" glyph-name="gcaron" horiz-adv-x="557" unicode="ǧ"/><glyph d="M378 350q-7 17 -19 20t-27 -10l-197 -179l-32 -181h-91l123 700h91l-69 -392l418 392h113l-227 -215q-28 -26 -17 -57l159 -428h-98zM357 758l-85 180h75l48 -84q11 -19 28.5 -19t34.5 19l78 84h80l-150 -180h-109z" glyph-name="uni01E8" horiz-adv-x="657" unicode="Ǩ"/><glyph d="M289 239q-6 17 -19 19t-28 -12l-122 -107l-25 -139h-83l123 700h83l-80 -457l291 259h106l-161 -144q-28 -25 -17 -55l108 -303h-94zM132 758l-85 180h75l48 -84q11 -19 28.5 -19t34.5 19l78 84h80l-150 -180h-109z" glyph-name="uni01E9" horiz-adv-x="518" unicode="ǩ"/><glyph d="M313 -15q-142 0 -219.5 74t-54.5 203h91q-18 -97 31.5 -146t151.5 -49q88 0 138 35.5t50 96.5q0 45 -28 69t-88 38l-91 21q-99 23 -143 65.5t-44 111.5q0 96 75.5 153.5t194.5 57.5q127 0 196.5 -64.5t49.5 -176.5h-90q14 79 -32 119.5t-133 40.5q-78 0 -123.5 -31 t-45.5 -89q0 -43 29.5 -67t96.5 -40l90 -21q91 -21 135 -63.5t44 -114.5q0 -99 -76.5 -161t-204.5 -62zM160 -238l112 180h103l-138 -180h-77z" glyph-name="uni0218" horiz-adv-x="642" unicode="Ș"/><glyph d="M305 281q126 -28 126 -135q0 -74 -58 -117.5t-152 -43.5q-101 0 -159.5 49t-51.5 128h81q-2 -48 32 -76t100 -28q56 0 88.5 22.5t32.5 62.5q0 29 -18 44.5t-58 24.5l-76 17q-133 29 -133 129q0 73 54 116t144 43q93 0 146 -45t49 -122h-82q3 43 -27 69t-86 26 q-53 0 -82 -21t-29 -58q0 -28 18.5 -43t64.5 -25zM67 -238l112 180h103l-138 -180h-77z" glyph-name="uni0219" horiz-adv-x="476" unicode="ș"/><glyph d="M295 577q6 40 -34 40h-186l14 83h545l-14 -83h-187q-41 0 -47 -40l-102 -577h-91zM102 -238l112 180h103l-138 -180h-77z" glyph-name="uni021A" horiz-adv-x="565" unicode="Ț"/><glyph d="M216 0q-74 0 -106 37t-20 106l50 283h-91l13 76h55q41 0 48 40l20 118h80l-27 -158h102l-13 -76h-101l-57 -320q-3 -16 2.5 -23t22.5 -7h84l-13 -76h-49zM21 -238l112 180h103l-138 -180h-77z" glyph-name="uni021B" horiz-adv-x="328" unicode="ț"/><glyph d="M12 0l123 700h497l-14 -82h-406l-39 -219h365l-13 -80h-366l-42 -237h416l-14 -82h-209l-21 -44h9q34 0 55 -17.5t21 -48.5q0 -41 -30.5 -65.5t-79.5 -24.5h-122l27 57h92q42 0 42 31q0 25 -32 25h-74l43 87h-228z" glyph-name="uni0228" horiz-adv-x="581" unicode="Ȩ"/><glyph d="M80 -200l27 57h92q42 0 42 31q0 25 -32 25h-74l38 79q-70 16 -109.5 70t-39.5 138q0 77 30 147.5t96 120t154 49.5q116 0 169.5 -80t15.5 -211h-378q-9 -78 23.5 -122.5t101.5 -44.5q54 0 90 24.5t52 58.5h91q-27 -68 -85.5 -111.5t-142.5 -45.5l-14 -29h9q34 0 55 -17.5 t21 -48.5q0 -41 -30.5 -65.5t-79.5 -24.5h-122zM126 295h288q14 65 -17 107t-96 42q-63 0 -109.5 -40.5t-65.5 -108.5z" glyph-name="uni0229" horiz-adv-x="524" unicode="ȩ"/><glyph d="M-112 -200l13 76h58q32 0 37 30l104 596h86l-99 -559q-12 -67 -56.5 -105t-118.5 -38h-24z" glyph-name="uni0237" horiz-adv-x="198" unicode="ȷ"/><glyph d="M144 -91l-65 36l45 71q15 22 -3 41q-82 76 -82 216q0 84 27 163t75.5 141.5t123.5 100t164 37.5q49 0 92 -12q23 -6 38 20l44 68l63 -36l-42 -66q-16 -25 3 -42q85 -76 74 -209h-90q5 94 -51 146l-311 -504q33 -12 76 -12q94 0 164 54.5t95 142.5h94 q-34 -126 -128.5 -203t-223.5 -77q-60 0 -102 12q-22 6 -38 -20zM136 279q0 -105 51 -160l310 503q-35 10 -71 10q-88 0 -156 -53t-101 -132.5t-33 -167.5z" glyph-name="uni023B" horiz-adv-x="703" unicode="Ȼ"/><glyph d="M116 -86l-59 31l32 54q14 22 0 36q-65 62 -65 168q0 80 31 150t96.5 117t152.5 47q26 0 42 -3q20 -4 33 18l30 55l61 -30l-29 -53q-10 -19 6 -33q66 -59 60 -157h-82q1 62 -34 97l-190 -347q20 -5 38 -5q59 0 104.5 35.5t63.5 96.5h85q-25 -96 -93.5 -151t-166.5 -55 q-18 0 -48 4q-21 2 -34 -18zM110 206q0 -68 34 -107l187 342q-18 2 -28 2q-86 0 -139.5 -73.5t-53.5 -163.5z" glyph-name="uni023C" horiz-adv-x="530" unicode="ȼ"/><glyph d="M218 -15q-116 0 -170 80t-16 211h379q9 78 -24 122.5t-102 44.5q-54 0 -90 -25t-49 -58h-91q28 74 88 115.5t145 41.5q97 0 153.5 -57t56.5 -158q0 -77 -30.5 -148t-96 -120t-153.5 -49zM221 58q63 0 109.5 40.5t65.5 108.5h-289q-14 -65 17.5 -107t96.5 -42z" glyph-name="uni0259" horiz-adv-x="519" unicode="ə"/><glyph d="M9 248l12 70h79l32 184h86l-33 -184h83l-12 -70h-83l-44 -248h-85l43 248h-78zM195 612q-21 0 -34 12t-13 31q0 25 19.5 44.5t45.5 19.5q21 0 34 -12.5t13 -31.5q0 -25 -19.5 -44t-45.5 -19z" glyph-name="uni0268" horiz-adv-x="265" unicode="ɨ"/><glyph d="M238 -15q-98 0 -156 57t-58 162q0 80 32.5 150t100 116.5t155.5 46.5q98 0 156 -57t58 -161q0 -80 -33 -150.5t-100 -117t-155 -46.5zM242 59q69 0 118 45.5t68 111.5h-317q-3 -66 29 -111.5t102 -45.5zM123 286h318q2 67 -30.5 112t-102.5 45q-69 0 -118 -45.5 t-67 -111.5z" glyph-name="uni0275" horiz-adv-x="550" unicode="ɵ"/><glyph d="M168 -200l33 187q-83 11 -130 67t-47 150q0 120 73 212.5t197 99.5l32 184h84l-33 -185q83 -11 130 -67t47 -150q0 -120 -73 -213t-196 -100l-33 -185h-84zM111 208q0 -61 27 -99.5t76 -47.5l67 380q-78 -12 -124 -81t-46 -152zM298 61q78 12 123.5 81t45.5 152 q0 61 -27 99.5t-76 47.5z" glyph-name="uni0278" horiz-adv-x="578" unicode="ɸ"/><glyph d="M105 560l149 180h109l85 -180h-75l-48 84q-11 19 -29 19t-34 -19l-78 -84h-79z" glyph-name="circumflex" horiz-adv-x="444" unicode="ˆ"/><glyph d="M221 560l-85 180h75l48 -84q11 -19 28.5 -19t34.5 19l78 84h80l-150 -180h-109z" glyph-name="caron" horiz-adv-x="444" unicode="ˇ"/><glyph d="M285 560q-78 0 -120.5 50.5t-28.5 129.5h73q-9 -51 13 -83t67 -32q46 0 79 32t42 83h73q-15 -80 -68 -130t-130 -50z" glyph-name="breve" horiz-adv-x="447" unicode="˘"/><glyph d="M170 612q-21 0 -34 12t-13 31q0 25 19.5 44.5t45.5 19.5q21 0 34 -12.5t13 -31.5q0 -25 -19.5 -44t-45.5 -19z" glyph-name="dotaccent" horiz-adv-x="211" unicode="˙"/><glyph d="M238 547q-50 0 -83 28.5t-33 73.5q0 62 44.5 106t107.5 44q50 0 82.5 -28.5t32.5 -73.5q0 -62 -44 -106t-107 -44zM245 612q31 0 52.5 21t21.5 52q0 22 -14 35.5t-38 13.5q-31 0 -52.5 -21.5t-21.5 -51.5q0 -22 14 -35.5t38 -13.5z" glyph-name="ring" horiz-adv-x="363" unicode="˚"/><glyph d="M72 -200q-41 0 -64 19.5t-23 53.5q0 51 59 97l75 61l48 -31l-72 -59q-34 -27 -34 -54q0 -30 42 -30h39l-10 -57h-60z" glyph-name="ogonek" horiz-adv-x="262" unicode="˛"/><glyph d="M348 649q14 -13 28 -8.5t22 23.5l15 36h78q-19 -57 -55.5 -89t-75.5 -30.5t-77 28.5l-31 26q-15 12 -29 7.5t-22 -22.5l-15 -37h-77q29 85 92 111t117 -20z" glyph-name="tilde" horiz-adv-x="462" unicode="˜"/><glyph d="M269 560l112 180h102l-137 -180h-77zM105 560l112 180h103l-138 -180h-77z" glyph-name="hungarumlaut" horiz-adv-x="447" unicode="˝"/><glyph d="M212 560l-76 180h102l51 -180h-77z" glyph-name="gravecomb" unicode="̀"/><glyph d="M105 560l112 180h103l-138 -180h-77z" glyph-name="acutecomb" unicode="́"/><glyph d="M105 560l149 180h109l85 -180h-75l-48 84q-11 19 -29 19t-34 -19l-78 -84h-79z" glyph-name="uni0302" unicode="̂"/><glyph d="M348 649q14 -13 28 -8.5t22 23.5l15 36h78q-19 -57 -55.5 -89t-75.5 -30.5t-77 28.5l-31 26q-15 12 -29 7.5t-22 -22.5l-15 -37h-77q29 85 92 111t117 -20z" glyph-name="tildecomb" unicode="̃"/><glyph d="M117 629l13 71h286l-13 -71h-286z" glyph-name="uni0304" unicode="̄"/><glyph d="M285 560q-78 0 -120.5 50.5t-28.5 129.5h73q-9 -51 13 -83t67 -32q46 0 79 32t42 83h73q-15 -80 -68 -130t-130 -50z" glyph-name="uni0306" unicode="̆"/><glyph d="M170 612q-21 0 -34 12t-13 31q0 25 19.5 44.5t45.5 19.5q21 0 34 -12.5t13 -31.5q0 -25 -19.5 -44t-45.5 -19z" glyph-name="uni0307" unicode="̇"/><glyph d="M351 612q-21 0 -34 12t-13 31q0 25 20 44.5t46 19.5q21 0 33.5 -12.5t12.5 -31.5q0 -25 -19.5 -44t-45.5 -19zM170 612q-21 0 -34 12t-13 31q0 25 19.5 44.5t45.5 19.5q21 0 34 -12.5t13 -31.5q0 -25 -19.5 -44t-45.5 -19z" glyph-name="uni0308" unicode="̈"/><glyph d="M238 547q-50 0 -83 28.5t-33 73.5q0 62 44.5 106t107.5 44q50 0 82.5 -28.5t32.5 -73.5q0 -62 -44 -106t-107 -44zM245 612q31 0 52.5 21t21.5 52q0 22 -14 35.5t-38 13.5q-31 0 -52.5 -21.5t-21.5 -51.5q0 -22 14 -35.5t38 -13.5z" glyph-name="uni030A" unicode="̊"/><glyph d="M269 560l112 180h102l-137 -180h-77zM105 560l112 180h103l-138 -180h-77z" glyph-name="uni030B" unicode="̋"/><glyph d="M221 560l-85 180h75l48 -84q11 -19 28.5 -19t34.5 19l78 84h80l-150 -180h-109z" glyph-name="uni030C" unicode="̌"/><glyph d="M320 740l-113 -180h-102l138 180h77z" glyph-name="uni0312" unicode="̒"/><glyph d="M23 -217q-21 0 -34 12.5t-13 31.5q0 26 19.5 44.5t46.5 18.5q21 0 33.5 -12t12.5 -31q0 -26 -19.5 -45t-45.5 -19z" glyph-name="dotbelowcomb" unicode="̣"/><glyph d="M-39 -238l112 180h103l-138 -180h-77z" glyph-name="uni0326" unicode="̦"/><glyph d="M-29 -200l27 57h92q42 0 42 31q0 25 -32 25h-74l71 143h69l-48 -100h9q34 0 55 -17.5t21 -48.5q0 -41 -30.5 -65.5t-79.5 -24.5h-122z" glyph-name="uni0327" unicode="̧"/><glyph d="M72 -200q-41 0 -64 19.5t-23 53.5q0 51 59 97l75 61l48 -31l-72 -59q-34 -27 -34 -54q0 -30 42 -30h39l-10 -57h-60z" glyph-name="uni0328" unicode="̨"/><glyph d="M63 326l13 71h297l-12 -71h-298z" glyph-name="uni0335" unicode="̵"/><glyph d="M60 -40q14 24 -3 33q-20 12 -20 37t18.5 44.5t47.5 19.5q24 0 38 -14.5t14 -37.5q0 -30 -33 -85l-79 -135h-66zM152 365q-22 0 -35 12t-13 32q0 26 20 45.5t48 19.5q22 0 34.5 -12t12.5 -32q0 -27 -19.5 -46t-47.5 -19z" glyph-name="uni037E" horiz-adv-x="263" unicode=";"/><glyph d="M175 304q-22 0 -35 12t-13 32q0 26 20 45.5t48 19.5q21 0 34 -12t13 -32q0 -26 -19.5 -45.5t-47.5 -19.5z" glyph-name="anoteleia" horiz-adv-x="330" unicode="·"/><glyph d="M-23 -200l123 702h86l-55 -308q-12 -66 11 -99.5t76 -33.5q65 0 111 48.5t63 147.5l43 245h86l-89 -502h-78l15 83q-61 -98 -171 -98q-61 0 -97 30l-39 -215h-85z" glyph-name="uni03BC" horiz-adv-x="533" unicode="μ"/><glyph d="M12 0l123 700h308q82 0 133.5 -40.5t51.5 -114.5q0 -63 -36.5 -109t-90.5 -61q44 -17 69 -57t25 -95q0 -94 -66 -158.5t-175 -64.5h-342zM344 82q73 0 116 37t43 97q0 48 -29.5 75.5t-88.5 27.5h-226l-42 -237h227zM385 399q70 0 111.5 34.5t41.5 90.5q0 94 -116 94h-210 l-39 -219h212zM227 -217q-21 0 -34 12.5t-13 31.5q0 26 19.5 44.5t46.5 18.5q21 0 33.5 -12t12.5 -31q0 -26 -19.5 -45t-45.5 -19z" glyph-name="uni1E04" horiz-adv-x="632" unicode="Ḅ"/><glyph d="M275 -15q-129 0 -169 105l-16 -90h-78l123 700h86l-46 -260q67 77 169 77q89 0 143 -57.5t54 -163.5q0 -125 -72 -218t-194 -93zM271 61q85 0 132.5 69.5t47.5 160.5q0 73 -33.5 111.5t-93.5 38.5q-84 0 -136.5 -69t-52.5 -158q0 -72 37 -112.5t99 -40.5zM214 -217 q-21 0 -34 12.5t-13 31.5q0 26 19.5 44.5t46.5 18.5q21 0 33.5 -12t12.5 -31q0 -26 -19.5 -45t-45.5 -19z" glyph-name="uni1E05" horiz-adv-x="566" unicode="ḅ"/><glyph d="M12 0l123 700h231q140 0 217 -75t77 -214q0 -74 -22.5 -143.5t-69.5 -131t-131 -99t-194 -37.5h-231zM236 82q86 0 151.5 27.5t103 74.5t55.5 102t18 116q0 216 -222 216h-130l-95 -536h119zM214 -218q-21 0 -34 12.5t-13 31.5q0 26 19.5 44.5t46.5 18.5q21 0 33.5 -12 t12.5 -31q0 -26 -19.5 -45t-45.5 -19z" glyph-name="uni1E0C" horiz-adv-x="666" unicode="Ḍ"/><glyph d="M222 -15q-89 0 -143 57.5t-54 163.5q0 125 72 218t194 93q120 0 164 -95l48 278h86l-124 -700h-78l13 73q-69 -88 -178 -88zM242 60q84 0 136 69t52 159q0 73 -36.5 113t-98.5 40q-86 0 -133.5 -70t-47.5 -160q0 -73 33.5 -112t94.5 -39zM196 -217q-21 0 -34 12.5 t-13 31.5q0 26 19.5 44.5t46.5 18.5q21 0 33.5 -12t12.5 -31q0 -26 -19.5 -45t-45.5 -19z" glyph-name="uni1E0D" horiz-adv-x="566" unicode="ḍ"/><glyph d="M313 -15q-127 0 -200.5 76t-73.5 215q0 82 27 160t75.5 140.5t124.5 100.5t167 38q123 0 198.5 -65.5t75.5 -174.5h-92q-2 71 -51 114t-132 43q-90 0 -159 -52t-103 -131t-34 -168q0 -102 49.5 -157.5t144.5 -55.5q99 0 168 59t93 163h-215l14 79h309l-65 -369h-78 l25 143q-38 -79 -108 -118.5t-160 -39.5zM312 827l13 71h286l-13 -71h-286z" glyph-name="uni1E20" horiz-adv-x="725" unicode="Ḡ"/><glyph d="M193 -200q-103 0 -154.5 55.5t-46.5 132.5h81q-1 -53 29 -85t95 -32q73 0 122.5 41.5t62.5 117.5l14 78q-75 -89 -186 -89q-86 0 -135.5 50.5t-49.5 137.5q0 131 79 220.5t193 89.5q123 0 160 -99l15 84h73l-80 -455q-21 -116 -91 -181.5t-181 -65.5zM234 90 q81 0 137.5 64t56.5 156q0 62 -35 98.5t-96 36.5q-79 0 -133.5 -64t-54.5 -158q0 -62 33 -97.5t92 -35.5zM208 629l13 71h286l-13 -71h-286z" glyph-name="uni1E21" horiz-adv-x="557" unicode="ḡ"/><glyph d="M486 0l57 319h-384l-56 -319h-91l123 700h91l-52 -298h383l52 298h91l-123 -700h-91zM256 -217q-21 0 -34 12.5t-13 31.5q0 26 19.5 44.5t46.5 18.5q21 0 33.5 -12t12.5 -31q0 -26 -19.5 -45t-45.5 -19z" glyph-name="uni1E24" horiz-adv-x="678" unicode="Ḥ"/><glyph d="M412 308q24 133 -92 133q-68 0 -115 -48.5t-64 -147.5l-44 -245h-85l123 700h86l-47 -266q59 83 166 83q85 0 130 -52.5t28 -146.5l-55 -318h-86zM189 -217q-21 0 -34 12.5t-13 31.5q0 26 19.5 44.5t46.5 18.5q21 0 33.5 -12t12.5 -31q0 -26 -19.5 -45t-45.5 -19z" glyph-name="uni1E25" horiz-adv-x="532" unicode="ḥ"/><glyph d="M12 0l123 700h91l-102 -577q-6 -40 34 -40h324l-14 -83h-456zM201 -217q-21 0 -34 12.5t-13 31.5q0 26 19.5 44.5t46.5 18.5q21 0 33.5 -12t12.5 -31q0 -26 -19.5 -45t-45.5 -19z" glyph-name="uni1E36" horiz-adv-x="532" unicode="Ḷ"/><glyph d="M105 0q-45 0 -64.5 25t-11.5 71l106 604h86l-111 -624h45l-13 -76h-37zM38 -217q-21 0 -34 12.5t-13 31.5q0 26 19.5 44.5t46.5 18.5q21 0 33.5 -12t12.5 -31q0 -26 -19.5 -45t-45.5 -19z" glyph-name="uni1E37" horiz-adv-x="208" unicode="ḷ"/><glyph d="M482 0l-277 590l-104 -590h-89l123 700h109l268 -566l99 566h89l-123 -700h-95zM437 810q-21 0 -34 12t-13 31q0 25 19.5 44.5t45.5 19.5q21 0 34 -12.5t13 -31.5q0 -25 -19.5 -44t-45.5 -19z" glyph-name="uni1E44" horiz-adv-x="678" unicode="Ṅ"/><glyph d="M413 308q24 133 -93 133q-68 0 -115 -48.5t-64 -147.5l-44 -245h-85l88 502h79l-15 -83q60 98 176 98q88 0 131.5 -54t27.5 -145l-56 -318h-85zM336 612q-21 0 -34 12t-13 31q0 25 19.5 44.5t45.5 19.5q21 0 34 -12.5t13 -31.5q0 -25 -19.5 -44t-45.5 -19z" glyph-name="uni1E45" horiz-adv-x="533" unicode="ṅ"/><glyph d="M482 0l-277 590l-104 -590h-89l123 700h109l268 -566l99 566h89l-123 -700h-95zM256 -217q-21 0 -34 12.5t-13 31.5q0 26 19.5 44.5t46.5 18.5q21 0 33.5 -12t12.5 -31q0 -26 -19.5 -45t-45.5 -19z" glyph-name="uni1E46" horiz-adv-x="678" unicode="Ṇ"/><glyph d="M413 308q24 133 -93 133q-68 0 -115 -48.5t-64 -147.5l-44 -245h-85l88 502h79l-15 -83q60 98 176 98q88 0 131.5 -54t27.5 -145l-56 -318h-85zM189 -217q-21 0 -34 12.5t-13 31.5q0 26 19.5 44.5t46.5 18.5q21 0 33.5 -12t12.5 -31q0 -26 -19.5 -45t-45.5 -19z" glyph-name="uni1E47" horiz-adv-x="533" unicode="ṇ"/><glyph d="M313 -15q-142 0 -219.5 74t-54.5 203h91q-18 -97 31.5 -146t151.5 -49q88 0 138 35.5t50 96.5q0 45 -28 69t-88 38l-91 21q-99 23 -143 65.5t-44 111.5q0 96 75.5 153.5t194.5 57.5q127 0 196.5 -64.5t49.5 -176.5h-90q14 79 -32 119.5t-133 40.5q-78 0 -123.5 -31 t-45.5 -89q0 -43 29.5 -67t96.5 -40l90 -21q91 -21 135 -63.5t44 -114.5q0 -99 -76.5 -161t-204.5 -62zM258 -217q-21 0 -34 12.5t-13 31.5q0 26 19.5 44.5t46.5 18.5q21 0 33.5 -12t12.5 -31q0 -26 -19.5 -45t-45.5 -19z" glyph-name="uni1E62" horiz-adv-x="642" unicode="Ṣ"/><glyph d="M305 281q126 -28 126 -135q0 -74 -58 -117.5t-152 -43.5q-101 0 -159.5 49t-51.5 128h81q-2 -48 32 -76t100 -28q56 0 88.5 22.5t32.5 62.5q0 29 -18 44.5t-58 24.5l-76 17q-133 29 -133 129q0 73 54 116t144 43q93 0 146 -45t49 -122h-82q3 43 -27 69t-86 26 q-53 0 -82 -21t-29 -58q0 -28 18.5 -43t64.5 -25zM165 -217q-21 0 -34 12.5t-13 31.5q0 26 19.5 44.5t46.5 18.5q21 0 33.5 -12t12.5 -31q0 -26 -19.5 -45t-45.5 -19z" glyph-name="uni1E63" horiz-adv-x="476" unicode="ṣ"/><glyph d="M295 577q6 40 -34 40h-186l14 83h545l-14 -83h-187q-41 0 -47 -40l-102 -577h-91zM200 -217q-21 0 -34 12.5t-13 31.5q0 26 19.5 44.5t46.5 18.5q21 0 33.5 -12t12.5 -31q0 -26 -19.5 -45t-45.5 -19z" glyph-name="uni1E6C" horiz-adv-x="565" unicode="Ṭ"/><glyph d="M216 0q-74 0 -106 37t-20 106l50 283h-91l13 76h55q41 0 48 40l20 118h80l-27 -158h102l-13 -76h-101l-57 -320q-3 -16 2.5 -23t22.5 -7h84l-13 -76h-49zM118 -217q-21 0 -34 12.5t-13 31.5q0 26 19.5 44.5t46.5 18.5q21 0 33.5 -12t12.5 -31q0 -26 -19.5 -45t-45.5 -19z " glyph-name="uni1E6D" horiz-adv-x="328" unicode="ṭ"/><glyph d="M552 0l-42 549h-6l-236 -549h-99l-80 700h98l55 -549h4l236 549h98l42 -549h6l247 549h99l-327 -700h-95zM513 758l-76 180h102l51 -180h-77z" glyph-name="Wgrave" horiz-adv-x="905" unicode="Ẁ"/><glyph d="M118 0l-65 502h90l39 -386h6l180 386h81l43 -386h4l177 386h90l-242 -502h-92l-41 366h-4l-172 -366h-94zM390 560l-76 180h102l51 -180h-77z" glyph-name="wgrave" horiz-adv-x="727" unicode="ẁ"/><glyph d="M552 0l-42 549h-6l-236 -549h-99l-80 700h98l55 -549h4l236 549h98l42 -549h6l247 549h99l-327 -700h-95zM494 758l112 180h103l-138 -180h-77z" glyph-name="Wacute" horiz-adv-x="905" unicode="Ẃ"/><glyph d="M118 0l-65 502h90l39 -386h6l180 386h81l43 -386h4l177 386h90l-242 -502h-92l-41 366h-4l-172 -366h-94zM370 560l112 180h103l-138 -180h-77z" glyph-name="wacute" horiz-adv-x="727" unicode="ẃ"/><glyph d="M552 0l-42 549h-6l-236 -549h-99l-80 700h98l55 -549h4l236 549h98l42 -549h6l247 549h99l-327 -700h-95zM641 810q-21 0 -34 12t-13 31q0 25 20 44.5t46 19.5q21 0 33.5 -12.5t12.5 -31.5q0 -25 -19.5 -44t-45.5 -19zM460 810q-21 0 -34 12t-13 31q0 25 19.5 44.5 t45.5 19.5q21 0 34 -12.5t13 -31.5q0 -25 -19.5 -44t-45.5 -19z" glyph-name="Wdieresis" horiz-adv-x="905" unicode="Ẅ"/><glyph d="M118 0l-65 502h90l39 -386h6l180 386h81l43 -386h4l177 386h90l-242 -502h-92l-41 366h-4l-172 -366h-94zM517 612q-21 0 -34 12t-13 31q0 25 20 44.5t46 19.5q21 0 33.5 -12.5t12.5 -31.5q0 -25 -19.5 -44t-45.5 -19zM336 612q-21 0 -34 12t-13 31q0 25 19.5 44.5 t45.5 19.5q21 0 34 -12.5t13 -31.5q0 -25 -19.5 -44t-45.5 -19z" glyph-name="wdieresis" horiz-adv-x="727" unicode="ẅ"/><glyph d="M-16 0l13 73l515 544h-389l14 83h515l-12 -73l-516 -544h439l-14 -83h-565zM228 -217q-21 0 -34 12.5t-13 31.5q0 26 19.5 44.5t46.5 18.5q21 0 33.5 -12t12.5 -31q0 -26 -19.5 -45t-45.5 -19z" glyph-name="uni1E92" horiz-adv-x="622" unicode="Ẓ"/><glyph d="M-20 0l13 71l352 355h-275l13 76h392l-13 -71l-353 -355h300l-13 -76h-416zM140 -217q-21 0 -34 12.5t-13 31.5q0 26 19.5 44.5t46.5 18.5q21 0 33.5 -12t12.5 -31q0 -26 -19.5 -45t-45.5 -19z" glyph-name="uni1E93" horiz-adv-x="464" unicode="ẓ"/><glyph d="M319 -15q-85 0 -131 15l14 82q51 -15 117 -15q95 0 147 38t52 103q0 39 -18.5 60t-54.5 33q-70 25 -81 83t44 117l105 116h-301l-109 -617h-91l123 700h513l-13 -76l-179 -192q-14 -15 -12.5 -28.5t18.5 -18.5q147 -42 147 -173q0 -102 -77 -164.5t-213 -62.5z" glyph-name="uni1E9E" horiz-adv-x="648" unicode="ẞ"/><glyph d="M-34 0l401 700h103l155 -700h-94l-46 210h-298l-118 -210h-103zM257 -217q-21 0 -34 12.5t-13 31.5q0 26 19.5 44.5t46.5 18.5q21 0 33.5 -12t12.5 -31q0 -26 -19.5 -45t-45.5 -19zM229 291h242l-66 306h-4z" glyph-name="uni1EA0" horiz-adv-x="679" unicode="Ạ"/><glyph d="M169 -15q-75 0 -117.5 38t-42.5 103q0 70 49.5 114.5t135.5 49.5l150 10q35 2 43 41q11 51 -17.5 76.5t-82.5 25.5q-57 0 -94.5 -25.5t-45.5 -72.5h-87q19 84 79 128t153 44q100 0 147.5 -51.5t29.5 -155.5l-42 -234h41l-13 -76h-37q-38 0 -54.5 23t-9.5 65l1 3 q-64 -106 -186 -106zM186 58q68 0 118 44t64 119l4 17l-159 -10q-115 -7 -115 -93q0 -77 88 -77zM183 -217q-21 0 -34 12.5t-13 31.5q0 26 19.5 44.5t46.5 18.5q21 0 33.5 -12t12.5 -31q0 -26 -19.5 -45t-45.5 -19z" glyph-name="uni1EA1" horiz-adv-x="521" unicode="ạ"/><glyph d="M12 0l123 700h497l-14 -82h-406l-39 -219h365l-13 -80h-366l-42 -237h416l-14 -82h-507zM227 -217q-21 0 -34 12.5t-13 31.5q0 26 19.5 44.5t46.5 18.5q21 0 33.5 -12t12.5 -31q0 -26 -19.5 -45t-45.5 -19z" glyph-name="uni1EB8" horiz-adv-x="581" unicode="Ẹ"/><glyph d="M234 -15q-97 0 -153.5 57t-56.5 158q0 77 30 147.5t96 120t154 49.5q116 0 169.5 -80t15.5 -211h-378q-9 -78 23.5 -122.5t101.5 -44.5q54 0 90 24.5t52 58.5h91q-28 -70 -88 -113.5t-147 -43.5zM187 -217q-21 0 -34 12.5t-13 31.5q0 26 19.5 44.5t46.5 18.5 q21 0 33.5 -12t12.5 -31q0 -26 -19.5 -45t-45.5 -19zM126 295h288q14 65 -17 107t-96 42q-63 0 -109.5 -40.5t-65.5 -108.5z" glyph-name="uni1EB9" horiz-adv-x="524" unicode="ẹ"/><glyph d="M12 0l123 700h497l-14 -82h-406l-39 -219h365l-13 -80h-366l-42 -237h416l-14 -82h-507zM461 847q14 -13 28 -8.5t22 23.5l15 36h78q-19 -57 -55.5 -89t-75.5 -30.5t-77 28.5l-31 26q-15 12 -29 7.5t-22 -22.5l-15 -37h-77q29 85 92 111t117 -20z" glyph-name="uni1EBC" horiz-adv-x="581" unicode="Ẽ"/><glyph d="M234 -15q-97 0 -153.5 57t-56.5 158q0 77 30 147.5t96 120t154 49.5q116 0 169.5 -80t15.5 -211h-378q-9 -78 23.5 -122.5t101.5 -44.5q54 0 90 24.5t52 58.5h91q-28 -70 -88 -113.5t-147 -43.5zM380 649q14 -13 28 -8.5t22 23.5l15 36h78q-19 -57 -55.5 -89t-75.5 -30.5 t-77 28.5l-31 26q-15 12 -29 7.5t-22 -22.5l-15 -37h-77q29 85 92 111t117 -20zM126 295h288q14 65 -17 107t-96 42q-63 0 -109.5 -40.5t-65.5 -108.5z" glyph-name="uni1EBD" horiz-adv-x="524" unicode="ẽ"/><glyph d="M12 0l123 700h91l-123 -700h-91zM19 -217q-21 0 -34 12.5t-13 31.5q0 26 19.5 44.5t46.5 18.5q21 0 33.5 -12t12.5 -31q0 -26 -19.5 -45t-45.5 -19z" glyph-name="uni1ECA" horiz-adv-x="203" unicode="Ị"/><glyph d="M12 0l88 502h86l-89 -502h-85zM163 612q-21 0 -34 12t-13 31q0 25 19.5 44.5t45.5 19.5q21 0 34 -12.5t13 -31.5q0 -25 -19.5 -44t-45.5 -19zM16 -217q-21 0 -34 12.5t-13 31.5q0 26 19.5 44.5t46.5 18.5q21 0 33.5 -12t12.5 -31q0 -26 -19.5 -45t-45.5 -19z" glyph-name="uni1ECB" horiz-adv-x="198" unicode="ị"/><glyph d="M323 -15q-131 0 -207.5 76t-76.5 216q0 83 28 161.5t78 140t126.5 99t166.5 37.5q131 0 208 -77t77 -214q0 -79 -26.5 -155.5t-75 -140.5t-126.5 -103.5t-172 -39.5zM328 68q89 0 158.5 51.5t104.5 130.5t35 167q0 103 -50.5 159t-142.5 56q-89 0 -158 -52.5t-104 -132 t-35 -168.5q0 -103 50 -157t142 -54zM280 -217q-21 0 -34 12.5t-13 31.5q0 26 19.5 44.5t46.5 18.5q21 0 33.5 -12t12.5 -31q0 -26 -19.5 -45t-45.5 -19z" glyph-name="uni1ECC" horiz-adv-x="727" unicode="Ọ"/><glyph d="M238 -15q-98 0 -156 57t-58 162q0 80 32.5 150t100 116.5t155.5 46.5q98 0 156 -57t58 -161q0 -80 -33 -150.5t-100 -117t-155 -46.5zM243 61q88 0 141 71t53 163q0 69 -34 107.5t-96 38.5q-87 0 -140.5 -71t-53.5 -162q0 -69 34 -108t96 -39zM192 -217q-21 0 -34 12.5 t-13 31.5q0 26 19.5 44.5t46.5 18.5q21 0 33.5 -12t12.5 -31q0 -26 -19.5 -45t-45.5 -19z" glyph-name="uni1ECD" horiz-adv-x="550" unicode="ọ"/><glyph d="M280 -15q-131 0 -192.5 77t-38.5 208l76 430h91l-74 -421q-19 -108 16 -159.5t128 -51.5q187 0 224 211l73 421h91l-75 -430q-25 -139 -109 -212t-210 -73zM238 -217q-21 0 -34 12.5t-13 31.5q0 26 19.5 44.5t46.5 18.5q21 0 33.5 -12t12.5 -31q0 -26 -19.5 -45 t-45.5 -19z" glyph-name="uni1EE4" horiz-adv-x="642" unicode="Ụ"/><glyph d="M177 -15q-85 0 -126.5 53.5t-25.5 143.5l56 320h86l-55 -308q-12 -66 11 -99.5t76 -33.5q65 0 111 48.5t63 147.5l43 245h86l-89 -502h-78l15 83q-61 -98 -173 -98zM164 -217q-21 0 -34 12.5t-13 31.5q0 26 19.5 44.5t46.5 18.5q21 0 33.5 -12t12.5 -31q0 -26 -19.5 -45 t-45.5 -19z" glyph-name="uni1EE5" horiz-adv-x="514" unicode="ụ"/><glyph d="M286 246q6 34 -8 62l-189 392h101l157 -330h4l272 330h111l-326 -391q-24 -30 -30 -62l-43 -247h-92zM394 758l-76 180h102l51 -180h-77z" glyph-name="Ygrave" horiz-adv-x="665" unicode="Ỳ"/><glyph d="M146 -23q19 36 13 63l-106 462h88l82 -381h4l203 381h93l-384 -702h-90zM270 560l-76 180h102l51 -180h-77z" glyph-name="ygrave" horiz-adv-x="488" unicode="ỳ"/><glyph d="M286 246q6 34 -8 62l-189 392h101l157 -330h4l272 330h111l-326 -391q-24 -30 -30 -62l-43 -247h-92zM250 -217q-21 0 -34 12.5t-13 31.5q0 26 19.5 44.5t46.5 18.5q21 0 33.5 -12t12.5 -31q0 -26 -19.5 -45t-45.5 -19z" glyph-name="uni1EF4" horiz-adv-x="665" unicode="Ỵ"/><glyph d="M146 -23q19 36 13 63l-106 462h88l82 -381h4l203 381h93l-384 -702h-90zM328 -217q-21 0 -34 12.5t-13 31.5q0 26 19.5 44.5t46.5 18.5q21 0 33.5 -12t12.5 -31q0 -26 -19.5 -45t-45.5 -19z" glyph-name="uni1EF5" horiz-adv-x="488" unicode="ỵ"/><glyph d="M286 246q6 34 -8 62l-189 392h101l157 -330h4l272 330h111l-326 -391q-24 -30 -30 -62l-43 -247h-92zM485 847q14 -13 28 -8.5t22 23.5l15 36h78q-19 -57 -55.5 -89t-75.5 -30.5t-77 28.5l-31 26q-15 12 -29 7.5t-22 -22.5l-15 -37h-77q29 85 92 111t117 -20z" glyph-name="uni1EF8" horiz-adv-x="665" unicode="Ỹ"/><glyph d="M146 -23q19 36 13 63l-106 462h88l82 -381h4l203 381h93l-384 -702h-90zM362 649q14 -13 28 -8.5t22 23.5l15 36h78q-19 -57 -55.5 -89t-75.5 -30.5t-77 28.5l-31 26q-15 12 -29 7.5t-22 -22.5l-15 -37h-77q29 85 92 111t117 -20z" glyph-name="uni1EF9" horiz-adv-x="488" unicode="ỹ"/><glyph glyph-name="uni2000" horiz-adv-x="500" unicode=" "/><glyph glyph-name="uni2001" horiz-adv-x="1000" unicode=" "/><glyph glyph-name="uni2002" horiz-adv-x="500" unicode=" "/><glyph glyph-name="uni2003" horiz-adv-x="1000" unicode=" "/><glyph glyph-name="uni2004" horiz-adv-x="333" unicode=" "/><glyph glyph-name="uni2005" horiz-adv-x="250" unicode=" "/><glyph glyph-name="uni2006" horiz-adv-x="166" unicode=" "/><glyph glyph-name="uni2007" horiz-adv-x="557" unicode=" "/><glyph glyph-name="uni2008" horiz-adv-x="253" unicode=" "/><glyph glyph-name="uni2009" horiz-adv-x="125" unicode=" "/><glyph glyph-name="uni200A" horiz-adv-x="70" unicode=" "/><glyph glyph-name="uni200B" unicode="​"/><glyph d="M104 223l12 76h415l-12 -76h-415z" glyph-name="endash" horiz-adv-x="632" unicode="–"/><glyph d="M104 223l12 76h716l-13 -76h-715z" glyph-name="emdash" horiz-adv-x="932" unicode="—"/><glyph d="M206 562q-14 -24 3 -33q20 -12 20 -37t-18.5 -44.5t-47.5 -19.5q-24 0 -38 14.5t-14 37.5q0 29 33 85l79 135h66z" glyph-name="quoteleft" horiz-adv-x="262" unicode="‘"/><glyph d="M169 581q14 25 -3 33q-20 12 -20 37t18.5 44.5t47.5 19.5q24 0 38 -14.5t14 -37.5q0 -29 -33 -85l-79 -135h-66z" glyph-name="quoteright" horiz-adv-x="262" unicode="’"/><glyph d="M60 -40q14 24 -3 33q-20 12 -20 37t18.5 44.5t47.5 19.5q24 0 38 -14.5t14 -37.5q0 -30 -33 -85l-79 -135h-66z" glyph-name="quotesinglbase" horiz-adv-x="262" unicode="‚"/><glyph d="M146 578q-6 27 -6 52q0 39 19 62t52 23q23 0 36 -12t13 -32q0 -19 -10.5 -34.5t-27.5 -23.5q-19 -9 -14 -32l35 -138h-65z" glyph-name="quotereversed" horiz-adv-x="262" unicode="‛"/><glyph d="M376 562q-14 -24 3 -33q20 -12 20 -37t-18.5 -44.5t-47.5 -19.5q-24 0 -38 14.5t-14 37.5q0 29 33 85l79 135h66zM206 562q-14 -24 3 -33q20 -12 20 -37t-18.5 -44.5t-47.5 -19.5q-24 0 -38 14.5t-14 37.5q0 29 33 85l79 135h66z" glyph-name="quotedblleft" horiz-adv-x="432" unicode="“"/><glyph d="M169 581q14 25 -3 33q-20 12 -20 37t18.5 44.5t47.5 19.5q24 0 38 -14.5t14 -37.5q0 -29 -33 -85l-79 -135h-66zM339 581q14 25 -3 33q-20 12 -20 37t18.5 44.5t47.5 19.5q24 0 38 -14.5t14 -37.5q0 -29 -33 -85l-79 -135h-66z" glyph-name="quotedblright" horiz-adv-x="432" unicode="”"/><glyph d="M60 -40q14 24 -3 33q-20 12 -20 37t18.5 44.5t47.5 19.5q24 0 38 -14.5t14 -37.5q0 -30 -33 -85l-79 -135h-66zM230 -40q14 24 -3 33q-20 12 -20 37t18.5 44.5t47.5 19.5q24 0 38 -14.5t14 -37.5q0 -30 -33 -85l-79 -135h-66z" glyph-name="quotedblbase" horiz-adv-x="432" unicode="„"/><glyph d="M227 388q8 38 -31 38h-129l14 76h128q39 0 45 38l28 160h86l-28 -160q-8 -38 32 -38h127l-14 -76h-127q-37 0 -45 -38l-82 -468h-86z" glyph-name="dagger" horiz-adv-x="491" unicode="†"/><glyph d="M172 80q8 38 -31 38h-129l14 76h128q39 0 45 38l27 156q8 38 -30 38h-129l13 76h129q39 0 44 38l28 160h86l-28 -160q-6 -38 32 -38h128l-13 -76h-128q-38 0 -46 -38l-27 -156q-8 -38 32 -38h128l-14 -76h-128q-37 0 -45 -38l-28 -160h-86z" glyph-name="daggerdbl" horiz-adv-x="491" unicode="‡"/><glyph d="M204 198q-42 0 -66.5 23t-24.5 60q0 50 37.5 86t90.5 36q40 0 64.5 -22.5t24.5 -59.5q0 -50 -37 -86.5t-89 -36.5z" glyph-name="bullet" horiz-adv-x="424" unicode="•"/><glyph d="M469 -15q-22 0 -35 12t-13 32q0 26 20 45.5t48 19.5q21 0 34 -12t13 -32q0 -26 -19.5 -45.5t-47.5 -19.5zM274 -15q-22 0 -35 12t-13 32q0 26 20 45.5t48 19.5q21 0 34 -12t13 -32q0 -26 -19.5 -45.5t-47.5 -19.5zM80 -15q-22 0 -35 12t-13 32q0 26 20 45.5t48 19.5 q21 0 34 -12t13 -32q0 -26 -19.5 -45.5t-47.5 -19.5z" glyph-name="ellipsis" horiz-adv-x="642" unicode="…"/><glyph glyph-name="uni202F" horiz-adv-x="55" unicode=" "/><glyph d="M45 0l566 700h87l-567 -700h-86zM194 337q-58 0 -90 35t-32 98q0 103 53.5 171.5t134.5 68.5q59 0 91 -34.5t32 -97.5q0 -104 -53.5 -172.5t-135.5 -68.5zM205 398q43 0 72.5 50t29.5 122q0 79 -58 79q-42 0 -71.5 -51t-29.5 -123q0 -77 57 -77zM482 -8q-59 0 -91 35 t-32 98q0 103 54 171.5t134 68.5q60 0 92 -34.5t32 -97.5q0 -104 -54 -172.5t-135 -68.5zM493 53q42 0 71.5 50t29.5 122q0 79 -58 79q-42 0 -71 -51t-29 -123q0 -77 57 -77zM833 -8q-59 0 -91 35t-32 98q0 103 54 171.5t134 68.5q60 0 92 -34.5t32 -97.5q0 -104 -54 -172.5 t-135 -68.5zM844 53q42 0 71.5 50t29.5 122q0 79 -58 79q-42 0 -71 -51t-29 -123q0 -77 57 -77z" glyph-name="perthousand" horiz-adv-x="1048" unicode="‰"/><glyph d="M79 168q-46 83 30 166l150 168h107l-235 -261l134 -241h-93z" glyph-name="guilsinglleft" horiz-adv-x="394" unicode="‹"/><glyph d="M28 0l236 261l-134 241h93l92 -168q46 -84 -29 -166l-150 -168h-108z" glyph-name="guilsinglright" horiz-adv-x="394" unicode="›"/><glyph d="M-254 0l563 700h90l-563 -700h-90z" glyph-name="fraction" horiz-adv-x="110" unicode="⁄"/><glyph d="M88 93q-11 16 -5.5 33.5t24.5 31.5l210 163l-246 -14q-21 -1 -32.5 8.5t-11.5 25.5q0 25 18 39.5t42 12.5l241 -14l-154 163q-14 13 -12.5 32.5t19.5 34.5q16 14 34.5 12.5t30.5 -19.5l130 -182l29 243q2 22 16 37t36 15q21 0 30 -14.5t4 -37.5l-57 -242l195 181 q17 16 34.5 19t32.5 -12q12 -16 7 -34.5t-24 -32.5l-211 -163l246 14q21 1 32.5 -8.5t11.5 -25.5q0 -25 -18 -39.5t-42 -12.5l-241 14l154 -163q14 -14 12.5 -32.5t-17.5 -33.5q-15 -14 -34.5 -13t-31.5 19l-130 182l-29 -243q-2 -22 -16.5 -37t-36.5 -15q-21 0 -30 15 t-4 37l56 242l-193 -181q-19 -17 -38 -19t-31 14z" glyph-name="uni2055" horiz-adv-x="750" unicode="⁕"/><glyph glyph-name="uni205F" horiz-adv-x="222" unicode=" "/><glyph d="M207 367q-60 0 -94 35.5t-34 107.5q0 36 9 73t28 74t56 60t87 23q59 0 93 -36t34 -109q0 -36 -9 -73t-28 -73t-56 -59t-86 -23zM211 428q27 0 47.5 18.5t31 46.5t15.5 55.5t5 52.5q0 78 -56 78q-35 0 -58.5 -32.5t-32 -69.5t-8.5 -72q0 -77 56 -77z" glyph-name="uni2070" horiz-adv-x="360" unicode="⁰"/><glyph d="M144 523h77q23 0 27 20l19 111zM63 462l12 61l197 209h79l-36 -209h64l-11 -61h-65l-14 -87h-73l15 87h-168z" glyph-name="uni2074" horiz-adv-x="355" unicode="⁴"/><glyph d="M144 489q-3 -29 14 -45t48 -16q36 0 57 21.5t21 50.5q0 58 -62 58q-37 0 -63 -26h-71l57 200h235l-10 -61h-174l-23 -80q29 24 73 24q51 0 82 -28.5t31 -80.5q0 -58 -41 -98.5t-114 -40.5q-63 0 -102 32t-32 90h74z" glyph-name="uni2075" horiz-adv-x="343" unicode="⁵"/><glyph d="M207 367q-57 0 -94 34t-37 108q0 40 10.5 79t31.5 74t58 56.5t83 21.5q55 0 86 -27.5t31 -73.5h-71q-2 41 -51 41q-39 0 -67 -31t-36 -87q25 46 92 46q51 0 81.5 -27.5t31.5 -72.5q1 -58 -40.5 -99.5t-108.5 -41.5zM208 428q34 0 54 20.5t20 48.5q0 25 -15.5 39.5 t-43.5 14.5q-34 0 -55 -21.5t-19 -50.5q1 -24 17 -37.5t42 -13.5z" glyph-name="uni2076" horiz-adv-x="341" unicode="⁶"/><glyph d="M92 375l204 296h-199l11 61h284l-10 -53l-208 -304h-82z" glyph-name="uni2077" horiz-adv-x="334" unicode="⁷"/><glyph d="M203 367q-60 0 -98 26.5t-38 73.5q0 37 24 66.5t66 43.5q-41 21 -41 64t39.5 71t98.5 28q53 0 85 -23t32 -61q0 -58 -65 -84q56 -24 56 -82q0 -52 -43.5 -87.5t-115.5 -35.5zM208 428q36 0 58 16.5t22 42.5q0 50 -66 50q-36 0 -59 -17t-23 -43q0 -23 18.5 -36t49.5 -13z M238 593q28 0 45.5 14t17.5 35q0 19 -14.5 30t-39.5 11q-28 0 -45.5 -14t-17.5 -35q0 -18 14.5 -29.5t39.5 -11.5z" glyph-name="uni2078" horiz-adv-x="350" unicode="⁸"/><glyph d="M186 367q-55 0 -86 27.5t-31 73.5h71q1 -18 14 -29.5t37 -11.5q38 0 65 29t37 82q-25 -39 -91 -39q-50 0 -81 27.5t-32 72.5q-1 57 40.5 99t108.5 42q57 0 94 -34t37 -108q0 -55 -17.5 -105.5t-61 -88t-104.5 -37.5zM222 556q35 0 55.5 21.5t18.5 51.5q-1 24 -17 37 t-42 13q-34 0 -54 -20.5t-20 -48.5q0 -25 16 -39.5t43 -14.5z" glyph-name="uni2079" horiz-adv-x="338" unicode="⁹"/><glyph d="M123 -108q-60 0 -94 35.5t-34 107.5q0 36 9 73t28 74t56 60t87 23q59 0 93 -36t34 -109q0 -36 -9 -73t-28 -73t-56 -59t-86 -23zM127 -47q27 0 47.5 18.5t31 46.5t15.5 55.5t5 52.5q0 78 -56 78q-35 0 -58.5 -32.5t-32 -69.5t-8.5 -72q0 -77 56 -77z" glyph-name="uni2080" horiz-adv-x="360" unicode="₀"/><glyph d="M0 125l12 61h81q22 0 26 20l9 51h73l-63 -357h-73l36 204q3 21 -19 21h-82z" glyph-name="uni2081" horiz-adv-x="244" unicode="₁"/><glyph d="M153 96q29 16 44.5 31.5t15.5 36.5q0 40 -51 40q-63 0 -74 -68h-74q10 63 51 96t104 33q56 0 87 -25.5t31 -69.5q0 -71 -99 -125l-67 -37q-38 -21 -56 -47h189l-11 -61h-280q19 102 119 156z" glyph-name="uni2082" horiz-adv-x="334" unicode="₂"/><glyph d="M138 113q32 0 50.5 14.5t18.5 36.5q0 40 -51 40q-58 0 -69 -60h-73q10 58 49.5 89.5t101.5 31.5q54 0 85.5 -23.5t31.5 -64.5q0 -59 -64 -85q50 -23 50 -77q0 -53 -41.5 -88t-111.5 -35q-67 0 -104.5 33t-26.5 92h73q-5 -30 12 -47t50 -17t53.5 16t20.5 41q0 45 -67 45 h-27l4 23l6 35h29z" glyph-name="uni2083" horiz-adv-x="340" unicode="₃"/><glyph d="M60 48h77q23 0 27 20l19 111zM-21 -13l12 61l197 209h79l-36 -209h64l-11 -61h-65l-14 -87h-73l15 87h-168z" glyph-name="uni2084" horiz-adv-x="355" unicode="₄"/><glyph d="M60 14q-3 -29 14 -45t48 -16q36 0 57 21.5t21 50.5q0 58 -62 58q-37 0 -63 -26h-71l57 200h235l-10 -61h-174l-23 -80q29 24 73 24q51 0 82 -28.5t31 -80.5q0 -58 -41 -98.5t-114 -40.5q-63 0 -102 32t-32 90h74z" glyph-name="uni2085" horiz-adv-x="343" unicode="₅"/><glyph d="M123 -108q-57 0 -94 34t-37 108q0 40 10.5 79t31.5 74t58 56.5t83 21.5q55 0 86 -27.5t31 -73.5h-71q-2 41 -51 41q-39 0 -67 -31t-36 -87q25 46 92 46q51 0 81.5 -27.5t31.5 -72.5q1 -58 -40.5 -99.5t-108.5 -41.5zM124 -47q34 0 54 20.5t20 48.5q0 25 -15.5 39.5 t-43.5 14.5q-34 0 -55 -21.5t-19 -50.5q1 -24 17 -37.5t42 -13.5z" glyph-name="uni2086" horiz-adv-x="341" unicode="₆"/><glyph d="M8 -100l204 296h-199l11 61h284l-10 -53l-208 -304h-82z" glyph-name="uni2087" horiz-adv-x="334" unicode="₇"/><glyph d="M119 -108q-60 0 -98 26.5t-38 73.5q0 37 24 66.5t66 43.5q-41 20 -41 64q0 43 39.5 71t98.5 28q53 0 85 -23t32 -61q0 -58 -65 -84q56 -24 56 -82q0 -52 -43.5 -87.5t-115.5 -35.5zM124 -47q36 0 58 16.5t22 42.5q0 50 -66 50q-36 0 -59 -17t-23 -43q0 -23 18.5 -36 t49.5 -13zM154 118q28 0 45.5 14t17.5 35q0 19 -14.5 30t-39.5 11q-28 0 -45.5 -14t-17.5 -35q0 -18 14.5 -29.5t39.5 -11.5z" glyph-name="uni2088" horiz-adv-x="350" unicode="₈"/><glyph d="M102 -108q-55 0 -86 27.5t-31 73.5h71q1 -18 14 -29.5t37 -11.5q38 0 65 29t37 82q-25 -39 -91 -39q-50 0 -81 27.5t-32 72.5q-1 57 40.5 99t108.5 42q57 0 94 -34t37 -108q0 -55 -17.5 -105.5t-61 -88t-104.5 -37.5zM138 81q35 0 55.5 21.5t18.5 51.5q-1 24 -17 37 t-42 13q-34 0 -54 -20.5t-20 -48.5q0 -25 16 -39.5t43 -14.5z" glyph-name="uni2089" horiz-adv-x="338" unicode="₉"/><glyph d="M279 -15q-110 0 -175.5 71.5t-65.5 199.5q0 192 101 325.5t251 133.5q115 0 175 -75.5t52 -201.5h-81q3 93 -36 147t-116 54t-134 -49t-73 -96q-9 -26 15 -26h165l-12 -70h-174q-27 0 -32 -26q-2 -12 -3.5 -19.5t-2 -9t-1 -4.5t-0.5 -10q0 -21 23 -21h174l-12 -70h-166 q-26 0 -26 -30q0 -19 8.5 -42.5t25 -47.5t49 -40.5t74.5 -16.5q78 0 136 53.5t88 150.5h84q-37 -131 -117.5 -205.5t-193.5 -74.5z" glyph-name="Euro" horiz-adv-x="615" unicode="€"/><glyph d="M43 288l13 75h168q52 0 100.5 22.5t67.5 73.5h-320l13 71h317q-4 50 -34.5 72.5t-92.5 22.5h-173l13 75h512l-13 -75h-142q24 -37 24 -91v-4h101l-13 -71h-101q-30 -82 -119 -114q51 -20 69 -90l71 -255h-91l-72 261q-7 27 -37 27h-261z" glyph-name="uni20B9" horiz-adv-x="584" unicode="₹"/><glyph d="M62 0l24 138h-70l12 71h71l16 91h-70l14 77h69l57 323h265q87 0 143 -46.5t56 -129.5q0 -89 -64.5 -156.5t-179.5 -67.5h-198l-16 -91h238l-12 -71h-239l-24 -138h-92zM398 377q78 0 118 40.5t40 96.5q0 103 -124 103h-169l-42 -240h177z" glyph-name="uni20BD" horiz-adv-x="622" unicode="₽"/><glyph d="M12 0l123 700h89q30 0 35 29l9 51h82l-9 -51q-5 -29 23 -29h18q30 0 35 29l9 51h82l-11 -60q-4 -25 19 -31q46 -15 73 -49t27 -83q0 -63 -36 -112t-94 -69q95 -37 95 -140q0 -81 -51 -144t-132 -84q-29 -6 -33 -31l-9 -57h-82l9 51q5 29 -24 29h-18q-29 0 -34 -29l-9 -51 h-82l10 51q5 29 -25 29h-89zM335 76q69 0 113.5 41t44.5 106q0 46 -30 72t-85 26h-224l-43 -245h224zM381 399q65 0 105.5 38t40.5 99q0 41 -27.5 64.5t-78.5 23.5h-213l-40 -225h213z" glyph-name="uni20BF" horiz-adv-x="615" unicode="₿"/><glyph d="M186 613q5 24 -20 24h-80l11 63h282l-10 -63h-81q-24 0 -29 -24l-48 -272h-73zM537 341l-39 285l-50 -285h-70l63 359h111l35 -253l122 253h116l-63 -359h-70l50 285l-139 -285h-66z" glyph-name="trademark" horiz-adv-x="785" unicode="™"/><glyph d="M79 570l12 61h81q23 0 26 20l9 51h73l-63 -357h-73l36 204q3 21 -19 21h-82zM6 0l563 700h90l-563 -700h-90zM468 -8q-60 0 -98 26.5t-38 73.5q0 37 24 66.5t66 43.5q-41 20 -41 64q0 43 39.5 71t98.5 28q53 0 85 -23t32 -61q0 -58 -65 -84q56 -24 56 -82 q0 -52 -43.5 -87.5t-115.5 -35.5zM473 53q36 0 58 16.5t22 42.5q0 50 -66 50q-36 0 -59 -17t-23 -43q0 -23 18.5 -36t49.5 -13zM503 218q28 0 45.5 14t17.5 35q0 19 -14.5 30t-39.5 11q-28 0 -45.5 -14t-17.5 -35q0 -18 14.5 -29.5t39.5 -11.5z" glyph-name="oneeighth" horiz-adv-x="696" unicode="⅛"/><glyph d="M217 558q32 0 50.5 14.5t18.5 36.5q0 40 -51 40q-58 0 -69 -60h-73q10 58 49.5 89.5t101.5 31.5q54 0 85.5 -23.5t31.5 -64.5q0 -59 -64 -85q50 -23 50 -77q0 -53 -41.5 -88t-111.5 -35q-67 0 -104.5 33t-26.5 92h73q-5 -30 11.5 -47t50.5 -17q33 0 53.5 16t20.5 41 q0 45 -67 45h-27l4 23l6 35h29zM74 0l563 700h90l-563 -700h-90zM542 -8q-60 0 -98 26.5t-38 73.5q0 37 24 66.5t66 43.5q-41 20 -41 64q0 43 39.5 71t98.5 28q53 0 85 -23t32 -61q0 -58 -65 -84q56 -24 56 -82q0 -52 -43.5 -87.5t-115.5 -35.5zM547 53q36 0 58 16.5 t22 42.5q0 50 -66 50q-36 0 -59 -17t-23 -43q0 -23 18.5 -36t49.5 -13zM577 218q28 0 45.5 14t17.5 35q0 19 -14.5 30t-39.5 11q-28 0 -45.5 -14t-17.5 -35q0 -18 14.5 -29.5t39.5 -11.5z" glyph-name="threeeighths" horiz-adv-x="754" unicode="⅜"/><glyph d="M139 459q-3 -29 14 -45t48 -16q36 0 57 21.5t21 50.5q0 58 -62 58q-37 0 -63 -26h-71l57 200h235l-10 -61h-174l-23 -80q29 24 73 24q51 0 82 -28.5t31 -80.5q0 -58 -41 -98.5t-114 -40.5q-63 0 -102 32t-32 90h74zM71 0l563 700h90l-563 -700h-90zM538 -8 q-60 0 -98 26.5t-38 73.5q0 37 24 66.5t66 43.5q-41 20 -41 64q0 43 39.5 71t98.5 28q53 0 85 -23t32 -61q0 -58 -65 -84q56 -24 56 -82q0 -52 -43.5 -87.5t-115.5 -35.5zM543 53q36 0 58 16.5t22 42.5q0 50 -66 50q-36 0 -59 -17t-23 -43q0 -23 18.5 -36t49.5 -13zM573 218 q28 0 45.5 14t17.5 35q0 19 -14.5 30t-39.5 11q-28 0 -45.5 -14t-17.5 -35q0 -18 14.5 -29.5t39.5 -11.5z" glyph-name="fiveeighths" horiz-adv-x="749" unicode="⅝"/><glyph d="M87 345l204 296h-199l11 61h284l-10 -53l-208 -304h-82zM-9 0l563 700h90l-563 -700h-90zM459 -8q-60 0 -98 26.5t-38 73.5q0 37 24 66.5t66 43.5q-41 20 -41 64q0 43 39.5 71t98.5 28q53 0 85 -23t32 -61q0 -58 -65 -84q56 -24 56 -82q0 -52 -43.5 -87.5t-115.5 -35.5z M464 53q36 0 58 16.5t22 42.5q0 50 -66 50q-36 0 -59 -17t-23 -43q0 -23 18.5 -36t49.5 -13zM494 218q28 0 45.5 14t17.5 35q0 19 -14.5 30t-39.5 11q-28 0 -45.5 -14t-17.5 -35q0 -18 14.5 -29.5t39.5 -11.5z" glyph-name="seveneighths" horiz-adv-x="670" unicode="⅞"/><glyph d="M65 295q-30 55 20 112l204 233h99l-215 -248h492l-15 -83h-500l128 -247h-90z" glyph-name="arrowleft" horiz-adv-x="676" unicode="←"/><glyph d="M222 0l107 605l-258 -160l16 98l241 151q63 40 112 0l187 -151l-14 -85l-196 153l-109 -611h-86z" glyph-name="arrowup" horiz-adv-x="612" unicode="↑"/><glyph d="M324 62l214 248h-491l14 82h501l-128 248h90l123 -233q16 -30 11 -56t-31 -56l-205 -233h-98z" glyph-name="arrowright" horiz-adv-x="676" unicode="→"/><glyph d="M207 6l-188 151l15 84l196 -152l108 611h87l-108 -605l259 160l-17 -98l-240 -151q-64 -41 -112 0z" glyph-name="arrowdown" horiz-adv-x="612" unicode="↓"/><glyph d="M65 295q-30 56 20 112l115 132h97l-125 -147h486l-74 147h87l70 -132q30 -56 -20 -112l-116 -132h-97l125 147h-485l77 -147h-91z" glyph-name="arrowboth" horiz-adv-x="770" unicode="↔"/><glyph d="M125 6l-116 93l15 87l127 -99l94 517l-164 -102l16 100l149 92q63 40 112 0l116 -92l-15 -87l-126 98l-94 -516l163 101l-16 -99l-149 -93q-63 -40 -112 0z" glyph-name="arrowupdn" horiz-adv-x="448" unicode="↕"/><glyph d="M583 109l-396 452l-55 -316h-77l66 376q6 36 31.5 57.5t61.5 21.5h376l-13 -76h-330l401 -456z" glyph-name="uni2196" horiz-adv-x="699" unicode="↖"/><glyph d="M72 109l-50 64l556 451h-324l12 76h376q36 0 54 -21.5t12 -57.5l-66 -376h-77l54 309z" glyph-name="uni2197" horiz-adv-x="699" unicode="↗"/><glyph d="M143 0l13 76h331l-401 456l64 59l396 -452l55 316h77l-66 -376q-6 -36 -31.5 -57.5t-61.5 -21.5h-376z" glyph-name="uni2198" horiz-adv-x="699" unicode="↘"/><glyph d="M91 0q-36 0 -53.5 21.5t-11.5 57.5l66 376h76l-54 -311l548 447l49 -64l-553 -451h322l-13 -76h-376z" glyph-name="uni2199" horiz-adv-x="699" unicode="↙"/><glyph d="M230 -15q-95 0 -151.5 56t-56.5 155q0 115 71.5 204t189.5 89q60 0 104.5 -25.5t62.5 -70.5q4 114 -31.5 198t-113.5 149h102q56 -45 89.5 -131t33.5 -194q0 -58 -9.5 -115.5t-32 -115t-56 -101t-86 -71t-116.5 -27.5zM239 61q82 0 132 61t53 143q3 69 -31.5 109 t-96.5 40q-82 0 -133 -65.5t-51 -150.5q0 -66 34 -101.5t93 -35.5z" glyph-name="partialdiff" horiz-adv-x="538" unicode="∂"/><glyph d="M23 -46l-49 60l91 76q17 15 7 37q-20 48 -20 104q0 135 98 237.5t242 102.5q91 0 156 -45q20 -14 38 1l90 74l48 -59l-90 -75q-16 -15 -7 -37q20 -52 20 -105q0 -134 -97 -237.5t-241 -103.5q-91 0 -159 46q-18 14 -38 -1zM311 58q106 0 180.5 79t74.5 182q0 43 -15 78 l-356 -300q45 -39 116 -39zM132 237q0 -41 16 -78l356 300q-44 38 -115 38q-107 0 -182 -78.5t-75 -181.5z" glyph-name="emptyset" horiz-adv-x="689" unicode="∅"/><glyph d="M174 577q8 40 -33 40h-64l14 83h549l-14 -83h-64q-42 0 -48 -40l-116 -657h-91l116 657q6 40 -33 40h-77q-41 0 -47 -40l-116 -657h-92z" glyph-name="product" horiz-adv-x="573" unicode="∏"/><glyph d="M-30 -80l23 130l320 249q40 28 10 57l-236 229l20 115h496l-14 -82h-423l266 -261l-12 -68l-370 -287h440l-14 -82h-506z" glyph-name="summation" horiz-adv-x="552" unicode="∑"/><glyph d="M65 305l13 76h419l-13 -76h-419z" glyph-name="minus" horiz-adv-x="531" unicode="−"/><glyph d="M109 -80l41 232q7 40 -34 40h-80l13 76h174l151 472h86l-265 -820h-86z" glyph-name="radical" horiz-adv-x="402" unicode="√"/><glyph d="M220 145q-73 0 -121 46.5t-48 123.5q0 90 61 158t154 68q61 0 106.5 -31.5t66.5 -82.5q35 51 85 82.5t109 31.5q73 0 121 -46.5t48 -123.5q0 -89 -61 -157.5t-154 -68.5q-61 0 -106 32t-66 83q-79 -115 -195 -115zM223 218q53 0 97.5 37.5t68.5 87.5q-8 52 -38.5 88 t-84.5 36q-60 0 -99.5 -43.5t-39.5 -102.5q0 -48 26 -75.5t70 -27.5zM588 218q59 0 98.5 44t39.5 104q0 47 -26 74t-70 27q-52 0 -96.5 -37.5t-68.5 -86.5q7 -51 37.5 -88t85.5 -37z" glyph-name="infinity" horiz-adv-x="820" unicode="∞"/><glyph d="M-47 -65l14 76h71q32 0 46 30l235 520q63 139 202 139h25l-14 -76h-62q-32 0 -45 -30l-237 -520q-64 -139 -206 -139h-29z" glyph-name="integral" horiz-adv-x="476" unicode="∫"/><glyph d="M410 449q13 -10 28.5 -4.5t22.5 22.5l27 64h90q-32 -101 -103.5 -136t-151.5 17l-75 51q-14 10 -30 4.5t-23 -22.5l-26 -64h-90q32 101 103 135.5t154 -17.5zM370 223q13 -10 28.5 -4.5t22.5 22.5l27 64h90q-32 -101 -102.5 -136t-152.5 17l-75 52q-14 10 -29.5 4 t-22.5 -23l-27 -64h-90q32 101 103.5 136t154.5 -18z" glyph-name="approxequal" horiz-adv-x="585" unicode="≈"/><glyph d="M86 417l13 76h177q37 0 53 33l32 68h90l-33 -67q-7 -16 -2 -25t21 -9h80l-14 -76h-105q-36 0 -52 -33l-40 -81q-8 -15 -2 -24.5t22 -9.5h151l-14 -76h-177q-36 0 -52 -33l-33 -68h-89l33 67q7 16 2 25t-21 9h-80l14 76h105q36 0 52 33l40 81q7 15 1.5 24.5t-21.5 9.5 h-151z" glyph-name="notequal" horiz-adv-x="531" unicode="≠"/><glyph d="M458 156l-391 160l15 82l448 168l-15 -89l-273 -97q-29 -11 -31.5 -27.5t23.5 -26.5l238 -89zM12 0l13 76h418l-13 -76h-418z" glyph-name="lessequal" horiz-adv-x="531" unicode="≤"/><glyph d="M40 156l15 89l270 90q29 9 32.5 26t-22.5 27l-237 97l14 81l389 -168l-14 -82zM13 0l13 76h418l-13 -76h-418z" glyph-name="greaterequal" horiz-adv-x="531" unicode="≥"/><glyph d="M142 -15q-60 0 -97 35.5t-37 92.5q0 65 47 112.5t120 47.5h70l26 146h-57q-56 0 -92 37t-36 93q0 65 45.5 112t114.5 47q65 0 101.5 -43t25.5 -112l-10 -55h137l13 74q11 63 53 99.5t102 36.5q59 0 96.5 -36t37.5 -92q0 -66 -47 -113.5t-120 -47.5h-71l-25 -146h56 q57 0 93 -36.5t36 -92.5q0 -65 -45.5 -112t-114.5 -47q-66 0 -102.5 43t-24.5 112l9 55h-137l-13 -74q-10 -63 -52 -99.5t-102 -36.5zM145 63q29 0 49.5 18t25.5 48l12 66h-67q-34 0 -56.5 -22t-22.5 -53q0 -27 16 -42t43 -15zM219 498h66l11 62q5 31 -10.5 50.5t-46.5 19.5 q-34 0 -54.5 -22t-20.5 -55q0 -26 14.5 -40.5t40.5 -14.5zM571 63q34 0 54.5 22.5t20.5 54.5q0 26 -15 40.5t-40 14.5h-66l-11 -62q-5 -31 10.5 -50.5t46.5 -19.5zM324 273h137l25 146h-137zM644 498q35 0 57.5 22t22.5 53q0 26 -16.5 41.5t-42.5 15.5q-30 0 -50 -18 t-25 -48l-12 -66h66z" glyph-name="uni2318" horiz-adv-x="776" unicode="⌘"/><glyph d="M16 0l123 700h686l-123 -700h-686z" glyph-name="filledbox" horiz-adv-x="806" unicode="■"/><glyph d="M16 0l123 700h686l-123 -700h-686zM91 64h558l101 572h-558z" glyph-name="H22073" horiz-adv-x="806" unicode="□"/><glyph d="M211 -80l-175 430l326 430h4l175 -430l-326 -430h-4zM213 104q7 -21 22.5 -21t31.5 21l184 252l-89 240q-8 21 -23 21t-31 -21l-183 -252z" glyph-name="lozenge" horiz-adv-x="542" unicode="◊"/><glyph d="M373 -15q-138 0 -224 81.5t-86 220.5q0 81 31 158.5t85 137t133.5 96t169.5 36.5q138 0 224 -82t86 -221q0 -81 -31 -158t-85 -136.5t-133.5 -96t-169.5 -36.5zM374 49q145 0 246.5 109t101.5 250q0 109 -66 176t-176 67q-144 0 -245.5 -109t-101.5 -250 q0 -109 65.5 -176t175.5 -67z" glyph-name="circle" horiz-adv-x="820" unicode="○"/><glyph d="M110 0l137 272l-203 169h286l137 274l41 -274h287l-261 -169l40 -272l-203 167z" glyph-name="uni2605" horiz-adv-x="771" unicode="★"/><glyph d="M401 -15q-153 130 -233 237.5t-80 218.5q0 114 70.5 194t174.5 80q70 0 113 -33t60 -68q94 101 205 101q80 0 131 -49.5t51 -127.5q0 -59 -27 -119.5t-70 -113.5t-110.5 -111t-132.5 -105.5t-152 -103.5zM409 66q181 123 253 188q161 144 161 275q0 55 -31 86.5t-85 31.5 q-62 0 -120 -44.5t-98 -121.5q-14 77 -56.5 121.5t-104.5 44.5q-75 0 -123 -57.5t-48 -145.5q0 -91 60 -176t192 -202z" glyph-name="uni2661" horiz-adv-x="896" unicode="♡"/><glyph d="M401 -15q-153 130 -233 237.5t-80 218.5q0 112 75 193t178 81q71 0 112.5 -35t56.5 -76q28 40 83 75.5t126 35.5q79 0 126.5 -49t47.5 -128q0 -59 -27 -119.5t-70 -113.5t-110.5 -111t-132.5 -105.5t-152 -103.5z" glyph-name="heart" horiz-adv-x="896" unicode="♥"/><glyph d="M-37 -16l217 356h-154l195 360h163l-179 -262h171z" glyph-name="uni26A1" horiz-adv-x="353" unicode="⚡"/><glyph d="M100 501h25l33 -85q13 -32 44 -28l155 16l-120 311h65l194 -283q15 -23 45 -23h120q75 0 112 -33q16 -13 13 -25q-2 -11 -21 -26q-43 -33 -123 -33h-123q-28 0 -53 -23l-293 -284h-65l231 312l-150 17q-31 4 -54 -28l-63 -87h-25z" glyph-name="uni2708" horiz-adv-x="788" unicode="✈"/><glyph d="M517 585q-7 -122 24 -160t150 -52l-6 -34q-124 -14 -168.5 -52t-80.5 -160h-34q8 122 -23.5 160t-151.5 52l6 34q125 14 169.5 52t80.5 160h34zM232 680q-3 -49 9 -64t60 -20l-4 -22q-49 -5 -67 -20.5t-32 -63.5h-22q3 48 -9 63.5t-60 20.5l4 22q49 5 67 20.5t32 63.5h22 zM234 190q-3 -48 9 -63.5t60 -20.5l-3 -22q-49 -5 -67 -20.5t-32 -63.5h-22q2 49 -10 64t-59 20l3 22q49 5 67 20.5t32 63.5h22z" glyph-name="uni2728" horiz-adv-x="720" unicode="✨"/><glyph d="M350 -15q-138 0 -224 81.5t-86 220.5q0 81 31 158.5t85 137t133.5 96t169.5 36.5q138 0 224 -82t86 -221q0 -81 -31 -158t-85 -136.5t-133.5 -96t-169.5 -36.5zM351 49q145 0 246.5 109t101.5 250q0 109 -66 176t-176 67q-144 0 -245.5 -109t-101.5 -250 q0 -109 65.5 -176t175.5 -67zM305 395l11 60h80q22 0 25 22l13 68h66l-69 -389h-66l38 217q4 22 -18 22h-80z" glyph-name="uni2780" horiz-adv-x="774" unicode="➀"/><glyph d="M231 159q11 61 37 101t85 73l73 40q66 36 66 78q0 45 -51 45q-72 0 -86 -83h-68q11 66 52 104.5t104 38.5q53 0 84.5 -27.5t31.5 -73.5q0 -78 -96 -130l-81 -44q-43 -24 -63 -62h203l-11 -60h-280zM350 -15q-138 0 -224 81.5t-86 220.5q0 81 31 158.5t85 137t133.5 96 t169.5 36.5q138 0 224 -82t86 -221q0 -81 -31 -158t-85 -136.5t-133.5 -96t-169.5 -36.5zM351 49q145 0 246.5 109t101.5 250q0 109 -66 176t-176 67q-144 0 -245.5 -109t-101.5 -250q0 -109 65.5 -176t175.5 -67z" glyph-name="uni2781" horiz-adv-x="774" unicode="➁"/><glyph d="M381 144q-68 0 -104 35.5t-28 101.5h66q-6 -78 69 -78q38 0 62.5 18t24.5 48q0 51 -68 51h-36l10 59h36q33 0 53.5 17.5t20.5 45.5q0 47 -58 47q-68 0 -81 -71h-66q11 63 50 97t104 34q55 0 87.5 -25.5t32.5 -70.5q0 -71 -79 -95q61 -21 61 -84q0 -58 -43.5 -94 t-113.5 -36zM350 -15q-138 0 -224 81.5t-86 220.5q0 81 31 158.5t85 137t133.5 96t169.5 36.5q138 0 224 -82t86 -221q0 -81 -31 -158t-85 -136.5t-133.5 -96t-169.5 -36.5zM351 49q145 0 246.5 109t101.5 250q0 109 -66 176t-176 67q-144 0 -245.5 -109t-101.5 -250 q0 -109 65.5 -176t175.5 -67z" glyph-name="uni2782" horiz-adv-x="774" unicode="➂"/><glyph d="M378 156l16 89h-160l11 60l195 240h73l-42 -240h60l-11 -60h-60l-16 -89h-66zM386 305q22 0 26 22l22 131l-123 -153h75zM350 -15q-138 0 -224 81.5t-86 220.5q0 81 31 158.5t85 137t133.5 96t169.5 36.5q138 0 224 -82t86 -221q0 -81 -31 -158t-85 -136.5t-133.5 -96 t-169.5 -36.5zM351 49q145 0 246.5 109t101.5 250q0 109 -66 176t-176 67q-144 0 -245.5 -109t-101.5 -250q0 -109 65.5 -176t175.5 -67z" glyph-name="uni2783" horiz-adv-x="774" unicode="➃"/><glyph d="M350 -15q-138 0 -224 81.5t-86 220.5q0 81 31 158.5t85 137t133.5 96t169.5 36.5q138 0 224 -82t86 -221q0 -81 -31 -158t-85 -136.5t-133.5 -96t-169.5 -36.5zM351 49q145 0 246.5 109t101.5 250q0 109 -66 176t-176 67q-144 0 -245.5 -109t-101.5 -250 q0 -109 65.5 -176t175.5 -67zM380 144q-63 0 -99.5 36.5t-26.5 95.5h66q-6 -34 11 -53.5t50 -19.5q40 0 65 27t25 63q0 63 -62 63q-48 0 -77 -38h-65l61 223h235l-10 -60h-176l-27 -95q30 27 80 27q48 0 78 -31t30 -83q0 -63 -44 -109t-114 -46z" glyph-name="uni2784" horiz-adv-x="774" unicode="➄"/><glyph d="M382 148q-57 0 -95 35.5t-38 118.5q0 57 17 111.5t60.5 97t106.5 42.5q54 0 86.5 -30.5t32.5 -80.5h-63q-1 23 -17 37t-44 14q-45 0 -76 -36.5t-38 -102.5q11 21 38 34.5t58 13.5q49 0 84.5 -29.5t35.5 -83.5q0 -58 -41 -99.5t-107 -41.5zM382 207q36 0 58.5 22.5 t22.5 54.5q0 29 -18 45t-49 16q-37 0 -59 -21.5t-22 -54.5q0 -29 18.5 -45.5t48.5 -16.5zM350 -15q-138 0 -224 81.5t-86 220.5q0 81 31 158.5t85 137t133.5 96t169.5 36.5q138 0 224 -82t86 -221q0 -81 -31 -158t-85 -136.5t-133.5 -96t-169.5 -36.5zM351 49 q145 0 246.5 109t101.5 250q0 109 -66 176t-176 67q-144 0 -245.5 -109t-101.5 -250q0 -109 65.5 -176t175.5 -67z" glyph-name="uni2785" horiz-adv-x="774" unicode="➅"/><glyph d="M285 156l217 329h-212l11 60h288l-11 -57l-218 -332h-75zM350 -15q-138 0 -224 81.5t-86 220.5q0 81 31 158.5t85 137t133.5 96t169.5 36.5q138 0 224 -82t86 -221q0 -81 -31 -158t-85 -136.5t-133.5 -96t-169.5 -36.5zM351 49q145 0 246.5 109t101.5 250q0 109 -66 176 t-176 67q-144 0 -245.5 -109t-101.5 -250q0 -109 65.5 -176t175.5 -67z" glyph-name="uni2786" horiz-adv-x="774" unicode="➆"/><glyph d="M350 -15q-138 0 -224 81.5t-86 220.5q0 81 31 158.5t85 137t133.5 96t169.5 36.5q138 0 224 -82t86 -221q0 -81 -31 -158t-85 -136.5t-133.5 -96t-169.5 -36.5zM351 49q145 0 246.5 109t101.5 250q0 109 -66 176t-176 67q-144 0 -245.5 -109t-101.5 -250 q0 -109 65.5 -176t175.5 -67zM382 148q-62 0 -100.5 29t-38.5 79q0 41 27 71t70 44q-45 22 -45 73q0 48 40.5 78.5t102.5 30.5q53 0 87 -24t34 -67q0 -66 -77 -93q63 -22 63 -89q0 -58 -46.5 -95t-116.5 -37zM383 207q40 0 68 20t28 51q0 26 -19.5 40.5t-53.5 14.5 q-39 0 -67.5 -19.5t-28.5 -51.5q0 -26 19.5 -40.5t53.5 -14.5zM418 392q31 0 52.5 16.5t21.5 42.5q0 20 -16.5 32t-42.5 12q-31 0 -53 -16t-22 -42q0 -21 16.5 -33t43.5 -12z" glyph-name="uni2787" horiz-adv-x="774" unicode="➇"/><glyph d="M375 148q-54 0 -86.5 30.5t-32.5 80.5h64q0 -23 16 -37t44 -14q45 0 76 36.5t38 102.5q-11 -21 -38 -34.5t-58 -13.5q-49 0 -84.5 29.5t-35.5 83.5q0 58 41 99.5t108 41.5q57 0 95 -35.5t38 -118.5q0 -57 -17 -111.5t-61 -97t-107 -42.5zM350 -15q-138 0 -224 81.5 t-86 220.5q0 81 31 158.5t85 137t133.5 96t169.5 36.5q138 0 224 -82t86 -221q0 -81 -31 -158t-85 -136.5t-133.5 -96t-169.5 -36.5zM351 49q145 0 246.5 109t101.5 250q0 109 -66 176t-176 67q-144 0 -245.5 -109t-101.5 -250q0 -109 65.5 -176t175.5 -67zM412 356 q38 0 59.5 22t21.5 56q0 27 -18.5 43.5t-47.5 16.5q-37 0 -59.5 -23t-22.5 -56q0 -27 18.5 -43t48.5 -16z" glyph-name="uni2788" horiz-adv-x="774" unicode="➈"/><glyph d="M469 148q-56 0 -89.5 40.5t-33.5 113.5q0 39 9.5 80t29 81t55 65t81.5 25q57 0 90.5 -40t33.5 -115q0 -92 -47.5 -171t-128.5 -79zM350 -15q-138 0 -224 81.5t-86 220.5q0 81 31 158.5t85 137t133.5 96t169.5 36.5q138 0 224 -82t86 -221q0 -81 -31 -158t-85 -136.5 t-133.5 -96t-169.5 -36.5zM351 49q145 0 246.5 109t101.5 250q0 109 -66 176t-176 67q-144 0 -245.5 -109t-101.5 -250q0 -109 65.5 -176t175.5 -67zM259 373q4 22 -18 22h-56l10 60h56q21 0 25 22l13 68h66l-69 -389h-66zM471 208q29 0 51.5 21.5t34.5 53.5t17.5 62t5.5 54 q0 94 -61 94q-28 0 -50 -20.5t-33.5 -51.5t-17.5 -61.5t-6 -56.5q0 -95 59 -95z" glyph-name="uni2789" horiz-adv-x="774" unicode="➉"/><glyph d="M350 -15q-138 0 -224 81.5t-86 220.5q0 109 52.5 206.5t150 159.5t216.5 62q139 0 224.5 -82t85.5 -221q0 -81 -31 -158t-85 -136.5t-133.5 -96t-169.5 -36.5zM365 156h66l69 389h-66l-13 -68q-4 -22 -25 -22h-80l-10 -60h80q21 0 18 -22z" glyph-name="uni278A" horiz-adv-x="774" unicode="➊"/><glyph d="M350 -15q-138 0 -224 81.5t-86 220.5q0 109 52.5 206.5t150 159.5t216.5 62q139 0 224.5 -82t85.5 -221q0 -81 -31 -158t-85 -136.5t-133.5 -96t-169.5 -36.5zM231 159h280l11 60h-202q20 38 62 62l81 44q96 52 96 130q0 46 -31.5 73.5t-84.5 27.5q-63 0 -103.5 -38.5 t-51.5 -104.5h67q14 83 84 83q53 0 53 -46q0 -41 -65 -77l-74 -40q-59 -33 -85 -73t-37 -101z" glyph-name="uni278B" horiz-adv-x="774" unicode="➋"/><glyph d="M350 -15q-138 0 -224 81.5t-86 220.5q0 109 52.5 206.5t150 159.5t216.5 62q139 0 224.5 -82t85.5 -221q0 -81 -31 -158t-85 -136.5t-133.5 -96t-169.5 -36.5zM380 144q70 0 114 36t44 92q0 67 -61 86q79 23 79 95q0 45 -32.5 70.5t-87.5 25.5q-65 0 -104 -34t-50 -97h66 q13 71 81 71q59 0 59 -47q0 -28 -21 -45.5t-54 -17.5h-36l-10 -59h36q68 0 68 -51q0 -30 -24.5 -48t-62.5 -18q-76 0 -68 78h-66q-9 -66 27 -101.5t103 -35.5z" glyph-name="uni278C" horiz-adv-x="774" unicode="➌"/><glyph d="M350 -15q-138 0 -224 81.5t-86 220.5q0 109 52.5 206.5t150 159.5t216.5 62q139 0 224.5 -82t85.5 -221q0 -81 -31 -158t-85 -136.5t-133.5 -96t-169.5 -36.5zM378 156h66l16 89h60l11 60h-60l42 240h-72l-196 -240l-11 -60h160zM311 305l123 152l-22 -130 q-4 -22 -26 -22h-75z" glyph-name="uni278D" horiz-adv-x="774" unicode="➍"/><glyph d="M350 -15q-138 0 -224 81.5t-86 220.5q0 109 52.5 206.5t150 159.5t216.5 62q139 0 224.5 -82t85.5 -221q0 -81 -31 -158t-85 -136.5t-133.5 -96t-169.5 -36.5zM379 144q71 0 115 46t44 110q0 52 -30.5 82.5t-80.5 30.5q-47 0 -77 -28l27 96h176l10 60h-235l-61 -223h65 q29 38 78 38q29 0 45 -16t16 -44q0 -38 -25 -65.5t-65 -27.5q-33 0 -50 19.5t-11 53.5h-66q-10 -59 26.5 -95.5t98.5 -36.5z" glyph-name="uni278E" horiz-adv-x="774" unicode="➎"/><glyph d="M350 -15q-138 0 -224 81.5t-86 220.5q0 109 52.5 206.5t150 159.5t216.5 62q139 0 224.5 -82t85.5 -221q0 -81 -31 -158t-85 -136.5t-133.5 -96t-169.5 -36.5zM382 148q66 0 107 41.5t41 99.5q0 54 -35.5 83.5t-84.5 29.5q-31 0 -58 -13.5t-38 -34.5q8 66 38.5 102.5 t75.5 36.5q28 0 44 -14t17 -37h63q0 50 -32.5 80.5t-86.5 30.5q-63 0 -106.5 -42.5t-60.5 -97t-17 -111.5q0 -83 38 -118.5t95 -35.5zM382 207q-30 0 -48.5 16.5t-18.5 45.5q0 32 22 54t59 22q31 0 49 -16t18 -45q0 -32 -22 -54.5t-59 -22.5z" glyph-name="uni278F" horiz-adv-x="774" unicode="➏"/><glyph d="M351 -15q-139 0 -225 81.5t-86 220.5q0 109 52 206.5t149.5 159.5t216.5 62q139 0 225 -82t86 -221q0 -108 -52 -205.5t-149.5 -159.5t-216.5 -62zM285 156h75l218 332l11 57h-288l-11 -60h212z" glyph-name="uni2790" horiz-adv-x="774" unicode="➐"/><glyph d="M350 -15q-138 0 -224 81.5t-86 220.5q0 109 52.5 206.5t150 159.5t216.5 62q139 0 224.5 -82t85.5 -221q0 -81 -31 -158t-85 -136.5t-133.5 -96t-169.5 -36.5zM382 148q70 0 116.5 37t46.5 95q0 67 -63 89q77 27 77 93q0 43 -34 67t-87 24q-62 0 -102.5 -30.5 t-40.5 -78.5q0 -51 45 -74q-44 -13 -70.5 -43t-26.5 -71q0 -50 38.5 -79t100.5 -29zM383 207q-34 0 -53.5 14.5t-19.5 40.5q0 32 28.5 51.5t67.5 19.5q34 0 53.5 -14.5t19.5 -40.5q0 -31 -28 -51t-68 -20zM417 392q-27 0 -43 12.5t-16 33.5q0 25 22 41t54 16q26 0 42 -12 t16 -33q0 -26 -21.5 -42t-53.5 -16z" glyph-name="uni2791" horiz-adv-x="774" unicode="➑"/><glyph d="M350 -15q-138 0 -224 81.5t-86 220.5q0 109 52.5 206.5t150 159.5t216.5 62q139 0 224.5 -82t85.5 -221q0 -81 -31 -158t-85 -136.5t-133.5 -96t-169.5 -36.5zM376 148q62 0 106 42.5t61 97t17 111.5q0 83 -38 118.5t-95 35.5q-66 0 -107 -41.5t-41 -99.5q0 -54 35 -83.5 t84 -29.5q32 0 58.5 13.5t38.5 34.5q-8 -66 -39 -102.5t-75 -36.5q-28 0 -44 14t-17 37h-63q0 -50 32.5 -80.5t86.5 -30.5zM413 356q-31 0 -49 16t-18 45q0 32 22 54.5t59 22.5q30 0 48 -16.5t18 -45.5q0 -32 -21.5 -54t-58.5 -22z" glyph-name="uni2792" horiz-adv-x="774" unicode="➒"/><glyph d="M350 -15q-138 0 -224 81.5t-86 220.5q0 109 52.5 206.5t150 159.5t216.5 62q139 0 224.5 -82t85.5 -221q0 -81 -31 -158t-85 -136.5t-133.5 -96t-169.5 -36.5zM217 156h66l69 389h-66l-12 -68q-4 -22 -25 -22h-56l-11 -60h56q22 0 18 -22zM472 148q81 0 128.5 79 t47.5 171q0 75 -33.5 115t-90.5 40q-60 0 -102 -44.5t-57.5 -98.5t-15.5 -108q0 -73 33.5 -113.5t89.5 -40.5zM475 208q-60 0 -60 91q0 39 9.5 81t35 77.5t62.5 35.5q61 0 61 -89q0 -39 -10 -81.5t-35.5 -78.5t-62.5 -36z" glyph-name="uni2793" horiz-adv-x="774" unicode="➓"/><glyph d="M219 -80l-175 430l326 430h4l175 -430l-326 -430h-4zM221 104q7 -21 22.5 -21t31.5 21l153 211h-283zM164 385h284l-78 211q-8 21 -23 21t-31 -21z" glyph-name="uni27E0" horiz-adv-x="558" unicode="⟠"/><glyph d="M219 -80l-175 430l326 430h4l175 -430l-326 -430h-4z" glyph-name="uni29EB" horiz-adv-x="558" unicode="⧫"/><glyph d="M373 -15q-138 0 -224 81.5t-86 220.5q0 81 31 158.5t85 137t133.5 96t169.5 36.5q138 0 224 -82t86 -221q0 -81 -31 -158t-85 -136.5t-133.5 -96t-169.5 -36.5z" glyph-name="uni2B24" horiz-adv-x="820" unicode="⬤"/><glyph d="M211 -80l-175 430l326 430h4l175 -430l-326 -430h-4zM213 104q7 -21 22.5 -21t31.5 21l184 252l-89 240q-8 21 -23 21t-31 -21l-183 -252z" glyph-name="uni2B28" horiz-adv-x="542" unicode="⬨"/><glyph d="M226 388q8 38 -31 38h-128l13 76h128q40 0 45 38l28 160h86l-137 -780h-86z" glyph-name="uni2E36" horiz-adv-x="360" unicode="⸶"/><glyph d="M14 -80l137 780h86l-28 -160q-6 -38 31 -38h128l-13 -76h-128q-39 0 -45 -38l-82 -468h-86z" glyph-name="uni2E37" horiz-adv-x="360" unicode="⸷"/><glyph d="M172 80q8 38 -31 38h-129l14 76h128q39 0 45 38l82 468h86l-82 -468q-8 -38 32 -38h128l-14 -76h-128q-37 0 -45 -38l-28 -160h-86z" glyph-name="uni2E38" horiz-adv-x="491" unicode="⸸"/><glyph d="M50 -80l138 780h224q-100 -84 -159 -228.5t-59 -288.5q0 -167 80 -263h-224z" glyph-name="uni3010" horiz-adv-x="387" unicode="【"/><glyph d="M-4 -80q100 84 159 228.5t59 288.5q0 167 -80 263h224l-138 -780h-224z" glyph-name="uni3011" horiz-adv-x="387" unicode="】"/><glyph d="M187 445q7 0 25.5 6t29.5 6q31 0 55 -29q-30 -22 -30 -59q0 -21 11 -37t28 -21q-4 -11 -12 -26.5t-23.5 -33t-30.5 -17.5q-8 0 -24 5.5t-25 5.5t-25.5 -6t-23.5 -6q-29 0 -53.5 47t-24.5 86q0 37 18.5 63t50.5 26q10 0 29.5 -5t24.5 -5zM240 522q0 -28 -16.5 -49 t-40.5 -21q0 28 16.5 49t40.5 21z" glyph-name="uniF8FF" horiz-adv-x="342" unicode=""/><glyph d="M37 177q23 0 40 14t21 40l38 219q21 115 103.5 190t197.5 75q116 0 180 -75t44 -190l-38 -219q-9 -54 42 -54l-12 -68q-55 0 -81 34t-16 92l37 215q16 87 -29 144t-130 57t-149.5 -56.5t-80.5 -144.5l-40 -227q-9 -52 -46.5 -83t-92.5 -31zM113 0q-31 0 -57 20t-43 20 l12 69q29 0 54 -20t39 -20q15 0 48 20t65 20t57.5 -20t39.5 -20q15 0 47.5 20t64.5 20q31 0 57 -20t41 -20q14 0 47.5 20t67.5 20l-12 -69q-12 0 -44 -20t-64 -20t-58 20t-40 20q-15 0 -47.5 -20t-64.5 -20t-57.5 20t-39.5 20q-15 0 -48 -20t-65 -20zM306 388 q-16 0 -25.5 9.5t-9.5 24.5q0 20 15 34.5t35 14.5q15 0 25 -9t10 -24q0 -20 -14.5 -35t-35.5 -15zM477 388q-16 0 -26 9.5t-10 24.5q0 20 15 34.5t35 14.5q16 0 26 -9t10 -24q0 -20 -14.5 -35t-35.5 -15z" glyph-name="u1F47B" horiz-adv-x="728" unicode="👻"/><glyph d="M402 507l98 184l2 -206l83 66l-42 -77l208 68l-141 -147l102 -34l-116 -27l142 -143l-191 34l40 -110l-157 82l-25 -92l-24 84l-179 -125l72 169l-101 -30l84 74l-197 60l215 60l-65 66l89 -22l-72 204z" glyph-name="u1F4A5" horiz-adv-x="793" unicode="💥"/><glyph d="M354 -15q-139 0 -226 82t-87 221q0 108 52.5 205.5t151 159.5t217.5 62q139 0 225.5 -82t86.5 -220q0 -81 -31.5 -158t-86 -137t-134 -96.5t-168.5 -36.5zM354 49q96 0 177.5 51.5t127 134t45.5 173.5q0 109 -66.5 176t-177.5 67q-145 0 -246.5 -109t-101.5 -250 q0 -109 66 -176t176 -67zM373 170q-67 0 -101 41t-28 107h322q-18 -67 -72 -107.5t-121 -40.5zM328 389q-16 0 -25.5 9t-9.5 24q0 20 15 35t35 15q15 0 25 -9.5t10 -24.5q0 -20 -14.5 -34.5t-35.5 -14.5zM507 389q-16 0 -26 9t-10 24q0 20 15 35t35 15q16 0 26 -9.5 t10 -24.5q0 -20 -14.5 -34.5t-35.5 -14.5z" glyph-name="u1F600" horiz-adv-x="780" unicode="😀"/><glyph d="M354 -15q-139 0 -226 82t-87 221q0 108 52.5 205.5t151 159.5t217.5 62q139 0 225.5 -82t86.5 -220q0 -81 -31.5 -158t-86 -137t-134 -96.5t-168.5 -36.5zM354 49q96 0 177.5 51.5t127 134t45.5 173.5q0 109 -66.5 176t-177.5 67q-145 0 -246.5 -109t-101.5 -250 q0 -109 66 -176t176 -67zM373 170q-67 0 -101 41t-28 107h65q-5 -41 14 -65t59 -24q42 0 75.5 24.5t42.5 64.5h66q-10 -39 -35 -70l14 -18q22 -26 -8 -50l-4 -3q-31 -24 -51 1l-13 16q-46 -24 -96 -24zM328 389q-16 0 -25.5 9t-9.5 24q0 20 15 35t35 15q15 0 25 -9.5 t10 -24.5q0 -20 -14.5 -34.5t-35.5 -14.5zM507 389q-16 0 -26 9t-10 24q0 20 15 35t35 15q16 0 26 -9.5t10 -24.5q0 -20 -14.5 -34.5t-35.5 -14.5z" glyph-name="u1F60B" horiz-adv-x="780" unicode="😋"/><glyph d="M354 -15q-139 0 -226 82t-87 221q0 108 52.5 205.5t151 159.5t217.5 62q139 0 225.5 -82t86.5 -220q0 -81 -31.5 -158t-86 -137t-134 -96.5t-168.5 -36.5zM354 49q96 0 177.5 51.5t127 134t45.5 173.5q0 109 -66.5 176t-177.5 67q-145 0 -246.5 -109t-101.5 -250 q0 -109 66 -176t176 -67zM373 170q-67 0 -101 41t-28 107h65q-5 -41 14 -65t59 -24q42 0 75.5 24.5t42.5 64.5h66q-18 -67 -72 -107.5t-121 -40.5zM319 373q-46 0 -63 13.5t-15 52.5h-18l7 40h406l-7 -40h-18q-11 -38 -33.5 -52t-67.5 -14q-46 0 -63 13.5t-15 52.5h-12 q-11 -39 -33 -52.5t-68 -13.5z" glyph-name="u1F60E" horiz-adv-x="780" unicode="😎"/><glyph d="M354 -15q-139 0 -226 82t-87 221q0 108 52.5 205.5t151 159.5t217.5 62q139 0 225.5 -82t86.5 -220q0 -81 -31.5 -158t-86 -137t-134 -96.5t-168.5 -36.5zM354 49q96 0 177.5 51.5t127 134t45.5 173.5q0 109 -66.5 176t-177.5 67q-145 0 -246.5 -109t-101.5 -250 q0 -109 66 -176t176 -67zM328 389q-16 0 -25.5 9t-9.5 24q0 20 15 35t35 15q15 0 25 -9.5t10 -24.5q0 -20 -14.5 -34.5t-35.5 -14.5zM507 389q-16 0 -26 9t-10 24q0 20 15 35t35 15q16 0 26 -9.5t10 -24.5q0 -20 -14.5 -34.5t-35.5 -14.5zM236 253l11 61h322l-11 -61h-322z " glyph-name="u1F610" horiz-adv-x="780" unicode="😐"/><glyph d="M354 -15q-139 0 -226 82t-87 221q0 108 52.5 205.5t151 159.5t217.5 62q139 0 225.5 -82t86.5 -220q0 -81 -31.5 -158t-86 -137t-134 -96.5t-168.5 -36.5zM354 49q96 0 177.5 51.5t127 134t45.5 173.5q0 109 -66.5 176t-177.5 67q-145 0 -246.5 -109t-101.5 -250 q0 -109 66 -176t176 -67zM373 170q-67 0 -101 41t-28 107h65q-5 -41 14 -65t59 -24q42 0 75.5 24.5t42.5 64.5h66q-18 -67 -72 -107.5t-121 -40.5zM328 389q-16 0 -25.5 9t-9.5 24q0 20 15 35t35 15q15 0 25 -9.5t10 -24.5q0 -20 -14.5 -34.5t-35.5 -14.5zM507 389 q-16 0 -26 9t-10 24q0 20 15 35t35 15q16 0 26 -9.5t10 -24.5q0 -20 -14.5 -34.5t-35.5 -14.5z" glyph-name="u1F642" horiz-adv-x="780" unicode="🙂"/><glyph d="M352 -15q-139 0 -225 82.5t-86 219.5q0 109 52.5 206.5t150.5 159.5t217 62q139 0 226 -82t87 -221q0 -108 -53 -205.5t-151.5 -159.5t-217.5 -62zM354 49q145 0 247 109t102 250q0 109 -66.5 176t-176.5 67q-145 0 -247 -109t-102 -250q0 -109 66.5 -176t176.5 -67z M293 228q-15 0 -25 9.5t-10 24.5q0 20 14.5 34.5t35.5 14.5q16 0 25.5 -9t9.5 -24q0 -20 -15 -35t-35 -15zM472 228q-16 0 -25.5 9.5t-9.5 24.5q0 20 14 34.5t35 14.5q16 0 26 -9t10 -24q0 -20 -15 -35t-35 -15zM249 382q18 67 72 107.5t121 40.5t101 -41t28 -107h-65 q5 41 -14 65t-60 24q-42 0 -75 -24.5t-43 -64.5h-65z" glyph-name="u1F643" horiz-adv-x="780" unicode="🙃"/><glyph d="M134 -15q-24 0 -92 22q-24 7 -37.5 26t-13.5 43q0 33 21 60t58 42l15 6q22 9 22 25q0 7 -7 13q-33 28 -33 67q0 43 29.5 77t75.5 45q10 2 15 9.5t0 16.5q-15 27 -15 61q0 58 37 110q7 10 3 20q-4 8 -4 22q0 27 20 46t48 19q22 0 37 -15q12 -12 22 -12q5 0 15.5 0.5 t15.5 0.5t15.5 -0.5t15.5 -0.5q10 0 26 12q20 15 41 15q23 0 36.5 -12t13.5 -32q0 -23 -16 -43q-8 -10 -4 -20q9 -24 9 -50q0 -68 -48 -121q-7 -7 -5.5 -15t12.5 -11q30 -7 49 -29t19 -55q0 -64 -64 -105q-12 -7 -12 -21q0 -11 15 -17l13 -6q48 -22 48 -70q0 -34 -23 -62.5 t-58 -38.5q-76 -22 -99 -22q-24 0 -36.5 7t-28.5 28q-15 19 -34 19t-40 -19q-24 -21 -39 -28t-38 -7zM323 445l49 13l-2 11l-38 -10l8 47l23 17l-1 11h-48l-5 -11l17 -17l-8 -47l-34 10l-6 -11zM282 553q6 0 10.5 4.5t4.5 10.5q0 10 -11 10q-14 0 -14 -15q0 -10 10 -10z M402 553q5 0 9.5 4.5t4.5 10.5q0 10 -10 10q-15 0 -15 -15q0 -10 11 -10z" glyph-name="u1F9F8" horiz-adv-x="576" unicode="🧸"/><glyph d="M368 218l86 482h91l-86 -491q-19 -110 -90 -167t-168 -57q-104 0 -155.5 63t-33.5 172l11 60h91l-11 -63q-26 -149 108 -149q130 0 157 150zM462 758l112 180h103l-138 -180h-77z" glyph-name="glyph556" horiz-adv-x="513"/><glyph d="M12 0l123 700h91l-102 -577q-6 -40 34 -40h324l-14 -83h-456zM104 -238l112 180h103l-138 -180h-77z" glyph-name="uni013B.locl" horiz-adv-x="532"/><glyph d="M482 0l-277 590l-104 -590h-89l123 700h109l268 -566l99 566h89l-123 -700h-95zM158 -238l112 180h103l-138 -180h-77z" glyph-name="uni0145.locl" horiz-adv-x="678"/><glyph d="M12 0l88 502h86l-89 -502h-85zM163 612q-21 0 -34 12t-13 31q0 25 19.5 44.5t45.5 19.5q21 0 34 -12.5t13 -31.5q0 -25 -19.5 -44t-45.5 -19z" glyph-name="i.locl" horiz-adv-x="198"/><glyph d="M-112 -200l13 76h58q32 0 37 30l104 596h86l-99 -559q-12 -67 -56.5 -105t-118.5 -38h-24zM106 560l112 180h103l-138 -180h-77z" glyph-name="glyph560" horiz-adv-x="198"/><glyph d="M112 566q11 63 53.5 98.5t113.5 35.5h51l-13 -75h-80q-30 0 -35 -30l-16 -93h98l-13 -75h-97l-76 -427h-85z" glyph-name="glyph561" horiz-adv-x="270"/><glyph d="M163 0q-75 0 -106.5 37.5t-19.5 105.5l91 517h84l-27 -158h102l-13 -76h-101l-57 -320q-3 -16 2.5 -23t22.5 -7h84l-13 -76h-49z" glyph-name="glyph562" horiz-adv-x="275"/><glyph d="M163 0q-74 0 -105.5 37.5t-20.5 105.5l91 517h84l-27 -158h102l-13 -76h-101l-23 -129h101l-13 -71h-101l-21 -120q-3 -16 2.5 -23t22.5 -7h84l-13 -76h-49z" glyph-name="glyph563" horiz-adv-x="275"/><glyph d="M163 0q-75 0 -106.5 37.5t-19.5 105.5l91 517h84l-27 -158h102l-13 -76h-101l-57 -320q-3 -16 2.5 -23t22.5 -7h84l-13 -76h-49zM339 514l40 226h84l-61 -226h-63z" glyph-name="glyph564" horiz-adv-x="408"/><glyph d="M163 0q-19 0 -37 3l-22 -47h9q34 0 55 -17.5t21 -48.5q0 -41 -30.5 -65.5t-79.5 -24.5h-122l27 57h92q42 0 42 31q0 25 -32 25h-74l56 113q-45 37 -31 117l91 517h84l-27 -158h102l-13 -76h-101l-57 -320q-3 -16 2.5 -23t22.5 -7h84l-13 -76h-49z" glyph-name="glyph565" horiz-adv-x="275"/><glyph d="M163 0q-75 0 -106.5 37.5t-19.5 105.5l91 517h84l-27 -158h102l-13 -76h-101l-57 -320q-3 -16 2.5 -23t22.5 -7h84l-13 -76h-49zM-48 -238l112 180h103l-138 -180h-77z" glyph-name="glyph566" horiz-adv-x="275"/><glyph d="M163 0q-75 0 -106.5 37.5t-19.5 105.5l91 517h84l-27 -158h102l-13 -76h-101l-57 -320q-3 -16 2.5 -23t22.5 -7h84l-13 -76h-49zM49 -217q-21 0 -34 12.5t-13 31.5q0 26 19.5 44.5t46.5 18.5q21 0 33.5 -12t12.5 -31q0 -26 -19.5 -45t-45.5 -19z" glyph-name="glyph567" horiz-adv-x="275"/><glyph d="M105 0q-45 0 -64.5 25t-11.5 71l106 604h86l-111 -624h45l-13 -76h-37zM-59 -238l112 180h103l-138 -180h-77z" glyph-name="uni013C.locl" horiz-adv-x="208"/><glyph d="M413 308q24 133 -93 133q-68 0 -115 -48.5t-64 -147.5l-44 -245h-85l88 502h79l-15 -83q60 98 176 98q88 0 131.5 -54t27.5 -145l-56 -318h-85zM91 -238l112 180h103l-138 -180h-77z" glyph-name="uni0146.locl" horiz-adv-x="533"/><glyph d="M242 -15q-95 0 -148 64.5t-53 190.5q0 44 6.5 93t20.5 103.5t39 103.5t58 88.5t81 63t105 23.5q95 0 147.5 -64.5t52.5 -191.5q0 -54 -9 -114t-32 -125.5t-57 -116.5t-89 -84.5t-122 -33.5zM247 61q57 0 101.5 44.5t67.5 111.5t34.5 131.5t11.5 118.5q0 83 -29.5 127.5 t-86.5 44.5q-56 0 -100.5 -44t-68 -110t-35.5 -131t-12 -120q0 -173 117 -173z" glyph-name="zero.pnum" horiz-adv-x="557"/><glyph d="M61 484l14 76h145q40 0 48 40l17 100h85l-123 -700h-85l78 444q8 40 -34 40h-145z" glyph-name="one.pnum" horiz-adv-x="357"/><glyph d="M327 360q65 39 99 80t34 94q0 49 -29 77t-83 28q-65 0 -109 -42t-59 -123h-90q20 116 88.5 178.5t173.5 62.5q94 0 145 -47.5t51 -128.5q0 -74 -45.5 -134t-142.5 -117l-115 -69q-103 -61 -141 -143h373l-12 -76h-477q18 98 71.5 166t151.5 126z" glyph-name="two.pnum" horiz-adv-x="546"/><glyph d="M293 398q78 0 119 40t41 99q0 49 -29.5 75.5t-83.5 26.5q-65 0 -108 -40.5t-58 -120.5h-88q19 113 88 175t173 62q88 0 141.5 -45t53.5 -123q0 -63 -35.5 -108t-97.5 -67q100 -44 100 -157q0 -95 -69 -162.5t-189 -67.5q-115 0 -179.5 64t-44.5 176h88q-14 -80 25 -122 t111 -42q76 0 122.5 42.5t46.5 106.5q0 35 -14.5 59t-38.5 35t-45.5 15.5t-45.5 4.5h-47l13 71l1 3h50z" glyph-name="three.pnum" horiz-adv-x="555"/><glyph d="M120 268h181q39 0 47 40l49 278zM18 192l14 76l376 432h93l-75 -432h122l-14 -76h-122l-34 -192h-85l33 192h-308z" glyph-name="four.pnum" horiz-adv-x="565"/><glyph d="M119 223q-10 -79 27.5 -120.5t105.5 -41.5q84 0 133 58.5t49 140.5q0 67 -35 101.5t-98 34.5q-85 0 -139 -66h-84l105 370h385l-12 -76h-312l-60 -209q52 55 140 55q90 0 145 -54t55 -151q0 -115 -74.5 -197.5t-198.5 -82.5q-107 0 -171 64t-48 174h87z" glyph-name="five.pnum" horiz-adv-x="558"/><glyph d="M258 -15q-99 0 -158.5 64.5t-58.5 202.5q1 59 12 120t36 123t61.5 110.5t92 79t122.5 30.5q94 0 145 -54.5t49 -137.5h-84q0 51 -29 83.5t-86 32.5q-84 0 -143 -74t-84 -214h4q58 101 177 101q91 0 146.5 -55t56.5 -145q1 -105 -70 -186t-189 -81zM259 61 q78 0 123.5 54.5t45.5 128.5q0 62 -34.5 98t-93.5 36q-79 0 -127.5 -58t-45.5 -134q2 -58 36.5 -91.5t95.5 -33.5z" glyph-name="six.pnum" horiz-adv-x="554"/><glyph d="M70 0l410 624h-394l13 76h492l-13 -72l-412 -628h-96z" glyph-name="seven.pnum" horiz-adv-x="541"/><glyph d="M256 -15q-104 0 -166.5 50.5t-62.5 140.5q0 76 45 134.5t126 81.5q-79 42 -79 130q0 81 66.5 137t163.5 56q86 0 141.5 -44.5t55.5 -119.5q0 -58 -34 -103t-95 -66q104 -48 104 -164q0 -97 -71 -165t-194 -68zM261 61q79 0 126 43t47 112q0 60 -37 93t-105 33 q-80 0 -129 -44t-49 -112q0 -60 39.5 -92.5t107.5 -32.5zM320 409q62 0 100.5 37t38.5 92q0 47 -30.5 75.5t-84.5 28.5q-63 0 -101.5 -37t-38.5 -90q0 -48 31.5 -77t84.5 -29z" glyph-name="eight.pnum" horiz-adv-x="568"/><glyph d="M223 -15q-93 0 -144.5 54.5t-49.5 137.5h84q0 -51 29 -83.5t86 -32.5q84 0 143 74t84 214h-4q-58 -101 -177 -101q-90 0 -146 55t-57 145q-1 105 70 186t189 81q99 0 159 -64.5t58 -202.5q-1 -59 -12 -120t-36 -123t-61.5 -110.5t-92 -79t-122.5 -30.5zM288 322 q79 0 127.5 58t46.5 134q-2 58 -37 91.5t-95 33.5q-79 0 -124.5 -54.5t-45.5 -128.5q0 -62 34.5 -98t93.5 -36z" glyph-name="nine.pnum" horiz-adv-x="553"/><glyph d="M239 -15q-94 0 -146.5 64.5t-52.5 190.5q0 54 9 113.5t31.5 125t56.5 117t89 85.5t123 34q95 0 146.5 -64.5t51.5 -191.5q0 -45 -6.5 -94t-20.5 -103.5t-38.5 -103t-57 -88t-80.5 -62.5t-105 -23zM244 61q57 0 101.5 44.5t67.5 111.5t34.5 131.5t11.5 118.5 q0 172 -115 172q-56 0 -100.5 -44t-68 -110t-35.5 -131.5t-12 -120.5q0 -83 29.5 -127.5t86.5 -44.5z" glyph-name="zero.tnum" horiz-adv-x="552"/><glyph d="M14 0l14 76h161q39 0 47 40l58 328q8 40 -33 40h-132l14 76h131q40 0 48 40l17 100h86l-110 -624h147l-13 -76h-435z" glyph-name="one.tnum" horiz-adv-x="552"/><glyph d="M323 360q65 39 99 80t34 94q0 49 -29 77t-83 28q-65 0 -109 -42t-59 -123h-90q20 116 88.5 178.5t173.5 62.5q94 0 145 -47.5t51 -128.5q0 -74 -45.5 -134t-142.5 -117l-115 -69q-103 -61 -141 -143h373l-12 -76h-477q18 98 71.5 166t151.5 126z" glyph-name="two.tnum" horiz-adv-x="552"/><glyph d="M289 398q78 0 119 40t41 99q0 49 -29.5 75.5t-83.5 26.5q-65 0 -108 -40.5t-58 -120.5h-88q19 113 88 175t173 62q88 0 141.5 -45t53.5 -123q0 -63 -35.5 -108t-97.5 -67q100 -44 100 -157q0 -95 -69 -162.5t-189 -67.5q-115 0 -179.5 64t-44.5 176h88q-14 -80 25 -122 t111 -42q76 0 122.5 42.5t46.5 106.5q0 35 -14.5 59t-38.5 35t-45.5 15.5t-45.5 4.5h-47l13 71l1 3h50z" glyph-name="three.tnum" horiz-adv-x="552"/><glyph d="M117 268h181q39 0 47 40l49 278zM16 192l13 76l376 432h93l-75 -432h122l-13 -76h-123l-34 -192h-85l33 192h-307z" glyph-name="four.tnum" horiz-adv-x="552"/><glyph d="M120 223q-11 -79 26.5 -120.5t105.5 -41.5q84 0 133.5 58.5t49.5 140.5q0 67 -35.5 101.5t-97.5 34.5q-87 0 -139 -66h-85l106 370h385l-13 -76h-311l-60 -208q52 54 140 54q89 0 144 -54t55 -151q0 -115 -74 -197.5t-198 -82.5q-108 0 -172 64t-48 174h88z" glyph-name="five.tnum" horiz-adv-x="552"/><glyph d="M264 -15q-99 0 -158 64.5t-58 202.5q1 59 12 120t36 123t61.5 110.5t92 79t122.5 30.5q93 0 144.5 -54.5t49.5 -137.5h-85q0 51 -29 83.5t-86 32.5q-84 0 -143 -74t-84 -214h4q58 101 177 101q91 0 146.5 -55t56.5 -145q2 -105 -69.5 -186t-189.5 -81zM265 61 q78 0 123.5 54.5t45.5 128.5q0 62 -34.5 98t-93.5 36q-78 0 -126.5 -58t-46.5 -134q2 -58 36.5 -91.5t95.5 -33.5z" glyph-name="six.tnum" horiz-adv-x="552"/><glyph d="M79 0l410 624h-393l12 76h492l-12 -72l-412 -628h-97z" glyph-name="seven.tnum" horiz-adv-x="552"/><glyph d="M247 -15q-104 0 -166.5 50.5t-62.5 140.5q0 76 45.5 134.5t125.5 81.5q-78 41 -78 130q0 81 66 137t164 56q86 0 141 -44.5t55 -119.5q0 -58 -34 -103t-94 -66q104 -46 104 -164q0 -97 -71.5 -165t-194.5 -68zM252 61q80 0 126.5 43t46.5 112q0 60 -37 93t-105 33 q-80 0 -128.5 -44t-48.5 -112q0 -60 39.5 -92.5t106.5 -32.5zM311 409q62 0 101 37t39 92q0 47 -31 75.5t-84 28.5q-63 0 -102 -37t-39 -90q0 -48 31.5 -77t84.5 -29z" glyph-name="eight.tnum" horiz-adv-x="552"/><glyph d="M215 -15q-94 0 -145 54.5t-49 137.5h84q0 -51 29 -83.5t86 -32.5q84 0 143 74t84 214h-4q-58 -101 -177 -101q-90 0 -146 55t-57 145q-1 105 70 186t189 81q99 0 159 -64.5t58 -202.5q-1 -59 -12 -120t-36 -123t-61.5 -110.5t-92 -79t-122.5 -30.5zM280 322 q79 0 127.5 58t46.5 134q-2 58 -37 91.5t-95 33.5q-79 0 -124.5 -54.5t-45.5 -128.5q0 -62 34.5 -98t93.5 -36z" glyph-name="nine.tnum" horiz-adv-x="552"/><glyph d="M141 -8q-60 0 -94 35.5t-34 107.5q0 36 9 73t28 74t56 60t87 23q59 0 93 -36t34 -109q0 -36 -9 -73t-28 -73t-56 -59t-86 -23zM145 53q27 0 47.5 18.5t31 46.5t15.5 55.5t5 52.5q0 78 -56 78q-35 0 -58.5 -32.5t-32 -69.5t-8.5 -72q0 -77 56 -77z" glyph-name="zero.dnom" horiz-adv-x="360"/><glyph d="M18 225l12 61h81q22 0 26 20l9 51h73l-63 -357h-73l36 204q3 21 -19 21h-82z" glyph-name="one.dnom" horiz-adv-x="244"/><glyph d="M171 196q60 34 60 68q0 40 -51 40q-63 0 -74 -68h-74q10 63 51 96t104 33q56 0 87 -25.5t31 -69.5q0 -71 -99 -125l-67 -37q-38 -21 -56 -47h189l-11 -61h-280q18 102 119 156z" glyph-name="two.dnom" horiz-adv-x="334"/><glyph d="M156 213q32 0 50.5 14.5t18.5 36.5q0 40 -51 40q-58 0 -69 -60h-73q10 58 49.5 89.5t101.5 31.5q54 0 85.5 -23.5t31.5 -64.5q0 -59 -64 -85q50 -23 50 -77q0 -53 -41.5 -88t-111.5 -35q-67 0 -104.5 33t-26.5 92h73q-5 -30 12 -47t50 -17t53.5 16t20.5 41q0 45 -67 45 h-27l4 23l6 35h29z" glyph-name="three.dnom" horiz-adv-x="340"/><glyph d="M78 148h77q23 0 27 20l19 111zM-3 87l12 61l197 209h79l-36 -209h64l-11 -61h-65l-14 -87h-73l15 87h-168z" glyph-name="four.dnom" horiz-adv-x="355"/><glyph d="M78 114q-3 -29 14 -45t48 -16q36 0 57 21.5t21 50.5q0 58 -62 58q-37 0 -63 -26h-71l57 200h235l-10 -61h-174l-23 -80q29 24 73 24q51 0 82 -28.5t31 -80.5q0 -58 -41 -98.5t-114 -40.5q-63 0 -102 32t-32 90h74z" glyph-name="five.dnom" horiz-adv-x="343"/><glyph d="M141 -8q-57 0 -94 34t-37 108q0 40 10.5 79t31.5 74t58 56.5t83 21.5q55 0 86 -27.5t31 -73.5h-71q-2 41 -51 41q-39 0 -67 -31t-36 -87q25 46 92 46q51 0 81.5 -27.5t31.5 -72.5q1 -58 -40.5 -99.5t-108.5 -41.5zM142 53q34 0 54 20.5t20 48.5q0 25 -15.5 39.5 t-43.5 14.5q-34 0 -55 -21.5t-19 -50.5q1 -24 17 -37.5t42 -13.5z" glyph-name="six.dnom" horiz-adv-x="341"/><glyph d="M26 0l204 296h-199l11 61h284l-10 -53l-208 -304h-82z" glyph-name="seven.dnom" horiz-adv-x="334"/><glyph d="M137 -8q-60 0 -98 26.5t-38 73.5q0 37 24 66.5t66 43.5q-41 20 -41 64q0 43 39.5 71t98.5 28q53 0 85 -23t32 -61q0 -58 -65 -84q56 -24 56 -82q0 -52 -43.5 -87.5t-115.5 -35.5zM142 53q36 0 58 16.5t22 42.5q0 50 -66 50q-36 0 -59 -17t-23 -43q0 -23 18.5 -36 t49.5 -13zM172 218q28 0 45.5 14t17.5 35q0 19 -14.5 30t-39.5 11q-28 0 -45.5 -14t-17.5 -35q0 -18 14.5 -29.5t39.5 -11.5z" glyph-name="eight.dnom" horiz-adv-x="350"/><glyph d="M120 -8q-55 0 -86 27.5t-31 73.5h71q1 -18 14 -29.5t37 -11.5q38 0 65 29t37 82q-26 -39 -91 -39q-50 0 -81 27.5t-32 72.5q-1 57 40.5 99t108.5 42q57 0 94 -34t37 -108q0 -55 -17.5 -105.5t-61 -88t-104.5 -37.5zM156 181q35 0 55.5 21.5t18.5 51.5q-1 24 -17 37 t-42 13q-34 0 -54 -20.5t-20 -48.5q0 -25 16 -39.5t43 -14.5z" glyph-name="nine.dnom" horiz-adv-x="338"/><glyph d="M202 337q-60 0 -94 35.5t-34 107.5q0 36 9 73t28 74t56 60t87 23q59 0 93 -36t34 -109q0 -36 -9 -73t-28 -73t-56 -59t-86 -23zM206 398q27 0 47.5 18.5t31 46.5t15.5 55.5t5 52.5q0 78 -56 78q-35 0 -58.5 -32.5t-32 -69.5t-8.5 -72q0 -77 56 -77z" glyph-name="zero.numr" horiz-adv-x="360"/><glyph d="M79 570l12 61h81q23 0 26 20l9 51h73l-63 -357h-73l36 204q3 21 -19 21h-82z" glyph-name="one.numr" horiz-adv-x="244"/><glyph d="M232 541q60 32 60 68q0 40 -51 40q-63 0 -74 -68h-74q10 63 51 96t104 33q56 0 87 -25.5t31 -69.5q0 -71 -99 -125l-67 -37q-38 -21 -56 -47h189l-11 -61h-280q18 102 119 156z" glyph-name="two.numr" horiz-adv-x="334"/><glyph d="M217 558q32 0 50.5 14.5t18.5 36.5q0 40 -51 40q-58 0 -69 -60h-73q10 58 49.5 89.5t101.5 31.5q54 0 85.5 -23.5t31.5 -64.5q0 -59 -64 -85q50 -23 50 -77q0 -53 -41.5 -88t-111.5 -35q-67 0 -104.5 33t-26.5 92h73q-5 -30 11.5 -47t50.5 -17q33 0 53.5 16t20.5 41 q0 45 -67 45h-27l4 23l6 35h29z" glyph-name="three.numr" horiz-adv-x="340"/><glyph d="M139 493h77q23 0 27 20l19 111zM58 432l12 61l197 209h79l-36 -209h64l-11 -61h-65l-14 -87h-73l15 87h-168z" glyph-name="four.numr" horiz-adv-x="355"/><glyph d="M139 459q-3 -29 14 -45t48 -16q36 0 57 21.5t21 50.5q0 58 -62 58q-37 0 -63 -26h-71l57 200h235l-10 -61h-174l-23 -80q29 24 73 24q51 0 82 -28.5t31 -80.5q0 -58 -41 -98.5t-114 -40.5q-63 0 -102 32t-32 90h74z" glyph-name="five.numr" horiz-adv-x="343"/><glyph d="M202 337q-57 0 -94 34t-37 108q0 40 10.5 79t31.5 74t58 56.5t83 21.5q55 0 86 -27.5t31 -73.5h-71q-2 41 -51 41q-39 0 -67 -31t-36 -87q25 46 92 46q51 0 81.5 -27.5t31.5 -72.5q1 -58 -40.5 -99.5t-108.5 -41.5zM203 398q34 0 54 20.5t20 48.5q0 25 -15.5 39.5 t-43.5 14.5q-34 0 -55 -21.5t-19 -50.5q1 -24 17 -37.5t42 -13.5z" glyph-name="six.numr" horiz-adv-x="341"/><glyph d="M87 345l204 296h-199l11 61h284l-10 -53l-208 -304h-82z" glyph-name="seven.numr" horiz-adv-x="334"/><glyph d="M198 337q-60 0 -98 26.5t-38 73.5q0 37 24 66.5t66 43.5q-41 21 -41 64t39.5 71t98.5 28q53 0 85 -23t32 -61q0 -58 -65 -84q56 -24 56 -82q0 -52 -43.5 -87.5t-115.5 -35.5zM203 398q36 0 58 16.5t22 42.5q0 50 -66 50q-36 0 -59 -17t-23 -43q0 -23 18.5 -36t49.5 -13z M233 563q28 0 45.5 14t17.5 35q0 19 -14.5 30t-39.5 11q-28 0 -45.5 -14t-17.5 -35q0 -18 14.5 -29.5t39.5 -11.5z" glyph-name="eight.numr" horiz-adv-x="350"/><glyph d="M181 337q-55 0 -86 27.5t-31 73.5h71q1 -18 14 -29.5t37 -11.5q38 0 65 29t37 82q-26 -39 -91 -39q-50 0 -81 27.5t-32 72.5q-1 57 40.5 99t108.5 42q57 0 94 -34t37 -108q0 -55 -17.5 -105.5t-61 -88t-104.5 -37.5zM217 526q35 0 55.5 21.5t18.5 51.5q-1 24 -17 37 t-42 13q-34 0 -54 -20.5t-20 -48.5q0 -25 16 -39.5t43 -14.5z" glyph-name="nine.numr" horiz-adv-x="338"/><glyph d="M89 474l40 226h84l-61 -226h-63z" glyph-name="glyph610"/><glyph d="M-29 -200l27 57h92q42 0 42 31q0 25 -32 25h-74l50 102l63 -15l-21 -44h9q34 0 55 -17.5t21 -48.5q0 -41 -30.5 -65.5t-79.5 -24.5h-122z" glyph-name="glyph611"/><glyph d="M73 -200q-41 0 -64.5 20.5t-23.5 54.5q0 55 57 101l74 60l52 -36l-72 -59q-34 -27 -34 -54q0 -30 41 -30h40l-11 -57h-59z" glyph-name="glyph612"/><glyph d="M329 566l12 71h308l-12 -71h-308z" glyph-name="glyph613"/><glyph d="M-39 -238l112 180h103l-138 -180h-77z" glyph-name="uni0326.locl"/><glyph d="M99 308l14 78l315 104l-13 -78z" glyph-name="glyph615"/><glyph d="M173 595q-24 0 -38 14.5t-14 37.5q0 31 36 89l66 102h71l-75 -114q-13 -20 2 -35t15 -35q0 -22 -17 -40.5t-46 -18.5z" glyph-name="glyph616" horiz-adv-x="240"/><glyph d="M23 -217q-21 0 -34 12.5t-13 31.5q0 26 19.5 44.5t46.5 18.5q21 0 33.5 -12t12.5 -31q0 -26 -19.5 -45t-45.5 -19z" glyph-name="glyph617" horiz-adv-x="211"/><glyph d="M63 326l13 71h297l-12 -71h-298z" glyph-name="glyph618" horiz-adv-x="398"/></font>
</defs>
</svg>
